M48
; DRILL file {KiCad (6.0.7)} date Fri Oct 21 23:11:52 2022
; FORMAT={-:-/ absolute / metric / decimal}
; #@! TF.CreationDate,2022-10-21T23:11:52-03:00
; #@! TF.GenerationSoftware,Kicad,Pcbnew,(6.0.7)
; #@! TF.FileFunction,MixedPlating,1,2
FMAT,2
METRIC
; #@! TA.AperFunction,Plated,PTH,ComponentDrill
T1C0.400
; #@! TA.AperFunction,Plated,PTH,ComponentDrill
T2C3.500
%
G90
G05
T1
X9.399Y65.67
X9.399Y60.67
X9.399Y55.67
X9.429Y89.73
X9.429Y84.73
X9.429Y79.73
X9.429Y74.73
X9.489Y47.45
X9.489Y42.45
X9.489Y37.45
X17.4Y139.512
X17.4Y127.312
X18.629Y15.33
X18.649Y8.12
X18.963Y93.218
X18.979Y48.81
X18.999Y68.3
X19.059Y36.09
X19.069Y54.75
X19.079Y74.78
X19.471Y119.38
X21.299Y150.26
X23.4Y125.312
X23.535Y30.226
X23.649Y8.12
X26.299Y150.26
X28.649Y8.12
X29.4Y139.512
X29.4Y127.312
X32.909Y87.07
X32.909Y84.53
X32.909Y81.99
X32.909Y79.45
X33.629Y15.43
X33.649Y8.12
X37.4Y139.312
X37.4Y127.112
X38.649Y8.12
X38.729Y30.03
X39.249Y119.48
X40.849Y87.07
X40.849Y84.53
X40.849Y81.99
X40.849Y79.45
X41.219Y150.21
X43.4Y125.112
X43.649Y8.12
X46.219Y150.21
X48.629Y15.33
X48.649Y8.12
X49.4Y139.312
X49.4Y127.112
X53.629Y29.03
X53.649Y8.12
X57.7Y139.312
X57.7Y127.112
X58.649Y8.12
X60.049Y119.53
X60.239Y102.0
X61.329Y150.15
X62.239Y102.0
X63.649Y8.12
X63.7Y125.112
X63.729Y15.23
X66.329Y150.15
X68.649Y8.12
X68.829Y29.13
X69.7Y139.312
X69.7Y127.112
X69.9Y81.775
X69.9Y79.235
X69.9Y76.695
X69.9Y74.155
X69.9Y71.615
X69.9Y69.075
X69.9Y66.535
X69.9Y63.995
X69.9Y61.455
X69.9Y58.915
X69.9Y56.375
X69.9Y53.835
X69.9Y51.295
X69.9Y48.755
X69.9Y46.215
X73.065Y102.82
X73.065Y95.2
X73.649Y8.12
X75.605Y102.82
X75.605Y95.2
X77.9Y139.213
X77.9Y127.012
X78.145Y102.82
X78.145Y95.2
X78.529Y15.13
X78.649Y8.12
X79.669Y119.634
X80.685Y102.82
X80.685Y95.2
X81.489Y150.15
X83.225Y102.82
X83.225Y95.2
X83.529Y28.63
X83.649Y8.12
X83.9Y125.012
X85.765Y102.82
X85.765Y95.2
X86.489Y150.15
X88.305Y102.82
X88.305Y95.2
X88.649Y8.12
X89.9Y139.213
X89.9Y127.012
X90.845Y102.82
X90.845Y95.2
X93.385Y102.82
X93.385Y95.2
X95.899Y81.77
X95.899Y79.23
X95.899Y76.69
X95.899Y74.15
X95.899Y71.61
X95.899Y69.07
X95.899Y66.53
X95.899Y63.99
X95.899Y61.45
X95.899Y58.91
X95.899Y56.37
X95.899Y53.83
X95.899Y51.29
X95.899Y48.75
X95.899Y46.21
X98.3Y139.112
X98.3Y126.912
X99.139Y28.29
X99.139Y26.29
X99.735Y94.996
X100.243Y119.634
X101.469Y150.15
X104.3Y124.912
X105.139Y28.345
X105.139Y26.345
X106.469Y150.15
X108.7Y101.54
X108.7Y99.0
X110.3Y139.112
X110.3Y126.912
X111.24Y101.54
X111.24Y99.0
X111.874Y9.723
X113.78Y101.54
X113.78Y99.0
X114.474Y29.855
X114.474Y24.855
X116.32Y101.54
X116.32Y99.0
X116.874Y9.723
X118.1Y139.1
X118.1Y126.9
X118.277Y43.942
X118.277Y41.402
X118.86Y101.54
X118.86Y99.0
X120.309Y119.634
X120.817Y43.942
X120.817Y41.402
X121.4Y101.54
X121.4Y99.0
X121.639Y150.27
X123.357Y43.942
X123.357Y41.402
X124.1Y124.9
X125.897Y43.942
X125.897Y41.402
X126.639Y150.27
X130.1Y139.1
X130.1Y126.9
X135.519Y10.305
X135.519Y7.765
X138.059Y10.305
X138.059Y7.765
X138.1Y139.1
X138.1Y126.9
X140.121Y119.634
X140.599Y10.305
X140.599Y7.765
X141.559Y150.21
X143.139Y10.305
X143.139Y7.765
X143.339Y22.568
X143.339Y17.568
X144.1Y124.9
X146.2Y105.8
X146.2Y77.1
X146.559Y150.21
X150.1Y139.1
X150.1Y126.9
X154.829Y23.24
X154.829Y18.24
X154.869Y47.63
X154.869Y42.63
X154.869Y37.63
X154.999Y67.01
X154.999Y62.01
X154.999Y57.01
X155.069Y86.77
X155.069Y81.77
X155.069Y76.77
X155.159Y105.82
X155.159Y100.82
X155.159Y95.82
T2
X5.0Y5.3
X5.08Y149.86
X159.933Y150.114
X160.1Y5.0
T0
M30
