%TF.GenerationSoftware,KiCad,Pcbnew,(6.0.7)*%
%TF.CreationDate,2022-10-09T00:02:01-03:00*%
%TF.ProjectId,PCB_Prototipo_Proyecto_Final,5043425f-5072-46f7-946f-7469706f5f50,rev?*%
%TF.SameCoordinates,Original*%
%TF.FileFunction,Legend,Top*%
%TF.FilePolarity,Positive*%
%FSLAX46Y46*%
G04 Gerber Fmt 4.6, Leading zero omitted, Abs format (unit mm)*
G04 Created by KiCad (PCBNEW (6.0.7)) date 2022-10-09 00:02:01*
%MOMM*%
%LPD*%
G01*
G04 APERTURE LIST*
%ADD10C,0.150000*%
%ADD11C,0.254000*%
%ADD12C,0.120000*%
%ADD13C,0.127000*%
%ADD14C,0.300000*%
%ADD15C,0.200000*%
%ADD16C,0.100000*%
G04 APERTURE END LIST*
D10*
%TO.C,J43*%
X238755476Y-199862380D02*
X238755476Y-200576666D01*
X238707857Y-200719523D01*
X238612619Y-200814761D01*
X238469761Y-200862380D01*
X238374523Y-200862380D01*
X239660238Y-200195714D02*
X239660238Y-200862380D01*
X239422142Y-199814761D02*
X239184047Y-200529047D01*
X239803095Y-200529047D01*
X240088809Y-199862380D02*
X240707857Y-199862380D01*
X240374523Y-200243333D01*
X240517380Y-200243333D01*
X240612619Y-200290952D01*
X240660238Y-200338571D01*
X240707857Y-200433809D01*
X240707857Y-200671904D01*
X240660238Y-200767142D01*
X240612619Y-200814761D01*
X240517380Y-200862380D01*
X240231666Y-200862380D01*
X240136428Y-200814761D01*
X240088809Y-200767142D01*
%TO.C,J42*%
X155550476Y-150602380D02*
X155550476Y-151316666D01*
X155502857Y-151459523D01*
X155407619Y-151554761D01*
X155264761Y-151602380D01*
X155169523Y-151602380D01*
X156455238Y-150935714D02*
X156455238Y-151602380D01*
X156217142Y-150554761D02*
X155979047Y-151269047D01*
X156598095Y-151269047D01*
X156931428Y-150697619D02*
X156979047Y-150650000D01*
X157074285Y-150602380D01*
X157312380Y-150602380D01*
X157407619Y-150650000D01*
X157455238Y-150697619D01*
X157502857Y-150792857D01*
X157502857Y-150888095D01*
X157455238Y-151030952D01*
X156883809Y-151602380D01*
X157502857Y-151602380D01*
%TO.C,J41*%
X155550476Y-168202380D02*
X155550476Y-168916666D01*
X155502857Y-169059523D01*
X155407619Y-169154761D01*
X155264761Y-169202380D01*
X155169523Y-169202380D01*
X156455238Y-168535714D02*
X156455238Y-169202380D01*
X156217142Y-168154761D02*
X155979047Y-168869047D01*
X156598095Y-168869047D01*
X157502857Y-169202380D02*
X156931428Y-169202380D01*
X157217142Y-169202380D02*
X157217142Y-168202380D01*
X157121904Y-168345238D01*
X157026666Y-168440476D01*
X156931428Y-168488095D01*
%TO.C,J40*%
X222350476Y-189302380D02*
X222350476Y-190016666D01*
X222302857Y-190159523D01*
X222207619Y-190254761D01*
X222064761Y-190302380D01*
X221969523Y-190302380D01*
X223255238Y-189635714D02*
X223255238Y-190302380D01*
X223017142Y-189254761D02*
X222779047Y-189969047D01*
X223398095Y-189969047D01*
X223969523Y-189302380D02*
X224064761Y-189302380D01*
X224160000Y-189350000D01*
X224207619Y-189397619D01*
X224255238Y-189492857D01*
X224302857Y-189683333D01*
X224302857Y-189921428D01*
X224255238Y-190111904D01*
X224207619Y-190207142D01*
X224160000Y-190254761D01*
X224064761Y-190302380D01*
X223969523Y-190302380D01*
X223874285Y-190254761D01*
X223826666Y-190207142D01*
X223779047Y-190111904D01*
X223731428Y-189921428D01*
X223731428Y-189683333D01*
X223779047Y-189492857D01*
X223826666Y-189397619D01*
X223874285Y-189350000D01*
X223969523Y-189302380D01*
%TO.C,J39*%
X207350476Y-189202380D02*
X207350476Y-189916666D01*
X207302857Y-190059523D01*
X207207619Y-190154761D01*
X207064761Y-190202380D01*
X206969523Y-190202380D01*
X207731428Y-189202380D02*
X208350476Y-189202380D01*
X208017142Y-189583333D01*
X208160000Y-189583333D01*
X208255238Y-189630952D01*
X208302857Y-189678571D01*
X208350476Y-189773809D01*
X208350476Y-190011904D01*
X208302857Y-190107142D01*
X208255238Y-190154761D01*
X208160000Y-190202380D01*
X207874285Y-190202380D01*
X207779047Y-190154761D01*
X207731428Y-190107142D01*
X208826666Y-190202380D02*
X209017142Y-190202380D01*
X209112380Y-190154761D01*
X209160000Y-190107142D01*
X209255238Y-189964285D01*
X209302857Y-189773809D01*
X209302857Y-189392857D01*
X209255238Y-189297619D01*
X209207619Y-189250000D01*
X209112380Y-189202380D01*
X208921904Y-189202380D01*
X208826666Y-189250000D01*
X208779047Y-189297619D01*
X208731428Y-189392857D01*
X208731428Y-189630952D01*
X208779047Y-189726190D01*
X208826666Y-189773809D01*
X208921904Y-189821428D01*
X209112380Y-189821428D01*
X209207619Y-189773809D01*
X209255238Y-189726190D01*
X209302857Y-189630952D01*
%TO.C,J38*%
X192350476Y-189302380D02*
X192350476Y-190016666D01*
X192302857Y-190159523D01*
X192207619Y-190254761D01*
X192064761Y-190302380D01*
X191969523Y-190302380D01*
X192731428Y-189302380D02*
X193350476Y-189302380D01*
X193017142Y-189683333D01*
X193160000Y-189683333D01*
X193255238Y-189730952D01*
X193302857Y-189778571D01*
X193350476Y-189873809D01*
X193350476Y-190111904D01*
X193302857Y-190207142D01*
X193255238Y-190254761D01*
X193160000Y-190302380D01*
X192874285Y-190302380D01*
X192779047Y-190254761D01*
X192731428Y-190207142D01*
X193921904Y-189730952D02*
X193826666Y-189683333D01*
X193779047Y-189635714D01*
X193731428Y-189540476D01*
X193731428Y-189492857D01*
X193779047Y-189397619D01*
X193826666Y-189350000D01*
X193921904Y-189302380D01*
X194112380Y-189302380D01*
X194207619Y-189350000D01*
X194255238Y-189397619D01*
X194302857Y-189492857D01*
X194302857Y-189540476D01*
X194255238Y-189635714D01*
X194207619Y-189683333D01*
X194112380Y-189730952D01*
X193921904Y-189730952D01*
X193826666Y-189778571D01*
X193779047Y-189826190D01*
X193731428Y-189921428D01*
X193731428Y-190111904D01*
X193779047Y-190207142D01*
X193826666Y-190254761D01*
X193921904Y-190302380D01*
X194112380Y-190302380D01*
X194207619Y-190254761D01*
X194255238Y-190207142D01*
X194302857Y-190111904D01*
X194302857Y-189921428D01*
X194255238Y-189826190D01*
X194207619Y-189778571D01*
X194112380Y-189730952D01*
%TO.C,J37*%
X177250476Y-189402380D02*
X177250476Y-190116666D01*
X177202857Y-190259523D01*
X177107619Y-190354761D01*
X176964761Y-190402380D01*
X176869523Y-190402380D01*
X177631428Y-189402380D02*
X178250476Y-189402380D01*
X177917142Y-189783333D01*
X178060000Y-189783333D01*
X178155238Y-189830952D01*
X178202857Y-189878571D01*
X178250476Y-189973809D01*
X178250476Y-190211904D01*
X178202857Y-190307142D01*
X178155238Y-190354761D01*
X178060000Y-190402380D01*
X177774285Y-190402380D01*
X177679047Y-190354761D01*
X177631428Y-190307142D01*
X178583809Y-189402380D02*
X179250476Y-189402380D01*
X178821904Y-190402380D01*
%TO.C,J26*%
X162450476Y-189502380D02*
X162450476Y-190216666D01*
X162402857Y-190359523D01*
X162307619Y-190454761D01*
X162164761Y-190502380D01*
X162069523Y-190502380D01*
X162879047Y-189597619D02*
X162926666Y-189550000D01*
X163021904Y-189502380D01*
X163260000Y-189502380D01*
X163355238Y-189550000D01*
X163402857Y-189597619D01*
X163450476Y-189692857D01*
X163450476Y-189788095D01*
X163402857Y-189930952D01*
X162831428Y-190502380D01*
X163450476Y-190502380D01*
X164307619Y-189502380D02*
X164117142Y-189502380D01*
X164021904Y-189550000D01*
X163974285Y-189597619D01*
X163879047Y-189740476D01*
X163831428Y-189930952D01*
X163831428Y-190311904D01*
X163879047Y-190407142D01*
X163926666Y-190454761D01*
X164021904Y-190502380D01*
X164212380Y-190502380D01*
X164307619Y-190454761D01*
X164355238Y-190407142D01*
X164402857Y-190311904D01*
X164402857Y-190073809D01*
X164355238Y-189978571D01*
X164307619Y-189930952D01*
X164212380Y-189883333D01*
X164021904Y-189883333D01*
X163926666Y-189930952D01*
X163879047Y-189978571D01*
X163831428Y-190073809D01*
%TO.C,J24*%
X155250476Y-135932380D02*
X155250476Y-136646666D01*
X155202857Y-136789523D01*
X155107619Y-136884761D01*
X154964761Y-136932380D01*
X154869523Y-136932380D01*
X155679047Y-136027619D02*
X155726666Y-135980000D01*
X155821904Y-135932380D01*
X156060000Y-135932380D01*
X156155238Y-135980000D01*
X156202857Y-136027619D01*
X156250476Y-136122857D01*
X156250476Y-136218095D01*
X156202857Y-136360952D01*
X155631428Y-136932380D01*
X156250476Y-136932380D01*
X157107619Y-136265714D02*
X157107619Y-136932380D01*
X156869523Y-135884761D02*
X156631428Y-136599047D01*
X157250476Y-136599047D01*
%TO.C,J19*%
X195750476Y-113102380D02*
X195750476Y-113816666D01*
X195702857Y-113959523D01*
X195607619Y-114054761D01*
X195464761Y-114102380D01*
X195369523Y-114102380D01*
X196750476Y-114102380D02*
X196179047Y-114102380D01*
X196464761Y-114102380D02*
X196464761Y-113102380D01*
X196369523Y-113245238D01*
X196274285Y-113340476D01*
X196179047Y-113388095D01*
X197226666Y-114102380D02*
X197417142Y-114102380D01*
X197512380Y-114054761D01*
X197560000Y-114007142D01*
X197655238Y-113864285D01*
X197702857Y-113673809D01*
X197702857Y-113292857D01*
X197655238Y-113197619D01*
X197607619Y-113150000D01*
X197512380Y-113102380D01*
X197321904Y-113102380D01*
X197226666Y-113150000D01*
X197179047Y-113197619D01*
X197131428Y-113292857D01*
X197131428Y-113530952D01*
X197179047Y-113626190D01*
X197226666Y-113673809D01*
X197321904Y-113721428D01*
X197512380Y-113721428D01*
X197607619Y-113673809D01*
X197655238Y-113626190D01*
X197702857Y-113530952D01*
%TO.C,J36*%
X264812380Y-96689523D02*
X265526666Y-96689523D01*
X265669523Y-96737142D01*
X265764761Y-96832380D01*
X265812380Y-96975238D01*
X265812380Y-97070476D01*
X264812380Y-96308571D02*
X264812380Y-95689523D01*
X265193333Y-96022857D01*
X265193333Y-95880000D01*
X265240952Y-95784761D01*
X265288571Y-95737142D01*
X265383809Y-95689523D01*
X265621904Y-95689523D01*
X265717142Y-95737142D01*
X265764761Y-95784761D01*
X265812380Y-95880000D01*
X265812380Y-96165714D01*
X265764761Y-96260952D01*
X265717142Y-96308571D01*
X264812380Y-94832380D02*
X264812380Y-95022857D01*
X264860000Y-95118095D01*
X264907619Y-95165714D01*
X265050476Y-95260952D01*
X265240952Y-95308571D01*
X265621904Y-95308571D01*
X265717142Y-95260952D01*
X265764761Y-95213333D01*
X265812380Y-95118095D01*
X265812380Y-94927619D01*
X265764761Y-94832380D01*
X265717142Y-94784761D01*
X265621904Y-94737142D01*
X265383809Y-94737142D01*
X265288571Y-94784761D01*
X265240952Y-94832380D01*
X265193333Y-94927619D01*
X265193333Y-95118095D01*
X265240952Y-95213333D01*
X265288571Y-95260952D01*
X265383809Y-95308571D01*
%TO.C,J35*%
X204712380Y-94889523D02*
X205426666Y-94889523D01*
X205569523Y-94937142D01*
X205664761Y-95032380D01*
X205712380Y-95175238D01*
X205712380Y-95270476D01*
X204712380Y-94508571D02*
X204712380Y-93889523D01*
X205093333Y-94222857D01*
X205093333Y-94080000D01*
X205140952Y-93984761D01*
X205188571Y-93937142D01*
X205283809Y-93889523D01*
X205521904Y-93889523D01*
X205617142Y-93937142D01*
X205664761Y-93984761D01*
X205712380Y-94080000D01*
X205712380Y-94365714D01*
X205664761Y-94460952D01*
X205617142Y-94508571D01*
X204712380Y-92984761D02*
X204712380Y-93460952D01*
X205188571Y-93508571D01*
X205140952Y-93460952D01*
X205093333Y-93365714D01*
X205093333Y-93127619D01*
X205140952Y-93032380D01*
X205188571Y-92984761D01*
X205283809Y-92937142D01*
X205521904Y-92937142D01*
X205617142Y-92984761D01*
X205664761Y-93032380D01*
X205712380Y-93127619D01*
X205712380Y-93365714D01*
X205664761Y-93460952D01*
X205617142Y-93508571D01*
%TO.C,J34*%
X234950476Y-111402380D02*
X234950476Y-112116666D01*
X234902857Y-112259523D01*
X234807619Y-112354761D01*
X234664761Y-112402380D01*
X234569523Y-112402380D01*
X235331428Y-111402380D02*
X235950476Y-111402380D01*
X235617142Y-111783333D01*
X235760000Y-111783333D01*
X235855238Y-111830952D01*
X235902857Y-111878571D01*
X235950476Y-111973809D01*
X235950476Y-112211904D01*
X235902857Y-112307142D01*
X235855238Y-112354761D01*
X235760000Y-112402380D01*
X235474285Y-112402380D01*
X235379047Y-112354761D01*
X235331428Y-112307142D01*
X236807619Y-111735714D02*
X236807619Y-112402380D01*
X236569523Y-111354761D02*
X236331428Y-112069047D01*
X236950476Y-112069047D01*
%TO.C,J33*%
X181250476Y-92002380D02*
X181250476Y-92716666D01*
X181202857Y-92859523D01*
X181107619Y-92954761D01*
X180964761Y-93002380D01*
X180869523Y-93002380D01*
X181631428Y-92002380D02*
X182250476Y-92002380D01*
X181917142Y-92383333D01*
X182060000Y-92383333D01*
X182155238Y-92430952D01*
X182202857Y-92478571D01*
X182250476Y-92573809D01*
X182250476Y-92811904D01*
X182202857Y-92907142D01*
X182155238Y-92954761D01*
X182060000Y-93002380D01*
X181774285Y-93002380D01*
X181679047Y-92954761D01*
X181631428Y-92907142D01*
X182583809Y-92002380D02*
X183202857Y-92002380D01*
X182869523Y-92383333D01*
X183012380Y-92383333D01*
X183107619Y-92430952D01*
X183155238Y-92478571D01*
X183202857Y-92573809D01*
X183202857Y-92811904D01*
X183155238Y-92907142D01*
X183107619Y-92954761D01*
X183012380Y-93002380D01*
X182726666Y-93002380D01*
X182631428Y-92954761D01*
X182583809Y-92907142D01*
%TO.C,J32*%
X244912380Y-96589523D02*
X245626666Y-96589523D01*
X245769523Y-96637142D01*
X245864761Y-96732380D01*
X245912380Y-96875238D01*
X245912380Y-96970476D01*
X244912380Y-96208571D02*
X244912380Y-95589523D01*
X245293333Y-95922857D01*
X245293333Y-95780000D01*
X245340952Y-95684761D01*
X245388571Y-95637142D01*
X245483809Y-95589523D01*
X245721904Y-95589523D01*
X245817142Y-95637142D01*
X245864761Y-95684761D01*
X245912380Y-95780000D01*
X245912380Y-96065714D01*
X245864761Y-96160952D01*
X245817142Y-96208571D01*
X245007619Y-95208571D02*
X244960000Y-95160952D01*
X244912380Y-95065714D01*
X244912380Y-94827619D01*
X244960000Y-94732380D01*
X245007619Y-94684761D01*
X245102857Y-94637142D01*
X245198095Y-94637142D01*
X245340952Y-94684761D01*
X245912380Y-95256190D01*
X245912380Y-94637142D01*
%TO.C,J31*%
X161350476Y-93902380D02*
X161350476Y-94616666D01*
X161302857Y-94759523D01*
X161207619Y-94854761D01*
X161064761Y-94902380D01*
X160969523Y-94902380D01*
X161731428Y-93902380D02*
X162350476Y-93902380D01*
X162017142Y-94283333D01*
X162160000Y-94283333D01*
X162255238Y-94330952D01*
X162302857Y-94378571D01*
X162350476Y-94473809D01*
X162350476Y-94711904D01*
X162302857Y-94807142D01*
X162255238Y-94854761D01*
X162160000Y-94902380D01*
X161874285Y-94902380D01*
X161779047Y-94854761D01*
X161731428Y-94807142D01*
X163302857Y-94902380D02*
X162731428Y-94902380D01*
X163017142Y-94902380D02*
X163017142Y-93902380D01*
X162921904Y-94045238D01*
X162826666Y-94140476D01*
X162731428Y-94188095D01*
%TO.C,J30*%
X224312380Y-94889523D02*
X225026666Y-94889523D01*
X225169523Y-94937142D01*
X225264761Y-95032380D01*
X225312380Y-95175238D01*
X225312380Y-95270476D01*
X224312380Y-94508571D02*
X224312380Y-93889523D01*
X224693333Y-94222857D01*
X224693333Y-94080000D01*
X224740952Y-93984761D01*
X224788571Y-93937142D01*
X224883809Y-93889523D01*
X225121904Y-93889523D01*
X225217142Y-93937142D01*
X225264761Y-93984761D01*
X225312380Y-94080000D01*
X225312380Y-94365714D01*
X225264761Y-94460952D01*
X225217142Y-94508571D01*
X224312380Y-93270476D02*
X224312380Y-93175238D01*
X224360000Y-93080000D01*
X224407619Y-93032380D01*
X224502857Y-92984761D01*
X224693333Y-92937142D01*
X224931428Y-92937142D01*
X225121904Y-92984761D01*
X225217142Y-93032380D01*
X225264761Y-93080000D01*
X225312380Y-93175238D01*
X225312380Y-93270476D01*
X225264761Y-93365714D01*
X225217142Y-93413333D01*
X225121904Y-93460952D01*
X224931428Y-93508571D01*
X224693333Y-93508571D01*
X224502857Y-93460952D01*
X224407619Y-93413333D01*
X224360000Y-93365714D01*
X224312380Y-93270476D01*
%TO.C,J29*%
X166450476Y-154502380D02*
X166450476Y-155216666D01*
X166402857Y-155359523D01*
X166307619Y-155454761D01*
X166164761Y-155502380D01*
X166069523Y-155502380D01*
X166879047Y-154597619D02*
X166926666Y-154550000D01*
X167021904Y-154502380D01*
X167260000Y-154502380D01*
X167355238Y-154550000D01*
X167402857Y-154597619D01*
X167450476Y-154692857D01*
X167450476Y-154788095D01*
X167402857Y-154930952D01*
X166831428Y-155502380D01*
X167450476Y-155502380D01*
X167926666Y-155502380D02*
X168117142Y-155502380D01*
X168212380Y-155454761D01*
X168260000Y-155407142D01*
X168355238Y-155264285D01*
X168402857Y-155073809D01*
X168402857Y-154692857D01*
X168355238Y-154597619D01*
X168307619Y-154550000D01*
X168212380Y-154502380D01*
X168021904Y-154502380D01*
X167926666Y-154550000D01*
X167879047Y-154597619D01*
X167831428Y-154692857D01*
X167831428Y-154930952D01*
X167879047Y-155026190D01*
X167926666Y-155073809D01*
X168021904Y-155121428D01*
X168212380Y-155121428D01*
X168307619Y-155073809D01*
X168355238Y-155026190D01*
X168402857Y-154930952D01*
%TO.C,J28*%
X166150476Y-139502380D02*
X166150476Y-140216666D01*
X166102857Y-140359523D01*
X166007619Y-140454761D01*
X165864761Y-140502380D01*
X165769523Y-140502380D01*
X166579047Y-139597619D02*
X166626666Y-139550000D01*
X166721904Y-139502380D01*
X166960000Y-139502380D01*
X167055238Y-139550000D01*
X167102857Y-139597619D01*
X167150476Y-139692857D01*
X167150476Y-139788095D01*
X167102857Y-139930952D01*
X166531428Y-140502380D01*
X167150476Y-140502380D01*
X167721904Y-139930952D02*
X167626666Y-139883333D01*
X167579047Y-139835714D01*
X167531428Y-139740476D01*
X167531428Y-139692857D01*
X167579047Y-139597619D01*
X167626666Y-139550000D01*
X167721904Y-139502380D01*
X167912380Y-139502380D01*
X168007619Y-139550000D01*
X168055238Y-139597619D01*
X168102857Y-139692857D01*
X168102857Y-139740476D01*
X168055238Y-139835714D01*
X168007619Y-139883333D01*
X167912380Y-139930952D01*
X167721904Y-139930952D01*
X167626666Y-139978571D01*
X167579047Y-140026190D01*
X167531428Y-140121428D01*
X167531428Y-140311904D01*
X167579047Y-140407142D01*
X167626666Y-140454761D01*
X167721904Y-140502380D01*
X167912380Y-140502380D01*
X168007619Y-140454761D01*
X168055238Y-140407142D01*
X168102857Y-140311904D01*
X168102857Y-140121428D01*
X168055238Y-140026190D01*
X168007619Y-139978571D01*
X167912380Y-139930952D01*
%TO.C,J27*%
X190312380Y-179289523D02*
X191026666Y-179289523D01*
X191169523Y-179337142D01*
X191264761Y-179432380D01*
X191312380Y-179575238D01*
X191312380Y-179670476D01*
X190407619Y-178860952D02*
X190360000Y-178813333D01*
X190312380Y-178718095D01*
X190312380Y-178480000D01*
X190360000Y-178384761D01*
X190407619Y-178337142D01*
X190502857Y-178289523D01*
X190598095Y-178289523D01*
X190740952Y-178337142D01*
X191312380Y-178908571D01*
X191312380Y-178289523D01*
X190312380Y-177956190D02*
X190312380Y-177289523D01*
X191312380Y-177718095D01*
%TO.C,J25*%
X202250476Y-174602380D02*
X202250476Y-175316666D01*
X202202857Y-175459523D01*
X202107619Y-175554761D01*
X201964761Y-175602380D01*
X201869523Y-175602380D01*
X202679047Y-174697619D02*
X202726666Y-174650000D01*
X202821904Y-174602380D01*
X203060000Y-174602380D01*
X203155238Y-174650000D01*
X203202857Y-174697619D01*
X203250476Y-174792857D01*
X203250476Y-174888095D01*
X203202857Y-175030952D01*
X202631428Y-175602380D01*
X203250476Y-175602380D01*
X204155238Y-174602380D02*
X203679047Y-174602380D01*
X203631428Y-175078571D01*
X203679047Y-175030952D01*
X203774285Y-174983333D01*
X204012380Y-174983333D01*
X204107619Y-175030952D01*
X204155238Y-175078571D01*
X204202857Y-175173809D01*
X204202857Y-175411904D01*
X204155238Y-175507142D01*
X204107619Y-175554761D01*
X204012380Y-175602380D01*
X203774285Y-175602380D01*
X203679047Y-175554761D01*
X203631428Y-175507142D01*
%TO.C,J23*%
X172150476Y-175502380D02*
X172150476Y-176216666D01*
X172102857Y-176359523D01*
X172007619Y-176454761D01*
X171864761Y-176502380D01*
X171769523Y-176502380D01*
X172579047Y-175597619D02*
X172626666Y-175550000D01*
X172721904Y-175502380D01*
X172960000Y-175502380D01*
X173055238Y-175550000D01*
X173102857Y-175597619D01*
X173150476Y-175692857D01*
X173150476Y-175788095D01*
X173102857Y-175930952D01*
X172531428Y-176502380D01*
X173150476Y-176502380D01*
X173483809Y-175502380D02*
X174102857Y-175502380D01*
X173769523Y-175883333D01*
X173912380Y-175883333D01*
X174007619Y-175930952D01*
X174055238Y-175978571D01*
X174102857Y-176073809D01*
X174102857Y-176311904D01*
X174055238Y-176407142D01*
X174007619Y-176454761D01*
X173912380Y-176502380D01*
X173626666Y-176502380D01*
X173531428Y-176454761D01*
X173483809Y-176407142D01*
%TO.C,J22*%
X157450476Y-176002380D02*
X157450476Y-176716666D01*
X157402857Y-176859523D01*
X157307619Y-176954761D01*
X157164761Y-177002380D01*
X157069523Y-177002380D01*
X157879047Y-176097619D02*
X157926666Y-176050000D01*
X158021904Y-176002380D01*
X158260000Y-176002380D01*
X158355238Y-176050000D01*
X158402857Y-176097619D01*
X158450476Y-176192857D01*
X158450476Y-176288095D01*
X158402857Y-176430952D01*
X157831428Y-177002380D01*
X158450476Y-177002380D01*
X158831428Y-176097619D02*
X158879047Y-176050000D01*
X158974285Y-176002380D01*
X159212380Y-176002380D01*
X159307619Y-176050000D01*
X159355238Y-176097619D01*
X159402857Y-176192857D01*
X159402857Y-176288095D01*
X159355238Y-176430952D01*
X158783809Y-177002380D01*
X159402857Y-177002380D01*
%TO.C,J21*%
X246845476Y-118612380D02*
X246845476Y-119326666D01*
X246797857Y-119469523D01*
X246702619Y-119564761D01*
X246559761Y-119612380D01*
X246464523Y-119612380D01*
X247274047Y-118707619D02*
X247321666Y-118660000D01*
X247416904Y-118612380D01*
X247655000Y-118612380D01*
X247750238Y-118660000D01*
X247797857Y-118707619D01*
X247845476Y-118802857D01*
X247845476Y-118898095D01*
X247797857Y-119040952D01*
X247226428Y-119612380D01*
X247845476Y-119612380D01*
X248797857Y-119612380D02*
X248226428Y-119612380D01*
X248512142Y-119612380D02*
X248512142Y-118612380D01*
X248416904Y-118755238D01*
X248321666Y-118850476D01*
X248226428Y-118898095D01*
%TO.C,J20*%
X186367380Y-169714523D02*
X187081666Y-169714523D01*
X187224523Y-169762142D01*
X187319761Y-169857380D01*
X187367380Y-170000238D01*
X187367380Y-170095476D01*
X186462619Y-169285952D02*
X186415000Y-169238333D01*
X186367380Y-169143095D01*
X186367380Y-168905000D01*
X186415000Y-168809761D01*
X186462619Y-168762142D01*
X186557857Y-168714523D01*
X186653095Y-168714523D01*
X186795952Y-168762142D01*
X187367380Y-169333571D01*
X187367380Y-168714523D01*
X186367380Y-168095476D02*
X186367380Y-168000238D01*
X186415000Y-167905000D01*
X186462619Y-167857380D01*
X186557857Y-167809761D01*
X186748333Y-167762142D01*
X186986428Y-167762142D01*
X187176904Y-167809761D01*
X187272142Y-167857380D01*
X187319761Y-167905000D01*
X187367380Y-168000238D01*
X187367380Y-168095476D01*
X187319761Y-168190714D01*
X187272142Y-168238333D01*
X187176904Y-168285952D01*
X186986428Y-168333571D01*
X186748333Y-168333571D01*
X186557857Y-168285952D01*
X186462619Y-168238333D01*
X186415000Y-168190714D01*
X186367380Y-168095476D01*
%TO.C,U1*%
X262362380Y-188241904D02*
X263171904Y-188241904D01*
X263267142Y-188194285D01*
X263314761Y-188146666D01*
X263362380Y-188051428D01*
X263362380Y-187860952D01*
X263314761Y-187765714D01*
X263267142Y-187718095D01*
X263171904Y-187670476D01*
X262362380Y-187670476D01*
X263362380Y-186670476D02*
X263362380Y-187241904D01*
X263362380Y-186956190D02*
X262362380Y-186956190D01*
X262505238Y-187051428D01*
X262600476Y-187146666D01*
X262648095Y-187241904D01*
%TO.C,R34*%
X197517142Y-179182380D02*
X197183809Y-178706190D01*
X196945714Y-179182380D02*
X196945714Y-178182380D01*
X197326666Y-178182380D01*
X197421904Y-178230000D01*
X197469523Y-178277619D01*
X197517142Y-178372857D01*
X197517142Y-178515714D01*
X197469523Y-178610952D01*
X197421904Y-178658571D01*
X197326666Y-178706190D01*
X196945714Y-178706190D01*
X197850476Y-178182380D02*
X198469523Y-178182380D01*
X198136190Y-178563333D01*
X198279047Y-178563333D01*
X198374285Y-178610952D01*
X198421904Y-178658571D01*
X198469523Y-178753809D01*
X198469523Y-178991904D01*
X198421904Y-179087142D01*
X198374285Y-179134761D01*
X198279047Y-179182380D01*
X197993333Y-179182380D01*
X197898095Y-179134761D01*
X197850476Y-179087142D01*
X199326666Y-178515714D02*
X199326666Y-179182380D01*
X199088571Y-178134761D02*
X198850476Y-178849047D01*
X199469523Y-178849047D01*
%TO.C,Q7*%
X164607619Y-161975238D02*
X164560000Y-162070476D01*
X164464761Y-162165714D01*
X164321904Y-162308571D01*
X164274285Y-162403809D01*
X164274285Y-162499047D01*
X164512380Y-162451428D02*
X164464761Y-162546666D01*
X164369523Y-162641904D01*
X164179047Y-162689523D01*
X163845714Y-162689523D01*
X163655238Y-162641904D01*
X163560000Y-162546666D01*
X163512380Y-162451428D01*
X163512380Y-162260952D01*
X163560000Y-162165714D01*
X163655238Y-162070476D01*
X163845714Y-162022857D01*
X164179047Y-162022857D01*
X164369523Y-162070476D01*
X164464761Y-162165714D01*
X164512380Y-162260952D01*
X164512380Y-162451428D01*
X163512380Y-161689523D02*
X163512380Y-161022857D01*
X164512380Y-161451428D01*
%TO.C,R17*%
X280517142Y-105644880D02*
X280183809Y-105168690D01*
X279945714Y-105644880D02*
X279945714Y-104644880D01*
X280326666Y-104644880D01*
X280421904Y-104692500D01*
X280469523Y-104740119D01*
X280517142Y-104835357D01*
X280517142Y-104978214D01*
X280469523Y-105073452D01*
X280421904Y-105121071D01*
X280326666Y-105168690D01*
X279945714Y-105168690D01*
X281469523Y-105644880D02*
X280898095Y-105644880D01*
X281183809Y-105644880D02*
X281183809Y-104644880D01*
X281088571Y-104787738D01*
X280993333Y-104882976D01*
X280898095Y-104930595D01*
X281802857Y-104644880D02*
X282469523Y-104644880D01*
X282040952Y-105644880D01*
%TO.C,Q2*%
X151107619Y-186175238D02*
X151060000Y-186270476D01*
X150964761Y-186365714D01*
X150821904Y-186508571D01*
X150774285Y-186603809D01*
X150774285Y-186699047D01*
X151012380Y-186651428D02*
X150964761Y-186746666D01*
X150869523Y-186841904D01*
X150679047Y-186889523D01*
X150345714Y-186889523D01*
X150155238Y-186841904D01*
X150060000Y-186746666D01*
X150012380Y-186651428D01*
X150012380Y-186460952D01*
X150060000Y-186365714D01*
X150155238Y-186270476D01*
X150345714Y-186222857D01*
X150679047Y-186222857D01*
X150869523Y-186270476D01*
X150964761Y-186365714D01*
X151012380Y-186460952D01*
X151012380Y-186651428D01*
X150107619Y-185841904D02*
X150060000Y-185794285D01*
X150012380Y-185699047D01*
X150012380Y-185460952D01*
X150060000Y-185365714D01*
X150107619Y-185318095D01*
X150202857Y-185270476D01*
X150298095Y-185270476D01*
X150440952Y-185318095D01*
X151012380Y-185889523D01*
X151012380Y-185270476D01*
%TO.C,K5*%
X169776583Y-82643794D02*
X168776489Y-82643794D01*
X169776583Y-82072312D02*
X169205101Y-82500924D01*
X168776489Y-82072312D02*
X169347971Y-82643794D01*
X168776489Y-81167465D02*
X168776489Y-81643700D01*
X169252724Y-81691324D01*
X169205101Y-81643700D01*
X169157477Y-81548453D01*
X169157477Y-81310335D01*
X169205101Y-81215088D01*
X169252724Y-81167465D01*
X169347971Y-81119841D01*
X169586089Y-81119841D01*
X169681336Y-81167465D01*
X169728959Y-81215088D01*
X169776583Y-81310335D01*
X169776583Y-81548453D01*
X169728959Y-81643700D01*
X169681336Y-81691324D01*
D11*
%TO.C,J6*%
X296844523Y-153243333D02*
X297751666Y-153243333D01*
X297933095Y-153303809D01*
X298054047Y-153424761D01*
X298114523Y-153606190D01*
X298114523Y-153727142D01*
X296844523Y-152094285D02*
X296844523Y-152336190D01*
X296905000Y-152457142D01*
X296965476Y-152517619D01*
X297146904Y-152638571D01*
X297388809Y-152699047D01*
X297872619Y-152699047D01*
X297993571Y-152638571D01*
X298054047Y-152578095D01*
X298114523Y-152457142D01*
X298114523Y-152215238D01*
X298054047Y-152094285D01*
X297993571Y-152033809D01*
X297872619Y-151973333D01*
X297570238Y-151973333D01*
X297449285Y-152033809D01*
X297388809Y-152094285D01*
X297328333Y-152215238D01*
X297328333Y-152457142D01*
X297388809Y-152578095D01*
X297449285Y-152638571D01*
X297570238Y-152699047D01*
D10*
%TO.C,Q8*%
X164107619Y-143375238D02*
X164060000Y-143470476D01*
X163964761Y-143565714D01*
X163821904Y-143708571D01*
X163774285Y-143803809D01*
X163774285Y-143899047D01*
X164012380Y-143851428D02*
X163964761Y-143946666D01*
X163869523Y-144041904D01*
X163679047Y-144089523D01*
X163345714Y-144089523D01*
X163155238Y-144041904D01*
X163060000Y-143946666D01*
X163012380Y-143851428D01*
X163012380Y-143660952D01*
X163060000Y-143565714D01*
X163155238Y-143470476D01*
X163345714Y-143422857D01*
X163679047Y-143422857D01*
X163869523Y-143470476D01*
X163964761Y-143565714D01*
X164012380Y-143660952D01*
X164012380Y-143851428D01*
X163440952Y-142851428D02*
X163393333Y-142946666D01*
X163345714Y-142994285D01*
X163250476Y-143041904D01*
X163202857Y-143041904D01*
X163107619Y-142994285D01*
X163060000Y-142946666D01*
X163012380Y-142851428D01*
X163012380Y-142660952D01*
X163060000Y-142565714D01*
X163107619Y-142518095D01*
X163202857Y-142470476D01*
X163250476Y-142470476D01*
X163345714Y-142518095D01*
X163393333Y-142565714D01*
X163440952Y-142660952D01*
X163440952Y-142851428D01*
X163488571Y-142946666D01*
X163536190Y-142994285D01*
X163631428Y-143041904D01*
X163821904Y-143041904D01*
X163917142Y-142994285D01*
X163964761Y-142946666D01*
X164012380Y-142851428D01*
X164012380Y-142660952D01*
X163964761Y-142565714D01*
X163917142Y-142518095D01*
X163821904Y-142470476D01*
X163631428Y-142470476D01*
X163536190Y-142518095D01*
X163488571Y-142565714D01*
X163440952Y-142660952D01*
%TO.C,C15*%
X241817142Y-180995958D02*
X241864761Y-181043577D01*
X241912380Y-181186434D01*
X241912380Y-181281672D01*
X241864761Y-181424529D01*
X241769523Y-181519767D01*
X241674285Y-181567386D01*
X241483809Y-181615005D01*
X241340952Y-181615005D01*
X241150476Y-181567386D01*
X241055238Y-181519767D01*
X240960000Y-181424529D01*
X240912380Y-181281672D01*
X240912380Y-181186434D01*
X240960000Y-181043577D01*
X241007619Y-180995958D01*
X241912380Y-180043577D02*
X241912380Y-180615005D01*
X241912380Y-180329291D02*
X240912380Y-180329291D01*
X241055238Y-180424529D01*
X241150476Y-180519767D01*
X241198095Y-180615005D01*
X240912380Y-179138815D02*
X240912380Y-179615005D01*
X241388571Y-179662624D01*
X241340952Y-179615005D01*
X241293333Y-179519767D01*
X241293333Y-179281672D01*
X241340952Y-179186434D01*
X241388571Y-179138815D01*
X241483809Y-179091196D01*
X241721904Y-179091196D01*
X241817142Y-179138815D01*
X241864761Y-179186434D01*
X241912380Y-179281672D01*
X241912380Y-179519767D01*
X241864761Y-179615005D01*
X241817142Y-179662624D01*
X238372380Y-175273101D02*
X238610476Y-175273101D01*
X238515238Y-175511196D02*
X238610476Y-175273101D01*
X238515238Y-175035005D01*
X238800952Y-175415958D02*
X238610476Y-175273101D01*
X238800952Y-175130243D01*
%TO.C,C3*%
X192317142Y-187446666D02*
X192364761Y-187494285D01*
X192412380Y-187637142D01*
X192412380Y-187732380D01*
X192364761Y-187875238D01*
X192269523Y-187970476D01*
X192174285Y-188018095D01*
X191983809Y-188065714D01*
X191840952Y-188065714D01*
X191650476Y-188018095D01*
X191555238Y-187970476D01*
X191460000Y-187875238D01*
X191412380Y-187732380D01*
X191412380Y-187637142D01*
X191460000Y-187494285D01*
X191507619Y-187446666D01*
X191412380Y-187113333D02*
X191412380Y-186494285D01*
X191793333Y-186827619D01*
X191793333Y-186684761D01*
X191840952Y-186589523D01*
X191888571Y-186541904D01*
X191983809Y-186494285D01*
X192221904Y-186494285D01*
X192317142Y-186541904D01*
X192364761Y-186589523D01*
X192412380Y-186684761D01*
X192412380Y-186970476D01*
X192364761Y-187065714D01*
X192317142Y-187113333D01*
D11*
%TO.C,J16*%
X182171904Y-50934523D02*
X182171904Y-51841666D01*
X182111428Y-52023095D01*
X181990476Y-52144047D01*
X181809047Y-52204523D01*
X181688095Y-52204523D01*
X183441904Y-52204523D02*
X182716190Y-52204523D01*
X183079047Y-52204523D02*
X183079047Y-50934523D01*
X182958095Y-51115952D01*
X182837142Y-51236904D01*
X182716190Y-51297380D01*
X184530476Y-50934523D02*
X184288571Y-50934523D01*
X184167619Y-50995000D01*
X184107142Y-51055476D01*
X183986190Y-51236904D01*
X183925714Y-51478809D01*
X183925714Y-51962619D01*
X183986190Y-52083571D01*
X184046666Y-52144047D01*
X184167619Y-52204523D01*
X184409523Y-52204523D01*
X184530476Y-52144047D01*
X184590952Y-52083571D01*
X184651428Y-51962619D01*
X184651428Y-51660238D01*
X184590952Y-51539285D01*
X184530476Y-51478809D01*
X184409523Y-51418333D01*
X184167619Y-51418333D01*
X184046666Y-51478809D01*
X183986190Y-51539285D01*
X183925714Y-51660238D01*
D10*
%TO.C,D1*%
X255112380Y-168918095D02*
X254112380Y-168918095D01*
X254112380Y-168680000D01*
X254160000Y-168537142D01*
X254255238Y-168441904D01*
X254350476Y-168394285D01*
X254540952Y-168346666D01*
X254683809Y-168346666D01*
X254874285Y-168394285D01*
X254969523Y-168441904D01*
X255064761Y-168537142D01*
X255112380Y-168680000D01*
X255112380Y-168918095D01*
X255112380Y-167394285D02*
X255112380Y-167965714D01*
X255112380Y-167680000D02*
X254112380Y-167680000D01*
X254255238Y-167775238D01*
X254350476Y-167870476D01*
X254398095Y-167965714D01*
%TO.C,R25*%
X156017142Y-125432380D02*
X155683809Y-124956190D01*
X155445714Y-125432380D02*
X155445714Y-124432380D01*
X155826666Y-124432380D01*
X155921904Y-124480000D01*
X155969523Y-124527619D01*
X156017142Y-124622857D01*
X156017142Y-124765714D01*
X155969523Y-124860952D01*
X155921904Y-124908571D01*
X155826666Y-124956190D01*
X155445714Y-124956190D01*
X156398095Y-124527619D02*
X156445714Y-124480000D01*
X156540952Y-124432380D01*
X156779047Y-124432380D01*
X156874285Y-124480000D01*
X156921904Y-124527619D01*
X156969523Y-124622857D01*
X156969523Y-124718095D01*
X156921904Y-124860952D01*
X156350476Y-125432380D01*
X156969523Y-125432380D01*
X157874285Y-124432380D02*
X157398095Y-124432380D01*
X157350476Y-124908571D01*
X157398095Y-124860952D01*
X157493333Y-124813333D01*
X157731428Y-124813333D01*
X157826666Y-124860952D01*
X157874285Y-124908571D01*
X157921904Y-125003809D01*
X157921904Y-125241904D01*
X157874285Y-125337142D01*
X157826666Y-125384761D01*
X157731428Y-125432380D01*
X157493333Y-125432380D01*
X157398095Y-125384761D01*
X157350476Y-125337142D01*
%TO.C,R3*%
X185893333Y-128944880D02*
X185560000Y-128468690D01*
X185321904Y-128944880D02*
X185321904Y-127944880D01*
X185702857Y-127944880D01*
X185798095Y-127992500D01*
X185845714Y-128040119D01*
X185893333Y-128135357D01*
X185893333Y-128278214D01*
X185845714Y-128373452D01*
X185798095Y-128421071D01*
X185702857Y-128468690D01*
X185321904Y-128468690D01*
X186226666Y-127944880D02*
X186845714Y-127944880D01*
X186512380Y-128325833D01*
X186655238Y-128325833D01*
X186750476Y-128373452D01*
X186798095Y-128421071D01*
X186845714Y-128516309D01*
X186845714Y-128754404D01*
X186798095Y-128849642D01*
X186750476Y-128897261D01*
X186655238Y-128944880D01*
X186369523Y-128944880D01*
X186274285Y-128897261D01*
X186226666Y-128849642D01*
%TO.C,Q3*%
X166007619Y-186075238D02*
X165960000Y-186170476D01*
X165864761Y-186265714D01*
X165721904Y-186408571D01*
X165674285Y-186503809D01*
X165674285Y-186599047D01*
X165912380Y-186551428D02*
X165864761Y-186646666D01*
X165769523Y-186741904D01*
X165579047Y-186789523D01*
X165245714Y-186789523D01*
X165055238Y-186741904D01*
X164960000Y-186646666D01*
X164912380Y-186551428D01*
X164912380Y-186360952D01*
X164960000Y-186265714D01*
X165055238Y-186170476D01*
X165245714Y-186122857D01*
X165579047Y-186122857D01*
X165769523Y-186170476D01*
X165864761Y-186265714D01*
X165912380Y-186360952D01*
X165912380Y-186551428D01*
X164912380Y-185789523D02*
X164912380Y-185170476D01*
X165293333Y-185503809D01*
X165293333Y-185360952D01*
X165340952Y-185265714D01*
X165388571Y-185218095D01*
X165483809Y-185170476D01*
X165721904Y-185170476D01*
X165817142Y-185218095D01*
X165864761Y-185265714D01*
X165912380Y-185360952D01*
X165912380Y-185646666D01*
X165864761Y-185741904D01*
X165817142Y-185789523D01*
%TO.C,*%
%TO.C,R19*%
X284629642Y-147482380D02*
X284296309Y-147006190D01*
X284058214Y-147482380D02*
X284058214Y-146482380D01*
X284439166Y-146482380D01*
X284534404Y-146530000D01*
X284582023Y-146577619D01*
X284629642Y-146672857D01*
X284629642Y-146815714D01*
X284582023Y-146910952D01*
X284534404Y-146958571D01*
X284439166Y-147006190D01*
X284058214Y-147006190D01*
X285582023Y-147482380D02*
X285010595Y-147482380D01*
X285296309Y-147482380D02*
X285296309Y-146482380D01*
X285201071Y-146625238D01*
X285105833Y-146720476D01*
X285010595Y-146768095D01*
X286058214Y-147482380D02*
X286248690Y-147482380D01*
X286343928Y-147434761D01*
X286391547Y-147387142D01*
X286486785Y-147244285D01*
X286534404Y-147053809D01*
X286534404Y-146672857D01*
X286486785Y-146577619D01*
X286439166Y-146530000D01*
X286343928Y-146482380D01*
X286153452Y-146482380D01*
X286058214Y-146530000D01*
X286010595Y-146577619D01*
X285962976Y-146672857D01*
X285962976Y-146910952D01*
X286010595Y-147006190D01*
X286058214Y-147053809D01*
X286153452Y-147101428D01*
X286343928Y-147101428D01*
X286439166Y-147053809D01*
X286486785Y-147006190D01*
X286534404Y-146910952D01*
%TO.C,C18*%
X236317142Y-172722857D02*
X236364761Y-172770476D01*
X236412380Y-172913333D01*
X236412380Y-173008571D01*
X236364761Y-173151428D01*
X236269523Y-173246666D01*
X236174285Y-173294285D01*
X235983809Y-173341904D01*
X235840952Y-173341904D01*
X235650476Y-173294285D01*
X235555238Y-173246666D01*
X235460000Y-173151428D01*
X235412380Y-173008571D01*
X235412380Y-172913333D01*
X235460000Y-172770476D01*
X235507619Y-172722857D01*
X236412380Y-171770476D02*
X236412380Y-172341904D01*
X236412380Y-172056190D02*
X235412380Y-172056190D01*
X235555238Y-172151428D01*
X235650476Y-172246666D01*
X235698095Y-172341904D01*
X235840952Y-171199047D02*
X235793333Y-171294285D01*
X235745714Y-171341904D01*
X235650476Y-171389523D01*
X235602857Y-171389523D01*
X235507619Y-171341904D01*
X235460000Y-171294285D01*
X235412380Y-171199047D01*
X235412380Y-171008571D01*
X235460000Y-170913333D01*
X235507619Y-170865714D01*
X235602857Y-170818095D01*
X235650476Y-170818095D01*
X235745714Y-170865714D01*
X235793333Y-170913333D01*
X235840952Y-171008571D01*
X235840952Y-171199047D01*
X235888571Y-171294285D01*
X235936190Y-171341904D01*
X236031428Y-171389523D01*
X236221904Y-171389523D01*
X236317142Y-171341904D01*
X236364761Y-171294285D01*
X236412380Y-171199047D01*
X236412380Y-171008571D01*
X236364761Y-170913333D01*
X236317142Y-170865714D01*
X236221904Y-170818095D01*
X236031428Y-170818095D01*
X235936190Y-170865714D01*
X235888571Y-170913333D01*
X235840952Y-171008571D01*
%TO.C,R13*%
X205912380Y-183622857D02*
X205436190Y-183956190D01*
X205912380Y-184194285D02*
X204912380Y-184194285D01*
X204912380Y-183813333D01*
X204960000Y-183718095D01*
X205007619Y-183670476D01*
X205102857Y-183622857D01*
X205245714Y-183622857D01*
X205340952Y-183670476D01*
X205388571Y-183718095D01*
X205436190Y-183813333D01*
X205436190Y-184194285D01*
X205912380Y-182670476D02*
X205912380Y-183241904D01*
X205912380Y-182956190D02*
X204912380Y-182956190D01*
X205055238Y-183051428D01*
X205150476Y-183146666D01*
X205198095Y-183241904D01*
X204912380Y-182337142D02*
X204912380Y-181718095D01*
X205293333Y-182051428D01*
X205293333Y-181908571D01*
X205340952Y-181813333D01*
X205388571Y-181765714D01*
X205483809Y-181718095D01*
X205721904Y-181718095D01*
X205817142Y-181765714D01*
X205864761Y-181813333D01*
X205912380Y-181908571D01*
X205912380Y-182194285D01*
X205864761Y-182289523D01*
X205817142Y-182337142D01*
%TO.C,C2*%
X177117142Y-187646666D02*
X177164761Y-187694285D01*
X177212380Y-187837142D01*
X177212380Y-187932380D01*
X177164761Y-188075238D01*
X177069523Y-188170476D01*
X176974285Y-188218095D01*
X176783809Y-188265714D01*
X176640952Y-188265714D01*
X176450476Y-188218095D01*
X176355238Y-188170476D01*
X176260000Y-188075238D01*
X176212380Y-187932380D01*
X176212380Y-187837142D01*
X176260000Y-187694285D01*
X176307619Y-187646666D01*
X176307619Y-187265714D02*
X176260000Y-187218095D01*
X176212380Y-187122857D01*
X176212380Y-186884761D01*
X176260000Y-186789523D01*
X176307619Y-186741904D01*
X176402857Y-186694285D01*
X176498095Y-186694285D01*
X176640952Y-186741904D01*
X177212380Y-187313333D01*
X177212380Y-186694285D01*
%TO.C,C20*%
X202597142Y-109722857D02*
X202644761Y-109770476D01*
X202692380Y-109913333D01*
X202692380Y-110008571D01*
X202644761Y-110151428D01*
X202549523Y-110246666D01*
X202454285Y-110294285D01*
X202263809Y-110341904D01*
X202120952Y-110341904D01*
X201930476Y-110294285D01*
X201835238Y-110246666D01*
X201740000Y-110151428D01*
X201692380Y-110008571D01*
X201692380Y-109913333D01*
X201740000Y-109770476D01*
X201787619Y-109722857D01*
X201787619Y-109341904D02*
X201740000Y-109294285D01*
X201692380Y-109199047D01*
X201692380Y-108960952D01*
X201740000Y-108865714D01*
X201787619Y-108818095D01*
X201882857Y-108770476D01*
X201978095Y-108770476D01*
X202120952Y-108818095D01*
X202692380Y-109389523D01*
X202692380Y-108770476D01*
X201692380Y-108151428D02*
X201692380Y-108056190D01*
X201740000Y-107960952D01*
X201787619Y-107913333D01*
X201882857Y-107865714D01*
X202073333Y-107818095D01*
X202311428Y-107818095D01*
X202501904Y-107865714D01*
X202597142Y-107913333D01*
X202644761Y-107960952D01*
X202692380Y-108056190D01*
X202692380Y-108151428D01*
X202644761Y-108246666D01*
X202597142Y-108294285D01*
X202501904Y-108341904D01*
X202311428Y-108389523D01*
X202073333Y-108389523D01*
X201882857Y-108341904D01*
X201787619Y-108294285D01*
X201740000Y-108246666D01*
X201692380Y-108151428D01*
%TO.C,*%
%TO.C,Q4*%
X181007619Y-185875238D02*
X180960000Y-185970476D01*
X180864761Y-186065714D01*
X180721904Y-186208571D01*
X180674285Y-186303809D01*
X180674285Y-186399047D01*
X180912380Y-186351428D02*
X180864761Y-186446666D01*
X180769523Y-186541904D01*
X180579047Y-186589523D01*
X180245714Y-186589523D01*
X180055238Y-186541904D01*
X179960000Y-186446666D01*
X179912380Y-186351428D01*
X179912380Y-186160952D01*
X179960000Y-186065714D01*
X180055238Y-185970476D01*
X180245714Y-185922857D01*
X180579047Y-185922857D01*
X180769523Y-185970476D01*
X180864761Y-186065714D01*
X180912380Y-186160952D01*
X180912380Y-186351428D01*
X180245714Y-185065714D02*
X180912380Y-185065714D01*
X179864761Y-185303809D02*
X180579047Y-185541904D01*
X180579047Y-184922857D01*
%TO.C,R10*%
X186962380Y-192322857D02*
X186486190Y-192656190D01*
X186962380Y-192894285D02*
X185962380Y-192894285D01*
X185962380Y-192513333D01*
X186010000Y-192418095D01*
X186057619Y-192370476D01*
X186152857Y-192322857D01*
X186295714Y-192322857D01*
X186390952Y-192370476D01*
X186438571Y-192418095D01*
X186486190Y-192513333D01*
X186486190Y-192894285D01*
X186962380Y-191370476D02*
X186962380Y-191941904D01*
X186962380Y-191656190D02*
X185962380Y-191656190D01*
X186105238Y-191751428D01*
X186200476Y-191846666D01*
X186248095Y-191941904D01*
X185962380Y-190751428D02*
X185962380Y-190656190D01*
X186010000Y-190560952D01*
X186057619Y-190513333D01*
X186152857Y-190465714D01*
X186343333Y-190418095D01*
X186581428Y-190418095D01*
X186771904Y-190465714D01*
X186867142Y-190513333D01*
X186914761Y-190560952D01*
X186962380Y-190656190D01*
X186962380Y-190751428D01*
X186914761Y-190846666D01*
X186867142Y-190894285D01*
X186771904Y-190941904D01*
X186581428Y-190989523D01*
X186343333Y-190989523D01*
X186152857Y-190941904D01*
X186057619Y-190894285D01*
X186010000Y-190846666D01*
X185962380Y-190751428D01*
D11*
%TO.C,IC1*%
X172220238Y-131654523D02*
X172220238Y-130384523D01*
X173550714Y-131533571D02*
X173490238Y-131594047D01*
X173308809Y-131654523D01*
X173187857Y-131654523D01*
X173006428Y-131594047D01*
X172885476Y-131473095D01*
X172825000Y-131352142D01*
X172764523Y-131110238D01*
X172764523Y-130928809D01*
X172825000Y-130686904D01*
X172885476Y-130565952D01*
X173006428Y-130445000D01*
X173187857Y-130384523D01*
X173308809Y-130384523D01*
X173490238Y-130445000D01*
X173550714Y-130505476D01*
X174760238Y-131654523D02*
X174034523Y-131654523D01*
X174397380Y-131654523D02*
X174397380Y-130384523D01*
X174276428Y-130565952D01*
X174155476Y-130686904D01*
X174034523Y-130747380D01*
D10*
%TO.C,K1*%
X209976583Y-82531294D02*
X208976489Y-82531294D01*
X209976583Y-81959812D02*
X209405101Y-82388424D01*
X208976489Y-81959812D02*
X209547971Y-82531294D01*
X209976583Y-81007341D02*
X209976583Y-81578824D01*
X209976583Y-81293083D02*
X208976489Y-81293083D01*
X209119360Y-81388330D01*
X209214607Y-81483577D01*
X209262230Y-81578824D01*
%TO.C,C1*%
X162317142Y-187946666D02*
X162364761Y-187994285D01*
X162412380Y-188137142D01*
X162412380Y-188232380D01*
X162364761Y-188375238D01*
X162269523Y-188470476D01*
X162174285Y-188518095D01*
X161983809Y-188565714D01*
X161840952Y-188565714D01*
X161650476Y-188518095D01*
X161555238Y-188470476D01*
X161460000Y-188375238D01*
X161412380Y-188232380D01*
X161412380Y-188137142D01*
X161460000Y-187994285D01*
X161507619Y-187946666D01*
X162412380Y-186994285D02*
X162412380Y-187565714D01*
X162412380Y-187280000D02*
X161412380Y-187280000D01*
X161555238Y-187375238D01*
X161650476Y-187470476D01*
X161698095Y-187565714D01*
D11*
%TO.C,Q11*%
X155155476Y-89805714D02*
X155095000Y-89926666D01*
X154974047Y-90047619D01*
X154792619Y-90229047D01*
X154732142Y-90350000D01*
X154732142Y-90470952D01*
X155034523Y-90410476D02*
X154974047Y-90531428D01*
X154853095Y-90652380D01*
X154611190Y-90712857D01*
X154187857Y-90712857D01*
X153945952Y-90652380D01*
X153825000Y-90531428D01*
X153764523Y-90410476D01*
X153764523Y-90168571D01*
X153825000Y-90047619D01*
X153945952Y-89926666D01*
X154187857Y-89866190D01*
X154611190Y-89866190D01*
X154853095Y-89926666D01*
X154974047Y-90047619D01*
X155034523Y-90168571D01*
X155034523Y-90410476D01*
X155034523Y-88656666D02*
X155034523Y-89382380D01*
X155034523Y-89019523D02*
X153764523Y-89019523D01*
X153945952Y-89140476D01*
X154066904Y-89261428D01*
X154127380Y-89382380D01*
X155034523Y-87447142D02*
X155034523Y-88172857D01*
X155034523Y-87810000D02*
X153764523Y-87810000D01*
X153945952Y-87930952D01*
X154066904Y-88051904D01*
X154127380Y-88172857D01*
%TO.C,U2*%
X232164523Y-181347619D02*
X233192619Y-181347619D01*
X233313571Y-181287142D01*
X233374047Y-181226666D01*
X233434523Y-181105714D01*
X233434523Y-180863809D01*
X233374047Y-180742857D01*
X233313571Y-180682380D01*
X233192619Y-180621904D01*
X232164523Y-180621904D01*
X232285476Y-180077619D02*
X232225000Y-180017142D01*
X232164523Y-179896190D01*
X232164523Y-179593809D01*
X232225000Y-179472857D01*
X232285476Y-179412380D01*
X232406428Y-179351904D01*
X232527380Y-179351904D01*
X232708809Y-179412380D01*
X233434523Y-180138095D01*
X233434523Y-179351904D01*
D10*
%TO.C,C8*%
X279037142Y-144596666D02*
X279084761Y-144644285D01*
X279132380Y-144787142D01*
X279132380Y-144882380D01*
X279084761Y-145025238D01*
X278989523Y-145120476D01*
X278894285Y-145168095D01*
X278703809Y-145215714D01*
X278560952Y-145215714D01*
X278370476Y-145168095D01*
X278275238Y-145120476D01*
X278180000Y-145025238D01*
X278132380Y-144882380D01*
X278132380Y-144787142D01*
X278180000Y-144644285D01*
X278227619Y-144596666D01*
X278560952Y-144025238D02*
X278513333Y-144120476D01*
X278465714Y-144168095D01*
X278370476Y-144215714D01*
X278322857Y-144215714D01*
X278227619Y-144168095D01*
X278180000Y-144120476D01*
X278132380Y-144025238D01*
X278132380Y-143834761D01*
X278180000Y-143739523D01*
X278227619Y-143691904D01*
X278322857Y-143644285D01*
X278370476Y-143644285D01*
X278465714Y-143691904D01*
X278513333Y-143739523D01*
X278560952Y-143834761D01*
X278560952Y-144025238D01*
X278608571Y-144120476D01*
X278656190Y-144168095D01*
X278751428Y-144215714D01*
X278941904Y-144215714D01*
X279037142Y-144168095D01*
X279084761Y-144120476D01*
X279132380Y-144025238D01*
X279132380Y-143834761D01*
X279084761Y-143739523D01*
X279037142Y-143691904D01*
X278941904Y-143644285D01*
X278751428Y-143644285D01*
X278656190Y-143691904D01*
X278608571Y-143739523D01*
X278560952Y-143834761D01*
D11*
%TO.C,D6*%
X181222619Y-91394523D02*
X181222619Y-90124523D01*
X181525000Y-90124523D01*
X181706428Y-90185000D01*
X181827380Y-90305952D01*
X181887857Y-90426904D01*
X181948333Y-90668809D01*
X181948333Y-90850238D01*
X181887857Y-91092142D01*
X181827380Y-91213095D01*
X181706428Y-91334047D01*
X181525000Y-91394523D01*
X181222619Y-91394523D01*
X183036904Y-90124523D02*
X182795000Y-90124523D01*
X182674047Y-90185000D01*
X182613571Y-90245476D01*
X182492619Y-90426904D01*
X182432142Y-90668809D01*
X182432142Y-91152619D01*
X182492619Y-91273571D01*
X182553095Y-91334047D01*
X182674047Y-91394523D01*
X182915952Y-91394523D01*
X183036904Y-91334047D01*
X183097380Y-91273571D01*
X183157857Y-91152619D01*
X183157857Y-90850238D01*
X183097380Y-90729285D01*
X183036904Y-90668809D01*
X182915952Y-90608333D01*
X182674047Y-90608333D01*
X182553095Y-90668809D01*
X182492619Y-90729285D01*
X182432142Y-90850238D01*
D10*
%TO.C,R27*%
X151612380Y-192410357D02*
X151136190Y-192743690D01*
X151612380Y-192981785D02*
X150612380Y-192981785D01*
X150612380Y-192600833D01*
X150660000Y-192505595D01*
X150707619Y-192457976D01*
X150802857Y-192410357D01*
X150945714Y-192410357D01*
X151040952Y-192457976D01*
X151088571Y-192505595D01*
X151136190Y-192600833D01*
X151136190Y-192981785D01*
X150707619Y-192029404D02*
X150660000Y-191981785D01*
X150612380Y-191886547D01*
X150612380Y-191648452D01*
X150660000Y-191553214D01*
X150707619Y-191505595D01*
X150802857Y-191457976D01*
X150898095Y-191457976D01*
X151040952Y-191505595D01*
X151612380Y-192077023D01*
X151612380Y-191457976D01*
X150612380Y-191124642D02*
X150612380Y-190457976D01*
X151612380Y-190886547D01*
D11*
%TO.C,Q9*%
X211615476Y-87530952D02*
X211555000Y-87651904D01*
X211434047Y-87772857D01*
X211252619Y-87954285D01*
X211192142Y-88075238D01*
X211192142Y-88196190D01*
X211494523Y-88135714D02*
X211434047Y-88256666D01*
X211313095Y-88377619D01*
X211071190Y-88438095D01*
X210647857Y-88438095D01*
X210405952Y-88377619D01*
X210285000Y-88256666D01*
X210224523Y-88135714D01*
X210224523Y-87893809D01*
X210285000Y-87772857D01*
X210405952Y-87651904D01*
X210647857Y-87591428D01*
X211071190Y-87591428D01*
X211313095Y-87651904D01*
X211434047Y-87772857D01*
X211494523Y-87893809D01*
X211494523Y-88135714D01*
X211494523Y-86986666D02*
X211494523Y-86744761D01*
X211434047Y-86623809D01*
X211373571Y-86563333D01*
X211192142Y-86442380D01*
X210950238Y-86381904D01*
X210466428Y-86381904D01*
X210345476Y-86442380D01*
X210285000Y-86502857D01*
X210224523Y-86623809D01*
X210224523Y-86865714D01*
X210285000Y-86986666D01*
X210345476Y-87047142D01*
X210466428Y-87107619D01*
X210768809Y-87107619D01*
X210889761Y-87047142D01*
X210950238Y-86986666D01*
X211010714Y-86865714D01*
X211010714Y-86623809D01*
X210950238Y-86502857D01*
X210889761Y-86442380D01*
X210768809Y-86381904D01*
D10*
%TO.C,R22*%
X272517142Y-124557380D02*
X272183809Y-124081190D01*
X271945714Y-124557380D02*
X271945714Y-123557380D01*
X272326666Y-123557380D01*
X272421904Y-123605000D01*
X272469523Y-123652619D01*
X272517142Y-123747857D01*
X272517142Y-123890714D01*
X272469523Y-123985952D01*
X272421904Y-124033571D01*
X272326666Y-124081190D01*
X271945714Y-124081190D01*
X272898095Y-123652619D02*
X272945714Y-123605000D01*
X273040952Y-123557380D01*
X273279047Y-123557380D01*
X273374285Y-123605000D01*
X273421904Y-123652619D01*
X273469523Y-123747857D01*
X273469523Y-123843095D01*
X273421904Y-123985952D01*
X272850476Y-124557380D01*
X273469523Y-124557380D01*
X273850476Y-123652619D02*
X273898095Y-123605000D01*
X273993333Y-123557380D01*
X274231428Y-123557380D01*
X274326666Y-123605000D01*
X274374285Y-123652619D01*
X274421904Y-123747857D01*
X274421904Y-123843095D01*
X274374285Y-123985952D01*
X273802857Y-124557380D01*
X274421904Y-124557380D01*
D11*
%TO.C,D3*%
X281422619Y-92194523D02*
X281422619Y-90924523D01*
X281725000Y-90924523D01*
X281906428Y-90985000D01*
X282027380Y-91105952D01*
X282087857Y-91226904D01*
X282148333Y-91468809D01*
X282148333Y-91650238D01*
X282087857Y-91892142D01*
X282027380Y-92013095D01*
X281906428Y-92134047D01*
X281725000Y-92194523D01*
X281422619Y-92194523D01*
X282571666Y-90924523D02*
X283357857Y-90924523D01*
X282934523Y-91408333D01*
X283115952Y-91408333D01*
X283236904Y-91468809D01*
X283297380Y-91529285D01*
X283357857Y-91650238D01*
X283357857Y-91952619D01*
X283297380Y-92073571D01*
X283236904Y-92134047D01*
X283115952Y-92194523D01*
X282753095Y-92194523D01*
X282632142Y-92134047D01*
X282571666Y-92073571D01*
%TO.C,D5*%
X241572619Y-92494523D02*
X241572619Y-91224523D01*
X241875000Y-91224523D01*
X242056428Y-91285000D01*
X242177380Y-91405952D01*
X242237857Y-91526904D01*
X242298333Y-91768809D01*
X242298333Y-91950238D01*
X242237857Y-92192142D01*
X242177380Y-92313095D01*
X242056428Y-92434047D01*
X241875000Y-92494523D01*
X241572619Y-92494523D01*
X243447380Y-91224523D02*
X242842619Y-91224523D01*
X242782142Y-91829285D01*
X242842619Y-91768809D01*
X242963571Y-91708333D01*
X243265952Y-91708333D01*
X243386904Y-91768809D01*
X243447380Y-91829285D01*
X243507857Y-91950238D01*
X243507857Y-92252619D01*
X243447380Y-92373571D01*
X243386904Y-92434047D01*
X243265952Y-92494523D01*
X242963571Y-92494523D01*
X242842619Y-92434047D01*
X242782142Y-92373571D01*
D10*
%TO.C,C7*%
X276993333Y-105549642D02*
X276945714Y-105597261D01*
X276802857Y-105644880D01*
X276707619Y-105644880D01*
X276564761Y-105597261D01*
X276469523Y-105502023D01*
X276421904Y-105406785D01*
X276374285Y-105216309D01*
X276374285Y-105073452D01*
X276421904Y-104882976D01*
X276469523Y-104787738D01*
X276564761Y-104692500D01*
X276707619Y-104644880D01*
X276802857Y-104644880D01*
X276945714Y-104692500D01*
X276993333Y-104740119D01*
X277326666Y-104644880D02*
X277993333Y-104644880D01*
X277564761Y-105644880D01*
%TO.C,K2*%
X270476583Y-82231294D02*
X269476489Y-82231294D01*
X270476583Y-81659812D02*
X269905101Y-82088424D01*
X269476489Y-81659812D02*
X270047971Y-82231294D01*
X269571736Y-81278824D02*
X269524113Y-81231200D01*
X269476489Y-81135953D01*
X269476489Y-80897835D01*
X269524113Y-80802588D01*
X269571736Y-80754965D01*
X269666983Y-80707341D01*
X269762230Y-80707341D01*
X269905101Y-80754965D01*
X270476583Y-81326447D01*
X270476583Y-80707341D01*
%TO.C,R16*%
X155417142Y-165082380D02*
X155083809Y-164606190D01*
X154845714Y-165082380D02*
X154845714Y-164082380D01*
X155226666Y-164082380D01*
X155321904Y-164130000D01*
X155369523Y-164177619D01*
X155417142Y-164272857D01*
X155417142Y-164415714D01*
X155369523Y-164510952D01*
X155321904Y-164558571D01*
X155226666Y-164606190D01*
X154845714Y-164606190D01*
X156369523Y-165082380D02*
X155798095Y-165082380D01*
X156083809Y-165082380D02*
X156083809Y-164082380D01*
X155988571Y-164225238D01*
X155893333Y-164320476D01*
X155798095Y-164368095D01*
X157226666Y-164082380D02*
X157036190Y-164082380D01*
X156940952Y-164130000D01*
X156893333Y-164177619D01*
X156798095Y-164320476D01*
X156750476Y-164510952D01*
X156750476Y-164891904D01*
X156798095Y-164987142D01*
X156845714Y-165034761D01*
X156940952Y-165082380D01*
X157131428Y-165082380D01*
X157226666Y-165034761D01*
X157274285Y-164987142D01*
X157321904Y-164891904D01*
X157321904Y-164653809D01*
X157274285Y-164558571D01*
X157226666Y-164510952D01*
X157131428Y-164463333D01*
X156940952Y-164463333D01*
X156845714Y-164510952D01*
X156798095Y-164558571D01*
X156750476Y-164653809D01*
%TO.C,J10*%
X148493333Y-202113333D02*
X149493333Y-202113333D01*
X149693333Y-202180000D01*
X149826666Y-202313333D01*
X149893333Y-202513333D01*
X149893333Y-202646666D01*
X149893333Y-200713333D02*
X149893333Y-201513333D01*
X149893333Y-201113333D02*
X148493333Y-201113333D01*
X148693333Y-201246666D01*
X148826666Y-201380000D01*
X148893333Y-201513333D01*
X148493333Y-199846666D02*
X148493333Y-199713333D01*
X148560000Y-199580000D01*
X148626666Y-199513333D01*
X148760000Y-199446666D01*
X149026666Y-199380000D01*
X149360000Y-199380000D01*
X149626666Y-199446666D01*
X149760000Y-199513333D01*
X149826666Y-199580000D01*
X149893333Y-199713333D01*
X149893333Y-199846666D01*
X149826666Y-199980000D01*
X149760000Y-200046666D01*
X149626666Y-200113333D01*
X149360000Y-200180000D01*
X149026666Y-200180000D01*
X148760000Y-200113333D01*
X148626666Y-200046666D01*
X148560000Y-199980000D01*
X148493333Y-199846666D01*
%TO.C,R20*%
X284717142Y-166282380D02*
X284383809Y-165806190D01*
X284145714Y-166282380D02*
X284145714Y-165282380D01*
X284526666Y-165282380D01*
X284621904Y-165330000D01*
X284669523Y-165377619D01*
X284717142Y-165472857D01*
X284717142Y-165615714D01*
X284669523Y-165710952D01*
X284621904Y-165758571D01*
X284526666Y-165806190D01*
X284145714Y-165806190D01*
X285098095Y-165377619D02*
X285145714Y-165330000D01*
X285240952Y-165282380D01*
X285479047Y-165282380D01*
X285574285Y-165330000D01*
X285621904Y-165377619D01*
X285669523Y-165472857D01*
X285669523Y-165568095D01*
X285621904Y-165710952D01*
X285050476Y-166282380D01*
X285669523Y-166282380D01*
X286288571Y-165282380D02*
X286383809Y-165282380D01*
X286479047Y-165330000D01*
X286526666Y-165377619D01*
X286574285Y-165472857D01*
X286621904Y-165663333D01*
X286621904Y-165901428D01*
X286574285Y-166091904D01*
X286526666Y-166187142D01*
X286479047Y-166234761D01*
X286383809Y-166282380D01*
X286288571Y-166282380D01*
X286193333Y-166234761D01*
X286145714Y-166187142D01*
X286098095Y-166091904D01*
X286050476Y-165901428D01*
X286050476Y-165663333D01*
X286098095Y-165472857D01*
X286145714Y-165377619D01*
X286193333Y-165330000D01*
X286288571Y-165282380D01*
D11*
%TO.C,J5*%
X142164523Y-159803333D02*
X143071666Y-159803333D01*
X143253095Y-159863809D01*
X143374047Y-159984761D01*
X143434523Y-160166190D01*
X143434523Y-160287142D01*
X142164523Y-158593809D02*
X142164523Y-159198571D01*
X142769285Y-159259047D01*
X142708809Y-159198571D01*
X142648333Y-159077619D01*
X142648333Y-158775238D01*
X142708809Y-158654285D01*
X142769285Y-158593809D01*
X142890238Y-158533333D01*
X143192619Y-158533333D01*
X143313571Y-158593809D01*
X143374047Y-158654285D01*
X143434523Y-158775238D01*
X143434523Y-159077619D01*
X143374047Y-159198571D01*
X143313571Y-159259047D01*
D10*
%TO.C,C6*%
X163697142Y-167446666D02*
X163744761Y-167494285D01*
X163792380Y-167637142D01*
X163792380Y-167732380D01*
X163744761Y-167875238D01*
X163649523Y-167970476D01*
X163554285Y-168018095D01*
X163363809Y-168065714D01*
X163220952Y-168065714D01*
X163030476Y-168018095D01*
X162935238Y-167970476D01*
X162840000Y-167875238D01*
X162792380Y-167732380D01*
X162792380Y-167637142D01*
X162840000Y-167494285D01*
X162887619Y-167446666D01*
X162792380Y-166589523D02*
X162792380Y-166780000D01*
X162840000Y-166875238D01*
X162887619Y-166922857D01*
X163030476Y-167018095D01*
X163220952Y-167065714D01*
X163601904Y-167065714D01*
X163697142Y-167018095D01*
X163744761Y-166970476D01*
X163792380Y-166875238D01*
X163792380Y-166684761D01*
X163744761Y-166589523D01*
X163697142Y-166541904D01*
X163601904Y-166494285D01*
X163363809Y-166494285D01*
X163268571Y-166541904D01*
X163220952Y-166589523D01*
X163173333Y-166684761D01*
X163173333Y-166875238D01*
X163220952Y-166970476D01*
X163268571Y-167018095D01*
X163363809Y-167065714D01*
%TO.C,R7*%
X160812380Y-183434166D02*
X160336190Y-183767500D01*
X160812380Y-184005595D02*
X159812380Y-184005595D01*
X159812380Y-183624642D01*
X159860000Y-183529404D01*
X159907619Y-183481785D01*
X160002857Y-183434166D01*
X160145714Y-183434166D01*
X160240952Y-183481785D01*
X160288571Y-183529404D01*
X160336190Y-183624642D01*
X160336190Y-184005595D01*
X159812380Y-183100833D02*
X159812380Y-182434166D01*
X160812380Y-182862738D01*
%TO.C,K7*%
X250476583Y-82431294D02*
X249476489Y-82431294D01*
X250476583Y-81859812D02*
X249905101Y-82288424D01*
X249476489Y-81859812D02*
X250047971Y-82431294D01*
X249476489Y-81526447D02*
X249476489Y-80859718D01*
X250476583Y-81288330D01*
%TO.C,C9*%
X278617142Y-162446666D02*
X278664761Y-162494285D01*
X278712380Y-162637142D01*
X278712380Y-162732380D01*
X278664761Y-162875238D01*
X278569523Y-162970476D01*
X278474285Y-163018095D01*
X278283809Y-163065714D01*
X278140952Y-163065714D01*
X277950476Y-163018095D01*
X277855238Y-162970476D01*
X277760000Y-162875238D01*
X277712380Y-162732380D01*
X277712380Y-162637142D01*
X277760000Y-162494285D01*
X277807619Y-162446666D01*
X278712380Y-161970476D02*
X278712380Y-161780000D01*
X278664761Y-161684761D01*
X278617142Y-161637142D01*
X278474285Y-161541904D01*
X278283809Y-161494285D01*
X277902857Y-161494285D01*
X277807619Y-161541904D01*
X277760000Y-161589523D01*
X277712380Y-161684761D01*
X277712380Y-161875238D01*
X277760000Y-161970476D01*
X277807619Y-162018095D01*
X277902857Y-162065714D01*
X278140952Y-162065714D01*
X278236190Y-162018095D01*
X278283809Y-161970476D01*
X278331428Y-161875238D01*
X278331428Y-161684761D01*
X278283809Y-161589523D01*
X278236190Y-161541904D01*
X278140952Y-161494285D01*
D11*
%TO.C,Q15*%
X252415476Y-89235714D02*
X252355000Y-89356666D01*
X252234047Y-89477619D01*
X252052619Y-89659047D01*
X251992142Y-89780000D01*
X251992142Y-89900952D01*
X252294523Y-89840476D02*
X252234047Y-89961428D01*
X252113095Y-90082380D01*
X251871190Y-90142857D01*
X251447857Y-90142857D01*
X251205952Y-90082380D01*
X251085000Y-89961428D01*
X251024523Y-89840476D01*
X251024523Y-89598571D01*
X251085000Y-89477619D01*
X251205952Y-89356666D01*
X251447857Y-89296190D01*
X251871190Y-89296190D01*
X252113095Y-89356666D01*
X252234047Y-89477619D01*
X252294523Y-89598571D01*
X252294523Y-89840476D01*
X252294523Y-88086666D02*
X252294523Y-88812380D01*
X252294523Y-88449523D02*
X251024523Y-88449523D01*
X251205952Y-88570476D01*
X251326904Y-88691428D01*
X251387380Y-88812380D01*
X251024523Y-86937619D02*
X251024523Y-87542380D01*
X251629285Y-87602857D01*
X251568809Y-87542380D01*
X251508333Y-87421428D01*
X251508333Y-87119047D01*
X251568809Y-86998095D01*
X251629285Y-86937619D01*
X251750238Y-86877142D01*
X252052619Y-86877142D01*
X252173571Y-86937619D01*
X252234047Y-86998095D01*
X252294523Y-87119047D01*
X252294523Y-87421428D01*
X252234047Y-87542380D01*
X252173571Y-87602857D01*
D10*
%TO.C,REF\u002A\u002A*%
X140826666Y-54232380D02*
X140493333Y-53756190D01*
X140255238Y-54232380D02*
X140255238Y-53232380D01*
X140636190Y-53232380D01*
X140731428Y-53280000D01*
X140779047Y-53327619D01*
X140826666Y-53422857D01*
X140826666Y-53565714D01*
X140779047Y-53660952D01*
X140731428Y-53708571D01*
X140636190Y-53756190D01*
X140255238Y-53756190D01*
X141255238Y-53708571D02*
X141588571Y-53708571D01*
X141731428Y-54232380D02*
X141255238Y-54232380D01*
X141255238Y-53232380D01*
X141731428Y-53232380D01*
X142493333Y-53708571D02*
X142160000Y-53708571D01*
X142160000Y-54232380D02*
X142160000Y-53232380D01*
X142636190Y-53232380D01*
X143160000Y-53232380D02*
X143160000Y-53470476D01*
X142921904Y-53375238D02*
X143160000Y-53470476D01*
X143398095Y-53375238D01*
X143017142Y-53660952D02*
X143160000Y-53470476D01*
X143302857Y-53660952D01*
X143921904Y-53232380D02*
X143921904Y-53470476D01*
X143683809Y-53375238D02*
X143921904Y-53470476D01*
X144160000Y-53375238D01*
X143779047Y-53660952D02*
X143921904Y-53470476D01*
X144064761Y-53660952D01*
D11*
%TO.C,C14*%
X276813571Y-186496428D02*
X276874047Y-186556904D01*
X276934523Y-186738333D01*
X276934523Y-186859285D01*
X276874047Y-187040714D01*
X276753095Y-187161666D01*
X276632142Y-187222142D01*
X276390238Y-187282619D01*
X276208809Y-187282619D01*
X275966904Y-187222142D01*
X275845952Y-187161666D01*
X275725000Y-187040714D01*
X275664523Y-186859285D01*
X275664523Y-186738333D01*
X275725000Y-186556904D01*
X275785476Y-186496428D01*
X276934523Y-185286904D02*
X276934523Y-186012619D01*
X276934523Y-185649761D02*
X275664523Y-185649761D01*
X275845952Y-185770714D01*
X275966904Y-185891666D01*
X276027380Y-186012619D01*
X276087857Y-184198333D02*
X276934523Y-184198333D01*
X275604047Y-184500714D02*
X276511190Y-184803095D01*
X276511190Y-184016904D01*
%TO.C,J8*%
X296844523Y-172243333D02*
X297751666Y-172243333D01*
X297933095Y-172303809D01*
X298054047Y-172424761D01*
X298114523Y-172606190D01*
X298114523Y-172727142D01*
X297388809Y-171457142D02*
X297328333Y-171578095D01*
X297267857Y-171638571D01*
X297146904Y-171699047D01*
X297086428Y-171699047D01*
X296965476Y-171638571D01*
X296905000Y-171578095D01*
X296844523Y-171457142D01*
X296844523Y-171215238D01*
X296905000Y-171094285D01*
X296965476Y-171033809D01*
X297086428Y-170973333D01*
X297146904Y-170973333D01*
X297267857Y-171033809D01*
X297328333Y-171094285D01*
X297388809Y-171215238D01*
X297388809Y-171457142D01*
X297449285Y-171578095D01*
X297509761Y-171638571D01*
X297630714Y-171699047D01*
X297872619Y-171699047D01*
X297993571Y-171638571D01*
X298054047Y-171578095D01*
X298114523Y-171457142D01*
X298114523Y-171215238D01*
X298054047Y-171094285D01*
X297993571Y-171033809D01*
X297872619Y-170973333D01*
X297630714Y-170973333D01*
X297509761Y-171033809D01*
X297449285Y-171094285D01*
X297388809Y-171215238D01*
D10*
%TO.C,K6*%
X189576583Y-82631294D02*
X188576489Y-82631294D01*
X189576583Y-82059812D02*
X189005101Y-82488424D01*
X188576489Y-82059812D02*
X189147971Y-82631294D01*
X188576489Y-81202588D02*
X188576489Y-81393083D01*
X188624113Y-81488330D01*
X188671736Y-81535953D01*
X188814607Y-81631200D01*
X189005101Y-81678824D01*
X189386089Y-81678824D01*
X189481336Y-81631200D01*
X189528959Y-81583577D01*
X189576583Y-81488330D01*
X189576583Y-81297835D01*
X189528959Y-81202588D01*
X189481336Y-81154965D01*
X189386089Y-81107341D01*
X189147971Y-81107341D01*
X189052724Y-81154965D01*
X189005101Y-81202588D01*
X188957477Y-81297835D01*
X188957477Y-81488330D01*
X189005101Y-81583577D01*
X189052724Y-81631200D01*
X189147971Y-81678824D01*
%TO.C,R40*%
X160517142Y-137782380D02*
X160183809Y-137306190D01*
X159945714Y-137782380D02*
X159945714Y-136782380D01*
X160326666Y-136782380D01*
X160421904Y-136830000D01*
X160469523Y-136877619D01*
X160517142Y-136972857D01*
X160517142Y-137115714D01*
X160469523Y-137210952D01*
X160421904Y-137258571D01*
X160326666Y-137306190D01*
X159945714Y-137306190D01*
X161374285Y-137115714D02*
X161374285Y-137782380D01*
X161136190Y-136734761D02*
X160898095Y-137449047D01*
X161517142Y-137449047D01*
X162088571Y-136782380D02*
X162183809Y-136782380D01*
X162279047Y-136830000D01*
X162326666Y-136877619D01*
X162374285Y-136972857D01*
X162421904Y-137163333D01*
X162421904Y-137401428D01*
X162374285Y-137591904D01*
X162326666Y-137687142D01*
X162279047Y-137734761D01*
X162183809Y-137782380D01*
X162088571Y-137782380D01*
X161993333Y-137734761D01*
X161945714Y-137687142D01*
X161898095Y-137591904D01*
X161850476Y-137401428D01*
X161850476Y-137163333D01*
X161898095Y-136972857D01*
X161945714Y-136877619D01*
X161993333Y-136830000D01*
X162088571Y-136782380D01*
%TO.C,R44*%
X232917142Y-95782380D02*
X232583809Y-95306190D01*
X232345714Y-95782380D02*
X232345714Y-94782380D01*
X232726666Y-94782380D01*
X232821904Y-94830000D01*
X232869523Y-94877619D01*
X232917142Y-94972857D01*
X232917142Y-95115714D01*
X232869523Y-95210952D01*
X232821904Y-95258571D01*
X232726666Y-95306190D01*
X232345714Y-95306190D01*
X233774285Y-95115714D02*
X233774285Y-95782380D01*
X233536190Y-94734761D02*
X233298095Y-95449047D01*
X233917142Y-95449047D01*
X234726666Y-95115714D02*
X234726666Y-95782380D01*
X234488571Y-94734761D02*
X234250476Y-95449047D01*
X234869523Y-95449047D01*
%TO.C,R49*%
X253404642Y-96582380D02*
X253071309Y-96106190D01*
X252833214Y-96582380D02*
X252833214Y-95582380D01*
X253214166Y-95582380D01*
X253309404Y-95630000D01*
X253357023Y-95677619D01*
X253404642Y-95772857D01*
X253404642Y-95915714D01*
X253357023Y-96010952D01*
X253309404Y-96058571D01*
X253214166Y-96106190D01*
X252833214Y-96106190D01*
X254261785Y-95915714D02*
X254261785Y-96582380D01*
X254023690Y-95534761D02*
X253785595Y-96249047D01*
X254404642Y-96249047D01*
X254833214Y-96582380D02*
X255023690Y-96582380D01*
X255118928Y-96534761D01*
X255166547Y-96487142D01*
X255261785Y-96344285D01*
X255309404Y-96153809D01*
X255309404Y-95772857D01*
X255261785Y-95677619D01*
X255214166Y-95630000D01*
X255118928Y-95582380D01*
X254928452Y-95582380D01*
X254833214Y-95630000D01*
X254785595Y-95677619D01*
X254737976Y-95772857D01*
X254737976Y-96010952D01*
X254785595Y-96106190D01*
X254833214Y-96153809D01*
X254928452Y-96201428D01*
X255118928Y-96201428D01*
X255214166Y-96153809D01*
X255261785Y-96106190D01*
X255309404Y-96010952D01*
%TO.C,R26*%
X162517142Y-115982380D02*
X162183809Y-115506190D01*
X161945714Y-115982380D02*
X161945714Y-114982380D01*
X162326666Y-114982380D01*
X162421904Y-115030000D01*
X162469523Y-115077619D01*
X162517142Y-115172857D01*
X162517142Y-115315714D01*
X162469523Y-115410952D01*
X162421904Y-115458571D01*
X162326666Y-115506190D01*
X161945714Y-115506190D01*
X162898095Y-115077619D02*
X162945714Y-115030000D01*
X163040952Y-114982380D01*
X163279047Y-114982380D01*
X163374285Y-115030000D01*
X163421904Y-115077619D01*
X163469523Y-115172857D01*
X163469523Y-115268095D01*
X163421904Y-115410952D01*
X162850476Y-115982380D01*
X163469523Y-115982380D01*
X164326666Y-114982380D02*
X164136190Y-114982380D01*
X164040952Y-115030000D01*
X163993333Y-115077619D01*
X163898095Y-115220476D01*
X163850476Y-115410952D01*
X163850476Y-115791904D01*
X163898095Y-115887142D01*
X163945714Y-115934761D01*
X164040952Y-115982380D01*
X164231428Y-115982380D01*
X164326666Y-115934761D01*
X164374285Y-115887142D01*
X164421904Y-115791904D01*
X164421904Y-115553809D01*
X164374285Y-115458571D01*
X164326666Y-115410952D01*
X164231428Y-115363333D01*
X164040952Y-115363333D01*
X163945714Y-115410952D01*
X163898095Y-115458571D01*
X163850476Y-115553809D01*
D11*
%TO.C,J18*%
X262371904Y-50934523D02*
X262371904Y-51841666D01*
X262311428Y-52023095D01*
X262190476Y-52144047D01*
X262009047Y-52204523D01*
X261888095Y-52204523D01*
X263641904Y-52204523D02*
X262916190Y-52204523D01*
X263279047Y-52204523D02*
X263279047Y-50934523D01*
X263158095Y-51115952D01*
X263037142Y-51236904D01*
X262916190Y-51297380D01*
X264367619Y-51478809D02*
X264246666Y-51418333D01*
X264186190Y-51357857D01*
X264125714Y-51236904D01*
X264125714Y-51176428D01*
X264186190Y-51055476D01*
X264246666Y-50995000D01*
X264367619Y-50934523D01*
X264609523Y-50934523D01*
X264730476Y-50995000D01*
X264790952Y-51055476D01*
X264851428Y-51176428D01*
X264851428Y-51236904D01*
X264790952Y-51357857D01*
X264730476Y-51418333D01*
X264609523Y-51478809D01*
X264367619Y-51478809D01*
X264246666Y-51539285D01*
X264186190Y-51599761D01*
X264125714Y-51720714D01*
X264125714Y-51962619D01*
X264186190Y-52083571D01*
X264246666Y-52144047D01*
X264367619Y-52204523D01*
X264609523Y-52204523D01*
X264730476Y-52144047D01*
X264790952Y-52083571D01*
X264851428Y-51962619D01*
X264851428Y-51720714D01*
X264790952Y-51599761D01*
X264730476Y-51539285D01*
X264609523Y-51478809D01*
D10*
%TO.C,C4*%
X207617142Y-187446666D02*
X207664761Y-187494285D01*
X207712380Y-187637142D01*
X207712380Y-187732380D01*
X207664761Y-187875238D01*
X207569523Y-187970476D01*
X207474285Y-188018095D01*
X207283809Y-188065714D01*
X207140952Y-188065714D01*
X206950476Y-188018095D01*
X206855238Y-187970476D01*
X206760000Y-187875238D01*
X206712380Y-187732380D01*
X206712380Y-187637142D01*
X206760000Y-187494285D01*
X206807619Y-187446666D01*
X207045714Y-186589523D02*
X207712380Y-186589523D01*
X206664761Y-186827619D02*
X207379047Y-187065714D01*
X207379047Y-186446666D01*
D11*
%TO.C,L1*%
X254348333Y-162754523D02*
X253743571Y-162754523D01*
X253743571Y-161484523D01*
X255436904Y-162754523D02*
X254711190Y-162754523D01*
X255074047Y-162754523D02*
X255074047Y-161484523D01*
X254953095Y-161665952D01*
X254832142Y-161786904D01*
X254711190Y-161847380D01*
D10*
%TO.C,U3*%
X205932380Y-110031904D02*
X206741904Y-110031904D01*
X206837142Y-109984285D01*
X206884761Y-109936666D01*
X206932380Y-109841428D01*
X206932380Y-109650952D01*
X206884761Y-109555714D01*
X206837142Y-109508095D01*
X206741904Y-109460476D01*
X205932380Y-109460476D01*
X205932380Y-109079523D02*
X205932380Y-108460476D01*
X206313333Y-108793809D01*
X206313333Y-108650952D01*
X206360952Y-108555714D01*
X206408571Y-108508095D01*
X206503809Y-108460476D01*
X206741904Y-108460476D01*
X206837142Y-108508095D01*
X206884761Y-108555714D01*
X206932380Y-108650952D01*
X206932380Y-108936666D01*
X206884761Y-109031904D01*
X206837142Y-109079523D01*
D11*
%TO.C,D2*%
X221022619Y-91794523D02*
X221022619Y-90524523D01*
X221325000Y-90524523D01*
X221506428Y-90585000D01*
X221627380Y-90705952D01*
X221687857Y-90826904D01*
X221748333Y-91068809D01*
X221748333Y-91250238D01*
X221687857Y-91492142D01*
X221627380Y-91613095D01*
X221506428Y-91734047D01*
X221325000Y-91794523D01*
X221022619Y-91794523D01*
X222232142Y-90645476D02*
X222292619Y-90585000D01*
X222413571Y-90524523D01*
X222715952Y-90524523D01*
X222836904Y-90585000D01*
X222897380Y-90645476D01*
X222957857Y-90766428D01*
X222957857Y-90887380D01*
X222897380Y-91068809D01*
X222171666Y-91794523D01*
X222957857Y-91794523D01*
D10*
%TO.C,K4*%
X230176583Y-82431294D02*
X229176489Y-82431294D01*
X230176583Y-81859812D02*
X229605101Y-82288424D01*
X229176489Y-81859812D02*
X229747971Y-82431294D01*
X229509854Y-81002588D02*
X230176583Y-81002588D01*
X229128865Y-81240706D02*
X229843218Y-81478824D01*
X229843218Y-80859718D01*
%TO.C,R31*%
X181512380Y-192122857D02*
X181036190Y-192456190D01*
X181512380Y-192694285D02*
X180512380Y-192694285D01*
X180512380Y-192313333D01*
X180560000Y-192218095D01*
X180607619Y-192170476D01*
X180702857Y-192122857D01*
X180845714Y-192122857D01*
X180940952Y-192170476D01*
X180988571Y-192218095D01*
X181036190Y-192313333D01*
X181036190Y-192694285D01*
X180512380Y-191789523D02*
X180512380Y-191170476D01*
X180893333Y-191503809D01*
X180893333Y-191360952D01*
X180940952Y-191265714D01*
X180988571Y-191218095D01*
X181083809Y-191170476D01*
X181321904Y-191170476D01*
X181417142Y-191218095D01*
X181464761Y-191265714D01*
X181512380Y-191360952D01*
X181512380Y-191646666D01*
X181464761Y-191741904D01*
X181417142Y-191789523D01*
X181512380Y-190218095D02*
X181512380Y-190789523D01*
X181512380Y-190503809D02*
X180512380Y-190503809D01*
X180655238Y-190599047D01*
X180750476Y-190694285D01*
X180798095Y-190789523D01*
%TO.C,R4*%
X284993333Y-105644880D02*
X284660000Y-105168690D01*
X284421904Y-105644880D02*
X284421904Y-104644880D01*
X284802857Y-104644880D01*
X284898095Y-104692500D01*
X284945714Y-104740119D01*
X284993333Y-104835357D01*
X284993333Y-104978214D01*
X284945714Y-105073452D01*
X284898095Y-105121071D01*
X284802857Y-105168690D01*
X284421904Y-105168690D01*
X285850476Y-104978214D02*
X285850476Y-105644880D01*
X285612380Y-104597261D02*
X285374285Y-105311547D01*
X285993333Y-105311547D01*
%TO.C,Q5*%
X196107619Y-185975238D02*
X196060000Y-186070476D01*
X195964761Y-186165714D01*
X195821904Y-186308571D01*
X195774285Y-186403809D01*
X195774285Y-186499047D01*
X196012380Y-186451428D02*
X195964761Y-186546666D01*
X195869523Y-186641904D01*
X195679047Y-186689523D01*
X195345714Y-186689523D01*
X195155238Y-186641904D01*
X195060000Y-186546666D01*
X195012380Y-186451428D01*
X195012380Y-186260952D01*
X195060000Y-186165714D01*
X195155238Y-186070476D01*
X195345714Y-186022857D01*
X195679047Y-186022857D01*
X195869523Y-186070476D01*
X195964761Y-186165714D01*
X196012380Y-186260952D01*
X196012380Y-186451428D01*
X195012380Y-185118095D02*
X195012380Y-185594285D01*
X195488571Y-185641904D01*
X195440952Y-185594285D01*
X195393333Y-185499047D01*
X195393333Y-185260952D01*
X195440952Y-185165714D01*
X195488571Y-185118095D01*
X195583809Y-185070476D01*
X195821904Y-185070476D01*
X195917142Y-185118095D01*
X195964761Y-185165714D01*
X196012380Y-185260952D01*
X196012380Y-185499047D01*
X195964761Y-185594285D01*
X195917142Y-185641904D01*
%TO.C,R42*%
X273504642Y-96482380D02*
X273171309Y-96006190D01*
X272933214Y-96482380D02*
X272933214Y-95482380D01*
X273314166Y-95482380D01*
X273409404Y-95530000D01*
X273457023Y-95577619D01*
X273504642Y-95672857D01*
X273504642Y-95815714D01*
X273457023Y-95910952D01*
X273409404Y-95958571D01*
X273314166Y-96006190D01*
X272933214Y-96006190D01*
X274361785Y-95815714D02*
X274361785Y-96482380D01*
X274123690Y-95434761D02*
X273885595Y-96149047D01*
X274504642Y-96149047D01*
X274837976Y-95577619D02*
X274885595Y-95530000D01*
X274980833Y-95482380D01*
X275218928Y-95482380D01*
X275314166Y-95530000D01*
X275361785Y-95577619D01*
X275409404Y-95672857D01*
X275409404Y-95768095D01*
X275361785Y-95910952D01*
X274790357Y-96482380D01*
X275409404Y-96482380D01*
%TO.C,C16*%
X248897142Y-181022857D02*
X248944761Y-181070476D01*
X248992380Y-181213333D01*
X248992380Y-181308571D01*
X248944761Y-181451428D01*
X248849523Y-181546666D01*
X248754285Y-181594285D01*
X248563809Y-181641904D01*
X248420952Y-181641904D01*
X248230476Y-181594285D01*
X248135238Y-181546666D01*
X248040000Y-181451428D01*
X247992380Y-181308571D01*
X247992380Y-181213333D01*
X248040000Y-181070476D01*
X248087619Y-181022857D01*
X248992380Y-180070476D02*
X248992380Y-180641904D01*
X248992380Y-180356190D02*
X247992380Y-180356190D01*
X248135238Y-180451428D01*
X248230476Y-180546666D01*
X248278095Y-180641904D01*
X247992380Y-179213333D02*
X247992380Y-179403809D01*
X248040000Y-179499047D01*
X248087619Y-179546666D01*
X248230476Y-179641904D01*
X248420952Y-179689523D01*
X248801904Y-179689523D01*
X248897142Y-179641904D01*
X248944761Y-179594285D01*
X248992380Y-179499047D01*
X248992380Y-179308571D01*
X248944761Y-179213333D01*
X248897142Y-179165714D01*
X248801904Y-179118095D01*
X248563809Y-179118095D01*
X248468571Y-179165714D01*
X248420952Y-179213333D01*
X248373333Y-179308571D01*
X248373333Y-179499047D01*
X248420952Y-179594285D01*
X248468571Y-179641904D01*
X248563809Y-179689523D01*
%TO.C,R30*%
X165912380Y-181222857D02*
X165436190Y-181556190D01*
X165912380Y-181794285D02*
X164912380Y-181794285D01*
X164912380Y-181413333D01*
X164960000Y-181318095D01*
X165007619Y-181270476D01*
X165102857Y-181222857D01*
X165245714Y-181222857D01*
X165340952Y-181270476D01*
X165388571Y-181318095D01*
X165436190Y-181413333D01*
X165436190Y-181794285D01*
X164912380Y-180889523D02*
X164912380Y-180270476D01*
X165293333Y-180603809D01*
X165293333Y-180460952D01*
X165340952Y-180365714D01*
X165388571Y-180318095D01*
X165483809Y-180270476D01*
X165721904Y-180270476D01*
X165817142Y-180318095D01*
X165864761Y-180365714D01*
X165912380Y-180460952D01*
X165912380Y-180746666D01*
X165864761Y-180841904D01*
X165817142Y-180889523D01*
X164912380Y-179651428D02*
X164912380Y-179556190D01*
X164960000Y-179460952D01*
X165007619Y-179413333D01*
X165102857Y-179365714D01*
X165293333Y-179318095D01*
X165531428Y-179318095D01*
X165721904Y-179365714D01*
X165817142Y-179413333D01*
X165864761Y-179460952D01*
X165912380Y-179556190D01*
X165912380Y-179651428D01*
X165864761Y-179746666D01*
X165817142Y-179794285D01*
X165721904Y-179841904D01*
X165531428Y-179889523D01*
X165293333Y-179889523D01*
X165102857Y-179841904D01*
X165007619Y-179794285D01*
X164960000Y-179746666D01*
X164912380Y-179651428D01*
%TO.C,R43*%
X150590078Y-96832380D02*
X150256745Y-96356190D01*
X150018650Y-96832380D02*
X150018650Y-95832380D01*
X150399602Y-95832380D01*
X150494840Y-95880000D01*
X150542459Y-95927619D01*
X150590078Y-96022857D01*
X150590078Y-96165714D01*
X150542459Y-96260952D01*
X150494840Y-96308571D01*
X150399602Y-96356190D01*
X150018650Y-96356190D01*
X151447221Y-96165714D02*
X151447221Y-96832380D01*
X151209126Y-95784761D02*
X150971031Y-96499047D01*
X151590078Y-96499047D01*
X151875793Y-95832380D02*
X152494840Y-95832380D01*
X152161507Y-96213333D01*
X152304364Y-96213333D01*
X152399602Y-96260952D01*
X152447221Y-96308571D01*
X152494840Y-96403809D01*
X152494840Y-96641904D01*
X152447221Y-96737142D01*
X152399602Y-96784761D01*
X152304364Y-96832380D01*
X152018650Y-96832380D01*
X151923412Y-96784761D01*
X151875793Y-96737142D01*
%TO.C,C19*%
X194917142Y-109722857D02*
X194964761Y-109770476D01*
X195012380Y-109913333D01*
X195012380Y-110008571D01*
X194964761Y-110151428D01*
X194869523Y-110246666D01*
X194774285Y-110294285D01*
X194583809Y-110341904D01*
X194440952Y-110341904D01*
X194250476Y-110294285D01*
X194155238Y-110246666D01*
X194060000Y-110151428D01*
X194012380Y-110008571D01*
X194012380Y-109913333D01*
X194060000Y-109770476D01*
X194107619Y-109722857D01*
X195012380Y-108770476D02*
X195012380Y-109341904D01*
X195012380Y-109056190D02*
X194012380Y-109056190D01*
X194155238Y-109151428D01*
X194250476Y-109246666D01*
X194298095Y-109341904D01*
X195012380Y-108294285D02*
X195012380Y-108103809D01*
X194964761Y-108008571D01*
X194917142Y-107960952D01*
X194774285Y-107865714D01*
X194583809Y-107818095D01*
X194202857Y-107818095D01*
X194107619Y-107865714D01*
X194060000Y-107913333D01*
X194012380Y-108008571D01*
X194012380Y-108199047D01*
X194060000Y-108294285D01*
X194107619Y-108341904D01*
X194202857Y-108389523D01*
X194440952Y-108389523D01*
X194536190Y-108341904D01*
X194583809Y-108294285D01*
X194631428Y-108199047D01*
X194631428Y-108008571D01*
X194583809Y-107913333D01*
X194536190Y-107865714D01*
X194440952Y-107818095D01*
%TO.C,Q1*%
X166107619Y-122375238D02*
X166060000Y-122470476D01*
X165964761Y-122565714D01*
X165821904Y-122708571D01*
X165774285Y-122803809D01*
X165774285Y-122899047D01*
X166012380Y-122851428D02*
X165964761Y-122946666D01*
X165869523Y-123041904D01*
X165679047Y-123089523D01*
X165345714Y-123089523D01*
X165155238Y-123041904D01*
X165060000Y-122946666D01*
X165012380Y-122851428D01*
X165012380Y-122660952D01*
X165060000Y-122565714D01*
X165155238Y-122470476D01*
X165345714Y-122422857D01*
X165679047Y-122422857D01*
X165869523Y-122470476D01*
X165964761Y-122565714D01*
X166012380Y-122660952D01*
X166012380Y-122851428D01*
X166012380Y-121470476D02*
X166012380Y-122041904D01*
X166012380Y-121756190D02*
X165012380Y-121756190D01*
X165155238Y-121851428D01*
X165250476Y-121946666D01*
X165298095Y-122041904D01*
D11*
%TO.C,J4*%
X154464523Y-117703333D02*
X155371666Y-117703333D01*
X155553095Y-117763809D01*
X155674047Y-117884761D01*
X155734523Y-118066190D01*
X155734523Y-118187142D01*
X154887857Y-116554285D02*
X155734523Y-116554285D01*
X154404047Y-116856666D02*
X155311190Y-117159047D01*
X155311190Y-116372857D01*
D10*
%TO.C,C17*%
X224417142Y-177437142D02*
X224369523Y-177484761D01*
X224226666Y-177532380D01*
X224131428Y-177532380D01*
X223988571Y-177484761D01*
X223893333Y-177389523D01*
X223845714Y-177294285D01*
X223798095Y-177103809D01*
X223798095Y-176960952D01*
X223845714Y-176770476D01*
X223893333Y-176675238D01*
X223988571Y-176580000D01*
X224131428Y-176532380D01*
X224226666Y-176532380D01*
X224369523Y-176580000D01*
X224417142Y-176627619D01*
X225369523Y-177532380D02*
X224798095Y-177532380D01*
X225083809Y-177532380D02*
X225083809Y-176532380D01*
X224988571Y-176675238D01*
X224893333Y-176770476D01*
X224798095Y-176818095D01*
X225702857Y-176532380D02*
X226369523Y-176532380D01*
X225940952Y-177532380D01*
%TO.C,R21*%
X280517142Y-124557380D02*
X280183809Y-124081190D01*
X279945714Y-124557380D02*
X279945714Y-123557380D01*
X280326666Y-123557380D01*
X280421904Y-123605000D01*
X280469523Y-123652619D01*
X280517142Y-123747857D01*
X280517142Y-123890714D01*
X280469523Y-123985952D01*
X280421904Y-124033571D01*
X280326666Y-124081190D01*
X279945714Y-124081190D01*
X280898095Y-123652619D02*
X280945714Y-123605000D01*
X281040952Y-123557380D01*
X281279047Y-123557380D01*
X281374285Y-123605000D01*
X281421904Y-123652619D01*
X281469523Y-123747857D01*
X281469523Y-123843095D01*
X281421904Y-123985952D01*
X280850476Y-124557380D01*
X281469523Y-124557380D01*
X282421904Y-124557380D02*
X281850476Y-124557380D01*
X282136190Y-124557380D02*
X282136190Y-123557380D01*
X282040952Y-123700238D01*
X281945714Y-123795476D01*
X281850476Y-123843095D01*
D11*
%TO.C,J13*%
X282471904Y-50934523D02*
X282471904Y-51841666D01*
X282411428Y-52023095D01*
X282290476Y-52144047D01*
X282109047Y-52204523D01*
X281988095Y-52204523D01*
X283741904Y-52204523D02*
X283016190Y-52204523D01*
X283379047Y-52204523D02*
X283379047Y-50934523D01*
X283258095Y-51115952D01*
X283137142Y-51236904D01*
X283016190Y-51297380D01*
X284165238Y-50934523D02*
X284951428Y-50934523D01*
X284528095Y-51418333D01*
X284709523Y-51418333D01*
X284830476Y-51478809D01*
X284890952Y-51539285D01*
X284951428Y-51660238D01*
X284951428Y-51962619D01*
X284890952Y-52083571D01*
X284830476Y-52144047D01*
X284709523Y-52204523D01*
X284346666Y-52204523D01*
X284225714Y-52144047D01*
X284165238Y-52083571D01*
D10*
%TO.C,C10*%
X276517142Y-124462142D02*
X276469523Y-124509761D01*
X276326666Y-124557380D01*
X276231428Y-124557380D01*
X276088571Y-124509761D01*
X275993333Y-124414523D01*
X275945714Y-124319285D01*
X275898095Y-124128809D01*
X275898095Y-123985952D01*
X275945714Y-123795476D01*
X275993333Y-123700238D01*
X276088571Y-123605000D01*
X276231428Y-123557380D01*
X276326666Y-123557380D01*
X276469523Y-123605000D01*
X276517142Y-123652619D01*
X277469523Y-124557380D02*
X276898095Y-124557380D01*
X277183809Y-124557380D02*
X277183809Y-123557380D01*
X277088571Y-123700238D01*
X276993333Y-123795476D01*
X276898095Y-123843095D01*
X278088571Y-123557380D02*
X278183809Y-123557380D01*
X278279047Y-123605000D01*
X278326666Y-123652619D01*
X278374285Y-123747857D01*
X278421904Y-123938333D01*
X278421904Y-124176428D01*
X278374285Y-124366904D01*
X278326666Y-124462142D01*
X278279047Y-124509761D01*
X278183809Y-124557380D01*
X278088571Y-124557380D01*
X277993333Y-124509761D01*
X277945714Y-124462142D01*
X277898095Y-124366904D01*
X277850476Y-124176428D01*
X277850476Y-123938333D01*
X277898095Y-123747857D01*
X277945714Y-123652619D01*
X277993333Y-123605000D01*
X278088571Y-123557380D01*
D11*
%TO.C,J7*%
X285964523Y-115615833D02*
X286871666Y-115615833D01*
X287053095Y-115676309D01*
X287174047Y-115797261D01*
X287234523Y-115978690D01*
X287234523Y-116099642D01*
X285964523Y-115132023D02*
X285964523Y-114285357D01*
X287234523Y-114829642D01*
D10*
%TO.C,R47*%
X225012380Y-138335357D02*
X224536190Y-138668690D01*
X225012380Y-138906785D02*
X224012380Y-138906785D01*
X224012380Y-138525833D01*
X224060000Y-138430595D01*
X224107619Y-138382976D01*
X224202857Y-138335357D01*
X224345714Y-138335357D01*
X224440952Y-138382976D01*
X224488571Y-138430595D01*
X224536190Y-138525833D01*
X224536190Y-138906785D01*
X224345714Y-137478214D02*
X225012380Y-137478214D01*
X223964761Y-137716309D02*
X224679047Y-137954404D01*
X224679047Y-137335357D01*
X224012380Y-137049642D02*
X224012380Y-136382976D01*
X225012380Y-136811547D01*
%TO.C,R15*%
X220812380Y-183322857D02*
X220336190Y-183656190D01*
X220812380Y-183894285D02*
X219812380Y-183894285D01*
X219812380Y-183513333D01*
X219860000Y-183418095D01*
X219907619Y-183370476D01*
X220002857Y-183322857D01*
X220145714Y-183322857D01*
X220240952Y-183370476D01*
X220288571Y-183418095D01*
X220336190Y-183513333D01*
X220336190Y-183894285D01*
X220812380Y-182370476D02*
X220812380Y-182941904D01*
X220812380Y-182656190D02*
X219812380Y-182656190D01*
X219955238Y-182751428D01*
X220050476Y-182846666D01*
X220098095Y-182941904D01*
X219812380Y-181465714D02*
X219812380Y-181941904D01*
X220288571Y-181989523D01*
X220240952Y-181941904D01*
X220193333Y-181846666D01*
X220193333Y-181608571D01*
X220240952Y-181513333D01*
X220288571Y-181465714D01*
X220383809Y-181418095D01*
X220621904Y-181418095D01*
X220717142Y-181465714D01*
X220764761Y-181513333D01*
X220812380Y-181608571D01*
X220812380Y-181846666D01*
X220764761Y-181941904D01*
X220717142Y-181989523D01*
%TO.C,C13*%
X266717142Y-176572857D02*
X266764761Y-176620476D01*
X266812380Y-176763333D01*
X266812380Y-176858571D01*
X266764761Y-177001428D01*
X266669523Y-177096666D01*
X266574285Y-177144285D01*
X266383809Y-177191904D01*
X266240952Y-177191904D01*
X266050476Y-177144285D01*
X265955238Y-177096666D01*
X265860000Y-177001428D01*
X265812380Y-176858571D01*
X265812380Y-176763333D01*
X265860000Y-176620476D01*
X265907619Y-176572857D01*
X266812380Y-175620476D02*
X266812380Y-176191904D01*
X266812380Y-175906190D02*
X265812380Y-175906190D01*
X265955238Y-176001428D01*
X266050476Y-176096666D01*
X266098095Y-176191904D01*
X265812380Y-175287142D02*
X265812380Y-174668095D01*
X266193333Y-175001428D01*
X266193333Y-174858571D01*
X266240952Y-174763333D01*
X266288571Y-174715714D01*
X266383809Y-174668095D01*
X266621904Y-174668095D01*
X266717142Y-174715714D01*
X266764761Y-174763333D01*
X266812380Y-174858571D01*
X266812380Y-175144285D01*
X266764761Y-175239523D01*
X266717142Y-175287142D01*
%TO.C,R18*%
X272517142Y-105644880D02*
X272183809Y-105168690D01*
X271945714Y-105644880D02*
X271945714Y-104644880D01*
X272326666Y-104644880D01*
X272421904Y-104692500D01*
X272469523Y-104740119D01*
X272517142Y-104835357D01*
X272517142Y-104978214D01*
X272469523Y-105073452D01*
X272421904Y-105121071D01*
X272326666Y-105168690D01*
X271945714Y-105168690D01*
X273469523Y-105644880D02*
X272898095Y-105644880D01*
X273183809Y-105644880D02*
X273183809Y-104644880D01*
X273088571Y-104787738D01*
X272993333Y-104882976D01*
X272898095Y-104930595D01*
X274040952Y-105073452D02*
X273945714Y-105025833D01*
X273898095Y-104978214D01*
X273850476Y-104882976D01*
X273850476Y-104835357D01*
X273898095Y-104740119D01*
X273945714Y-104692500D01*
X274040952Y-104644880D01*
X274231428Y-104644880D01*
X274326666Y-104692500D01*
X274374285Y-104740119D01*
X274421904Y-104835357D01*
X274421904Y-104882976D01*
X274374285Y-104978214D01*
X274326666Y-105025833D01*
X274231428Y-105073452D01*
X274040952Y-105073452D01*
X273945714Y-105121071D01*
X273898095Y-105168690D01*
X273850476Y-105263928D01*
X273850476Y-105454404D01*
X273898095Y-105549642D01*
X273945714Y-105597261D01*
X274040952Y-105644880D01*
X274231428Y-105644880D01*
X274326666Y-105597261D01*
X274374285Y-105549642D01*
X274421904Y-105454404D01*
X274421904Y-105263928D01*
X274374285Y-105168690D01*
X274326666Y-105121071D01*
X274231428Y-105073452D01*
%TO.C,R14*%
X216962380Y-192122857D02*
X216486190Y-192456190D01*
X216962380Y-192694285D02*
X215962380Y-192694285D01*
X215962380Y-192313333D01*
X216010000Y-192218095D01*
X216057619Y-192170476D01*
X216152857Y-192122857D01*
X216295714Y-192122857D01*
X216390952Y-192170476D01*
X216438571Y-192218095D01*
X216486190Y-192313333D01*
X216486190Y-192694285D01*
X216962380Y-191170476D02*
X216962380Y-191741904D01*
X216962380Y-191456190D02*
X215962380Y-191456190D01*
X216105238Y-191551428D01*
X216200476Y-191646666D01*
X216248095Y-191741904D01*
X216295714Y-190313333D02*
X216962380Y-190313333D01*
X215914761Y-190551428D02*
X216629047Y-190789523D01*
X216629047Y-190170476D01*
D11*
%TO.C,J11*%
X141964523Y-143108095D02*
X142871666Y-143108095D01*
X143053095Y-143168571D01*
X143174047Y-143289523D01*
X143234523Y-143470952D01*
X143234523Y-143591904D01*
X143234523Y-141838095D02*
X143234523Y-142563809D01*
X143234523Y-142200952D02*
X141964523Y-142200952D01*
X142145952Y-142321904D01*
X142266904Y-142442857D01*
X142327380Y-142563809D01*
X143234523Y-140628571D02*
X143234523Y-141354285D01*
X143234523Y-140991428D02*
X141964523Y-140991428D01*
X142145952Y-141112380D01*
X142266904Y-141233333D01*
X142327380Y-141354285D01*
D10*
%TO.C,R9*%
X175512380Y-183246666D02*
X175036190Y-183580000D01*
X175512380Y-183818095D02*
X174512380Y-183818095D01*
X174512380Y-183437142D01*
X174560000Y-183341904D01*
X174607619Y-183294285D01*
X174702857Y-183246666D01*
X174845714Y-183246666D01*
X174940952Y-183294285D01*
X174988571Y-183341904D01*
X175036190Y-183437142D01*
X175036190Y-183818095D01*
X175512380Y-182770476D02*
X175512380Y-182580000D01*
X175464761Y-182484761D01*
X175417142Y-182437142D01*
X175274285Y-182341904D01*
X175083809Y-182294285D01*
X174702857Y-182294285D01*
X174607619Y-182341904D01*
X174560000Y-182389523D01*
X174512380Y-182484761D01*
X174512380Y-182675238D01*
X174560000Y-182770476D01*
X174607619Y-182818095D01*
X174702857Y-182865714D01*
X174940952Y-182865714D01*
X175036190Y-182818095D01*
X175083809Y-182770476D01*
X175131428Y-182675238D01*
X175131428Y-182484761D01*
X175083809Y-182389523D01*
X175036190Y-182341904D01*
X174940952Y-182294285D01*
%TO.C,*%
D11*
%TO.C,J1*%
X295136666Y-191784523D02*
X295136666Y-192691666D01*
X295076190Y-192873095D01*
X294955238Y-192994047D01*
X294773809Y-193054523D01*
X294652857Y-193054523D01*
X296406666Y-193054523D02*
X295680952Y-193054523D01*
X296043809Y-193054523D02*
X296043809Y-191784523D01*
X295922857Y-191965952D01*
X295801904Y-192086904D01*
X295680952Y-192147380D01*
D10*
%TO.C,R46*%
X236917142Y-125432380D02*
X236583809Y-124956190D01*
X236345714Y-125432380D02*
X236345714Y-124432380D01*
X236726666Y-124432380D01*
X236821904Y-124480000D01*
X236869523Y-124527619D01*
X236917142Y-124622857D01*
X236917142Y-124765714D01*
X236869523Y-124860952D01*
X236821904Y-124908571D01*
X236726666Y-124956190D01*
X236345714Y-124956190D01*
X237774285Y-124765714D02*
X237774285Y-125432380D01*
X237536190Y-124384761D02*
X237298095Y-125099047D01*
X237917142Y-125099047D01*
X238726666Y-124432380D02*
X238536190Y-124432380D01*
X238440952Y-124480000D01*
X238393333Y-124527619D01*
X238298095Y-124670476D01*
X238250476Y-124860952D01*
X238250476Y-125241904D01*
X238298095Y-125337142D01*
X238345714Y-125384761D01*
X238440952Y-125432380D01*
X238631428Y-125432380D01*
X238726666Y-125384761D01*
X238774285Y-125337142D01*
X238821904Y-125241904D01*
X238821904Y-125003809D01*
X238774285Y-124908571D01*
X238726666Y-124860952D01*
X238631428Y-124813333D01*
X238440952Y-124813333D01*
X238345714Y-124860952D01*
X238298095Y-124908571D01*
X238250476Y-125003809D01*
D11*
%TO.C,J14*%
X152131904Y-63584523D02*
X152131904Y-64491666D01*
X152071428Y-64673095D01*
X151950476Y-64794047D01*
X151769047Y-64854523D01*
X151648095Y-64854523D01*
X153401904Y-64854523D02*
X152676190Y-64854523D01*
X153039047Y-64854523D02*
X153039047Y-63584523D01*
X152918095Y-63765952D01*
X152797142Y-63886904D01*
X152676190Y-63947380D01*
X154490476Y-64007857D02*
X154490476Y-64854523D01*
X154188095Y-63524047D02*
X153885714Y-64431190D01*
X154671904Y-64431190D01*
%TO.C,J9*%
X285884523Y-120075833D02*
X286791666Y-120075833D01*
X286973095Y-120136309D01*
X287094047Y-120257261D01*
X287154523Y-120438690D01*
X287154523Y-120559642D01*
X287154523Y-119410595D02*
X287154523Y-119168690D01*
X287094047Y-119047738D01*
X287033571Y-118987261D01*
X286852142Y-118866309D01*
X286610238Y-118805833D01*
X286126428Y-118805833D01*
X286005476Y-118866309D01*
X285945000Y-118926785D01*
X285884523Y-119047738D01*
X285884523Y-119289642D01*
X285945000Y-119410595D01*
X286005476Y-119471071D01*
X286126428Y-119531547D01*
X286428809Y-119531547D01*
X286549761Y-119471071D01*
X286610238Y-119410595D01*
X286670714Y-119289642D01*
X286670714Y-119047738D01*
X286610238Y-118926785D01*
X286549761Y-118866309D01*
X286428809Y-118805833D01*
D10*
%TO.C,R28*%
X152504642Y-179782380D02*
X152171309Y-179306190D01*
X151933214Y-179782380D02*
X151933214Y-178782380D01*
X152314166Y-178782380D01*
X152409404Y-178830000D01*
X152457023Y-178877619D01*
X152504642Y-178972857D01*
X152504642Y-179115714D01*
X152457023Y-179210952D01*
X152409404Y-179258571D01*
X152314166Y-179306190D01*
X151933214Y-179306190D01*
X152885595Y-178877619D02*
X152933214Y-178830000D01*
X153028452Y-178782380D01*
X153266547Y-178782380D01*
X153361785Y-178830000D01*
X153409404Y-178877619D01*
X153457023Y-178972857D01*
X153457023Y-179068095D01*
X153409404Y-179210952D01*
X152837976Y-179782380D01*
X153457023Y-179782380D01*
X154028452Y-179210952D02*
X153933214Y-179163333D01*
X153885595Y-179115714D01*
X153837976Y-179020476D01*
X153837976Y-178972857D01*
X153885595Y-178877619D01*
X153933214Y-178830000D01*
X154028452Y-178782380D01*
X154218928Y-178782380D01*
X154314166Y-178830000D01*
X154361785Y-178877619D01*
X154409404Y-178972857D01*
X154409404Y-179020476D01*
X154361785Y-179115714D01*
X154314166Y-179163333D01*
X154218928Y-179210952D01*
X154028452Y-179210952D01*
X153933214Y-179258571D01*
X153885595Y-179306190D01*
X153837976Y-179401428D01*
X153837976Y-179591904D01*
X153885595Y-179687142D01*
X153933214Y-179734761D01*
X154028452Y-179782380D01*
X154218928Y-179782380D01*
X154314166Y-179734761D01*
X154361785Y-179687142D01*
X154409404Y-179591904D01*
X154409404Y-179401428D01*
X154361785Y-179306190D01*
X154314166Y-179258571D01*
X154218928Y-179210952D01*
%TO.C,R38*%
X161129642Y-156182380D02*
X160796309Y-155706190D01*
X160558214Y-156182380D02*
X160558214Y-155182380D01*
X160939166Y-155182380D01*
X161034404Y-155230000D01*
X161082023Y-155277619D01*
X161129642Y-155372857D01*
X161129642Y-155515714D01*
X161082023Y-155610952D01*
X161034404Y-155658571D01*
X160939166Y-155706190D01*
X160558214Y-155706190D01*
X161462976Y-155182380D02*
X162082023Y-155182380D01*
X161748690Y-155563333D01*
X161891547Y-155563333D01*
X161986785Y-155610952D01*
X162034404Y-155658571D01*
X162082023Y-155753809D01*
X162082023Y-155991904D01*
X162034404Y-156087142D01*
X161986785Y-156134761D01*
X161891547Y-156182380D01*
X161605833Y-156182380D01*
X161510595Y-156134761D01*
X161462976Y-156087142D01*
X162653452Y-155610952D02*
X162558214Y-155563333D01*
X162510595Y-155515714D01*
X162462976Y-155420476D01*
X162462976Y-155372857D01*
X162510595Y-155277619D01*
X162558214Y-155230000D01*
X162653452Y-155182380D01*
X162843928Y-155182380D01*
X162939166Y-155230000D01*
X162986785Y-155277619D01*
X163034404Y-155372857D01*
X163034404Y-155420476D01*
X162986785Y-155515714D01*
X162939166Y-155563333D01*
X162843928Y-155610952D01*
X162653452Y-155610952D01*
X162558214Y-155658571D01*
X162510595Y-155706190D01*
X162462976Y-155801428D01*
X162462976Y-155991904D01*
X162510595Y-156087142D01*
X162558214Y-156134761D01*
X162653452Y-156182380D01*
X162843928Y-156182380D01*
X162939166Y-156134761D01*
X162986785Y-156087142D01*
X163034404Y-155991904D01*
X163034404Y-155801428D01*
X162986785Y-155706190D01*
X162939166Y-155658571D01*
X162843928Y-155610952D01*
%TO.C,J3*%
X232026666Y-123627380D02*
X232026666Y-124341666D01*
X231979047Y-124484523D01*
X231883809Y-124579761D01*
X231740952Y-124627380D01*
X231645714Y-124627380D01*
X232407619Y-123627380D02*
X233026666Y-123627380D01*
X232693333Y-124008333D01*
X232836190Y-124008333D01*
X232931428Y-124055952D01*
X232979047Y-124103571D01*
X233026666Y-124198809D01*
X233026666Y-124436904D01*
X232979047Y-124532142D01*
X232931428Y-124579761D01*
X232836190Y-124627380D01*
X232550476Y-124627380D01*
X232455238Y-124579761D01*
X232407619Y-124532142D01*
%TO.C,R35*%
X211712380Y-192222857D02*
X211236190Y-192556190D01*
X211712380Y-192794285D02*
X210712380Y-192794285D01*
X210712380Y-192413333D01*
X210760000Y-192318095D01*
X210807619Y-192270476D01*
X210902857Y-192222857D01*
X211045714Y-192222857D01*
X211140952Y-192270476D01*
X211188571Y-192318095D01*
X211236190Y-192413333D01*
X211236190Y-192794285D01*
X210712380Y-191889523D02*
X210712380Y-191270476D01*
X211093333Y-191603809D01*
X211093333Y-191460952D01*
X211140952Y-191365714D01*
X211188571Y-191318095D01*
X211283809Y-191270476D01*
X211521904Y-191270476D01*
X211617142Y-191318095D01*
X211664761Y-191365714D01*
X211712380Y-191460952D01*
X211712380Y-191746666D01*
X211664761Y-191841904D01*
X211617142Y-191889523D01*
X210712380Y-190365714D02*
X210712380Y-190841904D01*
X211188571Y-190889523D01*
X211140952Y-190841904D01*
X211093333Y-190746666D01*
X211093333Y-190508571D01*
X211140952Y-190413333D01*
X211188571Y-190365714D01*
X211283809Y-190318095D01*
X211521904Y-190318095D01*
X211617142Y-190365714D01*
X211664761Y-190413333D01*
X211712380Y-190508571D01*
X211712380Y-190746666D01*
X211664761Y-190841904D01*
X211617142Y-190889523D01*
%TO.C,J2*%
X206026666Y-123627380D02*
X206026666Y-124341666D01*
X205979047Y-124484523D01*
X205883809Y-124579761D01*
X205740952Y-124627380D01*
X205645714Y-124627380D01*
X206455238Y-123722619D02*
X206502857Y-123675000D01*
X206598095Y-123627380D01*
X206836190Y-123627380D01*
X206931428Y-123675000D01*
X206979047Y-123722619D01*
X207026666Y-123817857D01*
X207026666Y-123913095D01*
X206979047Y-124055952D01*
X206407619Y-124627380D01*
X207026666Y-124627380D01*
%TO.C,R33*%
X196612380Y-192122857D02*
X196136190Y-192456190D01*
X196612380Y-192694285D02*
X195612380Y-192694285D01*
X195612380Y-192313333D01*
X195660000Y-192218095D01*
X195707619Y-192170476D01*
X195802857Y-192122857D01*
X195945714Y-192122857D01*
X196040952Y-192170476D01*
X196088571Y-192218095D01*
X196136190Y-192313333D01*
X196136190Y-192694285D01*
X195612380Y-191789523D02*
X195612380Y-191170476D01*
X195993333Y-191503809D01*
X195993333Y-191360952D01*
X196040952Y-191265714D01*
X196088571Y-191218095D01*
X196183809Y-191170476D01*
X196421904Y-191170476D01*
X196517142Y-191218095D01*
X196564761Y-191265714D01*
X196612380Y-191360952D01*
X196612380Y-191646666D01*
X196564761Y-191741904D01*
X196517142Y-191789523D01*
X195612380Y-190837142D02*
X195612380Y-190218095D01*
X195993333Y-190551428D01*
X195993333Y-190408571D01*
X196040952Y-190313333D01*
X196088571Y-190265714D01*
X196183809Y-190218095D01*
X196421904Y-190218095D01*
X196517142Y-190265714D01*
X196564761Y-190313333D01*
X196612380Y-190408571D01*
X196612380Y-190694285D01*
X196564761Y-190789523D01*
X196517142Y-190837142D01*
D11*
%TO.C,D7*%
X201372619Y-91494523D02*
X201372619Y-90224523D01*
X201675000Y-90224523D01*
X201856428Y-90285000D01*
X201977380Y-90405952D01*
X202037857Y-90526904D01*
X202098333Y-90768809D01*
X202098333Y-90950238D01*
X202037857Y-91192142D01*
X201977380Y-91313095D01*
X201856428Y-91434047D01*
X201675000Y-91494523D01*
X201372619Y-91494523D01*
X202521666Y-90224523D02*
X203368333Y-90224523D01*
X202824047Y-91494523D01*
D10*
%TO.C,R11*%
X190812380Y-183622857D02*
X190336190Y-183956190D01*
X190812380Y-184194285D02*
X189812380Y-184194285D01*
X189812380Y-183813333D01*
X189860000Y-183718095D01*
X189907619Y-183670476D01*
X190002857Y-183622857D01*
X190145714Y-183622857D01*
X190240952Y-183670476D01*
X190288571Y-183718095D01*
X190336190Y-183813333D01*
X190336190Y-184194285D01*
X190812380Y-182670476D02*
X190812380Y-183241904D01*
X190812380Y-182956190D02*
X189812380Y-182956190D01*
X189955238Y-183051428D01*
X190050476Y-183146666D01*
X190098095Y-183241904D01*
X190812380Y-181718095D02*
X190812380Y-182289523D01*
X190812380Y-182003809D02*
X189812380Y-182003809D01*
X189955238Y-182099047D01*
X190050476Y-182194285D01*
X190098095Y-182289523D01*
%TO.C,C5*%
X222317142Y-187346666D02*
X222364761Y-187394285D01*
X222412380Y-187537142D01*
X222412380Y-187632380D01*
X222364761Y-187775238D01*
X222269523Y-187870476D01*
X222174285Y-187918095D01*
X221983809Y-187965714D01*
X221840952Y-187965714D01*
X221650476Y-187918095D01*
X221555238Y-187870476D01*
X221460000Y-187775238D01*
X221412380Y-187632380D01*
X221412380Y-187537142D01*
X221460000Y-187394285D01*
X221507619Y-187346666D01*
X221412380Y-186441904D02*
X221412380Y-186918095D01*
X221888571Y-186965714D01*
X221840952Y-186918095D01*
X221793333Y-186822857D01*
X221793333Y-186584761D01*
X221840952Y-186489523D01*
X221888571Y-186441904D01*
X221983809Y-186394285D01*
X222221904Y-186394285D01*
X222317142Y-186441904D01*
X222364761Y-186489523D01*
X222412380Y-186584761D01*
X222412380Y-186822857D01*
X222364761Y-186918095D01*
X222317142Y-186965714D01*
D11*
%TO.C,J15*%
X242371904Y-50934523D02*
X242371904Y-51841666D01*
X242311428Y-52023095D01*
X242190476Y-52144047D01*
X242009047Y-52204523D01*
X241888095Y-52204523D01*
X243641904Y-52204523D02*
X242916190Y-52204523D01*
X243279047Y-52204523D02*
X243279047Y-50934523D01*
X243158095Y-51115952D01*
X243037142Y-51236904D01*
X242916190Y-51297380D01*
X244790952Y-50934523D02*
X244186190Y-50934523D01*
X244125714Y-51539285D01*
X244186190Y-51478809D01*
X244307142Y-51418333D01*
X244609523Y-51418333D01*
X244730476Y-51478809D01*
X244790952Y-51539285D01*
X244851428Y-51660238D01*
X244851428Y-51962619D01*
X244790952Y-52083571D01*
X244730476Y-52144047D01*
X244609523Y-52204523D01*
X244307142Y-52204523D01*
X244186190Y-52144047D01*
X244125714Y-52083571D01*
D10*
%TO.C,R39*%
X154917142Y-141532380D02*
X154583809Y-141056190D01*
X154345714Y-141532380D02*
X154345714Y-140532380D01*
X154726666Y-140532380D01*
X154821904Y-140580000D01*
X154869523Y-140627619D01*
X154917142Y-140722857D01*
X154917142Y-140865714D01*
X154869523Y-140960952D01*
X154821904Y-141008571D01*
X154726666Y-141056190D01*
X154345714Y-141056190D01*
X155250476Y-140532380D02*
X155869523Y-140532380D01*
X155536190Y-140913333D01*
X155679047Y-140913333D01*
X155774285Y-140960952D01*
X155821904Y-141008571D01*
X155869523Y-141103809D01*
X155869523Y-141341904D01*
X155821904Y-141437142D01*
X155774285Y-141484761D01*
X155679047Y-141532380D01*
X155393333Y-141532380D01*
X155298095Y-141484761D01*
X155250476Y-141437142D01*
X156345714Y-141532380D02*
X156536190Y-141532380D01*
X156631428Y-141484761D01*
X156679047Y-141437142D01*
X156774285Y-141294285D01*
X156821904Y-141103809D01*
X156821904Y-140722857D01*
X156774285Y-140627619D01*
X156726666Y-140580000D01*
X156631428Y-140532380D01*
X156440952Y-140532380D01*
X156345714Y-140580000D01*
X156298095Y-140627619D01*
X156250476Y-140722857D01*
X156250476Y-140960952D01*
X156298095Y-141056190D01*
X156345714Y-141103809D01*
X156440952Y-141151428D01*
X156631428Y-141151428D01*
X156726666Y-141103809D01*
X156774285Y-141056190D01*
X156821904Y-140960952D01*
D11*
%TO.C,D4*%
X161172619Y-91394523D02*
X161172619Y-90124523D01*
X161475000Y-90124523D01*
X161656428Y-90185000D01*
X161777380Y-90305952D01*
X161837857Y-90426904D01*
X161898333Y-90668809D01*
X161898333Y-90850238D01*
X161837857Y-91092142D01*
X161777380Y-91213095D01*
X161656428Y-91334047D01*
X161475000Y-91394523D01*
X161172619Y-91394523D01*
X162986904Y-90547857D02*
X162986904Y-91394523D01*
X162684523Y-90064047D02*
X162382142Y-90971190D01*
X163168333Y-90971190D01*
D10*
%TO.C,R12*%
X202062380Y-192222857D02*
X201586190Y-192556190D01*
X202062380Y-192794285D02*
X201062380Y-192794285D01*
X201062380Y-192413333D01*
X201110000Y-192318095D01*
X201157619Y-192270476D01*
X201252857Y-192222857D01*
X201395714Y-192222857D01*
X201490952Y-192270476D01*
X201538571Y-192318095D01*
X201586190Y-192413333D01*
X201586190Y-192794285D01*
X202062380Y-191270476D02*
X202062380Y-191841904D01*
X202062380Y-191556190D02*
X201062380Y-191556190D01*
X201205238Y-191651428D01*
X201300476Y-191746666D01*
X201348095Y-191841904D01*
X201157619Y-190889523D02*
X201110000Y-190841904D01*
X201062380Y-190746666D01*
X201062380Y-190508571D01*
X201110000Y-190413333D01*
X201157619Y-190365714D01*
X201252857Y-190318095D01*
X201348095Y-190318095D01*
X201490952Y-190365714D01*
X202062380Y-190937142D01*
X202062380Y-190318095D01*
D11*
%TO.C,J12*%
X222271904Y-50934523D02*
X222271904Y-51841666D01*
X222211428Y-52023095D01*
X222090476Y-52144047D01*
X221909047Y-52204523D01*
X221788095Y-52204523D01*
X223541904Y-52204523D02*
X222816190Y-52204523D01*
X223179047Y-52204523D02*
X223179047Y-50934523D01*
X223058095Y-51115952D01*
X222937142Y-51236904D01*
X222816190Y-51297380D01*
X224025714Y-51055476D02*
X224086190Y-50995000D01*
X224207142Y-50934523D01*
X224509523Y-50934523D01*
X224630476Y-50995000D01*
X224690952Y-51055476D01*
X224751428Y-51176428D01*
X224751428Y-51297380D01*
X224690952Y-51478809D01*
X223965238Y-52204523D01*
X224751428Y-52204523D01*
D10*
%TO.C,R8*%
X171862380Y-191846666D02*
X171386190Y-192180000D01*
X171862380Y-192418095D02*
X170862380Y-192418095D01*
X170862380Y-192037142D01*
X170910000Y-191941904D01*
X170957619Y-191894285D01*
X171052857Y-191846666D01*
X171195714Y-191846666D01*
X171290952Y-191894285D01*
X171338571Y-191941904D01*
X171386190Y-192037142D01*
X171386190Y-192418095D01*
X171290952Y-191275238D02*
X171243333Y-191370476D01*
X171195714Y-191418095D01*
X171100476Y-191465714D01*
X171052857Y-191465714D01*
X170957619Y-191418095D01*
X170910000Y-191370476D01*
X170862380Y-191275238D01*
X170862380Y-191084761D01*
X170910000Y-190989523D01*
X170957619Y-190941904D01*
X171052857Y-190894285D01*
X171100476Y-190894285D01*
X171195714Y-190941904D01*
X171243333Y-190989523D01*
X171290952Y-191084761D01*
X171290952Y-191275238D01*
X171338571Y-191370476D01*
X171386190Y-191418095D01*
X171481428Y-191465714D01*
X171671904Y-191465714D01*
X171767142Y-191418095D01*
X171814761Y-191370476D01*
X171862380Y-191275238D01*
X171862380Y-191084761D01*
X171814761Y-190989523D01*
X171767142Y-190941904D01*
X171671904Y-190894285D01*
X171481428Y-190894285D01*
X171386190Y-190941904D01*
X171338571Y-190989523D01*
X171290952Y-191084761D01*
%TO.C,R48*%
X191617142Y-92732380D02*
X191283809Y-92256190D01*
X191045714Y-92732380D02*
X191045714Y-91732380D01*
X191426666Y-91732380D01*
X191521904Y-91780000D01*
X191569523Y-91827619D01*
X191617142Y-91922857D01*
X191617142Y-92065714D01*
X191569523Y-92160952D01*
X191521904Y-92208571D01*
X191426666Y-92256190D01*
X191045714Y-92256190D01*
X192474285Y-92065714D02*
X192474285Y-92732380D01*
X192236190Y-91684761D02*
X191998095Y-92399047D01*
X192617142Y-92399047D01*
X193140952Y-92160952D02*
X193045714Y-92113333D01*
X192998095Y-92065714D01*
X192950476Y-91970476D01*
X192950476Y-91922857D01*
X192998095Y-91827619D01*
X193045714Y-91780000D01*
X193140952Y-91732380D01*
X193331428Y-91732380D01*
X193426666Y-91780000D01*
X193474285Y-91827619D01*
X193521904Y-91922857D01*
X193521904Y-91970476D01*
X193474285Y-92065714D01*
X193426666Y-92113333D01*
X193331428Y-92160952D01*
X193140952Y-92160952D01*
X193045714Y-92208571D01*
X192998095Y-92256190D01*
X192950476Y-92351428D01*
X192950476Y-92541904D01*
X192998095Y-92637142D01*
X193045714Y-92684761D01*
X193140952Y-92732380D01*
X193331428Y-92732380D01*
X193426666Y-92684761D01*
X193474285Y-92637142D01*
X193521904Y-92541904D01*
X193521904Y-92351428D01*
X193474285Y-92256190D01*
X193426666Y-92208571D01*
X193331428Y-92160952D01*
%TO.C,C11*%
X160417142Y-152687142D02*
X160369523Y-152734761D01*
X160226666Y-152782380D01*
X160131428Y-152782380D01*
X159988571Y-152734761D01*
X159893333Y-152639523D01*
X159845714Y-152544285D01*
X159798095Y-152353809D01*
X159798095Y-152210952D01*
X159845714Y-152020476D01*
X159893333Y-151925238D01*
X159988571Y-151830000D01*
X160131428Y-151782380D01*
X160226666Y-151782380D01*
X160369523Y-151830000D01*
X160417142Y-151877619D01*
X161369523Y-152782380D02*
X160798095Y-152782380D01*
X161083809Y-152782380D02*
X161083809Y-151782380D01*
X160988571Y-151925238D01*
X160893333Y-152020476D01*
X160798095Y-152068095D01*
X162321904Y-152782380D02*
X161750476Y-152782380D01*
X162036190Y-152782380D02*
X162036190Y-151782380D01*
X161940952Y-151925238D01*
X161845714Y-152020476D01*
X161750476Y-152068095D01*
D11*
%TO.C,Q13*%
X170415476Y-88735714D02*
X170355000Y-88856666D01*
X170234047Y-88977619D01*
X170052619Y-89159047D01*
X169992142Y-89280000D01*
X169992142Y-89400952D01*
X170294523Y-89340476D02*
X170234047Y-89461428D01*
X170113095Y-89582380D01*
X169871190Y-89642857D01*
X169447857Y-89642857D01*
X169205952Y-89582380D01*
X169085000Y-89461428D01*
X169024523Y-89340476D01*
X169024523Y-89098571D01*
X169085000Y-88977619D01*
X169205952Y-88856666D01*
X169447857Y-88796190D01*
X169871190Y-88796190D01*
X170113095Y-88856666D01*
X170234047Y-88977619D01*
X170294523Y-89098571D01*
X170294523Y-89340476D01*
X170294523Y-87586666D02*
X170294523Y-88312380D01*
X170294523Y-87949523D02*
X169024523Y-87949523D01*
X169205952Y-88070476D01*
X169326904Y-88191428D01*
X169387380Y-88312380D01*
X169024523Y-87163333D02*
X169024523Y-86377142D01*
X169508333Y-86800476D01*
X169508333Y-86619047D01*
X169568809Y-86498095D01*
X169629285Y-86437619D01*
X169750238Y-86377142D01*
X170052619Y-86377142D01*
X170173571Y-86437619D01*
X170234047Y-86498095D01*
X170294523Y-86619047D01*
X170294523Y-86981904D01*
X170234047Y-87102857D01*
X170173571Y-87163333D01*
%TO.C,Q12*%
X231765476Y-88735714D02*
X231705000Y-88856666D01*
X231584047Y-88977619D01*
X231402619Y-89159047D01*
X231342142Y-89280000D01*
X231342142Y-89400952D01*
X231644523Y-89340476D02*
X231584047Y-89461428D01*
X231463095Y-89582380D01*
X231221190Y-89642857D01*
X230797857Y-89642857D01*
X230555952Y-89582380D01*
X230435000Y-89461428D01*
X230374523Y-89340476D01*
X230374523Y-89098571D01*
X230435000Y-88977619D01*
X230555952Y-88856666D01*
X230797857Y-88796190D01*
X231221190Y-88796190D01*
X231463095Y-88856666D01*
X231584047Y-88977619D01*
X231644523Y-89098571D01*
X231644523Y-89340476D01*
X231644523Y-87586666D02*
X231644523Y-88312380D01*
X231644523Y-87949523D02*
X230374523Y-87949523D01*
X230555952Y-88070476D01*
X230676904Y-88191428D01*
X230737380Y-88312380D01*
X230495476Y-87102857D02*
X230435000Y-87042380D01*
X230374523Y-86921428D01*
X230374523Y-86619047D01*
X230435000Y-86498095D01*
X230495476Y-86437619D01*
X230616428Y-86377142D01*
X230737380Y-86377142D01*
X230918809Y-86437619D01*
X231644523Y-87163333D01*
X231644523Y-86377142D01*
D10*
%TO.C,R37*%
X155317142Y-162982380D02*
X154983809Y-162506190D01*
X154745714Y-162982380D02*
X154745714Y-161982380D01*
X155126666Y-161982380D01*
X155221904Y-162030000D01*
X155269523Y-162077619D01*
X155317142Y-162172857D01*
X155317142Y-162315714D01*
X155269523Y-162410952D01*
X155221904Y-162458571D01*
X155126666Y-162506190D01*
X154745714Y-162506190D01*
X155650476Y-161982380D02*
X156269523Y-161982380D01*
X155936190Y-162363333D01*
X156079047Y-162363333D01*
X156174285Y-162410952D01*
X156221904Y-162458571D01*
X156269523Y-162553809D01*
X156269523Y-162791904D01*
X156221904Y-162887142D01*
X156174285Y-162934761D01*
X156079047Y-162982380D01*
X155793333Y-162982380D01*
X155698095Y-162934761D01*
X155650476Y-162887142D01*
X156602857Y-161982380D02*
X157269523Y-161982380D01*
X156840952Y-162982380D01*
%TO.C,K3*%
X149612423Y-84318164D02*
X148612329Y-84318164D01*
X149612423Y-83746682D02*
X149040941Y-84175294D01*
X148612329Y-83746682D02*
X149183811Y-84318164D01*
X148612329Y-83413317D02*
X148612329Y-82794211D01*
X148993317Y-83127576D01*
X148993317Y-82984705D01*
X149040941Y-82889458D01*
X149088564Y-82841835D01*
X149183811Y-82794211D01*
X149421929Y-82794211D01*
X149517176Y-82841835D01*
X149564799Y-82889458D01*
X149612423Y-82984705D01*
X149612423Y-83270447D01*
X149564799Y-83365694D01*
X149517176Y-83413317D01*
%TO.C,R6*%
X156962380Y-191959166D02*
X156486190Y-192292500D01*
X156962380Y-192530595D02*
X155962380Y-192530595D01*
X155962380Y-192149642D01*
X156010000Y-192054404D01*
X156057619Y-192006785D01*
X156152857Y-191959166D01*
X156295714Y-191959166D01*
X156390952Y-192006785D01*
X156438571Y-192054404D01*
X156486190Y-192149642D01*
X156486190Y-192530595D01*
X155962380Y-191102023D02*
X155962380Y-191292500D01*
X156010000Y-191387738D01*
X156057619Y-191435357D01*
X156200476Y-191530595D01*
X156390952Y-191578214D01*
X156771904Y-191578214D01*
X156867142Y-191530595D01*
X156914761Y-191482976D01*
X156962380Y-191387738D01*
X156962380Y-191197261D01*
X156914761Y-191102023D01*
X156867142Y-191054404D01*
X156771904Y-191006785D01*
X156533809Y-191006785D01*
X156438571Y-191054404D01*
X156390952Y-191102023D01*
X156343333Y-191197261D01*
X156343333Y-191387738D01*
X156390952Y-191482976D01*
X156438571Y-191530595D01*
X156533809Y-191578214D01*
%TO.C,R1*%
X182393333Y-128944880D02*
X182060000Y-128468690D01*
X181821904Y-128944880D02*
X181821904Y-127944880D01*
X182202857Y-127944880D01*
X182298095Y-127992500D01*
X182345714Y-128040119D01*
X182393333Y-128135357D01*
X182393333Y-128278214D01*
X182345714Y-128373452D01*
X182298095Y-128421071D01*
X182202857Y-128468690D01*
X181821904Y-128468690D01*
X183345714Y-128944880D02*
X182774285Y-128944880D01*
X183060000Y-128944880D02*
X183060000Y-127944880D01*
X182964761Y-128087738D01*
X182869523Y-128182976D01*
X182774285Y-128230595D01*
%TO.C,Q6*%
X211507619Y-186175238D02*
X211460000Y-186270476D01*
X211364761Y-186365714D01*
X211221904Y-186508571D01*
X211174285Y-186603809D01*
X211174285Y-186699047D01*
X211412380Y-186651428D02*
X211364761Y-186746666D01*
X211269523Y-186841904D01*
X211079047Y-186889523D01*
X210745714Y-186889523D01*
X210555238Y-186841904D01*
X210460000Y-186746666D01*
X210412380Y-186651428D01*
X210412380Y-186460952D01*
X210460000Y-186365714D01*
X210555238Y-186270476D01*
X210745714Y-186222857D01*
X211079047Y-186222857D01*
X211269523Y-186270476D01*
X211364761Y-186365714D01*
X211412380Y-186460952D01*
X211412380Y-186651428D01*
X210412380Y-185365714D02*
X210412380Y-185556190D01*
X210460000Y-185651428D01*
X210507619Y-185699047D01*
X210650476Y-185794285D01*
X210840952Y-185841904D01*
X211221904Y-185841904D01*
X211317142Y-185794285D01*
X211364761Y-185746666D01*
X211412380Y-185651428D01*
X211412380Y-185460952D01*
X211364761Y-185365714D01*
X211317142Y-185318095D01*
X211221904Y-185270476D01*
X210983809Y-185270476D01*
X210888571Y-185318095D01*
X210840952Y-185365714D01*
X210793333Y-185460952D01*
X210793333Y-185651428D01*
X210840952Y-185746666D01*
X210888571Y-185794285D01*
X210983809Y-185841904D01*
D11*
%TO.C,Q10*%
X272315476Y-88935714D02*
X272255000Y-89056666D01*
X272134047Y-89177619D01*
X271952619Y-89359047D01*
X271892142Y-89480000D01*
X271892142Y-89600952D01*
X272194523Y-89540476D02*
X272134047Y-89661428D01*
X272013095Y-89782380D01*
X271771190Y-89842857D01*
X271347857Y-89842857D01*
X271105952Y-89782380D01*
X270985000Y-89661428D01*
X270924523Y-89540476D01*
X270924523Y-89298571D01*
X270985000Y-89177619D01*
X271105952Y-89056666D01*
X271347857Y-88996190D01*
X271771190Y-88996190D01*
X272013095Y-89056666D01*
X272134047Y-89177619D01*
X272194523Y-89298571D01*
X272194523Y-89540476D01*
X272194523Y-87786666D02*
X272194523Y-88512380D01*
X272194523Y-88149523D02*
X270924523Y-88149523D01*
X271105952Y-88270476D01*
X271226904Y-88391428D01*
X271287380Y-88512380D01*
X270924523Y-87000476D02*
X270924523Y-86879523D01*
X270985000Y-86758571D01*
X271045476Y-86698095D01*
X271166428Y-86637619D01*
X271408333Y-86577142D01*
X271710714Y-86577142D01*
X271952619Y-86637619D01*
X272073571Y-86698095D01*
X272134047Y-86758571D01*
X272194523Y-86879523D01*
X272194523Y-87000476D01*
X272134047Y-87121428D01*
X272073571Y-87181904D01*
X271952619Y-87242380D01*
X271710714Y-87302857D01*
X271408333Y-87302857D01*
X271166428Y-87242380D01*
X271045476Y-87181904D01*
X270985000Y-87121428D01*
X270924523Y-87000476D01*
D10*
%TO.C,R32*%
X182417142Y-179382380D02*
X182083809Y-178906190D01*
X181845714Y-179382380D02*
X181845714Y-178382380D01*
X182226666Y-178382380D01*
X182321904Y-178430000D01*
X182369523Y-178477619D01*
X182417142Y-178572857D01*
X182417142Y-178715714D01*
X182369523Y-178810952D01*
X182321904Y-178858571D01*
X182226666Y-178906190D01*
X181845714Y-178906190D01*
X182750476Y-178382380D02*
X183369523Y-178382380D01*
X183036190Y-178763333D01*
X183179047Y-178763333D01*
X183274285Y-178810952D01*
X183321904Y-178858571D01*
X183369523Y-178953809D01*
X183369523Y-179191904D01*
X183321904Y-179287142D01*
X183274285Y-179334761D01*
X183179047Y-179382380D01*
X182893333Y-179382380D01*
X182798095Y-179334761D01*
X182750476Y-179287142D01*
X183750476Y-178477619D02*
X183798095Y-178430000D01*
X183893333Y-178382380D01*
X184131428Y-178382380D01*
X184226666Y-178430000D01*
X184274285Y-178477619D01*
X184321904Y-178572857D01*
X184321904Y-178668095D01*
X184274285Y-178810952D01*
X183702857Y-179382380D01*
X184321904Y-179382380D01*
D11*
%TO.C,J17*%
X202271904Y-50934523D02*
X202271904Y-51841666D01*
X202211428Y-52023095D01*
X202090476Y-52144047D01*
X201909047Y-52204523D01*
X201788095Y-52204523D01*
X203541904Y-52204523D02*
X202816190Y-52204523D01*
X203179047Y-52204523D02*
X203179047Y-50934523D01*
X203058095Y-51115952D01*
X202937142Y-51236904D01*
X202816190Y-51297380D01*
X203965238Y-50934523D02*
X204811904Y-50934523D01*
X204267619Y-52204523D01*
D10*
%TO.C,R5*%
X284993333Y-124644880D02*
X284660000Y-124168690D01*
X284421904Y-124644880D02*
X284421904Y-123644880D01*
X284802857Y-123644880D01*
X284898095Y-123692500D01*
X284945714Y-123740119D01*
X284993333Y-123835357D01*
X284993333Y-123978214D01*
X284945714Y-124073452D01*
X284898095Y-124121071D01*
X284802857Y-124168690D01*
X284421904Y-124168690D01*
X285898095Y-123644880D02*
X285421904Y-123644880D01*
X285374285Y-124121071D01*
X285421904Y-124073452D01*
X285517142Y-124025833D01*
X285755238Y-124025833D01*
X285850476Y-124073452D01*
X285898095Y-124121071D01*
X285945714Y-124216309D01*
X285945714Y-124454404D01*
X285898095Y-124549642D01*
X285850476Y-124597261D01*
X285755238Y-124644880D01*
X285517142Y-124644880D01*
X285421904Y-124597261D01*
X285374285Y-124549642D01*
%TO.C,R45*%
X171617142Y-96382380D02*
X171283809Y-95906190D01*
X171045714Y-96382380D02*
X171045714Y-95382380D01*
X171426666Y-95382380D01*
X171521904Y-95430000D01*
X171569523Y-95477619D01*
X171617142Y-95572857D01*
X171617142Y-95715714D01*
X171569523Y-95810952D01*
X171521904Y-95858571D01*
X171426666Y-95906190D01*
X171045714Y-95906190D01*
X172474285Y-95715714D02*
X172474285Y-96382380D01*
X172236190Y-95334761D02*
X171998095Y-96049047D01*
X172617142Y-96049047D01*
X173474285Y-95382380D02*
X172998095Y-95382380D01*
X172950476Y-95858571D01*
X172998095Y-95810952D01*
X173093333Y-95763333D01*
X173331428Y-95763333D01*
X173426666Y-95810952D01*
X173474285Y-95858571D01*
X173521904Y-95953809D01*
X173521904Y-96191904D01*
X173474285Y-96287142D01*
X173426666Y-96334761D01*
X173331428Y-96382380D01*
X173093333Y-96382380D01*
X172998095Y-96334761D01*
X172950476Y-96287142D01*
%TO.C,R41*%
X212717142Y-95382380D02*
X212383809Y-94906190D01*
X212145714Y-95382380D02*
X212145714Y-94382380D01*
X212526666Y-94382380D01*
X212621904Y-94430000D01*
X212669523Y-94477619D01*
X212717142Y-94572857D01*
X212717142Y-94715714D01*
X212669523Y-94810952D01*
X212621904Y-94858571D01*
X212526666Y-94906190D01*
X212145714Y-94906190D01*
X213574285Y-94715714D02*
X213574285Y-95382380D01*
X213336190Y-94334761D02*
X213098095Y-95049047D01*
X213717142Y-95049047D01*
X214621904Y-95382380D02*
X214050476Y-95382380D01*
X214336190Y-95382380D02*
X214336190Y-94382380D01*
X214240952Y-94525238D01*
X214145714Y-94620476D01*
X214050476Y-94668095D01*
%TO.C,R24*%
X156017142Y-128582380D02*
X155683809Y-128106190D01*
X155445714Y-128582380D02*
X155445714Y-127582380D01*
X155826666Y-127582380D01*
X155921904Y-127630000D01*
X155969523Y-127677619D01*
X156017142Y-127772857D01*
X156017142Y-127915714D01*
X155969523Y-128010952D01*
X155921904Y-128058571D01*
X155826666Y-128106190D01*
X155445714Y-128106190D01*
X156398095Y-127677619D02*
X156445714Y-127630000D01*
X156540952Y-127582380D01*
X156779047Y-127582380D01*
X156874285Y-127630000D01*
X156921904Y-127677619D01*
X156969523Y-127772857D01*
X156969523Y-127868095D01*
X156921904Y-128010952D01*
X156350476Y-128582380D01*
X156969523Y-128582380D01*
X157826666Y-127915714D02*
X157826666Y-128582380D01*
X157588571Y-127534761D02*
X157350476Y-128249047D01*
X157969523Y-128249047D01*
%TO.C,R23*%
X155017142Y-147282380D02*
X154683809Y-146806190D01*
X154445714Y-147282380D02*
X154445714Y-146282380D01*
X154826666Y-146282380D01*
X154921904Y-146330000D01*
X154969523Y-146377619D01*
X155017142Y-146472857D01*
X155017142Y-146615714D01*
X154969523Y-146710952D01*
X154921904Y-146758571D01*
X154826666Y-146806190D01*
X154445714Y-146806190D01*
X155398095Y-146377619D02*
X155445714Y-146330000D01*
X155540952Y-146282380D01*
X155779047Y-146282380D01*
X155874285Y-146330000D01*
X155921904Y-146377619D01*
X155969523Y-146472857D01*
X155969523Y-146568095D01*
X155921904Y-146710952D01*
X155350476Y-147282380D01*
X155969523Y-147282380D01*
X156302857Y-146282380D02*
X156921904Y-146282380D01*
X156588571Y-146663333D01*
X156731428Y-146663333D01*
X156826666Y-146710952D01*
X156874285Y-146758571D01*
X156921904Y-146853809D01*
X156921904Y-147091904D01*
X156874285Y-147187142D01*
X156826666Y-147234761D01*
X156731428Y-147282380D01*
X156445714Y-147282380D01*
X156350476Y-147234761D01*
X156302857Y-147187142D01*
%TO.C,R36*%
X212929642Y-179082380D02*
X212596309Y-178606190D01*
X212358214Y-179082380D02*
X212358214Y-178082380D01*
X212739166Y-178082380D01*
X212834404Y-178130000D01*
X212882023Y-178177619D01*
X212929642Y-178272857D01*
X212929642Y-178415714D01*
X212882023Y-178510952D01*
X212834404Y-178558571D01*
X212739166Y-178606190D01*
X212358214Y-178606190D01*
X213262976Y-178082380D02*
X213882023Y-178082380D01*
X213548690Y-178463333D01*
X213691547Y-178463333D01*
X213786785Y-178510952D01*
X213834404Y-178558571D01*
X213882023Y-178653809D01*
X213882023Y-178891904D01*
X213834404Y-178987142D01*
X213786785Y-179034761D01*
X213691547Y-179082380D01*
X213405833Y-179082380D01*
X213310595Y-179034761D01*
X213262976Y-178987142D01*
X214739166Y-178082380D02*
X214548690Y-178082380D01*
X214453452Y-178130000D01*
X214405833Y-178177619D01*
X214310595Y-178320476D01*
X214262976Y-178510952D01*
X214262976Y-178891904D01*
X214310595Y-178987142D01*
X214358214Y-179034761D01*
X214453452Y-179082380D01*
X214643928Y-179082380D01*
X214739166Y-179034761D01*
X214786785Y-178987142D01*
X214834404Y-178891904D01*
X214834404Y-178653809D01*
X214786785Y-178558571D01*
X214739166Y-178510952D01*
X214643928Y-178463333D01*
X214453452Y-178463333D01*
X214358214Y-178510952D01*
X214310595Y-178558571D01*
X214262976Y-178653809D01*
%TO.C,C12*%
X160017142Y-134137142D02*
X159969523Y-134184761D01*
X159826666Y-134232380D01*
X159731428Y-134232380D01*
X159588571Y-134184761D01*
X159493333Y-134089523D01*
X159445714Y-133994285D01*
X159398095Y-133803809D01*
X159398095Y-133660952D01*
X159445714Y-133470476D01*
X159493333Y-133375238D01*
X159588571Y-133280000D01*
X159731428Y-133232380D01*
X159826666Y-133232380D01*
X159969523Y-133280000D01*
X160017142Y-133327619D01*
X160969523Y-134232380D02*
X160398095Y-134232380D01*
X160683809Y-134232380D02*
X160683809Y-133232380D01*
X160588571Y-133375238D01*
X160493333Y-133470476D01*
X160398095Y-133518095D01*
X161350476Y-133327619D02*
X161398095Y-133280000D01*
X161493333Y-133232380D01*
X161731428Y-133232380D01*
X161826666Y-133280000D01*
X161874285Y-133327619D01*
X161921904Y-133422857D01*
X161921904Y-133518095D01*
X161874285Y-133660952D01*
X161302857Y-134232380D01*
X161921904Y-134232380D01*
%TO.C,R2*%
X163993333Y-134232380D02*
X163660000Y-133756190D01*
X163421904Y-134232380D02*
X163421904Y-133232380D01*
X163802857Y-133232380D01*
X163898095Y-133280000D01*
X163945714Y-133327619D01*
X163993333Y-133422857D01*
X163993333Y-133565714D01*
X163945714Y-133660952D01*
X163898095Y-133708571D01*
X163802857Y-133756190D01*
X163421904Y-133756190D01*
X164374285Y-133327619D02*
X164421904Y-133280000D01*
X164517142Y-133232380D01*
X164755238Y-133232380D01*
X164850476Y-133280000D01*
X164898095Y-133327619D01*
X164945714Y-133422857D01*
X164945714Y-133518095D01*
X164898095Y-133660952D01*
X164326666Y-134232380D01*
X164945714Y-134232380D01*
D11*
%TO.C,D8*%
X261572619Y-92894523D02*
X261572619Y-91624523D01*
X261875000Y-91624523D01*
X262056428Y-91685000D01*
X262177380Y-91805952D01*
X262237857Y-91926904D01*
X262298333Y-92168809D01*
X262298333Y-92350238D01*
X262237857Y-92592142D01*
X262177380Y-92713095D01*
X262056428Y-92834047D01*
X261875000Y-92894523D01*
X261572619Y-92894523D01*
X263024047Y-92168809D02*
X262903095Y-92108333D01*
X262842619Y-92047857D01*
X262782142Y-91926904D01*
X262782142Y-91866428D01*
X262842619Y-91745476D01*
X262903095Y-91685000D01*
X263024047Y-91624523D01*
X263265952Y-91624523D01*
X263386904Y-91685000D01*
X263447380Y-91745476D01*
X263507857Y-91866428D01*
X263507857Y-91926904D01*
X263447380Y-92047857D01*
X263386904Y-92108333D01*
X263265952Y-92168809D01*
X263024047Y-92168809D01*
X262903095Y-92229285D01*
X262842619Y-92289761D01*
X262782142Y-92410714D01*
X262782142Y-92652619D01*
X262842619Y-92773571D01*
X262903095Y-92834047D01*
X263024047Y-92894523D01*
X263265952Y-92894523D01*
X263386904Y-92834047D01*
X263447380Y-92773571D01*
X263507857Y-92652619D01*
X263507857Y-92410714D01*
X263447380Y-92289761D01*
X263386904Y-92229285D01*
X263265952Y-92168809D01*
%TO.C,Q14*%
X189755476Y-89605714D02*
X189695000Y-89726666D01*
X189574047Y-89847619D01*
X189392619Y-90029047D01*
X189332142Y-90150000D01*
X189332142Y-90270952D01*
X189634523Y-90210476D02*
X189574047Y-90331428D01*
X189453095Y-90452380D01*
X189211190Y-90512857D01*
X188787857Y-90512857D01*
X188545952Y-90452380D01*
X188425000Y-90331428D01*
X188364523Y-90210476D01*
X188364523Y-89968571D01*
X188425000Y-89847619D01*
X188545952Y-89726666D01*
X188787857Y-89666190D01*
X189211190Y-89666190D01*
X189453095Y-89726666D01*
X189574047Y-89847619D01*
X189634523Y-89968571D01*
X189634523Y-90210476D01*
X189634523Y-88456666D02*
X189634523Y-89182380D01*
X189634523Y-88819523D02*
X188364523Y-88819523D01*
X188545952Y-88940476D01*
X188666904Y-89061428D01*
X188727380Y-89182380D01*
X188787857Y-87368095D02*
X189634523Y-87368095D01*
X188304047Y-87670476D02*
X189211190Y-87972857D01*
X189211190Y-87186666D01*
D10*
%TO.C,R29*%
X166612380Y-192422857D02*
X166136190Y-192756190D01*
X166612380Y-192994285D02*
X165612380Y-192994285D01*
X165612380Y-192613333D01*
X165660000Y-192518095D01*
X165707619Y-192470476D01*
X165802857Y-192422857D01*
X165945714Y-192422857D01*
X166040952Y-192470476D01*
X166088571Y-192518095D01*
X166136190Y-192613333D01*
X166136190Y-192994285D01*
X165707619Y-192041904D02*
X165660000Y-191994285D01*
X165612380Y-191899047D01*
X165612380Y-191660952D01*
X165660000Y-191565714D01*
X165707619Y-191518095D01*
X165802857Y-191470476D01*
X165898095Y-191470476D01*
X166040952Y-191518095D01*
X166612380Y-192089523D01*
X166612380Y-191470476D01*
X166612380Y-190994285D02*
X166612380Y-190803809D01*
X166564761Y-190708571D01*
X166517142Y-190660952D01*
X166374285Y-190565714D01*
X166183809Y-190518095D01*
X165802857Y-190518095D01*
X165707619Y-190565714D01*
X165660000Y-190613333D01*
X165612380Y-190708571D01*
X165612380Y-190899047D01*
X165660000Y-190994285D01*
X165707619Y-191041904D01*
X165802857Y-191089523D01*
X166040952Y-191089523D01*
X166136190Y-191041904D01*
X166183809Y-190994285D01*
X166231428Y-190899047D01*
X166231428Y-190708571D01*
X166183809Y-190613333D01*
X166136190Y-190565714D01*
X166040952Y-190518095D01*
D12*
%TO.C,J43*%
X239565000Y-196810000D02*
X239565000Y-199410000D01*
X242165000Y-198080000D02*
X242165000Y-199410000D01*
X236965000Y-199410000D02*
X236965000Y-189130000D01*
X242165000Y-189130000D02*
X236965000Y-189130000D01*
X242165000Y-196810000D02*
X242165000Y-189130000D01*
X242165000Y-196810000D02*
X239565000Y-196810000D01*
X242165000Y-199410000D02*
X240835000Y-199410000D01*
X239565000Y-199410000D02*
X236965000Y-199410000D01*
%TO.C,J42*%
X155030000Y-152150000D02*
X156360000Y-152150000D01*
X155030000Y-154750000D02*
X157690000Y-154750000D01*
X155030000Y-154810000D02*
X157690000Y-154810000D01*
X157690000Y-154750000D02*
X157690000Y-154810000D01*
X155030000Y-154750000D02*
X155030000Y-154810000D01*
X155030000Y-153480000D02*
X155030000Y-152150000D01*
%TO.C,J41*%
X155030000Y-169750000D02*
X156360000Y-169750000D01*
X155030000Y-172350000D02*
X157690000Y-172350000D01*
X155030000Y-172410000D02*
X157690000Y-172410000D01*
X157690000Y-172350000D02*
X157690000Y-172410000D01*
X155030000Y-172350000D02*
X155030000Y-172410000D01*
X155030000Y-171080000D02*
X155030000Y-169750000D01*
%TO.C,J40*%
X221830000Y-190850000D02*
X223160000Y-190850000D01*
X221830000Y-193450000D02*
X224490000Y-193450000D01*
X221830000Y-193510000D02*
X224490000Y-193510000D01*
X224490000Y-193450000D02*
X224490000Y-193510000D01*
X221830000Y-193450000D02*
X221830000Y-193510000D01*
X221830000Y-192180000D02*
X221830000Y-190850000D01*
%TO.C,J39*%
X206830000Y-190750000D02*
X208160000Y-190750000D01*
X206830000Y-193350000D02*
X209490000Y-193350000D01*
X206830000Y-193410000D02*
X209490000Y-193410000D01*
X209490000Y-193350000D02*
X209490000Y-193410000D01*
X206830000Y-193350000D02*
X206830000Y-193410000D01*
X206830000Y-192080000D02*
X206830000Y-190750000D01*
%TO.C,J38*%
X191830000Y-190850000D02*
X193160000Y-190850000D01*
X191830000Y-193450000D02*
X194490000Y-193450000D01*
X191830000Y-193510000D02*
X194490000Y-193510000D01*
X194490000Y-193450000D02*
X194490000Y-193510000D01*
X191830000Y-193450000D02*
X191830000Y-193510000D01*
X191830000Y-192180000D02*
X191830000Y-190850000D01*
%TO.C,J37*%
X176730000Y-190950000D02*
X178060000Y-190950000D01*
X176730000Y-193550000D02*
X179390000Y-193550000D01*
X176730000Y-193610000D02*
X179390000Y-193610000D01*
X179390000Y-193550000D02*
X179390000Y-193610000D01*
X176730000Y-193550000D02*
X176730000Y-193610000D01*
X176730000Y-192280000D02*
X176730000Y-190950000D01*
%TO.C,J26*%
X161930000Y-191050000D02*
X163260000Y-191050000D01*
X161930000Y-193650000D02*
X164590000Y-193650000D01*
X161930000Y-193710000D02*
X164590000Y-193710000D01*
X164590000Y-193650000D02*
X164590000Y-193710000D01*
X161930000Y-193650000D02*
X161930000Y-193710000D01*
X161930000Y-192380000D02*
X161930000Y-191050000D01*
%TO.C,J24*%
X154930000Y-132450000D02*
X156260000Y-132450000D01*
X154930000Y-135050000D02*
X157590000Y-135050000D01*
X154930000Y-135110000D02*
X157590000Y-135110000D01*
X157590000Y-135050000D02*
X157590000Y-135110000D01*
X154930000Y-135050000D02*
X154930000Y-135110000D01*
X154930000Y-133780000D02*
X154930000Y-132450000D01*
%TO.C,J19*%
X195230000Y-114650000D02*
X196560000Y-114650000D01*
X195230000Y-117250000D02*
X197890000Y-117250000D01*
X195230000Y-117310000D02*
X197890000Y-117310000D01*
X197890000Y-117250000D02*
X197890000Y-117310000D01*
X195230000Y-117250000D02*
X195230000Y-117310000D01*
X195230000Y-115980000D02*
X195230000Y-114650000D01*
%TO.C,J36*%
X261230000Y-95250000D02*
X262560000Y-95250000D01*
X261230000Y-97850000D02*
X263890000Y-97850000D01*
X261230000Y-97910000D02*
X263890000Y-97910000D01*
X263890000Y-97850000D02*
X263890000Y-97910000D01*
X261230000Y-97850000D02*
X261230000Y-97910000D01*
X261230000Y-96580000D02*
X261230000Y-95250000D01*
%TO.C,J35*%
X201030000Y-92850000D02*
X202360000Y-92850000D01*
X201030000Y-95450000D02*
X203690000Y-95450000D01*
X201030000Y-95510000D02*
X203690000Y-95510000D01*
X203690000Y-95450000D02*
X203690000Y-95510000D01*
X201030000Y-95450000D02*
X201030000Y-95510000D01*
X201030000Y-94180000D02*
X201030000Y-92850000D01*
%TO.C,J34*%
X234430000Y-112950000D02*
X235760000Y-112950000D01*
X234430000Y-115550000D02*
X237090000Y-115550000D01*
X234430000Y-115610000D02*
X237090000Y-115610000D01*
X237090000Y-115550000D02*
X237090000Y-115610000D01*
X234430000Y-115550000D02*
X234430000Y-115610000D01*
X234430000Y-114280000D02*
X234430000Y-112950000D01*
%TO.C,J33*%
X180730000Y-93550000D02*
X182060000Y-93550000D01*
X180730000Y-96150000D02*
X183390000Y-96150000D01*
X180730000Y-96210000D02*
X183390000Y-96210000D01*
X183390000Y-96150000D02*
X183390000Y-96210000D01*
X180730000Y-96150000D02*
X180730000Y-96210000D01*
X180730000Y-94880000D02*
X180730000Y-93550000D01*
%TO.C,J32*%
X241230000Y-94650000D02*
X242560000Y-94650000D01*
X241230000Y-97250000D02*
X243890000Y-97250000D01*
X241230000Y-97310000D02*
X243890000Y-97310000D01*
X243890000Y-97250000D02*
X243890000Y-97310000D01*
X241230000Y-97250000D02*
X241230000Y-97310000D01*
X241230000Y-95980000D02*
X241230000Y-94650000D01*
%TO.C,J31*%
X160830000Y-96780000D02*
X160830000Y-95450000D01*
X160830000Y-98050000D02*
X160830000Y-98110000D01*
X163490000Y-98050000D02*
X163490000Y-98110000D01*
X160830000Y-98110000D02*
X163490000Y-98110000D01*
X160830000Y-98050000D02*
X163490000Y-98050000D01*
X160830000Y-95450000D02*
X162160000Y-95450000D01*
%TO.C,J30*%
X220630000Y-93450000D02*
X221960000Y-93450000D01*
X220630000Y-96050000D02*
X223290000Y-96050000D01*
X220630000Y-96110000D02*
X223290000Y-96110000D01*
X223290000Y-96050000D02*
X223290000Y-96110000D01*
X220630000Y-96050000D02*
X220630000Y-96110000D01*
X220630000Y-94780000D02*
X220630000Y-93450000D01*
%TO.C,J29*%
X165930000Y-156050000D02*
X167260000Y-156050000D01*
X165930000Y-158650000D02*
X168590000Y-158650000D01*
X165930000Y-158710000D02*
X168590000Y-158710000D01*
X168590000Y-158650000D02*
X168590000Y-158710000D01*
X165930000Y-158650000D02*
X165930000Y-158710000D01*
X165930000Y-157380000D02*
X165930000Y-156050000D01*
%TO.C,J28*%
X165630000Y-141050000D02*
X166960000Y-141050000D01*
X165630000Y-143650000D02*
X168290000Y-143650000D01*
X165630000Y-143710000D02*
X168290000Y-143710000D01*
X168290000Y-143650000D02*
X168290000Y-143710000D01*
X165630000Y-143650000D02*
X165630000Y-143710000D01*
X165630000Y-142380000D02*
X165630000Y-141050000D01*
%TO.C,J27*%
X186830000Y-177150000D02*
X188160000Y-177150000D01*
X186830000Y-179750000D02*
X189490000Y-179750000D01*
X186830000Y-179810000D02*
X189490000Y-179810000D01*
X189490000Y-179750000D02*
X189490000Y-179810000D01*
X186830000Y-179750000D02*
X186830000Y-179810000D01*
X186830000Y-178480000D02*
X186830000Y-177150000D01*
%TO.C,J25*%
X201730000Y-176150000D02*
X203060000Y-176150000D01*
X201730000Y-178750000D02*
X204390000Y-178750000D01*
X201730000Y-178810000D02*
X204390000Y-178810000D01*
X204390000Y-178750000D02*
X204390000Y-178810000D01*
X201730000Y-178750000D02*
X201730000Y-178810000D01*
X201730000Y-177480000D02*
X201730000Y-176150000D01*
%TO.C,J23*%
X171630000Y-177050000D02*
X172960000Y-177050000D01*
X171630000Y-179650000D02*
X174290000Y-179650000D01*
X171630000Y-179710000D02*
X174290000Y-179710000D01*
X174290000Y-179650000D02*
X174290000Y-179710000D01*
X171630000Y-179650000D02*
X171630000Y-179710000D01*
X171630000Y-178380000D02*
X171630000Y-177050000D01*
%TO.C,J22*%
X156930000Y-177550000D02*
X158260000Y-177550000D01*
X156930000Y-180150000D02*
X159590000Y-180150000D01*
X156930000Y-180210000D02*
X159590000Y-180210000D01*
X159590000Y-180150000D02*
X159590000Y-180210000D01*
X156930000Y-180150000D02*
X156930000Y-180210000D01*
X156930000Y-178880000D02*
X156930000Y-177550000D01*
%TO.C,J21*%
X247655000Y-115560000D02*
X247655000Y-118160000D01*
X250255000Y-116830000D02*
X250255000Y-118160000D01*
X245055000Y-118160000D02*
X245055000Y-107880000D01*
X250255000Y-107880000D02*
X245055000Y-107880000D01*
X250255000Y-115560000D02*
X250255000Y-107880000D01*
X250255000Y-115560000D02*
X247655000Y-115560000D01*
X250255000Y-118160000D02*
X248925000Y-118160000D01*
X247655000Y-118160000D02*
X245055000Y-118160000D01*
%TO.C,J20*%
X190515000Y-168905000D02*
X187915000Y-168905000D01*
X189245000Y-171505000D02*
X187915000Y-171505000D01*
X187915000Y-166305000D02*
X198195000Y-166305000D01*
X198195000Y-171505000D02*
X198195000Y-166305000D01*
X190515000Y-171505000D02*
X198195000Y-171505000D01*
X190515000Y-171505000D02*
X190515000Y-168905000D01*
X187915000Y-171505000D02*
X187915000Y-170175000D01*
X187915000Y-168905000D02*
X187915000Y-166305000D01*
%TO.C,U1*%
X251060000Y-186030000D02*
X251060000Y-184530000D01*
X260510000Y-184530000D02*
X260510000Y-179405000D01*
X261460000Y-186030000D02*
X261460000Y-184530000D01*
X252010000Y-184530000D02*
X252010000Y-183430000D01*
X251060000Y-184530000D02*
X252010000Y-184530000D01*
X261460000Y-184530000D02*
X260510000Y-184530000D01*
%TO.C,R34*%
X197932936Y-179645000D02*
X198387064Y-179645000D01*
X197932936Y-181115000D02*
X198387064Y-181115000D01*
%TO.C,Q7*%
X160100000Y-161880000D02*
X160100000Y-162530000D01*
X163220000Y-161880000D02*
X163220000Y-160205000D01*
X160100000Y-161880000D02*
X160100000Y-161230000D01*
X163220000Y-161880000D02*
X163220000Y-162530000D01*
%TO.C,R17*%
X281895000Y-107877936D02*
X281895000Y-108332064D01*
X280425000Y-107877936D02*
X280425000Y-108332064D01*
%TO.C,Q2*%
X151700000Y-186080000D02*
X151700000Y-186730000D01*
X154820000Y-186080000D02*
X154820000Y-186730000D01*
X154820000Y-186080000D02*
X154820000Y-184405000D01*
X151700000Y-186080000D02*
X151700000Y-185430000D01*
D13*
%TO.C,K5*%
X170410000Y-84830000D02*
X170410000Y-65730000D01*
X170410000Y-65730000D02*
X185910000Y-65730000D01*
X185910000Y-84830000D02*
X170410000Y-84830000D01*
X185910000Y-65730000D02*
X185910000Y-84830000D01*
D14*
X172141000Y-85480000D02*
G75*
G03*
X172141000Y-85480000I-100000J0D01*
G01*
D15*
%TO.C,J6*%
X288360000Y-152780000D02*
X292460000Y-152780000D01*
X288360000Y-137780000D02*
X288360000Y-152780000D01*
X295960000Y-137780000D02*
X288360000Y-137780000D01*
X295960000Y-150280000D02*
X295960000Y-137780000D01*
D12*
%TO.C,Q8*%
X159600000Y-143280000D02*
X159600000Y-143930000D01*
X162720000Y-143280000D02*
X162720000Y-143930000D01*
X159600000Y-143280000D02*
X159600000Y-142630000D01*
X162720000Y-143280000D02*
X162720000Y-141605000D01*
%TO.C,C15*%
X239186700Y-184125001D02*
X239895760Y-184125001D01*
X243733300Y-176581201D02*
X243024240Y-176581201D01*
X243024240Y-184125001D02*
X243733300Y-184125001D01*
X239186700Y-176581201D02*
X239186700Y-184125001D01*
X243733300Y-184125001D02*
X243733300Y-176581201D01*
X239895760Y-176581201D02*
X239186700Y-176581201D01*
X241536200Y-175469201D02*
G75*
G03*
X241536200Y-175469201I-76200J0D01*
G01*
%TO.C,C3*%
X188798748Y-187915000D02*
X189321252Y-187915000D01*
X188798748Y-186445000D02*
X189321252Y-186445000D01*
D16*
%TO.C,J16*%
X183410000Y-54480000D02*
X183410000Y-62080000D01*
X172910000Y-62080000D02*
X172910000Y-54480000D01*
X172910000Y-54480000D02*
X183410000Y-54480000D01*
X183410000Y-62080000D02*
X172910000Y-62080000D01*
D12*
%TO.C,D1*%
X255650000Y-171880000D02*
X255650000Y-168080000D01*
X260170000Y-171880000D02*
X260170000Y-166480000D01*
%TO.C,R25*%
X156025000Y-122607064D02*
X156025000Y-122152936D01*
X157495000Y-122607064D02*
X157495000Y-122152936D01*
%TO.C,R3*%
X185325000Y-131352936D02*
X185325000Y-131807064D01*
X186795000Y-131352936D02*
X186795000Y-131807064D01*
%TO.C,Q3*%
X169720000Y-185980000D02*
X169720000Y-186630000D01*
X169720000Y-185980000D02*
X169720000Y-184305000D01*
X166600000Y-185980000D02*
X166600000Y-186630000D01*
X166600000Y-185980000D02*
X166600000Y-185330000D01*
%TO.C,R19*%
X285499564Y-144645000D02*
X285045436Y-144645000D01*
X285499564Y-146115000D02*
X285045436Y-146115000D01*
%TO.C,C18*%
X234395000Y-172391252D02*
X234395000Y-171868748D01*
X232925000Y-172391252D02*
X232925000Y-171868748D01*
%TO.C,R13*%
X203895000Y-183119564D02*
X203895000Y-182665436D01*
X202425000Y-183119564D02*
X202425000Y-182665436D01*
%TO.C,C2*%
X173748748Y-186645000D02*
X174271252Y-186645000D01*
X173748748Y-188115000D02*
X174271252Y-188115000D01*
%TO.C,C20*%
X201295000Y-108818748D02*
X201295000Y-109341252D01*
X199825000Y-108818748D02*
X199825000Y-109341252D01*
%TO.C,Q4*%
X181600000Y-185780000D02*
X181600000Y-186430000D01*
X184720000Y-185780000D02*
X184720000Y-184105000D01*
X184720000Y-185780000D02*
X184720000Y-186430000D01*
X181600000Y-185780000D02*
X181600000Y-185130000D01*
%TO.C,R10*%
X188895000Y-191907064D02*
X188895000Y-191452936D01*
X187425000Y-191907064D02*
X187425000Y-191452936D01*
D15*
%TO.C,IC1*%
X168925000Y-126000000D02*
X176760000Y-126000000D01*
X170160000Y-136160000D02*
X176760000Y-136160000D01*
D13*
%TO.C,K1*%
X210610000Y-65617500D02*
X226110000Y-65617500D01*
X226110000Y-84717500D02*
X210610000Y-84717500D01*
X226110000Y-65617500D02*
X226110000Y-84717500D01*
X210610000Y-84717500D02*
X210610000Y-65617500D01*
D14*
X212341000Y-85367500D02*
G75*
G03*
X212341000Y-85367500I-100000J0D01*
G01*
D12*
%TO.C,C1*%
X158848748Y-187145000D02*
X159371252Y-187145000D01*
X158848748Y-188615000D02*
X159371252Y-188615000D01*
D15*
%TO.C,Q11*%
X152997500Y-89605000D02*
X150097500Y-89605000D01*
X153047500Y-87755000D02*
X153047500Y-88805000D01*
X152997500Y-89155000D02*
X152997500Y-89605000D01*
X150097500Y-89605000D02*
X150097500Y-89155000D01*
X150097500Y-89155000D02*
X152997500Y-89155000D01*
%TO.C,U2*%
X236110000Y-182130000D02*
X229610000Y-182130000D01*
X229610000Y-178630000D02*
X236110000Y-178630000D01*
X229610000Y-182130000D02*
X229610000Y-178630000D01*
X236110000Y-178630000D02*
X236110000Y-182130000D01*
X235985000Y-176355000D02*
X235985000Y-177605000D01*
D12*
%TO.C,C8*%
X281095000Y-144691252D02*
X281095000Y-144168748D01*
X279625000Y-144691252D02*
X279625000Y-144168748D01*
D15*
%TO.C,D6*%
X179658000Y-89522000D02*
X184662000Y-89522000D01*
X184662000Y-87038000D02*
X179310000Y-87038000D01*
D12*
%TO.C,R27*%
X152525000Y-191540436D02*
X152525000Y-191994564D01*
X153995000Y-191540436D02*
X153995000Y-191994564D01*
D15*
%TO.C,Q9*%
X214960000Y-87055000D02*
X214960000Y-88105000D01*
X212010000Y-88455000D02*
X214910000Y-88455000D01*
X212010000Y-88905000D02*
X212010000Y-88455000D01*
X214910000Y-88905000D02*
X212010000Y-88905000D01*
X214910000Y-88455000D02*
X214910000Y-88905000D01*
D12*
%TO.C,R22*%
X272425000Y-126965436D02*
X272425000Y-127419564D01*
X273895000Y-126965436D02*
X273895000Y-127419564D01*
D15*
%TO.C,D3*%
X279858000Y-90322000D02*
X284862000Y-90322000D01*
X284862000Y-87838000D02*
X279510000Y-87838000D01*
%TO.C,D5*%
X245012000Y-88138000D02*
X239660000Y-88138000D01*
X240008000Y-90622000D02*
X245012000Y-90622000D01*
D12*
%TO.C,C7*%
X276425000Y-108453752D02*
X276425000Y-107931248D01*
X277895000Y-108453752D02*
X277895000Y-107931248D01*
D13*
%TO.C,K2*%
X271110000Y-65317500D02*
X286610000Y-65317500D01*
X271110000Y-84417500D02*
X271110000Y-65317500D01*
X286610000Y-84417500D02*
X271110000Y-84417500D01*
X286610000Y-65317500D02*
X286610000Y-84417500D01*
D14*
X272841000Y-85067500D02*
G75*
G03*
X272841000Y-85067500I-100000J0D01*
G01*
D12*
%TO.C,R16*%
X155832936Y-165545000D02*
X156287064Y-165545000D01*
X155832936Y-167015000D02*
X156287064Y-167015000D01*
D13*
%TO.C,J10*%
X225660000Y-202780000D02*
X150660000Y-202780000D01*
X225660000Y-195180000D02*
X225660000Y-202780000D01*
X150660000Y-195180000D02*
X225660000Y-195180000D01*
X150660000Y-202780000D02*
X150660000Y-195180000D01*
D15*
X153260000Y-203780000D02*
G75*
G03*
X153260000Y-203780000I-100000J0D01*
G01*
D12*
%TO.C,R20*%
X285587064Y-163445000D02*
X285132936Y-163445000D01*
X285587064Y-164915000D02*
X285132936Y-164915000D01*
D15*
%TO.C,J5*%
X144360000Y-173780000D02*
X151960000Y-173780000D01*
X151960000Y-173780000D02*
X151960000Y-158780000D01*
X151960000Y-158780000D02*
X147860000Y-158780000D01*
X144360000Y-161280000D02*
X144360000Y-173780000D01*
D12*
%TO.C,C6*%
X160925000Y-167018748D02*
X160925000Y-167541252D01*
X162395000Y-167018748D02*
X162395000Y-167541252D01*
%TO.C,R7*%
X157525000Y-183494564D02*
X157525000Y-183040436D01*
X158995000Y-183494564D02*
X158995000Y-183040436D01*
D13*
%TO.C,K7*%
X266610000Y-65517500D02*
X266610000Y-84617500D01*
X251110000Y-84617500D02*
X251110000Y-65517500D01*
X266610000Y-84617500D02*
X251110000Y-84617500D01*
X251110000Y-65517500D02*
X266610000Y-65517500D01*
D14*
X252841000Y-85267500D02*
G75*
G03*
X252841000Y-85267500I-100000J0D01*
G01*
D12*
%TO.C,C9*%
X281095000Y-163491252D02*
X281095000Y-162968748D01*
X279625000Y-163491252D02*
X279625000Y-162968748D01*
D15*
%TO.C,Q15*%
X255760000Y-88155000D02*
X255760000Y-89205000D01*
X255710000Y-89555000D02*
X255710000Y-90005000D01*
X252810000Y-90005000D02*
X252810000Y-89555000D01*
X252810000Y-89555000D02*
X255710000Y-89555000D01*
X255710000Y-90005000D02*
X252810000Y-90005000D01*
%TO.C,C14*%
X267810000Y-195630000D02*
X267810000Y-177130000D01*
X284910000Y-189955000D02*
X284910000Y-177130000D01*
%TO.C,J8*%
X295960000Y-156780000D02*
X288360000Y-156780000D01*
X288360000Y-171780000D02*
X292460000Y-171780000D01*
X295960000Y-169280000D02*
X295960000Y-156780000D01*
X288360000Y-156780000D02*
X288360000Y-171780000D01*
D13*
%TO.C,K6*%
X190210000Y-65717500D02*
X205710000Y-65717500D01*
X205710000Y-84817500D02*
X190210000Y-84817500D01*
X205710000Y-65717500D02*
X205710000Y-84817500D01*
X190210000Y-84817500D02*
X190210000Y-65717500D01*
D14*
X191941000Y-85467500D02*
G75*
G03*
X191941000Y-85467500I-100000J0D01*
G01*
D12*
%TO.C,R40*%
X160932936Y-139715000D02*
X161387064Y-139715000D01*
X160932936Y-138245000D02*
X161387064Y-138245000D01*
%TO.C,R44*%
X233787064Y-92945000D02*
X233332936Y-92945000D01*
X233787064Y-94415000D02*
X233332936Y-94415000D01*
%TO.C,R49*%
X254274564Y-93745000D02*
X253820436Y-93745000D01*
X254274564Y-95215000D02*
X253820436Y-95215000D01*
%TO.C,R26*%
X162932936Y-116445000D02*
X163387064Y-116445000D01*
X162932936Y-117915000D02*
X163387064Y-117915000D01*
D16*
%TO.C,J18*%
X253110000Y-54480000D02*
X263610000Y-54480000D01*
X263610000Y-62080000D02*
X253110000Y-62080000D01*
X253110000Y-62080000D02*
X253110000Y-54480000D01*
X263610000Y-54480000D02*
X263610000Y-62080000D01*
D12*
%TO.C,C4*%
X204048748Y-187815000D02*
X204571252Y-187815000D01*
X204048748Y-186345000D02*
X204571252Y-186345000D01*
D13*
%TO.C,L1*%
X239860000Y-173680000D02*
X251860000Y-173680000D01*
X251860000Y-161680000D02*
X239860000Y-161680000D01*
D12*
%TO.C,U3*%
X207480000Y-111920000D02*
X230460000Y-111920000D01*
X207480000Y-106620000D02*
X207480000Y-108270000D01*
X207480000Y-110270000D02*
X207480000Y-111920000D01*
X230460000Y-111920000D02*
X230460000Y-106620000D01*
X230460000Y-106620000D02*
X207480000Y-106620000D01*
X207480000Y-110270000D02*
G75*
G03*
X207480000Y-108270000I0J1000000D01*
G01*
D15*
%TO.C,D2*%
X219458000Y-89922000D02*
X224462000Y-89922000D01*
X224462000Y-87438000D02*
X219110000Y-87438000D01*
D13*
%TO.C,K4*%
X230810000Y-65517500D02*
X246310000Y-65517500D01*
X230810000Y-84617500D02*
X230810000Y-65517500D01*
X246310000Y-65517500D02*
X246310000Y-84617500D01*
X246310000Y-84617500D02*
X230810000Y-84617500D01*
D14*
X232541000Y-85267500D02*
G75*
G03*
X232541000Y-85267500I-100000J0D01*
G01*
D12*
%TO.C,R31*%
X183895000Y-191365436D02*
X183895000Y-191819564D01*
X182425000Y-191365436D02*
X182425000Y-191819564D01*
%TO.C,R4*%
X285895000Y-108332064D02*
X285895000Y-107877936D01*
X284425000Y-108332064D02*
X284425000Y-107877936D01*
%TO.C,Q5*%
X196700000Y-185880000D02*
X196700000Y-185230000D01*
X199820000Y-185880000D02*
X199820000Y-184205000D01*
X196700000Y-185880000D02*
X196700000Y-186530000D01*
X199820000Y-185880000D02*
X199820000Y-186530000D01*
%TO.C,R42*%
X274374564Y-93645000D02*
X273920436Y-93645000D01*
X274374564Y-95115000D02*
X273920436Y-95115000D01*
%TO.C,C16*%
X247595000Y-180118748D02*
X247595000Y-180641252D01*
X246125000Y-180118748D02*
X246125000Y-180641252D01*
%TO.C,R30*%
X168020436Y-180045000D02*
X168474564Y-180045000D01*
X168020436Y-181515000D02*
X168474564Y-181515000D01*
%TO.C,R43*%
X151687064Y-95115000D02*
X151232936Y-95115000D01*
X151687064Y-93645000D02*
X151232936Y-93645000D01*
%TO.C,C19*%
X195825000Y-108818748D02*
X195825000Y-109341252D01*
X197295000Y-108818748D02*
X197295000Y-109341252D01*
%TO.C,Q1*%
X161600000Y-122280000D02*
X161600000Y-121630000D01*
X161600000Y-122280000D02*
X161600000Y-122930000D01*
X164720000Y-122280000D02*
X164720000Y-122930000D01*
X164720000Y-122280000D02*
X164720000Y-120605000D01*
D16*
%TO.C,J4*%
X143660000Y-137280000D02*
X143660000Y-117280000D01*
X152660000Y-137280000D02*
X143660000Y-137280000D01*
X152660000Y-117280000D02*
X152660000Y-137280000D01*
X143660000Y-117280000D02*
X152660000Y-117280000D01*
D12*
%TO.C,C17*%
X227495000Y-180118748D02*
X227495000Y-180641252D01*
X226025000Y-180118748D02*
X226025000Y-180641252D01*
%TO.C,R21*%
X280425000Y-127419564D02*
X280425000Y-126965436D01*
X281895000Y-127419564D02*
X281895000Y-126965436D01*
D16*
%TO.C,J13*%
X273210000Y-54480000D02*
X283710000Y-54480000D01*
X273210000Y-62080000D02*
X273210000Y-54480000D01*
X283710000Y-62080000D02*
X273210000Y-62080000D01*
X283710000Y-54480000D02*
X283710000Y-62080000D01*
D12*
%TO.C,C10*%
X277895000Y-126843748D02*
X277895000Y-127366252D01*
X276425000Y-126843748D02*
X276425000Y-127366252D01*
D15*
%TO.C,J7*%
X288360000Y-100692500D02*
X288360000Y-115692500D01*
X295960000Y-100692500D02*
X288360000Y-100692500D01*
X288360000Y-115692500D02*
X292460000Y-115692500D01*
X295960000Y-113192500D02*
X295960000Y-100692500D01*
D12*
%TO.C,R47*%
X227895000Y-137819564D02*
X227895000Y-137365436D01*
X226425000Y-137819564D02*
X226425000Y-137365436D01*
%TO.C,R15*%
X217425000Y-182894564D02*
X217425000Y-182440436D01*
X218895000Y-182894564D02*
X218895000Y-182440436D01*
%TO.C,C13*%
X263525000Y-176141252D02*
X263525000Y-175618748D01*
X264995000Y-176141252D02*
X264995000Y-175618748D01*
%TO.C,R18*%
X272425000Y-108332064D02*
X272425000Y-107877936D01*
X273895000Y-108332064D02*
X273895000Y-107877936D01*
%TO.C,R14*%
X218895000Y-191707064D02*
X218895000Y-191252936D01*
X217425000Y-191707064D02*
X217425000Y-191252936D01*
D15*
%TO.C,J11*%
X151960000Y-140780000D02*
X147860000Y-140780000D01*
X151960000Y-155780000D02*
X151960000Y-140780000D01*
X144360000Y-143280000D02*
X144360000Y-155780000D01*
X144360000Y-155780000D02*
X151960000Y-155780000D01*
D12*
%TO.C,R9*%
X172225000Y-183307064D02*
X172225000Y-182852936D01*
X173695000Y-183307064D02*
X173695000Y-182852936D01*
D16*
%TO.C,J1*%
X295660000Y-179530000D02*
X295660000Y-190030000D01*
X288060000Y-190030000D02*
X288060000Y-179530000D01*
X288060000Y-179530000D02*
X295660000Y-179530000D01*
X295660000Y-190030000D02*
X288060000Y-190030000D01*
D12*
%TO.C,R46*%
X236825000Y-127752936D02*
X236825000Y-128207064D01*
X238295000Y-127752936D02*
X238295000Y-128207064D01*
D16*
%TO.C,J14*%
X163410000Y-62080000D02*
X152910000Y-62080000D01*
X152910000Y-62080000D02*
X152910000Y-54480000D01*
X152910000Y-54480000D02*
X163410000Y-54480000D01*
X163410000Y-54480000D02*
X163410000Y-62080000D01*
D15*
%TO.C,J9*%
X295760000Y-119692500D02*
X291660000Y-119692500D01*
X288160000Y-122192500D02*
X288160000Y-134692500D01*
X295760000Y-134692500D02*
X295760000Y-119692500D01*
X288160000Y-134692500D02*
X295760000Y-134692500D01*
D12*
%TO.C,R28*%
X152920436Y-181715000D02*
X153374564Y-181715000D01*
X152920436Y-180245000D02*
X153374564Y-180245000D01*
%TO.C,R38*%
X161545436Y-158115000D02*
X161999564Y-158115000D01*
X161545436Y-156645000D02*
X161999564Y-156645000D01*
%TO.C,J3*%
X231030000Y-127775000D02*
X231030000Y-163395000D01*
X231030000Y-125175000D02*
X232360000Y-125175000D01*
X231030000Y-163395000D02*
X233690000Y-163395000D01*
X231030000Y-126505000D02*
X231030000Y-125175000D01*
X231030000Y-127775000D02*
X233690000Y-127775000D01*
X233690000Y-127775000D02*
X233690000Y-163395000D01*
%TO.C,R35*%
X212625000Y-191240436D02*
X212625000Y-191694564D01*
X214095000Y-191240436D02*
X214095000Y-191694564D01*
%TO.C,J2*%
X205030000Y-126505000D02*
X205030000Y-125175000D01*
X205030000Y-163395000D02*
X207690000Y-163395000D01*
X205030000Y-127775000D02*
X207690000Y-127775000D01*
X205030000Y-127775000D02*
X205030000Y-163395000D01*
X205030000Y-125175000D02*
X206360000Y-125175000D01*
X207690000Y-127775000D02*
X207690000Y-163395000D01*
%TO.C,R33*%
X198895000Y-191352936D02*
X198895000Y-191807064D01*
X197425000Y-191352936D02*
X197425000Y-191807064D01*
D15*
%TO.C,D7*%
X199808000Y-89622000D02*
X204812000Y-89622000D01*
X204812000Y-87138000D02*
X199460000Y-87138000D01*
D12*
%TO.C,R11*%
X188895000Y-183207064D02*
X188895000Y-182752936D01*
X187425000Y-183207064D02*
X187425000Y-182752936D01*
%TO.C,C5*%
X218848748Y-186345000D02*
X219371252Y-186345000D01*
X218848748Y-187815000D02*
X219371252Y-187815000D01*
D16*
%TO.C,J15*%
X243610000Y-54480000D02*
X243610000Y-62080000D01*
X243610000Y-62080000D02*
X233110000Y-62080000D01*
X233110000Y-62080000D02*
X233110000Y-54480000D01*
X233110000Y-54480000D02*
X243610000Y-54480000D01*
D12*
%TO.C,R39*%
X155799564Y-143915000D02*
X155345436Y-143915000D01*
X155799564Y-142445000D02*
X155345436Y-142445000D01*
D15*
%TO.C,D4*%
X164612000Y-87038000D02*
X159260000Y-87038000D01*
X159608000Y-89522000D02*
X164612000Y-89522000D01*
D12*
%TO.C,R12*%
X203995000Y-191807064D02*
X203995000Y-191352936D01*
X202525000Y-191807064D02*
X202525000Y-191352936D01*
D16*
%TO.C,J12*%
X213010000Y-62080000D02*
X213010000Y-54480000D01*
X213010000Y-54480000D02*
X223510000Y-54480000D01*
X223510000Y-54480000D02*
X223510000Y-62080000D01*
X223510000Y-62080000D02*
X213010000Y-62080000D01*
D12*
%TO.C,R8*%
X172325000Y-191907064D02*
X172325000Y-191452936D01*
X173795000Y-191907064D02*
X173795000Y-191452936D01*
%TO.C,R48*%
X192387064Y-94915000D02*
X191932936Y-94915000D01*
X192387064Y-93445000D02*
X191932936Y-93445000D01*
%TO.C,C11*%
X160425000Y-149168748D02*
X160425000Y-149691252D01*
X161895000Y-149168748D02*
X161895000Y-149691252D01*
D15*
%TO.C,Q13*%
X173710000Y-89055000D02*
X173710000Y-89505000D01*
X170810000Y-89505000D02*
X170810000Y-89055000D01*
X173760000Y-87655000D02*
X173760000Y-88705000D01*
X173710000Y-89505000D02*
X170810000Y-89505000D01*
X170810000Y-89055000D02*
X173710000Y-89055000D01*
%TO.C,Q12*%
X235060000Y-89505000D02*
X232160000Y-89505000D01*
X235060000Y-89055000D02*
X235060000Y-89505000D01*
X235110000Y-87655000D02*
X235110000Y-88705000D01*
X232160000Y-89055000D02*
X235060000Y-89055000D01*
X232160000Y-89505000D02*
X232160000Y-89055000D01*
D12*
%TO.C,R37*%
X156187064Y-161615000D02*
X155732936Y-161615000D01*
X156187064Y-160145000D02*
X155732936Y-160145000D01*
D13*
%TO.C,K3*%
X165910000Y-84830000D02*
X150410000Y-84830000D01*
X150410000Y-65730000D02*
X165910000Y-65730000D01*
X165910000Y-65730000D02*
X165910000Y-84830000D01*
X150410000Y-84830000D02*
X150410000Y-65730000D01*
D14*
X152141000Y-85480000D02*
G75*
G03*
X152141000Y-85480000I-100000J0D01*
G01*
D12*
%TO.C,R6*%
X157425000Y-192019564D02*
X157425000Y-191565436D01*
X158895000Y-192019564D02*
X158895000Y-191565436D01*
%TO.C,R1*%
X181825000Y-131632064D02*
X181825000Y-131177936D01*
X183295000Y-131632064D02*
X183295000Y-131177936D01*
%TO.C,Q6*%
X215120000Y-186080000D02*
X215120000Y-186730000D01*
X215120000Y-186080000D02*
X215120000Y-184405000D01*
X212000000Y-186080000D02*
X212000000Y-186730000D01*
X212000000Y-186080000D02*
X212000000Y-185430000D01*
D15*
%TO.C,Q10*%
X272710000Y-89255000D02*
X275610000Y-89255000D01*
X275610000Y-89255000D02*
X275610000Y-89705000D01*
X272710000Y-89705000D02*
X272710000Y-89255000D01*
X275660000Y-87855000D02*
X275660000Y-88905000D01*
X275610000Y-89705000D02*
X272710000Y-89705000D01*
D12*
%TO.C,R32*%
X182832936Y-179845000D02*
X183287064Y-179845000D01*
X182832936Y-181315000D02*
X183287064Y-181315000D01*
D16*
%TO.C,J17*%
X203510000Y-62080000D02*
X193010000Y-62080000D01*
X193010000Y-62080000D02*
X193010000Y-54480000D01*
X193010000Y-54480000D02*
X203510000Y-54480000D01*
X203510000Y-54480000D02*
X203510000Y-62080000D01*
D12*
%TO.C,R5*%
X284425000Y-127052936D02*
X284425000Y-127507064D01*
X285895000Y-127052936D02*
X285895000Y-127507064D01*
%TO.C,R45*%
X172487064Y-95015000D02*
X172032936Y-95015000D01*
X172487064Y-93545000D02*
X172032936Y-93545000D01*
%TO.C,R41*%
X213587064Y-92545000D02*
X213132936Y-92545000D01*
X213587064Y-94015000D02*
X213132936Y-94015000D01*
%TO.C,R24*%
X156432936Y-130515000D02*
X156887064Y-130515000D01*
X156432936Y-129045000D02*
X156887064Y-129045000D01*
%TO.C,R23*%
X155432936Y-147745000D02*
X155887064Y-147745000D01*
X155432936Y-149215000D02*
X155887064Y-149215000D01*
%TO.C,R36*%
X213345436Y-179545000D02*
X213799564Y-179545000D01*
X213345436Y-181015000D02*
X213799564Y-181015000D01*
%TO.C,C12*%
X159925000Y-130518748D02*
X159925000Y-131041252D01*
X161395000Y-130518748D02*
X161395000Y-131041252D01*
%TO.C,R2*%
X164895000Y-131007064D02*
X164895000Y-130552936D01*
X163425000Y-131007064D02*
X163425000Y-130552936D01*
D15*
%TO.C,D8*%
X265012000Y-88538000D02*
X259660000Y-88538000D01*
X260008000Y-91022000D02*
X265012000Y-91022000D01*
%TO.C,Q14*%
X193760000Y-87255000D02*
X193760000Y-88305000D01*
X193710000Y-89105000D02*
X190810000Y-89105000D01*
X193710000Y-88655000D02*
X193710000Y-89105000D01*
X190810000Y-88655000D02*
X193710000Y-88655000D01*
X190810000Y-89105000D02*
X190810000Y-88655000D01*
D12*
%TO.C,R29*%
X168995000Y-191552936D02*
X168995000Y-192007064D01*
X167525000Y-191552936D02*
X167525000Y-192007064D01*
%TD*%
M02*
