%TF.GenerationSoftware,KiCad,Pcbnew,(6.0.7)*%
%TF.CreationDate,2022-10-21T23:12:00-03:00*%
%TF.ProjectId,PCB_Prototipo_Proyecto_Final,5043425f-5072-46f7-946f-7469706f5f50,rev?*%
%TF.SameCoordinates,PX7e4946aPYc6a19c0*%
%TF.FileFunction,Legend,Top*%
%TF.FilePolarity,Positive*%
%FSLAX46Y46*%
G04 Gerber Fmt 4.6, Leading zero omitted, Abs format (unit mm)*
G04 Created by KiCad (PCBNEW (6.0.7)) date 2022-10-21 23:12:00*
%MOMM*%
%LPD*%
G01*
G04 APERTURE LIST*
%TA.AperFunction,Profile*%
%ADD10C,0.100000*%
%TD*%
%ADD11C,0.120000*%
%ADD12C,0.127000*%
%ADD13C,0.300000*%
%ADD14C,0.200000*%
%ADD15C,0.100000*%
G04 APERTURE END LIST*
D10*
X0Y0D02*
X165100000Y0D01*
X165100000Y0D02*
X165100000Y154940000D01*
X165100000Y154940000D02*
X0Y154940000D01*
X0Y154940000D02*
X0Y0D01*
D11*
%TO.C,J47*%
X144870000Y78430000D02*
X146200000Y78430000D01*
X144870000Y75830000D02*
X147530000Y75830000D01*
X144870000Y75770000D02*
X147530000Y75770000D01*
X147530000Y75830000D02*
X147530000Y75770000D01*
X144870000Y75830000D02*
X144870000Y75770000D01*
X144870000Y77100000D02*
X144870000Y78430000D01*
%TO.C,J46*%
X144870000Y105800000D02*
X144870000Y107130000D01*
X144870000Y104530000D02*
X144870000Y104470000D01*
X147530000Y104530000D02*
X147530000Y104470000D01*
X144870000Y104470000D02*
X147530000Y104470000D01*
X144870000Y104530000D02*
X147530000Y104530000D01*
X144870000Y107130000D02*
X146200000Y107130000D01*
%TO.C,J21*%
X107370000Y102870000D02*
X122730000Y102870000D01*
X109970000Y100270000D02*
X107370000Y100270000D01*
X109970000Y97670000D02*
X122730000Y97670000D01*
X122730000Y97670000D02*
X122730000Y102870000D01*
X107370000Y97670000D02*
X107370000Y99000000D01*
X108700000Y97670000D02*
X107370000Y97670000D01*
X107370000Y100270000D02*
X107370000Y102870000D01*
X109970000Y97670000D02*
X109970000Y100270000D01*
D12*
%TO.C,K5*%
X116350000Y123450000D02*
X116350000Y142550000D01*
X116350000Y142550000D02*
X131850000Y142550000D01*
X131850000Y123450000D02*
X116350000Y123450000D01*
X131850000Y142550000D02*
X131850000Y123450000D01*
D13*
X118081000Y122800000D02*
G75*
G03*
X118081000Y122800000I-100000J0D01*
G01*
D14*
%TO.C,J6*%
X150899286Y54510000D02*
X154999286Y54510000D01*
X150899286Y69510000D02*
X150899286Y54510000D01*
X158499286Y69510000D02*
X150899286Y69510000D01*
X158499286Y57010000D02*
X158499286Y69510000D01*
D11*
%TO.C,J23*%
X67499286Y30460000D02*
X68829286Y30460000D01*
X67499286Y29130000D02*
X67499286Y30460000D01*
X67499286Y27800000D02*
X70159286Y27800000D01*
X67499286Y27860000D02*
X67499286Y27800000D01*
X67499286Y27860000D02*
X70159286Y27860000D01*
X70159286Y27860000D02*
X70159286Y27800000D01*
%TO.C,C15*%
X110424286Y30435823D02*
X113233286Y30435823D01*
X115715286Y30675823D02*
X118332286Y30675823D01*
X111765286Y31675823D02*
X117183286Y31675823D01*
X110616286Y30675823D02*
X113233286Y30675823D01*
X115715286Y30635823D02*
X118366286Y30635823D01*
X115715286Y30955823D02*
X118075286Y30955823D01*
X109890286Y29555823D02*
X113233286Y29555823D01*
X109577286Y28715823D02*
X113233286Y28715823D01*
X109910286Y29595823D02*
X113233286Y29595823D01*
X115715286Y29075823D02*
X119257286Y29075823D01*
X110758286Y30835823D02*
X113233286Y30835823D01*
X109444286Y28075823D02*
X119504286Y28075823D01*
X110517286Y30555823D02*
X113233286Y30555823D01*
X115715286Y29555823D02*
X119058286Y29555823D01*
X110834286Y30915823D02*
X113233286Y30915823D01*
X111268286Y31315823D02*
X117680286Y31315823D01*
X115715286Y29195823D02*
X119212286Y29195823D01*
X109835286Y29435823D02*
X113233286Y29435823D01*
X115715286Y30395823D02*
X118554286Y30395823D01*
X110079286Y29915823D02*
X113233286Y29915823D01*
X109871286Y29515823D02*
X113233286Y29515823D01*
X110253286Y30195823D02*
X113233286Y30195823D01*
X109751286Y29235823D02*
X113233286Y29235823D01*
X109589286Y28755823D02*
X113233286Y28755823D01*
X109546286Y28595823D02*
X119402286Y28595823D01*
X111082286Y31155823D02*
X117866286Y31155823D01*
X110873286Y30955823D02*
X113233286Y30955823D01*
X112437286Y32035823D02*
X116511286Y32035823D01*
X111895286Y31755823D02*
X117053286Y31755823D01*
X109800286Y29355823D02*
X113233286Y29355823D01*
X115715286Y30715823D02*
X118298286Y30715823D01*
X111038286Y31115823D02*
X117910286Y31115823D01*
X109500286Y28395823D02*
X119448286Y28395823D01*
X115715286Y29395823D02*
X119131286Y29395823D01*
X115715286Y30835823D02*
X118190286Y30835823D01*
X115715286Y28955823D02*
X119298286Y28955823D01*
X112185286Y31915823D02*
X116763286Y31915823D01*
X109429286Y27954823D02*
X119519286Y27954823D01*
X109424286Y27914823D02*
X119524286Y27914823D01*
X115715286Y28995823D02*
X119285286Y28995823D01*
X112844286Y32195823D02*
X116104286Y32195823D01*
X109395286Y27474823D02*
X119553286Y27474823D01*
X109397286Y27554823D02*
X119551286Y27554823D01*
X110151286Y30035823D02*
X113233286Y30035823D01*
X109416286Y27834823D02*
X119532286Y27834823D01*
X111829286Y31715823D02*
X117119286Y31715823D01*
X115715286Y29435823D02*
X119113286Y29435823D01*
X109612286Y28835823D02*
X113233286Y28835823D01*
X109650286Y28955823D02*
X113233286Y28955823D01*
X110034286Y29835823D02*
X113233286Y29835823D01*
X115715286Y29955823D02*
X118845286Y29955823D01*
X109600286Y28795823D02*
X113233286Y28795823D01*
X115715286Y30235823D02*
X118668286Y30235823D01*
X115715286Y29475823D02*
X119095286Y29475823D01*
X110394286Y30395823D02*
X113233286Y30395823D01*
X109929286Y29635823D02*
X113233286Y29635823D01*
X112109286Y31875823D02*
X116839286Y31875823D01*
X115715286Y30355823D02*
X118584286Y30355823D01*
X115715286Y29235823D02*
X119197286Y29235823D01*
X109527286Y28515823D02*
X119421286Y28515823D01*
X115715286Y29635823D02*
X119019286Y29635823D01*
X111220286Y31275823D02*
X117728286Y31275823D01*
X111599286Y21875177D02*
X111599286Y22875177D01*
X115715286Y29915823D02*
X118869286Y29915823D01*
X109784286Y29315823D02*
X113233286Y29315823D01*
X115715286Y28635823D02*
X119392286Y28635823D01*
X110549286Y30595823D02*
X113233286Y30595823D01*
X109477286Y28275823D02*
X119471286Y28275823D01*
X115715286Y30755823D02*
X118263286Y30755823D01*
X115715286Y29275823D02*
X119181286Y29275823D01*
X109470286Y28235823D02*
X119478286Y28235823D01*
X109767286Y29275823D02*
X113233286Y29275823D01*
X110336286Y30315823D02*
X113233286Y30315823D01*
X109509286Y28435823D02*
X119439286Y28435823D01*
X115715286Y30275823D02*
X118640286Y30275823D01*
X109409286Y27754823D02*
X119539286Y27754823D01*
X112964286Y32235823D02*
X115984286Y32235823D01*
X111173286Y31235823D02*
X117775286Y31235823D01*
X113096286Y32275823D02*
X115852286Y32275823D01*
X109556286Y28635823D02*
X113233286Y28635823D01*
X113244286Y32315823D02*
X115704286Y32315823D01*
X110795286Y30875823D02*
X113233286Y30875823D01*
X109853286Y29475823D02*
X113233286Y29475823D01*
X115715286Y30915823D02*
X118114286Y30915823D01*
X109396286Y27514823D02*
X119552286Y27514823D01*
X115715286Y30555823D02*
X118431286Y30555823D01*
X110913286Y30995823D02*
X113233286Y30995823D01*
X110485286Y30515823D02*
X113233286Y30515823D01*
X115715286Y28915823D02*
X119311286Y28915823D01*
X109677286Y29035823D02*
X113233286Y29035823D01*
X111474286Y31475823D02*
X117474286Y31475823D01*
X115715286Y31035823D02*
X117994286Y31035823D01*
X115715286Y28675823D02*
X119381286Y28675823D01*
X113875286Y32435823D02*
X115073286Y32435823D01*
X109736286Y29195823D02*
X113233286Y29195823D01*
X109567286Y28675823D02*
X113233286Y28675823D01*
X115715286Y30075823D02*
X118772286Y30075823D01*
X109456286Y28155823D02*
X119492286Y28155823D01*
X110280286Y30235823D02*
X113233286Y30235823D01*
X111099286Y22375177D02*
X112099286Y22375177D01*
X115715286Y29155823D02*
X119228286Y29155823D01*
X109970286Y29715823D02*
X113233286Y29715823D01*
X115715286Y29315823D02*
X119164286Y29315823D01*
X115715286Y29515823D02*
X119077286Y29515823D01*
X109394286Y27354823D02*
X119554286Y27354823D01*
X110721286Y30795823D02*
X113233286Y30795823D01*
X110685286Y30755823D02*
X113233286Y30755823D01*
X111127286Y31195823D02*
X117821286Y31195823D01*
X113612286Y32395823D02*
X115336286Y32395823D01*
X109420286Y27874823D02*
X119528286Y27874823D01*
X109394286Y27394823D02*
X119554286Y27394823D01*
X115715286Y29995823D02*
X118821286Y29995823D01*
X109817286Y29395823D02*
X113233286Y29395823D01*
X110103286Y29955823D02*
X113233286Y29955823D01*
X110954286Y31035823D02*
X113233286Y31035823D01*
X109492286Y28355823D02*
X119456286Y28355823D01*
X109412286Y27794823D02*
X119536286Y27794823D01*
X109949286Y29675823D02*
X113233286Y29675823D01*
X115715286Y30475823D02*
X118494286Y30475823D01*
X111704286Y31635823D02*
X117244286Y31635823D01*
X111368286Y31395823D02*
X117580286Y31395823D01*
X109394286Y27434823D02*
X119554286Y27434823D01*
X109404286Y27674823D02*
X119544286Y27674823D01*
X115715286Y29595823D02*
X119038286Y29595823D01*
X115715286Y29835823D02*
X118914286Y29835823D01*
X110454286Y30475823D02*
X113233286Y30475823D01*
X111529286Y31515823D02*
X117419286Y31515823D01*
X111964286Y31795823D02*
X116984286Y31795823D01*
X111318286Y31355823D02*
X117630286Y31355823D01*
X115715286Y29755823D02*
X118957286Y29755823D01*
X109439286Y28034823D02*
X119509286Y28034823D01*
X115715286Y30115823D02*
X118747286Y30115823D01*
X112349286Y31995823D02*
X116599286Y31995823D01*
X109706286Y29115823D02*
X113233286Y29115823D01*
X109663286Y28995823D02*
X113233286Y28995823D01*
X115715286Y29715823D02*
X118978286Y29715823D01*
X110227286Y30155823D02*
X113233286Y30155823D01*
X115715286Y29035823D02*
X119271286Y29035823D01*
X110127286Y29995823D02*
X113233286Y29995823D01*
X115715286Y30875823D02*
X118153286Y30875823D01*
X110176286Y30075823D02*
X113233286Y30075823D01*
X110308286Y30275823D02*
X113233286Y30275823D01*
X109991286Y29755823D02*
X113233286Y29755823D01*
X115715286Y28755823D02*
X119359286Y28755823D01*
X110057286Y29875823D02*
X113233286Y29875823D01*
X109434286Y27994823D02*
X119514286Y27994823D01*
X115715286Y28875823D02*
X119324286Y28875823D01*
X115715286Y28715823D02*
X119371286Y28715823D01*
X115715286Y29355823D02*
X119148286Y29355823D01*
X115715286Y30315823D02*
X118612286Y30315823D01*
X109720286Y29155823D02*
X113233286Y29155823D01*
X109406286Y27714823D02*
X119542286Y27714823D01*
X111420286Y31435823D02*
X117528286Y31435823D01*
X115715286Y30435823D02*
X118524286Y30435823D01*
X109401286Y27634823D02*
X119547286Y27634823D01*
X115715286Y30155823D02*
X118721286Y30155823D01*
X112628286Y32115823D02*
X116320286Y32115823D01*
X109450286Y28115823D02*
X119498286Y28115823D01*
X115715286Y30195823D02*
X118695286Y30195823D01*
X110012286Y29795823D02*
X113233286Y29795823D01*
X112035286Y31835823D02*
X116913286Y31835823D01*
X113412286Y32355823D02*
X115536286Y32355823D01*
X115715286Y29115823D02*
X119242286Y29115823D01*
X109518286Y28475823D02*
X119430286Y28475823D01*
X109484286Y28315823D02*
X119464286Y28315823D01*
X111644286Y31595823D02*
X117304286Y31595823D01*
X110582286Y30635823D02*
X113233286Y30635823D01*
X110201286Y30115823D02*
X113233286Y30115823D01*
X115715286Y29675823D02*
X118999286Y29675823D01*
X115715286Y30795823D02*
X118227286Y30795823D01*
X110364286Y30355823D02*
X113233286Y30355823D01*
X112265286Y31955823D02*
X116683286Y31955823D01*
X109691286Y29075823D02*
X113233286Y29075823D01*
X110650286Y30715823D02*
X113233286Y30715823D01*
X115715286Y30035823D02*
X118797286Y30035823D01*
X111585286Y31555823D02*
X117363286Y31555823D01*
X115715286Y28835823D02*
X119336286Y28835823D01*
X115715286Y29875823D02*
X118891286Y29875823D01*
X115715286Y30515823D02*
X118463286Y30515823D01*
X109536286Y28555823D02*
X119412286Y28555823D01*
X109637286Y28915823D02*
X113233286Y28915823D01*
X109463286Y28195823D02*
X119485286Y28195823D01*
X115715286Y30995823D02*
X118035286Y30995823D01*
X109399286Y27594823D02*
X119549286Y27594823D01*
X115715286Y31075823D02*
X117952286Y31075823D01*
X112530286Y32075823D02*
X116418286Y32075823D01*
X109624286Y28875823D02*
X113233286Y28875823D01*
X110996286Y31075823D02*
X113233286Y31075823D01*
X112732286Y32155823D02*
X116216286Y32155823D01*
X115715286Y29795823D02*
X118936286Y29795823D01*
X115715286Y30595823D02*
X118399286Y30595823D01*
X115715286Y28795823D02*
X119348286Y28795823D01*
X119594286Y27354823D02*
G75*
G03*
X119594286Y27354823I-5120000J0D01*
G01*
D15*
%TO.C,J16*%
X129389286Y153770000D02*
X129389286Y146170000D01*
X118889286Y146170000D02*
X118889286Y153770000D01*
X118889286Y153770000D02*
X129389286Y153770000D01*
X129389286Y146170000D02*
X118889286Y146170000D01*
D11*
%TO.C,J33*%
X118979286Y118364000D02*
X118979286Y118304000D01*
X118979286Y118304000D02*
X121639286Y118304000D01*
X118979286Y118364000D02*
X121639286Y118364000D01*
X121639286Y118364000D02*
X121639286Y118304000D01*
X118979286Y120964000D02*
X120309286Y120964000D01*
X118979286Y119634000D02*
X118979286Y120964000D01*
%TO.C,J40*%
X17299286Y15330000D02*
X17299286Y16660000D01*
X19959286Y14060000D02*
X19959286Y14000000D01*
X17299286Y14000000D02*
X19959286Y14000000D01*
X17299286Y14060000D02*
X17299286Y14000000D01*
X17299286Y16660000D02*
X18629286Y16660000D01*
X17299286Y14060000D02*
X19959286Y14060000D01*
%TO.C,C18*%
X100179286Y28770775D02*
X101261286Y28770775D01*
X97756286Y29490775D02*
X100522286Y29490775D01*
X98224286Y29730775D02*
X100054286Y29730775D01*
X96871286Y28530775D02*
X98099286Y28530775D01*
X96697286Y28130775D02*
X98099286Y28130775D01*
X97238286Y29050775D02*
X98099286Y29050775D01*
X100179286Y27889775D02*
X101650286Y27889775D01*
X96829286Y28450775D02*
X98099286Y28450775D01*
X96990286Y28730775D02*
X98099286Y28730775D01*
X96892286Y28570775D02*
X98099286Y28570775D01*
X100179286Y29090775D02*
X101003286Y29090775D01*
X100179286Y28650775D02*
X101339286Y28650775D01*
X96725286Y28210775D02*
X98099286Y28210775D01*
X97044286Y28810775D02*
X98099286Y28810775D01*
X100179286Y29210775D02*
X100882286Y29210775D01*
X97168286Y28970775D02*
X98099286Y28970775D01*
X96559286Y27289775D02*
X98099286Y27289775D01*
X96574286Y27569775D02*
X98099286Y27569775D01*
X100179286Y28570775D02*
X101386286Y28570775D01*
X96810286Y28410775D02*
X98099286Y28410775D01*
X100179286Y28930775D02*
X101143286Y28930775D01*
X96939286Y28650775D02*
X98099286Y28650775D01*
X97202286Y29010775D02*
X98099286Y29010775D01*
X96619286Y27849775D02*
X98099286Y27849775D01*
X96774286Y28330775D02*
X98099286Y28330775D01*
X100179286Y28410775D02*
X101468286Y28410775D01*
X97354286Y29170775D02*
X98099286Y29170775D01*
X96711286Y28170775D02*
X98099286Y28170775D01*
X100179286Y28850775D02*
X101204286Y28850775D01*
X100179286Y27569775D02*
X101704286Y27569775D01*
X97074286Y28850775D02*
X98099286Y28850775D01*
X96589286Y27689775D02*
X98099286Y27689775D01*
X97486286Y29290775D02*
X98099286Y29290775D01*
X97664286Y24485000D02*
X97664286Y24985000D01*
X96791286Y28370775D02*
X98099286Y28370775D01*
X100179286Y27609775D02*
X101700286Y27609775D01*
X96583286Y27649775D02*
X98099286Y27649775D01*
X98334286Y29770775D02*
X99944286Y29770775D01*
X96659286Y28010775D02*
X98099286Y28010775D01*
X100179286Y28050775D02*
X101607286Y28050775D01*
X97639286Y29410775D02*
X100639286Y29410775D01*
X100179286Y27729775D02*
X101682286Y27729775D01*
X98041286Y29650775D02*
X100237286Y29650775D01*
X100179286Y28530775D02*
X101407286Y28530775D01*
X97888286Y29570775D02*
X100390286Y29570775D01*
X97135286Y28930775D02*
X98099286Y28930775D01*
X100179286Y28010775D02*
X101619286Y28010775D01*
X96559286Y27329775D02*
X98099286Y27329775D01*
X100179286Y28890775D02*
X101174286Y28890775D01*
X100179286Y27929775D02*
X101640286Y27929775D01*
X96578286Y27609775D02*
X98099286Y27609775D01*
X100179286Y27529775D02*
X101708286Y27529775D01*
X100179286Y28970775D02*
X101110286Y28970775D01*
X100179286Y29130775D02*
X100965286Y29130775D01*
X100179286Y29050775D02*
X101040286Y29050775D01*
X100179286Y28730775D02*
X101288286Y28730775D01*
X96611286Y27809775D02*
X98099286Y27809775D01*
X100179286Y28490775D02*
X101429286Y28490775D01*
X100179286Y28170775D02*
X101567286Y28170775D01*
X100179286Y27969775D02*
X101630286Y27969775D01*
X100179286Y27329775D02*
X101719286Y27329775D01*
X100179286Y28250775D02*
X101537286Y28250775D01*
X100179286Y27369775D02*
X101718286Y27369775D01*
X96648286Y27969775D02*
X98099286Y27969775D01*
X96638286Y27929775D02*
X98099286Y27929775D01*
X96566286Y27489775D02*
X98099286Y27489775D01*
X100179286Y29170775D02*
X100924286Y29170775D01*
X97017286Y28770775D02*
X98099286Y28770775D01*
X100179286Y28290775D02*
X101521286Y28290775D01*
X100179286Y28210775D02*
X101553286Y28210775D01*
X96757286Y28290775D02*
X98099286Y28290775D01*
X100179286Y27289775D02*
X101719286Y27289775D01*
X100179286Y28810775D02*
X101234286Y28810775D01*
X97820286Y29530775D02*
X100458286Y29530775D01*
X96684286Y28090775D02*
X98099286Y28090775D01*
X98462286Y29810775D02*
X99816286Y29810775D01*
X96964286Y28690775D02*
X98099286Y28690775D01*
X97534286Y29330775D02*
X100744286Y29330775D01*
X100179286Y27649775D02*
X101695286Y27649775D01*
X98621286Y29850775D02*
X99657286Y29850775D01*
X100179286Y27769775D02*
X101675286Y27769775D01*
X97696286Y29450775D02*
X100582286Y29450775D01*
X97313286Y29130775D02*
X98099286Y29130775D01*
X100179286Y27489775D02*
X101712286Y27489775D01*
X96628286Y27889775D02*
X98099286Y27889775D01*
X97961286Y29610775D02*
X100317286Y29610775D01*
X100179286Y28610775D02*
X101363286Y28610775D01*
X100179286Y28370775D02*
X101487286Y28370775D01*
X98128286Y29690775D02*
X100150286Y29690775D01*
X100179286Y27689775D02*
X101689286Y27689775D01*
X96570286Y27529775D02*
X98099286Y27529775D01*
X100179286Y29250775D02*
X100838286Y29250775D01*
X100179286Y29010775D02*
X101076286Y29010775D01*
X96560286Y27369775D02*
X98099286Y27369775D01*
X97414286Y24735000D02*
X97914286Y24735000D01*
X98855286Y29890775D02*
X99423286Y29890775D01*
X96563286Y27449775D02*
X98099286Y27449775D01*
X96671286Y28050775D02*
X98099286Y28050775D01*
X97275286Y29090775D02*
X98099286Y29090775D01*
X96849286Y28490775D02*
X98099286Y28490775D01*
X100179286Y27449775D02*
X101715286Y27449775D01*
X97396286Y29210775D02*
X98099286Y29210775D01*
X96603286Y27769775D02*
X98099286Y27769775D01*
X100179286Y27409775D02*
X101717286Y27409775D01*
X97585286Y29370775D02*
X100693286Y29370775D01*
X100179286Y28690775D02*
X101314286Y28690775D01*
X100179286Y28330775D02*
X101504286Y28330775D01*
X100179286Y28450775D02*
X101449286Y28450775D01*
X100179286Y27809775D02*
X101667286Y27809775D01*
X100179286Y28090775D02*
X101594286Y28090775D01*
X97104286Y28890775D02*
X98099286Y28890775D01*
X100179286Y29290775D02*
X100792286Y29290775D01*
X97440286Y29250775D02*
X98099286Y29250775D01*
X100179286Y27849775D02*
X101659286Y27849775D01*
X96741286Y28250775D02*
X98099286Y28250775D01*
X96915286Y28610775D02*
X98099286Y28610775D01*
X96596286Y27729775D02*
X98099286Y27729775D01*
X96561286Y27409775D02*
X98099286Y27409775D01*
X100179286Y28130775D02*
X101581286Y28130775D01*
X101759286Y27289775D02*
G75*
G03*
X101759286Y27289775I-2620000J0D01*
G01*
D14*
%TO.C,IC1*%
X32344286Y88340000D02*
X40179286Y88340000D01*
X33579286Y78180000D02*
X40179286Y78180000D01*
D12*
%TO.C,K1*%
X76150000Y142662500D02*
X91650000Y142662500D01*
X91650000Y123562500D02*
X76150000Y123562500D01*
X91650000Y142662500D02*
X91650000Y123562500D01*
X76150000Y123562500D02*
X76150000Y142662500D01*
D13*
X77881000Y122912500D02*
G75*
G03*
X77881000Y122912500I-100000J0D01*
G01*
D11*
%TO.C,J32*%
X58719286Y120860000D02*
X60049286Y120860000D01*
X58719286Y118260000D02*
X58719286Y118200000D01*
X58719286Y118200000D02*
X61379286Y118200000D01*
X58719286Y118260000D02*
X61379286Y118260000D01*
X58719286Y119530000D02*
X58719286Y120860000D01*
X61379286Y118260000D02*
X61379286Y118200000D01*
%TO.C,C14*%
X148107286Y18306677D02*
X144580286Y18306677D01*
X142098286Y17266677D02*
X139092286Y17266677D01*
X147686286Y17426677D02*
X144580286Y17426677D01*
X148013286Y18066677D02*
X144580286Y18066677D01*
X148409286Y19747677D02*
X138269286Y19747677D01*
X146686286Y16226677D02*
X139992286Y16226677D01*
X147662286Y17386677D02*
X144580286Y17386677D01*
X148224286Y18666677D02*
X144580286Y18666677D01*
X148062286Y18186677D02*
X144580286Y18186677D01*
X147586286Y17266677D02*
X144580286Y17266677D01*
X142098286Y18346677D02*
X138556286Y18346677D01*
X145918286Y15666677D02*
X140760286Y15666677D01*
X142098286Y16626677D02*
X139586286Y16626677D01*
X147055286Y16586677D02*
X144580286Y16586677D01*
X148419286Y19987677D02*
X138259286Y19987677D01*
X145548286Y15466677D02*
X141130286Y15466677D01*
X142098286Y17986677D02*
X138700286Y17986677D01*
X147231286Y16786677D02*
X144580286Y16786677D01*
X142098286Y17746677D02*
X138814286Y17746677D01*
X142098286Y16546677D02*
X139660286Y16546677D01*
X142098286Y17426677D02*
X138992286Y17426677D01*
X148397286Y19587677D02*
X138281286Y19587677D01*
X142098286Y17066677D02*
X139229286Y17066677D01*
X148389286Y19507677D02*
X138289286Y19507677D01*
X142098286Y18386677D02*
X138542286Y18386677D01*
X147533286Y17186677D02*
X144580286Y17186677D01*
X142098286Y16866677D02*
X139382286Y16866677D01*
X142098286Y16746677D02*
X139481286Y16746677D01*
X146495286Y16066677D02*
X140183286Y16066677D01*
X144569286Y15106677D02*
X142109286Y15106677D01*
X142098286Y18226677D02*
X138601286Y18226677D01*
X148163286Y18466677D02*
X144580286Y18466677D01*
X147612286Y17306677D02*
X144580286Y17306677D01*
X147092286Y16626677D02*
X144580286Y16626677D01*
X148336286Y19146677D02*
X138342286Y19146677D01*
X148363286Y19306677D02*
X138315286Y19306677D01*
X145628286Y15506677D02*
X141050286Y15506677D01*
X148150286Y18426677D02*
X144580286Y18426677D01*
X145283286Y15346677D02*
X141395286Y15346677D01*
X146640286Y16186677D02*
X140038286Y16186677D01*
X148029286Y18106677D02*
X144580286Y18106677D01*
X148236286Y18706677D02*
X144580286Y18706677D01*
X142098286Y18746677D02*
X138432286Y18746677D01*
X142098286Y18546677D02*
X138489286Y18546677D01*
X147779286Y17586677D02*
X144580286Y17586677D01*
X147864286Y17746677D02*
X144580286Y17746677D01*
X147264286Y16826677D02*
X144580286Y16826677D01*
X148412286Y19787677D02*
X138266286Y19787677D01*
X142098286Y16466677D02*
X139738286Y16466677D01*
X145081286Y15266677D02*
X141597286Y15266677D01*
X147710286Y17466677D02*
X144580286Y17466677D01*
X147637286Y17346677D02*
X144580286Y17346677D01*
X148404286Y19667677D02*
X138274286Y19667677D01*
X142098286Y17946677D02*
X138718286Y17946677D01*
X145778286Y15586677D02*
X140900286Y15586677D01*
X145185286Y15306677D02*
X141493286Y15306677D01*
X148350286Y19226677D02*
X138328286Y19226677D01*
X146284286Y15906677D02*
X140394286Y15906677D01*
X143938286Y14986677D02*
X142740286Y14986677D01*
X144201286Y15026677D02*
X142477286Y15026677D01*
X148329286Y19106677D02*
X138349286Y19106677D01*
X148369286Y19346677D02*
X138309286Y19346677D01*
X145376286Y15386677D02*
X141302286Y15386677D01*
X146940286Y16466677D02*
X144580286Y16466677D01*
X146775286Y16306677D02*
X139903286Y16306677D01*
X148277286Y18866677D02*
X138401286Y18866677D01*
X148418286Y19947677D02*
X138260286Y19947677D01*
X142098286Y17306677D02*
X139066286Y17306677D01*
X142098286Y18666677D02*
X138454286Y18666677D01*
X148246286Y18746677D02*
X144580286Y18746677D01*
X147419286Y17026677D02*
X144580286Y17026677D01*
X142098286Y17666677D02*
X138856286Y17666677D01*
X146339286Y15946677D02*
X140339286Y15946677D01*
X147477286Y17106677D02*
X144580286Y17106677D01*
X144401286Y15066677D02*
X142277286Y15066677D01*
X146048286Y15746677D02*
X140630286Y15746677D01*
X147822286Y17666677D02*
X144580286Y17666677D01*
X147505286Y17146677D02*
X144580286Y17146677D01*
X142098286Y16586677D02*
X139623286Y16586677D01*
X142098286Y17506677D02*
X138944286Y17506677D01*
X142098286Y17626677D02*
X138877286Y17626677D01*
X148304286Y18986677D02*
X138374286Y18986677D01*
X148122286Y18346677D02*
X144580286Y18346677D01*
X144717286Y15146677D02*
X141961286Y15146677D01*
X146714286Y25047323D02*
X145714286Y25047323D01*
X145464286Y15426677D02*
X141214286Y15426677D01*
X148393286Y19547677D02*
X138285286Y19547677D01*
X142098286Y18266677D02*
X138585286Y18266677D01*
X148416286Y19867677D02*
X138262286Y19867677D01*
X142098286Y18506677D02*
X138502286Y18506677D01*
X142098286Y18586677D02*
X138477286Y18586677D01*
X148046286Y18146677D02*
X144580286Y18146677D01*
X142098286Y16386677D02*
X139819286Y16386677D01*
X148321286Y19066677D02*
X138357286Y19066677D01*
X142098286Y17866677D02*
X138755286Y17866677D01*
X148286286Y18906677D02*
X138392286Y18906677D01*
X146593286Y16146677D02*
X140085286Y16146677D01*
X142098286Y16826677D02*
X139414286Y16826677D01*
X144849286Y15186677D02*
X141829286Y15186677D01*
X147843286Y17706677D02*
X144580286Y17706677D01*
X142098286Y18026677D02*
X138682286Y18026677D01*
X148213286Y18626677D02*
X144580286Y18626677D01*
X148257286Y18786677D02*
X144580286Y18786677D01*
X145704286Y15546677D02*
X140974286Y15546677D01*
X142098286Y17906677D02*
X138736286Y17906677D01*
X147903286Y17826677D02*
X144580286Y17826677D01*
X148414286Y19827677D02*
X138264286Y19827677D01*
X142098286Y18626677D02*
X138465286Y18626677D01*
X147978286Y17986677D02*
X144580286Y17986677D01*
X142098286Y18066677D02*
X138665286Y18066677D01*
X147328286Y16906677D02*
X144580286Y16906677D01*
X142098286Y16666677D02*
X139550286Y16666677D01*
X146859286Y16386677D02*
X144580286Y16386677D01*
X148313286Y19026677D02*
X138365286Y19026677D01*
X148357286Y19266677D02*
X138321286Y19266677D01*
X142098286Y16346677D02*
X139861286Y16346677D01*
X146979286Y16506677D02*
X144580286Y16506677D01*
X148374286Y19387677D02*
X138304286Y19387677D01*
X142098286Y16946677D02*
X139319286Y16946677D01*
X147923286Y17866677D02*
X144580286Y17866677D01*
X147884286Y17786677D02*
X144580286Y17786677D01*
X147996286Y18026677D02*
X144580286Y18026677D01*
X148384286Y19467677D02*
X138294286Y19467677D01*
X142098286Y17466677D02*
X138968286Y17466677D01*
X142098286Y17346677D02*
X139041286Y17346677D01*
X147801286Y17626677D02*
X144580286Y17626677D01*
X142098286Y18306677D02*
X138571286Y18306677D01*
X142098286Y17146677D02*
X139173286Y17146677D01*
X146731286Y16266677D02*
X139947286Y16266677D01*
X148407286Y19707677D02*
X138271286Y19707677D01*
X142098286Y18426677D02*
X138528286Y18426677D01*
X142098286Y17706677D02*
X138835286Y17706677D01*
X145849286Y15626677D02*
X140829286Y15626677D01*
X148201286Y18586677D02*
X144580286Y18586677D01*
X142098286Y16506677D02*
X139699286Y16506677D01*
X146545286Y16106677D02*
X140133286Y16106677D01*
X142098286Y17826677D02*
X138775286Y17826677D01*
X148267286Y18826677D02*
X138411286Y18826677D01*
X145984286Y15706677D02*
X140694286Y15706677D01*
X147756286Y17546677D02*
X144580286Y17546677D01*
X142098286Y16906677D02*
X139350286Y16906677D01*
X142098286Y17386677D02*
X139016286Y17386677D01*
X148077286Y18226677D02*
X144580286Y18226677D01*
X142098286Y18186677D02*
X138616286Y18186677D01*
X142098286Y17546677D02*
X138922286Y17546677D01*
X148343286Y19186677D02*
X138335286Y19186677D01*
X146214286Y25547323D02*
X146214286Y24547323D01*
X142098286Y16786677D02*
X139447286Y16786677D01*
X142098286Y17106677D02*
X139201286Y17106677D01*
X146169286Y15826677D02*
X140509286Y15826677D01*
X147163286Y16706677D02*
X144580286Y16706677D01*
X146228286Y15866677D02*
X140450286Y15866677D01*
X144969286Y15226677D02*
X141709286Y15226677D01*
X146900286Y16426677D02*
X144580286Y16426677D01*
X146817286Y16346677D02*
X144580286Y16346677D01*
X142098286Y18466677D02*
X138515286Y18466677D01*
X146393286Y15986677D02*
X140285286Y15986677D01*
X147389286Y16986677D02*
X144580286Y16986677D01*
X146445286Y16026677D02*
X140233286Y16026677D01*
X148093286Y18266677D02*
X144580286Y18266677D01*
X148419286Y20067677D02*
X138259286Y20067677D01*
X142098286Y17186677D02*
X139145286Y17186677D01*
X142098286Y17786677D02*
X138794286Y17786677D01*
X148189286Y18546677D02*
X144580286Y18546677D01*
X142098286Y17026677D02*
X139259286Y17026677D01*
X147560286Y17226677D02*
X144580286Y17226677D01*
X148136286Y18386677D02*
X144580286Y18386677D01*
X147296286Y16866677D02*
X144580286Y16866677D01*
X147018286Y16546677D02*
X144580286Y16546677D01*
X148419286Y20027677D02*
X138259286Y20027677D01*
X142098286Y16426677D02*
X139778286Y16426677D01*
X142098286Y16706677D02*
X139515286Y16706677D01*
X146109286Y15786677D02*
X140569286Y15786677D01*
X148295286Y18946677D02*
X138383286Y18946677D01*
X142098286Y17586677D02*
X138899286Y17586677D01*
X148379286Y19427677D02*
X138299286Y19427677D01*
X147942286Y17906677D02*
X144580286Y17906677D01*
X147960286Y17946677D02*
X144580286Y17946677D01*
X148176286Y18506677D02*
X144580286Y18506677D01*
X142098286Y18106677D02*
X138649286Y18106677D01*
X142098286Y17226677D02*
X139118286Y17226677D01*
X147197286Y16746677D02*
X144580286Y16746677D01*
X147449286Y17066677D02*
X144580286Y17066677D01*
X148417286Y19907677D02*
X138261286Y19907677D01*
X142098286Y18786677D02*
X138421286Y18786677D01*
X142098286Y18146677D02*
X138632286Y18146677D01*
X142098286Y18706677D02*
X138442286Y18706677D01*
X148401286Y19627677D02*
X138277286Y19627677D01*
X147734286Y17506677D02*
X144580286Y17506677D01*
X142098286Y16986677D02*
X139289286Y16986677D01*
X147128286Y16666677D02*
X144580286Y16666677D01*
X147359286Y16946677D02*
X144580286Y16946677D01*
X148459286Y20067677D02*
G75*
G03*
X148459286Y20067677I-5120000J0D01*
G01*
%TO.C,J34*%
X98405286Y93666000D02*
X101065286Y93666000D01*
X98405286Y96326000D02*
X99735286Y96326000D01*
X98405286Y94996000D02*
X98405286Y96326000D01*
X101065286Y93726000D02*
X101065286Y93666000D01*
X98405286Y93726000D02*
X98405286Y93666000D01*
X98405286Y93726000D02*
X101065286Y93726000D01*
D12*
%TO.C,K2*%
X15650000Y142962500D02*
X31150000Y142962500D01*
X15650000Y123862500D02*
X15650000Y142962500D01*
X31150000Y123862500D02*
X15650000Y123862500D01*
X31150000Y142962500D02*
X31150000Y123862500D01*
D13*
X17381000Y123212500D02*
G75*
G03*
X17381000Y123212500I-100000J0D01*
G01*
D11*
%TO.C,J29*%
X17649286Y47540000D02*
X20309286Y47540000D01*
X17649286Y48810000D02*
X17649286Y50140000D01*
X17649286Y50140000D02*
X18979286Y50140000D01*
X17649286Y47480000D02*
X20309286Y47480000D01*
X20309286Y47540000D02*
X20309286Y47480000D01*
X17649286Y47540000D02*
X17649286Y47480000D01*
%TO.C,J19*%
X17633286Y91948000D02*
X17633286Y91888000D01*
X17633286Y93218000D02*
X17633286Y94548000D01*
X17633286Y91948000D02*
X20293286Y91948000D01*
X17633286Y94548000D02*
X18963286Y94548000D01*
X20293286Y91948000D02*
X20293286Y91888000D01*
X17633286Y91888000D02*
X20293286Y91888000D01*
D12*
%TO.C,J10*%
X91149286Y4620000D02*
X16149286Y4620000D01*
X91149286Y12220000D02*
X91149286Y4620000D01*
X16149286Y12220000D02*
X91149286Y12220000D01*
X16149286Y4620000D02*
X16149286Y12220000D01*
D14*
X18749286Y3620000D02*
G75*
G03*
X18749286Y3620000I-100000J0D01*
G01*
%TO.C,J5*%
X5989286Y34950000D02*
X13589286Y34950000D01*
X13589286Y34950000D02*
X13589286Y49950000D01*
X13589286Y49950000D02*
X9489286Y49950000D01*
X5989286Y47450000D02*
X5989286Y34950000D01*
D11*
%TO.C,J35*%
X98913286Y120964000D02*
X100243286Y120964000D01*
X98913286Y119634000D02*
X98913286Y120964000D01*
X101573286Y118364000D02*
X101573286Y118304000D01*
X98913286Y118304000D02*
X101573286Y118304000D01*
X98913286Y118364000D02*
X98913286Y118304000D01*
X98913286Y118364000D02*
X101573286Y118364000D01*
%TO.C,J26*%
X77199286Y13860000D02*
X77199286Y13800000D01*
X77199286Y16460000D02*
X78529286Y16460000D01*
X77199286Y13800000D02*
X79859286Y13800000D01*
X77199286Y13860000D02*
X79859286Y13860000D01*
X79859286Y13860000D02*
X79859286Y13800000D01*
X77199286Y15130000D02*
X77199286Y16460000D01*
D12*
%TO.C,K7*%
X51150000Y142762500D02*
X51150000Y123662500D01*
X35650000Y123662500D02*
X35650000Y142762500D01*
X51150000Y123662500D02*
X35650000Y123662500D01*
X35650000Y142762500D02*
X51150000Y142762500D01*
D13*
X37381000Y123012500D02*
G75*
G03*
X37381000Y123012500I-100000J0D01*
G01*
D11*
%TO.C,J20*%
X116947286Y42672000D02*
X116947286Y45272000D01*
X116947286Y40072000D02*
X116947286Y41402000D01*
X116947286Y45272000D02*
X127227286Y45272000D01*
X119547286Y40072000D02*
X127227286Y40072000D01*
X118277286Y40072000D02*
X116947286Y40072000D01*
X119547286Y40072000D02*
X119547286Y42672000D01*
X119547286Y42672000D02*
X116947286Y42672000D01*
X127227286Y40072000D02*
X127227286Y45272000D01*
D14*
%TO.C,J8*%
X158369286Y50130000D02*
X150769286Y50130000D01*
X150769286Y35130000D02*
X154869286Y35130000D01*
X158369286Y37630000D02*
X158369286Y50130000D01*
X150769286Y50130000D02*
X150769286Y35130000D01*
D12*
%TO.C,K6*%
X96550000Y142562500D02*
X112050000Y142562500D01*
X112050000Y123462500D02*
X96550000Y123462500D01*
X112050000Y142562500D02*
X112050000Y123462500D01*
X96550000Y123462500D02*
X96550000Y142562500D01*
D13*
X98281000Y122812500D02*
G75*
G03*
X98281000Y122812500I-100000J0D01*
G01*
D11*
%TO.C,J37*%
X62399286Y16560000D02*
X63729286Y16560000D01*
X62399286Y13960000D02*
X62399286Y13900000D01*
X62399286Y13900000D02*
X65059286Y13900000D01*
X62399286Y15230000D02*
X62399286Y16560000D01*
X65059286Y13960000D02*
X65059286Y13900000D01*
X62399286Y13960000D02*
X65059286Y13960000D01*
%TO.C,J24*%
X17749286Y73510000D02*
X17749286Y73450000D01*
X17749286Y73450000D02*
X20409286Y73450000D01*
X20409286Y73510000D02*
X20409286Y73450000D01*
X17749286Y76110000D02*
X19079286Y76110000D01*
X17749286Y73510000D02*
X20409286Y73510000D01*
X17749286Y74780000D02*
X17749286Y76110000D01*
D15*
%TO.C,J18*%
X38469286Y153710000D02*
X48969286Y153710000D01*
X48969286Y146110000D02*
X38469286Y146110000D01*
X38469286Y146110000D02*
X38469286Y153710000D01*
X48969286Y153710000D02*
X48969286Y146110000D01*
D11*
%TO.C,L1*%
X117915938Y11282500D02*
G75*
G03*
X110832634Y11282500I-3541652J-1560000D01*
G01*
X110832634Y8162500D02*
G75*
G03*
X117915938Y8162500I3541652J1560000D01*
G01*
%TO.C,U3*%
X71735286Y96360000D02*
X94715286Y96360000D01*
X71735286Y101660000D02*
X71735286Y100010000D01*
X71735286Y98010000D02*
X71735286Y96360000D01*
X94715286Y96360000D02*
X94715286Y101660000D01*
X94715286Y101660000D02*
X71735286Y101660000D01*
X71735286Y98010000D02*
G75*
G03*
X71735286Y100010000I0J1000000D01*
G01*
D12*
%TO.C,K4*%
X55950000Y142762500D02*
X71450000Y142762500D01*
X55950000Y123662500D02*
X55950000Y142762500D01*
X71450000Y142762500D02*
X71450000Y123662500D01*
X71450000Y123662500D02*
X55950000Y123662500D01*
D13*
X57681000Y123012500D02*
G75*
G03*
X57681000Y123012500I-100000J0D01*
G01*
D11*
%TO.C,J45*%
X22205286Y28896000D02*
X24865286Y28896000D01*
X22205286Y31556000D02*
X23535286Y31556000D01*
X22205286Y28956000D02*
X22205286Y28896000D01*
X22205286Y30226000D02*
X22205286Y31556000D01*
X24865286Y28956000D02*
X24865286Y28896000D01*
X22205286Y28956000D02*
X24865286Y28956000D01*
%TO.C,C19*%
X60879286Y99444000D02*
X60879286Y100960000D01*
X60278286Y103040000D02*
X60278286Y104398000D01*
X59158286Y100446000D02*
X59158286Y103554000D01*
X60919286Y99439000D02*
X60919286Y100960000D01*
X59678286Y99935000D02*
X59678286Y100960000D01*
X61079286Y103040000D02*
X61079286Y104576000D01*
X61119286Y99422000D02*
X61119286Y100960000D01*
X61239286Y103040000D02*
X61239286Y104580000D01*
X59398286Y103040000D02*
X59398286Y103826000D01*
X63794061Y100275000D02*
X63794061Y100775000D01*
X60478286Y99532000D02*
X60478286Y100960000D01*
X61039286Y99427000D02*
X61039286Y100960000D01*
X58798286Y101085000D02*
X58798286Y102915000D01*
X60799286Y103040000D02*
X60799286Y104543000D01*
X60078286Y99690000D02*
X60078286Y100960000D01*
X60198286Y99635000D02*
X60198286Y100960000D01*
X60839286Y99450000D02*
X60839286Y100960000D01*
X60158286Y103040000D02*
X60158286Y104348000D01*
X60238286Y103040000D02*
X60238286Y104382000D01*
X59958286Y99753000D02*
X59958286Y100960000D01*
X64044061Y100525000D02*
X63544061Y100525000D01*
X60719286Y99472000D02*
X60719286Y100960000D01*
X61039286Y103040000D02*
X61039286Y104573000D01*
X58758286Y101195000D02*
X58758286Y102805000D01*
X61239286Y99420000D02*
X61239286Y100960000D01*
X60959286Y103040000D02*
X60959286Y104565000D01*
X60358286Y103040000D02*
X60358286Y104428000D01*
X60999286Y99431000D02*
X60999286Y100960000D01*
X61199286Y99420000D02*
X61199286Y100960000D01*
X60559286Y99509000D02*
X60559286Y100960000D01*
X59638286Y99965000D02*
X59638286Y100960000D01*
X59038286Y100617000D02*
X59038286Y103383000D01*
X59358286Y103040000D02*
X59358286Y103785000D01*
X58998286Y100681000D02*
X58998286Y103319000D01*
X59278286Y100301000D02*
X59278286Y100960000D01*
X59238286Y103040000D02*
X59238286Y103653000D01*
X59918286Y99776000D02*
X59918286Y100960000D01*
X60639286Y99489000D02*
X60639286Y100960000D01*
X59518286Y103040000D02*
X59518286Y103937000D01*
X58718286Y101323000D02*
X58718286Y102677000D01*
X59118286Y100500000D02*
X59118286Y103500000D01*
X60559286Y103040000D02*
X60559286Y104491000D01*
X60799286Y99457000D02*
X60799286Y100960000D01*
X60839286Y103040000D02*
X60839286Y104550000D01*
X60398286Y99558000D02*
X60398286Y100960000D01*
X59558286Y100029000D02*
X59558286Y100960000D01*
X58958286Y100749000D02*
X58958286Y103251000D01*
X60038286Y99710000D02*
X60038286Y100960000D01*
X60118286Y103040000D02*
X60118286Y104329000D01*
X59998286Y99732000D02*
X59998286Y100960000D01*
X59238286Y100347000D02*
X59238286Y100960000D01*
X60759286Y103040000D02*
X60759286Y104536000D01*
X58838286Y100989000D02*
X58838286Y103011000D01*
X60078286Y103040000D02*
X60078286Y104310000D01*
X59598286Y99996000D02*
X59598286Y100960000D01*
X60358286Y99572000D02*
X60358286Y100960000D01*
X59318286Y100257000D02*
X59318286Y100960000D01*
X59678286Y103040000D02*
X59678286Y104065000D01*
X59278286Y103040000D02*
X59278286Y103699000D01*
X58918286Y100822000D02*
X58918286Y103178000D01*
X59878286Y103040000D02*
X59878286Y104200000D01*
X59478286Y100099000D02*
X59478286Y100960000D01*
X60038286Y103040000D02*
X60038286Y104290000D01*
X61119286Y103040000D02*
X61119286Y104578000D01*
X60599286Y103040000D02*
X60599286Y104501000D01*
X60599286Y99499000D02*
X60599286Y100960000D01*
X59918286Y103040000D02*
X59918286Y104224000D01*
X59758286Y103040000D02*
X59758286Y104122000D01*
X59438286Y100136000D02*
X59438286Y100960000D01*
X61159286Y99421000D02*
X61159286Y100960000D01*
X60999286Y103040000D02*
X60999286Y104569000D01*
X59718286Y103040000D02*
X59718286Y104095000D01*
X59798286Y103040000D02*
X59798286Y104149000D01*
X59438286Y103040000D02*
X59438286Y103864000D01*
X60719286Y103040000D02*
X60719286Y104528000D01*
X60158286Y99652000D02*
X60158286Y100960000D01*
X59638286Y103040000D02*
X59638286Y104035000D01*
X59198286Y100395000D02*
X59198286Y103605000D01*
X60318286Y99586000D02*
X60318286Y100960000D01*
X60438286Y103040000D02*
X60438286Y104455000D01*
X60759286Y99464000D02*
X60759286Y100960000D01*
X60398286Y103040000D02*
X60398286Y104442000D01*
X60318286Y103040000D02*
X60318286Y104414000D01*
X60879286Y103040000D02*
X60879286Y104556000D01*
X59318286Y103040000D02*
X59318286Y103743000D01*
X59958286Y103040000D02*
X59958286Y104247000D01*
X60438286Y99545000D02*
X60438286Y100960000D01*
X59838286Y103040000D02*
X59838286Y104175000D01*
X60238286Y99618000D02*
X60238286Y100960000D01*
X61079286Y99424000D02*
X61079286Y100960000D01*
X60959286Y99435000D02*
X60959286Y100960000D01*
X61199286Y103040000D02*
X61199286Y104580000D01*
X59478286Y103040000D02*
X59478286Y103901000D01*
X58638286Y101716000D02*
X58638286Y102284000D01*
X59398286Y100174000D02*
X59398286Y100960000D01*
X59598286Y103040000D02*
X59598286Y104004000D01*
X61159286Y103040000D02*
X61159286Y104579000D01*
X59558286Y103040000D02*
X59558286Y103971000D01*
X60639286Y103040000D02*
X60639286Y104511000D01*
X60679286Y99480000D02*
X60679286Y100960000D01*
X59798286Y99851000D02*
X59798286Y100960000D01*
X60198286Y103040000D02*
X60198286Y104365000D01*
X59358286Y100215000D02*
X59358286Y100960000D01*
X60518286Y103040000D02*
X60518286Y104480000D01*
X60919286Y103040000D02*
X60919286Y104561000D01*
X59718286Y99905000D02*
X59718286Y100960000D01*
X59758286Y99878000D02*
X59758286Y100960000D01*
X59998286Y103040000D02*
X59998286Y104268000D01*
X59878286Y99800000D02*
X59878286Y100960000D01*
X60518286Y99520000D02*
X60518286Y100960000D01*
X60478286Y103040000D02*
X60478286Y104468000D01*
X58678286Y101482000D02*
X58678286Y102518000D01*
X60118286Y99671000D02*
X60118286Y100960000D01*
X60679286Y103040000D02*
X60679286Y104520000D01*
X59078286Y100557000D02*
X59078286Y103443000D01*
X58878286Y100902000D02*
X58878286Y103098000D01*
X59518286Y100063000D02*
X59518286Y100960000D01*
X59838286Y99825000D02*
X59838286Y100960000D01*
X60278286Y99602000D02*
X60278286Y100960000D01*
X63859286Y102000000D02*
G75*
G03*
X63859286Y102000000I-2620000J0D01*
G01*
%TO.C,J38*%
X49959286Y14060000D02*
X49959286Y14000000D01*
X47299286Y15330000D02*
X47299286Y16660000D01*
X47299286Y14060000D02*
X49959286Y14060000D01*
X47299286Y16660000D02*
X48629286Y16660000D01*
X47299286Y14060000D02*
X47299286Y14000000D01*
X47299286Y14000000D02*
X49959286Y14000000D01*
D15*
%TO.C,J4*%
X5429286Y72230000D02*
X5429286Y92230000D01*
X14429286Y72230000D02*
X5429286Y72230000D01*
X14429286Y92230000D02*
X14429286Y72230000D01*
X5429286Y92230000D02*
X14429286Y92230000D01*
D11*
%TO.C,C17*%
X106179286Y28024887D02*
X107630286Y28024887D01*
X106179286Y27984887D02*
X107640286Y27984887D01*
X102659286Y28065887D02*
X104099286Y28065887D01*
X102697286Y28185887D02*
X104099286Y28185887D01*
X106179286Y28585887D02*
X107407286Y28585887D01*
X103275286Y29145887D02*
X104099286Y29145887D01*
X106179286Y28625887D02*
X107386286Y28625887D01*
X103168286Y29025887D02*
X104099286Y29025887D01*
X102561286Y27464887D02*
X104099286Y27464887D01*
X102964286Y28745887D02*
X104099286Y28745887D01*
X106179286Y28465887D02*
X107468286Y28465887D01*
X103017286Y28825887D02*
X104099286Y28825887D01*
X104041286Y29705887D02*
X106237286Y29705887D01*
X102791286Y28425887D02*
X104099286Y28425887D01*
X102915286Y28665887D02*
X104099286Y28665887D01*
X106179286Y28345887D02*
X107521286Y28345887D01*
X106179286Y28265887D02*
X107553286Y28265887D01*
X102871286Y28585887D02*
X104099286Y28585887D01*
X102648286Y28024887D02*
X104099286Y28024887D01*
X102810286Y28465887D02*
X104099286Y28465887D01*
X106179286Y29345887D02*
X106792286Y29345887D01*
X106179286Y28985887D02*
X107143286Y28985887D01*
X106179286Y28665887D02*
X107363286Y28665887D01*
X106179286Y27784887D02*
X107682286Y27784887D01*
X106179286Y27384887D02*
X107719286Y27384887D01*
X106179286Y28425887D02*
X107487286Y28425887D01*
X106179286Y29145887D02*
X107003286Y29145887D01*
X103354286Y29225887D02*
X104099286Y29225887D01*
X102574286Y27624887D02*
X104099286Y27624887D01*
X103820286Y29585887D02*
X106458286Y29585887D01*
X104334286Y29825887D02*
X105944286Y29825887D01*
X106179286Y28305887D02*
X107537286Y28305887D01*
X102684286Y28145887D02*
X104099286Y28145887D01*
X103396286Y29265887D02*
X104099286Y29265887D01*
X106179286Y27424887D02*
X107718286Y27424887D01*
X102939286Y28705887D02*
X104099286Y28705887D01*
X106179286Y29305887D02*
X106838286Y29305887D01*
X102725286Y28265887D02*
X104099286Y28265887D01*
X102741286Y28305887D02*
X104099286Y28305887D01*
X106179286Y27624887D02*
X107704286Y27624887D01*
X102638286Y27984887D02*
X104099286Y27984887D01*
X102892286Y28625887D02*
X104099286Y28625887D01*
X102990286Y28785887D02*
X104099286Y28785887D01*
X102559286Y27344887D02*
X104099286Y27344887D01*
X106179286Y28905887D02*
X107204286Y28905887D01*
X102628286Y27944887D02*
X104099286Y27944887D01*
X104224286Y29785887D02*
X106054286Y29785887D01*
X104128286Y29745887D02*
X106150286Y29745887D01*
X106179286Y29265887D02*
X106882286Y29265887D01*
X106179286Y28945887D02*
X107174286Y28945887D01*
X103074286Y28905887D02*
X104099286Y28905887D01*
X103696286Y29505887D02*
X106582286Y29505887D01*
X102578286Y27664887D02*
X104099286Y27664887D01*
X102583286Y27704887D02*
X104099286Y27704887D01*
X106179286Y28705887D02*
X107339286Y28705887D01*
X104855286Y29945887D02*
X105423286Y29945887D01*
X102774286Y28385887D02*
X104099286Y28385887D01*
X103486286Y29345887D02*
X104099286Y29345887D01*
X106179286Y28065887D02*
X107619286Y28065887D01*
X103202286Y29065887D02*
X104099286Y29065887D01*
X102560286Y27424887D02*
X104099286Y27424887D01*
X106179286Y28225887D02*
X107567286Y28225887D01*
X106179286Y29105887D02*
X107040286Y29105887D01*
X106179286Y29185887D02*
X106965286Y29185887D01*
X102711286Y28225887D02*
X104099286Y28225887D01*
X106179286Y28505887D02*
X107449286Y28505887D01*
X106179286Y28865887D02*
X107234286Y28865887D01*
X106179286Y28185887D02*
X107581286Y28185887D01*
X104621286Y29905887D02*
X105657286Y29905887D01*
X102619286Y27904887D02*
X104099286Y27904887D01*
X102611286Y27864887D02*
X104099286Y27864887D01*
X106179286Y28145887D02*
X107594286Y28145887D01*
X103104286Y28945887D02*
X104099286Y28945887D01*
X102596286Y27784887D02*
X104099286Y27784887D01*
X106179286Y28105887D02*
X107607286Y28105887D01*
X106179286Y27824887D02*
X107675286Y27824887D01*
X103756286Y29545887D02*
X106522286Y29545887D01*
X106179286Y28385887D02*
X107504286Y28385887D01*
X103664286Y24540112D02*
X103664286Y25040112D01*
X106179286Y29025887D02*
X107110286Y29025887D01*
X106179286Y27944887D02*
X107650286Y27944887D01*
X103313286Y29185887D02*
X104099286Y29185887D01*
X102849286Y28545887D02*
X104099286Y28545887D01*
X106179286Y27864887D02*
X107667286Y27864887D01*
X103888286Y29625887D02*
X106390286Y29625887D01*
X104462286Y29865887D02*
X105816286Y29865887D01*
X102603286Y27824887D02*
X104099286Y27824887D01*
X103639286Y29465887D02*
X106639286Y29465887D01*
X106179286Y28785887D02*
X107288286Y28785887D01*
X102829286Y28505887D02*
X104099286Y28505887D01*
X106179286Y27664887D02*
X107700286Y27664887D01*
X102566286Y27544887D02*
X104099286Y27544887D01*
X102570286Y27584887D02*
X104099286Y27584887D01*
X102757286Y28345887D02*
X104099286Y28345887D01*
X106179286Y28825887D02*
X107261286Y28825887D01*
X103961286Y29665887D02*
X106317286Y29665887D01*
X102671286Y28105887D02*
X104099286Y28105887D01*
X106179286Y27504887D02*
X107715286Y27504887D01*
X103585286Y29425887D02*
X106693286Y29425887D01*
X102589286Y27744887D02*
X104099286Y27744887D01*
X106179286Y29225887D02*
X106924286Y29225887D01*
X103044286Y28865887D02*
X104099286Y28865887D01*
X106179286Y27744887D02*
X107689286Y27744887D01*
X106179286Y27704887D02*
X107695286Y27704887D01*
X103414286Y24790112D02*
X103914286Y24790112D01*
X106179286Y27904887D02*
X107659286Y27904887D01*
X103238286Y29105887D02*
X104099286Y29105887D01*
X106179286Y27584887D02*
X107708286Y27584887D01*
X103534286Y29385887D02*
X106744286Y29385887D01*
X106179286Y27464887D02*
X107717286Y27464887D01*
X106179286Y28745887D02*
X107314286Y28745887D01*
X106179286Y28545887D02*
X107429286Y28545887D01*
X103440286Y29305887D02*
X104099286Y29305887D01*
X103135286Y28985887D02*
X104099286Y28985887D01*
X102563286Y27504887D02*
X104099286Y27504887D01*
X102559286Y27384887D02*
X104099286Y27384887D01*
X106179286Y27344887D02*
X107719286Y27344887D01*
X106179286Y29065887D02*
X107076286Y29065887D01*
X106179286Y27544887D02*
X107712286Y27544887D01*
X107759286Y27344887D02*
G75*
G03*
X107759286Y27344887I-2620000J0D01*
G01*
%TO.C,J22*%
X82199286Y27360000D02*
X82199286Y27300000D01*
X82199286Y27300000D02*
X84859286Y27300000D01*
X84859286Y27360000D02*
X84859286Y27300000D01*
X82199286Y29960000D02*
X83529286Y29960000D01*
X82199286Y28630000D02*
X82199286Y29960000D01*
X82199286Y27360000D02*
X84859286Y27360000D01*
D15*
%TO.C,J13*%
X18549286Y153760000D02*
X29049286Y153760000D01*
X18549286Y146160000D02*
X18549286Y153760000D01*
X29049286Y146160000D02*
X18549286Y146160000D01*
X29049286Y153760000D02*
X29049286Y146160000D01*
D14*
%TO.C,J7*%
X151059286Y108320000D02*
X151059286Y93320000D01*
X158659286Y108320000D02*
X151059286Y108320000D01*
X151059286Y93320000D02*
X155159286Y93320000D01*
X158659286Y95820000D02*
X158659286Y108320000D01*
D11*
%TO.C,J30*%
X78339286Y118364000D02*
X78339286Y118304000D01*
X78339286Y118364000D02*
X80999286Y118364000D01*
X78339286Y120964000D02*
X79669286Y120964000D01*
X78339286Y119634000D02*
X78339286Y120964000D01*
X78339286Y118304000D02*
X80999286Y118304000D01*
X80999286Y118364000D02*
X80999286Y118304000D01*
D14*
%TO.C,J11*%
X13499286Y68170000D02*
X9399286Y68170000D01*
X13499286Y53170000D02*
X13499286Y68170000D01*
X5899286Y65670000D02*
X5899286Y53170000D01*
X5899286Y53170000D02*
X13499286Y53170000D01*
D15*
%TO.C,J1*%
X151329286Y15490000D02*
X151329286Y25990000D01*
X158929286Y25990000D02*
X158929286Y15490000D01*
X158929286Y15490000D02*
X151329286Y15490000D01*
X151329286Y25990000D02*
X158929286Y25990000D01*
%TO.C,J14*%
X149309286Y146110000D02*
X138809286Y146110000D01*
X138809286Y146110000D02*
X138809286Y153710000D01*
X138809286Y153710000D02*
X149309286Y153710000D01*
X149309286Y153710000D02*
X149309286Y146110000D01*
D14*
%TO.C,J9*%
X150969286Y74270000D02*
X155069286Y74270000D01*
X158569286Y76770000D02*
X158569286Y89270000D01*
X150969286Y89270000D02*
X150969286Y74270000D01*
X158569286Y89270000D02*
X150969286Y89270000D01*
D11*
%TO.C,J3*%
X94569286Y80500000D02*
X94569286Y44880000D01*
X94569286Y83100000D02*
X95899286Y83100000D01*
X94569286Y44880000D02*
X97229286Y44880000D01*
X94569286Y81770000D02*
X94569286Y83100000D01*
X94569286Y80500000D02*
X97229286Y80500000D01*
X97229286Y80500000D02*
X97229286Y44880000D01*
%TO.C,J2*%
X68570000Y81775000D02*
X68570000Y83105000D01*
X68570000Y44885000D02*
X71230000Y44885000D01*
X68570000Y80505000D02*
X71230000Y80505000D01*
X68570000Y80505000D02*
X68570000Y44885000D01*
X68570000Y83105000D02*
X69900000Y83105000D01*
X71230000Y80505000D02*
X71230000Y44885000D01*
%TO.C,J41*%
X17729286Y34820000D02*
X20389286Y34820000D01*
X17729286Y37420000D02*
X19059286Y37420000D01*
X20389286Y34820000D02*
X20389286Y34760000D01*
X17729286Y34820000D02*
X17729286Y34760000D01*
X17729286Y36090000D02*
X17729286Y37420000D01*
X17729286Y34760000D02*
X20389286Y34760000D01*
%TO.C,J42*%
X17739286Y56080000D02*
X19069286Y56080000D01*
X20399286Y53480000D02*
X20399286Y53420000D01*
X17739286Y53480000D02*
X20399286Y53480000D01*
X17739286Y54750000D02*
X17739286Y56080000D01*
X17739286Y53480000D02*
X17739286Y53420000D01*
X17739286Y53420000D02*
X20399286Y53420000D01*
%TO.C,J28*%
X17669286Y69630000D02*
X18999286Y69630000D01*
X17669286Y68300000D02*
X17669286Y69630000D01*
X17669286Y67030000D02*
X17669286Y66970000D01*
X17669286Y67030000D02*
X20329286Y67030000D01*
X20329286Y67030000D02*
X20329286Y66970000D01*
X17669286Y66970000D02*
X20329286Y66970000D01*
%TO.C,J39*%
X32299286Y15430000D02*
X32299286Y16760000D01*
X32299286Y14160000D02*
X32299286Y14100000D01*
X34959286Y14160000D02*
X34959286Y14100000D01*
X32299286Y16760000D02*
X33629286Y16760000D01*
X32299286Y14100000D02*
X34959286Y14100000D01*
X32299286Y14160000D02*
X34959286Y14160000D01*
%TO.C,J36*%
X37919286Y118210000D02*
X40579286Y118210000D01*
X37919286Y118150000D02*
X40579286Y118150000D01*
X37919286Y119480000D02*
X37919286Y120810000D01*
X37919286Y120810000D02*
X39249286Y120810000D01*
X40579286Y118210000D02*
X40579286Y118150000D01*
X37919286Y118210000D02*
X37919286Y118150000D01*
D15*
%TO.C,J15*%
X69079286Y153650000D02*
X69079286Y146050000D01*
X69079286Y146050000D02*
X58579286Y146050000D01*
X58579286Y146050000D02*
X58579286Y153650000D01*
X58579286Y153650000D02*
X69079286Y153650000D01*
%TO.C,J12*%
X78739286Y146050000D02*
X78739286Y153650000D01*
X78739286Y153650000D02*
X89239286Y153650000D01*
X89239286Y153650000D02*
X89239286Y146050000D01*
X89239286Y146050000D02*
X78739286Y146050000D01*
D11*
%TO.C,J25*%
X37399286Y30030000D02*
X37399286Y31360000D01*
X37399286Y28760000D02*
X40059286Y28760000D01*
X37399286Y31360000D02*
X38729286Y31360000D01*
X37399286Y28760000D02*
X37399286Y28700000D01*
X40059286Y28760000D02*
X40059286Y28700000D01*
X37399286Y28700000D02*
X40059286Y28700000D01*
D12*
%TO.C,K3*%
X151850000Y123450000D02*
X136350000Y123450000D01*
X136350000Y142550000D02*
X151850000Y142550000D01*
X151850000Y142550000D02*
X151850000Y123450000D01*
X136350000Y123450000D02*
X136350000Y142550000D01*
D13*
X138081000Y122800000D02*
G75*
G03*
X138081000Y122800000I-100000J0D01*
G01*
D11*
%TO.C,J43*%
X135519286Y6435000D02*
X134189286Y6435000D01*
X136789286Y6435000D02*
X136789286Y9035000D01*
X144469286Y6435000D02*
X144469286Y11635000D01*
X136789286Y6435000D02*
X144469286Y6435000D01*
X134189286Y9035000D02*
X134189286Y11635000D01*
X136789286Y9035000D02*
X134189286Y9035000D01*
X134189286Y6435000D02*
X134189286Y7765000D01*
X134189286Y11635000D02*
X144469286Y11635000D01*
D15*
%TO.C,J17*%
X109219286Y146050000D02*
X98719286Y146050000D01*
X98719286Y146050000D02*
X98719286Y153650000D01*
X98719286Y153650000D02*
X109219286Y153650000D01*
X109219286Y153650000D02*
X109219286Y146050000D01*
D11*
%TO.C,J31*%
X138791286Y119634000D02*
X138791286Y120964000D01*
X141451286Y118364000D02*
X141451286Y118304000D01*
X138791286Y118364000D02*
X138791286Y118304000D01*
X138791286Y118304000D02*
X141451286Y118304000D01*
X138791286Y118364000D02*
X141451286Y118364000D01*
X138791286Y120964000D02*
X140121286Y120964000D01*
%TO.C,J27*%
X52299286Y27760000D02*
X54959286Y27760000D01*
X52299286Y27700000D02*
X54959286Y27700000D01*
X52299286Y27760000D02*
X52299286Y27700000D01*
X52299286Y30360000D02*
X53629286Y30360000D01*
X54959286Y27760000D02*
X54959286Y27700000D01*
X52299286Y29030000D02*
X52299286Y30360000D01*
%TO.C,J44*%
X20801286Y118110000D02*
X20801286Y118050000D01*
X18141286Y119380000D02*
X18141286Y120710000D01*
X18141286Y118050000D02*
X20801286Y118050000D01*
X18141286Y118110000D02*
X18141286Y118050000D01*
X18141286Y118110000D02*
X20801286Y118110000D01*
X18141286Y120710000D02*
X19471286Y120710000D01*
%TD*%
M02*
