%TF.GenerationSoftware,KiCad,Pcbnew,(6.0.7)*%
%TF.CreationDate,2022-10-21T23:12:00-03:00*%
%TF.ProjectId,PCB_Prototipo_Proyecto_Final,5043425f-5072-46f7-946f-7469706f5f50,rev?*%
%TF.SameCoordinates,PX7e4946aPYc6a19c0*%
%TF.FileFunction,Paste,Bot*%
%TF.FilePolarity,Positive*%
%FSLAX46Y46*%
G04 Gerber Fmt 4.6, Leading zero omitted, Abs format (unit mm)*
G04 Created by KiCad (PCBNEW (6.0.7)) date 2022-10-21 23:12:00*
%MOMM*%
%LPD*%
G01*
G04 APERTURE LIST*
G04 Aperture macros list*
%AMRoundRect*
0 Rectangle with rounded corners*
0 $1 Rounding radius*
0 $2 $3 $4 $5 $6 $7 $8 $9 X,Y pos of 4 corners*
0 Add a 4 corners polygon primitive as box body*
4,1,4,$2,$3,$4,$5,$6,$7,$8,$9,$2,$3,0*
0 Add four circle primitives for the rounded corners*
1,1,$1+$1,$2,$3*
1,1,$1+$1,$4,$5*
1,1,$1+$1,$6,$7*
1,1,$1+$1,$8,$9*
0 Add four rect primitives between the rounded corners*
20,1,$1+$1,$2,$3,$4,$5,0*
20,1,$1+$1,$4,$5,$6,$7,0*
20,1,$1+$1,$6,$7,$8,$9,0*
20,1,$1+$1,$8,$9,$2,$3,0*%
G04 Aperture macros list end*
%TA.AperFunction,Profile*%
%ADD10C,0.100000*%
%TD*%
%ADD11RoundRect,0.250000X0.262500X0.450000X-0.262500X0.450000X-0.262500X-0.450000X0.262500X-0.450000X0*%
%ADD12RoundRect,0.150000X-0.150000X0.587500X-0.150000X-0.587500X0.150000X-0.587500X0.150000X0.587500X0*%
%ADD13RoundRect,0.250000X-0.450000X0.262500X-0.450000X-0.262500X0.450000X-0.262500X0.450000X0.262500X0*%
%ADD14RoundRect,0.250000X0.250000X0.475000X-0.250000X0.475000X-0.250000X-0.475000X0.250000X-0.475000X0*%
%ADD15RoundRect,0.250000X0.450000X-0.262500X0.450000X0.262500X-0.450000X0.262500X-0.450000X-0.262500X0*%
%ADD16R,2.500000X1.800000*%
%ADD17R,0.950000X1.250000*%
%ADD18R,3.200000X1.250000*%
%ADD19RoundRect,0.250000X0.475000X-0.250000X0.475000X0.250000X-0.475000X0.250000X-0.475000X-0.250000X0*%
%ADD20R,3.100000X2.200000*%
%ADD21RoundRect,0.250000X-0.262500X-0.450000X0.262500X-0.450000X0.262500X0.450000X-0.262500X0.450000X0*%
%ADD22RoundRect,0.250000X-0.475000X0.250000X-0.475000X-0.250000X0.475000X-0.250000X0.475000X0.250000X0*%
%ADD23RoundRect,0.150000X0.150000X-0.587500X0.150000X0.587500X-0.150000X0.587500X-0.150000X-0.587500X0*%
%ADD24R,1.070000X2.160000*%
%ADD25R,1.235000X1.910000*%
%ADD26R,8.330000X6.990000*%
G04 APERTURE END LIST*
D10*
X0Y0D02*
X165100000Y0D01*
X165100000Y0D02*
X165100000Y154940000D01*
X165100000Y154940000D02*
X0Y154940000D01*
X0Y154940000D02*
X0Y0D01*
D11*
%TO.C,R34*%
X44541786Y27130000D03*
X42716786Y27130000D03*
%TD*%
D12*
%TO.C,Q7*%
X23249286Y45867500D03*
X25149286Y45867500D03*
X24199286Y43992500D03*
%TD*%
D13*
%TO.C,R17*%
X145119286Y100732500D03*
X145119286Y98907500D03*
%TD*%
D12*
%TO.C,Q2*%
X87579286Y22367500D03*
X89479286Y22367500D03*
X88529286Y20492500D03*
%TD*%
%TO.C,Q8*%
X22439286Y64767500D03*
X24339286Y64767500D03*
X23389286Y62892500D03*
%TD*%
D14*
%TO.C,C3*%
X53679286Y20330000D03*
X51779286Y20330000D03*
%TD*%
D15*
%TO.C,R25*%
X19109286Y86797500D03*
X19109286Y88622500D03*
%TD*%
D13*
%TO.C,R3*%
X55049286Y81122500D03*
X55049286Y79297500D03*
%TD*%
D12*
%TO.C,Q3*%
X72679286Y22467500D03*
X74579286Y22467500D03*
X73629286Y20592500D03*
%TD*%
D16*
%TO.C,D5*%
X65739286Y119530000D03*
X69739286Y119530000D03*
%TD*%
D11*
%TO.C,R19*%
X148319286Y62010000D03*
X146494286Y62010000D03*
%TD*%
D15*
%TO.C,R43*%
X19299286Y112877500D03*
X19299286Y114702500D03*
%TD*%
D17*
%TO.C,U2*%
X100439286Y22244887D03*
X102739286Y22244887D03*
X105039286Y22244887D03*
D18*
X102739286Y15444887D03*
%TD*%
D15*
%TO.C,R13*%
X38629286Y23705000D03*
X38629286Y25530000D03*
%TD*%
D14*
%TO.C,C2*%
X68729286Y20130000D03*
X66829286Y20130000D03*
%TD*%
%TO.C,C20*%
X67919286Y101854000D03*
X66019286Y101854000D03*
%TD*%
D12*
%TO.C,Q4*%
X57679286Y22667500D03*
X59579286Y22667500D03*
X58629286Y20792500D03*
%TD*%
D15*
%TO.C,R10*%
X53629286Y14917500D03*
X53629286Y16742500D03*
%TD*%
%TO.C,R41*%
X51899286Y79280000D03*
X51899286Y81105000D03*
%TD*%
D14*
%TO.C,C1*%
X83629286Y19630000D03*
X81729286Y19630000D03*
%TD*%
D19*
%TO.C,C8*%
X142699286Y62060000D03*
X142699286Y63960000D03*
%TD*%
D20*
%TO.C,D1*%
X128544286Y14982500D03*
X128544286Y7982500D03*
%TD*%
D13*
%TO.C,R27*%
X88529286Y16655000D03*
X88529286Y14830000D03*
%TD*%
%TO.C,R22*%
X138289286Y83702500D03*
X138289286Y81877500D03*
%TD*%
D19*
%TO.C,C7*%
X141759286Y98820000D03*
X141759286Y100720000D03*
%TD*%
D21*
%TO.C,R16*%
X18156786Y40630000D03*
X19981786Y40630000D03*
%TD*%
D11*
%TO.C,R20*%
X148144286Y42640000D03*
X146319286Y42640000D03*
%TD*%
D22*
%TO.C,C6*%
X24189286Y40660000D03*
X24189286Y38760000D03*
%TD*%
D15*
%TO.C,R7*%
X83529286Y23330000D03*
X83529286Y25155000D03*
%TD*%
D23*
%TO.C,Q14*%
X109067286Y113362500D03*
X107167286Y113362500D03*
X108117286Y115237500D03*
%TD*%
D19*
%TO.C,C9*%
X142519286Y42600000D03*
X142519286Y44500000D03*
%TD*%
D11*
%TO.C,R40*%
X24241786Y67590000D03*
X22416786Y67590000D03*
%TD*%
%TO.C,R26*%
X25001786Y91610000D03*
X23176786Y91610000D03*
%TD*%
D14*
%TO.C,C4*%
X38429286Y20430000D03*
X36529286Y20430000D03*
%TD*%
D23*
%TO.C,Q13*%
X128879286Y113362500D03*
X126979286Y113362500D03*
X127929286Y115237500D03*
%TD*%
D13*
%TO.C,R31*%
X58629286Y16830000D03*
X58629286Y15005000D03*
%TD*%
D15*
%TO.C,R4*%
X148359286Y98917500D03*
X148359286Y100742500D03*
%TD*%
D12*
%TO.C,Q5*%
X42579286Y22567500D03*
X44479286Y22567500D03*
X43529286Y20692500D03*
%TD*%
D23*
%TO.C,Q15*%
X48379286Y113142500D03*
X46479286Y113142500D03*
X47429286Y115017500D03*
%TD*%
D19*
%TO.C,C16*%
X118524286Y19592500D03*
X118524286Y21492500D03*
%TD*%
D11*
%TO.C,R30*%
X74454286Y26730000D03*
X72629286Y26730000D03*
%TD*%
D12*
%TO.C,Q1*%
X23189286Y88687500D03*
X25089286Y88687500D03*
X24139286Y86812500D03*
%TD*%
D15*
%TO.C,R21*%
X145119286Y81885000D03*
X145119286Y83710000D03*
%TD*%
D22*
%TO.C,C10*%
X141829286Y83710000D03*
X141829286Y81810000D03*
%TD*%
D15*
%TO.C,R47*%
X91099286Y69775000D03*
X91099286Y71600000D03*
%TD*%
%TO.C,R45*%
X60179286Y113195000D03*
X60179286Y115020000D03*
%TD*%
D21*
%TO.C,R51*%
X118426786Y13100000D03*
X120251786Y13100000D03*
%TD*%
D15*
%TO.C,R15*%
X23629286Y23930000D03*
X23629286Y25755000D03*
%TD*%
D16*
%TO.C,D7*%
X106117286Y119634000D03*
X110117286Y119634000D03*
%TD*%
D22*
%TO.C,C13*%
X134874286Y21422500D03*
X134874286Y19522500D03*
%TD*%
D15*
%TO.C,R18*%
X138489286Y98867500D03*
X138489286Y100692500D03*
%TD*%
%TO.C,R14*%
X23629286Y15117500D03*
X23629286Y16942500D03*
%TD*%
%TO.C,R9*%
X68829286Y23517500D03*
X68829286Y25342500D03*
%TD*%
%TO.C,R46*%
X102039286Y77319500D03*
X102039286Y79144500D03*
%TD*%
%TO.C,R44*%
X140121286Y113387500D03*
X140121286Y115212500D03*
%TD*%
D11*
%TO.C,R28*%
X89554286Y26530000D03*
X87729286Y26530000D03*
%TD*%
%TO.C,R38*%
X25131786Y48680000D03*
X23306786Y48680000D03*
%TD*%
D23*
%TO.C,Q12*%
X68681286Y113108500D03*
X66781286Y113108500D03*
X67731286Y114983500D03*
%TD*%
D13*
%TO.C,R35*%
X28429286Y16955000D03*
X28429286Y15130000D03*
%TD*%
%TO.C,R33*%
X43629286Y16842500D03*
X43629286Y15017500D03*
%TD*%
D23*
%TO.C,Q10*%
X28139286Y113172500D03*
X26239286Y113172500D03*
X27189286Y115047500D03*
%TD*%
D15*
%TO.C,R11*%
X53629286Y23617500D03*
X53629286Y25442500D03*
%TD*%
D14*
%TO.C,C5*%
X23629286Y20430000D03*
X21729286Y20430000D03*
%TD*%
D11*
%TO.C,R39*%
X19894286Y64570000D03*
X18069286Y64570000D03*
%TD*%
D15*
%TO.C,R12*%
X38529286Y15017500D03*
X38529286Y16842500D03*
%TD*%
%TO.C,R50*%
X39179286Y113117500D03*
X39179286Y114942500D03*
%TD*%
D16*
%TO.C,D6*%
X125929286Y119634000D03*
X129929286Y119634000D03*
%TD*%
D15*
%TO.C,R8*%
X68729286Y14917500D03*
X68729286Y16742500D03*
%TD*%
D22*
%TO.C,C11*%
X23469286Y59870000D03*
X23469286Y57970000D03*
%TD*%
D24*
%TO.C,U1*%
X130239286Y21391500D03*
X128539286Y21391500D03*
D25*
X131621286Y34606500D03*
D26*
X126839286Y32066500D03*
D24*
X126839286Y21391500D03*
D25*
X122057286Y34606500D03*
D24*
X125139286Y21391500D03*
X123439286Y21391500D03*
%TD*%
D11*
%TO.C,R37*%
X19921786Y45170000D03*
X18096786Y45170000D03*
%TD*%
D23*
%TO.C,Q11*%
X148691286Y113362500D03*
X146791286Y113362500D03*
X147741286Y115237500D03*
%TD*%
D15*
%TO.C,R6*%
X83629286Y14805000D03*
X83629286Y16630000D03*
%TD*%
D16*
%TO.C,D3*%
X25129286Y119470000D03*
X29129286Y119470000D03*
%TD*%
D15*
%TO.C,R1*%
X48559286Y79280000D03*
X48559286Y81105000D03*
%TD*%
%TO.C,R42*%
X79669286Y113387500D03*
X79669286Y115212500D03*
%TD*%
D23*
%TO.C,Q9*%
X88493286Y113362500D03*
X86593286Y113362500D03*
X87543286Y115237500D03*
%TD*%
D12*
%TO.C,Q6*%
X27279286Y22367500D03*
X29179286Y22367500D03*
X28229286Y20492500D03*
%TD*%
D11*
%TO.C,R32*%
X59641786Y26930000D03*
X57816786Y26930000D03*
%TD*%
D16*
%TO.C,D4*%
X145741286Y119634000D03*
X149741286Y119634000D03*
%TD*%
D11*
%TO.C,R52*%
X120251786Y15400000D03*
X118426786Y15400000D03*
%TD*%
D15*
%TO.C,R48*%
X120309286Y113387500D03*
X120309286Y115212500D03*
%TD*%
D13*
%TO.C,R5*%
X148309286Y83682500D03*
X148309286Y81857500D03*
%TD*%
D15*
%TO.C,R49*%
X100243286Y113387500D03*
X100243286Y115212500D03*
%TD*%
D21*
%TO.C,R24*%
X18216786Y79290000D03*
X20041786Y79290000D03*
%TD*%
%TO.C,R23*%
X18169286Y59830000D03*
X19994286Y59830000D03*
%TD*%
D16*
%TO.C,D8*%
X45589286Y119610000D03*
X49589286Y119610000D03*
%TD*%
D11*
%TO.C,R36*%
X29129286Y27230000D03*
X27304286Y27230000D03*
%TD*%
D16*
%TO.C,D2*%
X85543286Y119634000D03*
X89543286Y119634000D03*
%TD*%
D22*
%TO.C,C12*%
X23259286Y79250000D03*
X23259286Y77350000D03*
%TD*%
D15*
%TO.C,R2*%
X26229286Y77390000D03*
X26229286Y79215000D03*
%TD*%
D13*
%TO.C,R29*%
X73529286Y16642500D03*
X73529286Y14817500D03*
%TD*%
M02*
