M48
; DRILL file {KiCad (6.0.7)} date Sun Oct  9 00:01:53 2022
; FORMAT={-:-/ absolute / metric / decimal}
; #@! TF.CreationDate,2022-10-09T00:01:53-03:00
; #@! TF.GenerationSoftware,Kicad,Pcbnew,(6.0.7)
; #@! TF.FileFunction,MixedPlating,1,2
FMAT,2
METRIC
; #@! TA.AperFunction,Plated,PTH,ComponentDrill
T1C0.730
; #@! TA.AperFunction,Plated,PTH,ComponentDrill
T2C0.800
; #@! TA.AperFunction,Plated,PTH,ComponentDrill
T3C1.000
; #@! TA.AperFunction,Plated,PTH,ComponentDrill
T4C1.200
; #@! TA.AperFunction,Plated,PTH,ComponentDrill
T5C1.290
; #@! TA.AperFunction,Plated,PTH,ComponentDrill
T6C1.300
; #@! TA.AperFunction,Plated,PTH,ComponentDrill
T7C1.320
; #@! TA.AperFunction,Plated,PTH,ComponentDrill
T8C3.500
%
G90
G05
T1
X169.49Y-127.27
X169.49Y-129.81
X169.49Y-132.35
X169.49Y-134.89
X177.43Y-127.27
X177.43Y-129.81
X177.43Y-132.35
X177.43Y-134.89
T2
X208.81Y-105.46
X208.81Y-113.08
X211.35Y-105.46
X211.35Y-113.08
X213.89Y-105.46
X213.89Y-113.08
X216.43Y-105.46
X216.43Y-113.08
X218.97Y-105.46
X218.97Y-113.08
X221.51Y-105.46
X221.51Y-113.08
X224.05Y-105.46
X224.05Y-113.08
X226.59Y-105.46
X226.59Y-113.08
X229.13Y-105.46
X229.13Y-113.08
T3
X156.26Y-133.78
X156.36Y-153.48
X156.36Y-171.08
X158.26Y-178.88
X162.16Y-96.78
X163.26Y-192.38
X166.96Y-142.38
X167.26Y-157.38
X172.96Y-178.38
X178.06Y-192.28
X182.06Y-94.88
X188.16Y-178.48
X189.245Y-167.635
X189.245Y-170.175
X191.785Y-167.635
X191.785Y-170.175
X193.16Y-192.18
X194.325Y-167.635
X194.325Y-170.175
X196.56Y-115.98
X196.865Y-167.635
X196.865Y-170.175
X202.36Y-94.18
X203.06Y-177.48
X206.36Y-126.505
X206.36Y-129.045
X206.36Y-131.585
X206.36Y-134.125
X206.36Y-136.665
X206.36Y-139.205
X206.36Y-141.745
X206.36Y-144.285
X206.36Y-146.825
X206.36Y-149.365
X206.36Y-151.905
X206.36Y-154.445
X206.36Y-156.985
X206.36Y-159.525
X206.36Y-162.065
X208.16Y-192.08
X221.96Y-94.78
X223.16Y-192.18
X232.36Y-126.505
X232.36Y-129.045
X232.36Y-131.585
X232.36Y-134.125
X232.36Y-136.665
X232.36Y-139.205
X232.36Y-141.745
X232.36Y-144.285
X232.36Y-146.825
X232.36Y-149.365
X232.36Y-151.905
X232.36Y-154.445
X232.36Y-156.985
X232.36Y-159.525
X232.36Y-162.065
X235.76Y-114.28
X238.295Y-190.46
X238.295Y-193.0
X238.295Y-195.54
X238.295Y-198.08
X240.835Y-190.46
X240.835Y-193.0
X240.835Y-195.54
X240.835Y-198.08
X242.56Y-95.98
X246.385Y-109.21
X246.385Y-111.75
X246.385Y-114.29
X246.385Y-116.83
X248.925Y-109.21
X248.925Y-111.75
X248.925Y-114.29
X248.925Y-116.83
X262.56Y-96.58
T4
X147.86Y-143.28
X147.86Y-148.28
X147.86Y-153.28
X147.86Y-161.28
X147.86Y-166.28
X147.86Y-171.28
X291.66Y-122.192
X291.66Y-127.192
X291.66Y-132.192
X292.46Y-103.192
X292.46Y-108.192
X292.46Y-113.192
X292.46Y-140.28
X292.46Y-145.28
X292.46Y-150.28
X292.46Y-159.28
X292.46Y-164.28
X292.46Y-169.28
T5
X158.16Y-83.38
X178.16Y-83.38
X197.96Y-83.367
X218.36Y-83.267
X238.56Y-83.167
X258.86Y-83.167
X278.86Y-82.968
T6
X147.66Y-119.78
X147.66Y-124.78
X147.66Y-129.78
X147.66Y-134.78
X153.16Y-199.28
X155.66Y-57.98
X158.16Y-199.28
X160.66Y-57.98
X163.16Y-199.28
X168.16Y-199.28
X173.16Y-199.28
X175.66Y-57.98
X178.16Y-199.28
X180.66Y-57.98
X183.16Y-199.28
X188.16Y-199.28
X193.16Y-199.28
X195.76Y-57.98
X198.16Y-199.28
X200.76Y-57.98
X203.16Y-199.28
X208.16Y-199.28
X213.16Y-199.28
X215.76Y-57.98
X218.16Y-199.28
X220.76Y-57.98
X223.16Y-199.28
X235.86Y-57.98
X240.86Y-57.98
X255.86Y-57.98
X260.86Y-57.98
X275.96Y-57.98
X280.96Y-57.98
X292.16Y-182.28
X292.16Y-187.28
T7
X152.16Y-69.18
X152.16Y-81.38
X164.16Y-69.18
X164.16Y-81.38
X172.16Y-69.18
X172.16Y-81.38
X184.16Y-69.18
X184.16Y-81.38
X191.96Y-69.167
X191.96Y-81.367
X203.96Y-69.167
X203.96Y-81.367
X212.36Y-69.067
X212.36Y-81.267
X224.36Y-69.067
X224.36Y-81.267
X232.56Y-68.968
X232.56Y-81.167
X244.56Y-68.968
X244.56Y-81.167
X252.86Y-68.968
X252.86Y-81.167
X264.86Y-68.968
X264.86Y-81.167
X272.86Y-68.767
X272.86Y-80.968
X284.86Y-68.767
X284.86Y-80.968
T8
X142.16Y-58.28
X142.16Y-203.28
X297.18Y-58.42
X297.26Y-202.98
T0
M30
