%TF.GenerationSoftware,KiCad,Pcbnew,(6.0.7)*%
%TF.CreationDate,2022-10-09T00:02:01-03:00*%
%TF.ProjectId,PCB_Prototipo_Proyecto_Final,5043425f-5072-46f7-946f-7469706f5f50,rev?*%
%TF.SameCoordinates,Original*%
%TF.FileFunction,Copper,L2,Bot*%
%TF.FilePolarity,Positive*%
%FSLAX46Y46*%
G04 Gerber Fmt 4.6, Leading zero omitted, Abs format (unit mm)*
G04 Created by KiCad (PCBNEW (6.0.7)) date 2022-10-09 00:02:01*
%MOMM*%
%LPD*%
G01*
G04 APERTURE LIST*
%TA.AperFunction,ComponentPad*%
%ADD10R,1.700000X1.700000*%
%TD*%
%TA.AperFunction,ComponentPad*%
%ADD11O,1.700000X1.700000*%
%TD*%
%TA.AperFunction,ComponentPad*%
%ADD12R,1.980000X1.980000*%
%TD*%
%TA.AperFunction,ComponentPad*%
%ADD13C,1.980000*%
%TD*%
%TA.AperFunction,ComponentPad*%
%ADD14C,1.935000*%
%TD*%
%TA.AperFunction,ComponentPad*%
%ADD15R,1.800000X1.800000*%
%TD*%
%TA.AperFunction,ComponentPad*%
%ADD16C,1.800000*%
%TD*%
%TA.AperFunction,ComponentPad*%
%ADD17C,1.950000*%
%TD*%
%TA.AperFunction,ComponentPad*%
%ADD18C,7.000000*%
%TD*%
%TA.AperFunction,ComponentPad*%
%ADD19R,1.130000X1.130000*%
%TD*%
%TA.AperFunction,ComponentPad*%
%ADD20C,1.130000*%
%TD*%
%TA.AperFunction,ComponentPad*%
%ADD21R,1.950000X1.950000*%
%TD*%
%TA.AperFunction,ComponentPad*%
%ADD22R,1.600000X1.600000*%
%TD*%
%TA.AperFunction,ComponentPad*%
%ADD23O,1.600000X1.600000*%
%TD*%
G04 APERTURE END LIST*
D10*
%TO.P,J43,1,Pin_1*%
%TO.N,GND*%
X240835000Y-198080000D03*
D11*
%TO.P,J43,2,Pin_2*%
X238295000Y-198080000D03*
%TO.P,J43,3,Pin_3*%
X240835000Y-195540000D03*
%TO.P,J43,4,Pin_4*%
X238295000Y-195540000D03*
%TO.P,J43,5,Pin_5*%
X240835000Y-193000000D03*
%TO.P,J43,6,Pin_6*%
X238295000Y-193000000D03*
%TO.P,J43,7,Pin_7*%
X240835000Y-190460000D03*
%TO.P,J43,8,Pin_8*%
X238295000Y-190460000D03*
%TD*%
D10*
%TO.P,J42,1,Pin_1*%
%TO.N,GND*%
X156360000Y-153480000D03*
%TD*%
%TO.P,J41,1,Pin_1*%
%TO.N,GND*%
X156360000Y-171080000D03*
%TD*%
%TO.P,J40,1,Pin_1*%
%TO.N,GND*%
X223160000Y-192180000D03*
%TD*%
%TO.P,J39,1,Pin_1*%
%TO.N,GND*%
X208160000Y-192080000D03*
%TD*%
%TO.P,J38,1,Pin_1*%
%TO.N,GND*%
X193160000Y-192180000D03*
%TD*%
%TO.P,J37,1,Pin_1*%
%TO.N,GND*%
X178060000Y-192280000D03*
%TD*%
%TO.P,J26,1,Pin_1*%
%TO.N,GND*%
X163260000Y-192380000D03*
%TD*%
%TO.P,J24,1,Pin_1*%
%TO.N,GND*%
X156260000Y-133780000D03*
%TD*%
%TO.P,J19,1,Pin_1*%
%TO.N,GND*%
X196560000Y-115980000D03*
%TD*%
%TO.P,J36,1,Pin_1*%
%TO.N,GND*%
X262560000Y-96580000D03*
%TD*%
%TO.P,J35,1,Pin_1*%
%TO.N,GND*%
X202360000Y-94180000D03*
%TD*%
%TO.P,J34,1,Pin_1*%
%TO.N,GND*%
X235760000Y-114280000D03*
%TD*%
%TO.P,J33,1,Pin_1*%
%TO.N,GND*%
X182060000Y-94880000D03*
%TD*%
%TO.P,J32,1,Pin_1*%
%TO.N,GND*%
X242560000Y-95980000D03*
%TD*%
%TO.P,J31,1,Pin_1*%
%TO.N,GND*%
X162160000Y-96780000D03*
%TD*%
%TO.P,J30,1,Pin_1*%
%TO.N,GND*%
X221960000Y-94780000D03*
%TD*%
%TO.P,J29,1,Pin_1*%
%TO.N,+3.3V*%
X167260000Y-157380000D03*
%TD*%
%TO.P,J28,1,Pin_1*%
%TO.N,+3.3V*%
X166960000Y-142380000D03*
%TD*%
%TO.P,J27,1,Pin_1*%
%TO.N,+3.3V*%
X188160000Y-178480000D03*
%TD*%
%TO.P,J25,1,Pin_1*%
%TO.N,+3.3V*%
X203060000Y-177480000D03*
%TD*%
%TO.P,J23,1,Pin_1*%
%TO.N,+3.3V*%
X172960000Y-178380000D03*
%TD*%
%TO.P,J22,1,Pin_1*%
%TO.N,+3.3V*%
X158260000Y-178880000D03*
%TD*%
%TO.P,J21,1,Pin_1*%
%TO.N,GND*%
X248925000Y-116830000D03*
D11*
%TO.P,J21,2,Pin_2*%
X246385000Y-116830000D03*
%TO.P,J21,3,Pin_3*%
X248925000Y-114290000D03*
%TO.P,J21,4,Pin_4*%
X246385000Y-114290000D03*
%TO.P,J21,5,Pin_5*%
X248925000Y-111750000D03*
%TO.P,J21,6,Pin_6*%
X246385000Y-111750000D03*
%TO.P,J21,7,Pin_7*%
X248925000Y-109210000D03*
%TO.P,J21,8,Pin_8*%
X246385000Y-109210000D03*
%TD*%
D10*
%TO.P,J20,1,Pin_1*%
%TO.N,+3.3V*%
X189245000Y-170175000D03*
D11*
%TO.P,J20,2,Pin_2*%
X189245000Y-167635000D03*
%TO.P,J20,3,Pin_3*%
X191785000Y-170175000D03*
%TO.P,J20,4,Pin_4*%
X191785000Y-167635000D03*
%TO.P,J20,5,Pin_5*%
X194325000Y-170175000D03*
%TO.P,J20,6,Pin_6*%
X194325000Y-167635000D03*
%TO.P,J20,7,Pin_7*%
X196865000Y-170175000D03*
%TO.P,J20,8,Pin_8*%
X196865000Y-167635000D03*
%TD*%
D12*
%TO.P,K5,A1*%
%TO.N,+5V*%
X172160000Y-81380000D03*
D13*
%TO.P,K5,A2*%
%TO.N,Net-(D6-Pad2)*%
X184160000Y-81380000D03*
D14*
%TO.P,K5,COM*%
%TO.N,Net-(J16-Pad2)*%
X178160000Y-83380000D03*
D13*
%TO.P,K5,NC*%
%TO.N,unconnected-(K5-PadNC)*%
X172160000Y-69180000D03*
%TO.P,K5,NO*%
%TO.N,Net-(J16-Pad1)*%
X184160000Y-69180000D03*
%TD*%
D15*
%TO.P,J6,1,Pin_1*%
%TO.N,+3.3V*%
X292460000Y-150280000D03*
D16*
%TO.P,J6,2,Pin_2*%
%TO.N,/Entradas/SensorTDS*%
X292460000Y-145280000D03*
%TO.P,J6,3,Pin_3*%
%TO.N,GND*%
X292460000Y-140280000D03*
%TD*%
D17*
%TO.P,J16,1,Pin_1*%
%TO.N,Net-(J16-Pad1)*%
X180660000Y-57980000D03*
%TO.P,J16,2,Pin_2*%
%TO.N,Net-(J16-Pad2)*%
X175660000Y-57980000D03*
%TD*%
D18*
%TO.P,,1*%
%TO.N,N/C*%
X297180000Y-58420000D03*
%TD*%
%TO.P,,1*%
%TO.N,N/C*%
X297260000Y-202980000D03*
%TD*%
D19*
%TO.P,IC1,1,OFF_SET_N1*%
%TO.N,unconnected-(IC1-Pad1)*%
X169490000Y-127270000D03*
D20*
%TO.P,IC1,2,IN-*%
%TO.N,Net-(IC1-Pad2)*%
X169490000Y-129810000D03*
%TO.P,IC1,3,IN+*%
%TO.N,Net-(IC1-Pad3)*%
X169490000Y-132350000D03*
%TO.P,IC1,4,VCC-*%
%TO.N,GND*%
X169490000Y-134890000D03*
%TO.P,IC1,5,OFFSET_N2*%
%TO.N,unconnected-(IC1-Pad5)*%
X177430000Y-134890000D03*
%TO.P,IC1,6,OUT*%
%TO.N,Net-(IC1-Pad2)*%
X177430000Y-132350000D03*
%TO.P,IC1,7,VCC+*%
%TO.N,+5V*%
X177430000Y-129810000D03*
%TO.P,IC1,8,NC*%
%TO.N,unconnected-(IC1-Pad8)*%
X177430000Y-127270000D03*
%TD*%
D12*
%TO.P,K1,A1*%
%TO.N,+5V*%
X212360000Y-81267500D03*
D13*
%TO.P,K1,A2*%
%TO.N,Net-(D2-Pad2)*%
X224360000Y-81267500D03*
D14*
%TO.P,K1,COM*%
%TO.N,Net-(J12-Pad2)*%
X218360000Y-83267500D03*
D13*
%TO.P,K1,NC*%
%TO.N,unconnected-(K1-PadNC)*%
X212360000Y-69067500D03*
%TO.P,K1,NO*%
%TO.N,Net-(J12-Pad1)*%
X224360000Y-69067500D03*
%TD*%
D12*
%TO.P,K2,A1*%
%TO.N,+5V*%
X272860000Y-80967500D03*
D13*
%TO.P,K2,A2*%
%TO.N,Net-(D3-Pad2)*%
X284860000Y-80967500D03*
D14*
%TO.P,K2,COM*%
%TO.N,Net-(J13-Pad2)*%
X278860000Y-82967500D03*
D13*
%TO.P,K2,NC*%
%TO.N,unconnected-(K2-PadNC)*%
X272860000Y-68767500D03*
%TO.P,K2,NO*%
%TO.N,Net-(J13-Pad1)*%
X284860000Y-68767500D03*
%TD*%
D21*
%TO.P,J10,1,Pin_1*%
%TO.N,+5V*%
X153160000Y-199280000D03*
D17*
%TO.P,J10,2,Pin_2*%
%TO.N,/Entradas/SensorNivel_1*%
X158160000Y-199280000D03*
%TO.P,J10,3,Pin_3*%
%TO.N,GND*%
X163160000Y-199280000D03*
%TO.P,J10,4,Pin_4*%
%TO.N,+5V*%
X168160000Y-199280000D03*
%TO.P,J10,5,Pin_5*%
%TO.N,/Entradas/SensorNivel_2*%
X173160000Y-199280000D03*
%TO.P,J10,6,Pin_6*%
%TO.N,GND*%
X178160000Y-199280000D03*
%TO.P,J10,7,Pin_7*%
%TO.N,+5V*%
X183160000Y-199280000D03*
%TO.P,J10,8,Pin_8*%
%TO.N,/Entradas/SensorNivel_3*%
X188160000Y-199280000D03*
%TO.P,J10,9,Pin_9*%
%TO.N,GND*%
X193160000Y-199280000D03*
%TO.P,J10,10,Pin_10*%
%TO.N,+5V*%
X198160000Y-199280000D03*
%TO.P,J10,11,Pin_11*%
%TO.N,/Entradas/SensorNivel_4*%
X203160000Y-199280000D03*
%TO.P,J10,12,Pin_12*%
%TO.N,GND*%
X208160000Y-199280000D03*
%TO.P,J10,13,Pin_13*%
%TO.N,+5V*%
X213160000Y-199280000D03*
%TO.P,J10,14,Pin_14*%
%TO.N,/Entradas/SensorNivel_5*%
X218160000Y-199280000D03*
%TO.P,J10,15,Pin_15*%
%TO.N,GND*%
X223160000Y-199280000D03*
%TD*%
D15*
%TO.P,J5,1,Pin_1*%
%TO.N,+5V*%
X147860000Y-161280000D03*
D16*
%TO.P,J5,2,Pin_2*%
%TO.N,/Entradas/SensorCO2*%
X147860000Y-166280000D03*
%TO.P,J5,3,Pin_3*%
%TO.N,GND*%
X147860000Y-171280000D03*
%TD*%
D12*
%TO.P,K7,A1*%
%TO.N,+5V*%
X252860000Y-81167500D03*
D13*
%TO.P,K7,A2*%
%TO.N,Net-(D8-Pad2)*%
X264860000Y-81167500D03*
D14*
%TO.P,K7,COM*%
%TO.N,Net-(J18-Pad2)*%
X258860000Y-83167500D03*
D13*
%TO.P,K7,NC*%
%TO.N,unconnected-(K7-PadNC)*%
X252860000Y-68967500D03*
%TO.P,K7,NO*%
%TO.N,Net-(J18-Pad1)*%
X264860000Y-68967500D03*
%TD*%
D18*
%TO.P,REF\u002A\u002A,1*%
%TO.N,N/C*%
X142160000Y-58280000D03*
%TD*%
D15*
%TO.P,J8,1,Pin_1*%
%TO.N,+3.3V*%
X292460000Y-169280000D03*
D16*
%TO.P,J8,2,Pin_2*%
%TO.N,/Entradas/SensorIlum*%
X292460000Y-164280000D03*
%TO.P,J8,3,Pin_3*%
%TO.N,GND*%
X292460000Y-159280000D03*
%TD*%
D12*
%TO.P,K6,A1*%
%TO.N,+5V*%
X191960000Y-81367500D03*
D13*
%TO.P,K6,A2*%
%TO.N,Net-(D7-Pad2)*%
X203960000Y-81367500D03*
D14*
%TO.P,K6,COM*%
%TO.N,Net-(J17-Pad2)*%
X197960000Y-83367500D03*
D13*
%TO.P,K6,NC*%
%TO.N,unconnected-(K6-PadNC)*%
X191960000Y-69167500D03*
%TO.P,K6,NO*%
%TO.N,Net-(J17-Pad1)*%
X203960000Y-69167500D03*
%TD*%
D17*
%TO.P,J18,1,Pin_1*%
%TO.N,Net-(J18-Pad1)*%
X260860000Y-57980000D03*
%TO.P,J18,2,Pin_2*%
%TO.N,Net-(J18-Pad2)*%
X255860000Y-57980000D03*
%TD*%
D22*
%TO.P,U3,1,SCL*%
%TO.N,/Microcontrolador/MCP23008_SCL*%
X208810000Y-113080000D03*
D23*
%TO.P,U3,2,SDA*%
%TO.N,/Microcontrolador/MCP23008_SDA*%
X211350000Y-113080000D03*
%TO.P,U3,3,A2*%
%TO.N,GND*%
X213890000Y-113080000D03*
%TO.P,U3,4,A1*%
X216430000Y-113080000D03*
%TO.P,U3,5,A0*%
X218970000Y-113080000D03*
%TO.P,U3,6,~{RESET}*%
%TO.N,/Microcontrolador/MCP23008_RESET*%
X221510000Y-113080000D03*
%TO.P,U3,7,NC*%
%TO.N,unconnected-(U3-Pad7)*%
X224050000Y-113080000D03*
%TO.P,U3,8,INT*%
%TO.N,unconnected-(U3-Pad8)*%
X226590000Y-113080000D03*
%TO.P,U3,9,VSS*%
%TO.N,GND*%
X229130000Y-113080000D03*
%TO.P,U3,10,GP0*%
%TO.N,/Microcontrolador/Rele_7*%
X229130000Y-105460000D03*
%TO.P,U3,11,GP1*%
%TO.N,/Microcontrolador/Rele_6*%
X226590000Y-105460000D03*
%TO.P,U3,12,GP2*%
%TO.N,/Microcontrolador/Rele_5*%
X224050000Y-105460000D03*
%TO.P,U3,13,GP3*%
%TO.N,/Microcontrolador/Rele_4*%
X221510000Y-105460000D03*
%TO.P,U3,14,GP4*%
%TO.N,/Microcontrolador/Rele_3*%
X218970000Y-105460000D03*
%TO.P,U3,15,GP5*%
%TO.N,/Microcontrolador/Rele_2*%
X216430000Y-105460000D03*
%TO.P,U3,16,GP6*%
%TO.N,/Microcontrolador/Rele_1*%
X213890000Y-105460000D03*
%TO.P,U3,17,GP7*%
%TO.N,/Microcontrolador/Trigger__pH*%
X211350000Y-105460000D03*
%TO.P,U3,18,VDD*%
%TO.N,+3.3V*%
X208810000Y-105460000D03*
%TD*%
D12*
%TO.P,K4,A1*%
%TO.N,+5V*%
X232560000Y-81167500D03*
D13*
%TO.P,K4,A2*%
%TO.N,Net-(D5-Pad2)*%
X244560000Y-81167500D03*
D14*
%TO.P,K4,COM*%
%TO.N,Net-(J15-Pad2)*%
X238560000Y-83167500D03*
D13*
%TO.P,K4,NC*%
%TO.N,unconnected-(K4-PadNC)*%
X232560000Y-68967500D03*
%TO.P,K4,NO*%
%TO.N,Net-(J15-Pad1)*%
X244560000Y-68967500D03*
%TD*%
D17*
%TO.P,J4,1,Pin_1*%
%TO.N,+5V*%
X147660000Y-119780000D03*
%TO.P,J4,2,Pin_2*%
%TO.N,/Entradas/Trigger_pH*%
X147660000Y-124780000D03*
%TO.P,J4,3,Pin_3*%
%TO.N,/Entradas/SensorpH*%
X147660000Y-129780000D03*
%TO.P,J4,4,Pin_4*%
%TO.N,GND*%
X147660000Y-134780000D03*
%TD*%
%TO.P,J13,1,Pin_1*%
%TO.N,Net-(J13-Pad1)*%
X280960000Y-57980000D03*
%TO.P,J13,2,Pin_2*%
%TO.N,Net-(J13-Pad2)*%
X275960000Y-57980000D03*
%TD*%
D15*
%TO.P,J7,1,Pin_1*%
%TO.N,+3.3V*%
X292460000Y-113192500D03*
D16*
%TO.P,J7,2,Pin_2*%
%TO.N,/Entradas/SensorTempSumerg*%
X292460000Y-108192500D03*
%TO.P,J7,3,Pin_3*%
%TO.N,GND*%
X292460000Y-103192500D03*
%TD*%
D15*
%TO.P,J11,1,Pin_1*%
%TO.N,+5V*%
X147860000Y-143280000D03*
D16*
%TO.P,J11,2,Pin_2*%
%TO.N,/Entradas/SensorFlujo*%
X147860000Y-148280000D03*
%TO.P,J11,3,Pin_3*%
%TO.N,GND*%
X147860000Y-153280000D03*
%TD*%
D18*
%TO.P,,1*%
%TO.N,N/C*%
X142160000Y-203280000D03*
%TD*%
D17*
%TO.P,J1,1,Pin_1*%
%TO.N,/Fuentes/VIN_24V*%
X292160000Y-187280000D03*
%TO.P,J1,2,Pin_2*%
%TO.N,GND*%
X292160000Y-182280000D03*
%TD*%
%TO.P,J14,1,Pin_1*%
%TO.N,Net-(J14-Pad1)*%
X160660000Y-57980000D03*
%TO.P,J14,2,Pin_2*%
%TO.N,Net-(J14-Pad2)*%
X155660000Y-57980000D03*
%TD*%
D15*
%TO.P,J9,1,Pin_1*%
%TO.N,+3.3V*%
X291660000Y-122192500D03*
D16*
%TO.P,J9,2,Pin_2*%
%TO.N,/Entradas/SensorTempHum*%
X291660000Y-127192500D03*
%TO.P,J9,3,Pin_3*%
%TO.N,GND*%
X291660000Y-132192500D03*
%TD*%
D10*
%TO.P,J3,1,Pin_1*%
%TO.N,/Microcontrolador/MCP23008_RESET*%
X232360000Y-126505000D03*
D11*
%TO.P,J3,2,Pin_2*%
%TO.N,/Microcontrolador/MCP23008_SCL*%
X232360000Y-129045000D03*
%TO.P,J3,3,Pin_3*%
%TO.N,unconnected-(J3-Pad3)*%
X232360000Y-131585000D03*
%TO.P,J3,4,Pin_4*%
%TO.N,unconnected-(J3-Pad4)*%
X232360000Y-134125000D03*
%TO.P,J3,5,Pin_5*%
%TO.N,/Microcontrolador/MCP23008_SDA*%
X232360000Y-136665000D03*
%TO.P,J3,6,Pin_6*%
%TO.N,unconnected-(J3-Pad6)*%
X232360000Y-139205000D03*
%TO.P,J3,7,Pin_7*%
%TO.N,/Entradas/Data_SensorTempSumerg*%
X232360000Y-141745000D03*
%TO.P,J3,8,Pin_8*%
%TO.N,unconnected-(J3-Pad8)*%
X232360000Y-144285000D03*
%TO.P,J3,9,Pin_9*%
%TO.N,unconnected-(J3-Pad9)*%
X232360000Y-146825000D03*
%TO.P,J3,10,Pin_10*%
%TO.N,unconnected-(J3-Pad10)*%
X232360000Y-149365000D03*
%TO.P,J3,11,Pin_11*%
%TO.N,/Entradas/Data_SensorTempHum*%
X232360000Y-151905000D03*
%TO.P,J3,12,Pin_12*%
%TO.N,/Entradas/TDS_Analog*%
X232360000Y-154445000D03*
%TO.P,J3,13,Pin_13*%
%TO.N,/Entradas/Ilum_Analog*%
X232360000Y-156985000D03*
%TO.P,J3,14,Pin_14*%
%TO.N,GND*%
X232360000Y-159525000D03*
%TO.P,J3,15,Pin_15*%
%TO.N,+3.3V*%
X232360000Y-162065000D03*
%TD*%
D10*
%TO.P,J2,1,Pin_1*%
%TO.N,unconnected-(J2-Pad1)*%
X206360000Y-126505000D03*
D11*
%TO.P,J2,2,Pin_2*%
%TO.N,/Entradas/pH_Analog*%
X206360000Y-129045000D03*
%TO.P,J2,3,Pin_3*%
%TO.N,unconnected-(J2-Pad3)*%
X206360000Y-131585000D03*
%TO.P,J2,4,Pin_4*%
%TO.N,unconnected-(J2-Pad4)*%
X206360000Y-134125000D03*
%TO.P,J2,5,Pin_5*%
%TO.N,unconnected-(J2-Pad5)*%
X206360000Y-136665000D03*
%TO.P,J2,6,Pin_6*%
%TO.N,/Microcontrolador/SensorFlujo*%
X206360000Y-139205000D03*
%TO.P,J2,7,Pin_7*%
%TO.N,/Microcontrolador/SensorCO2*%
X206360000Y-141745000D03*
%TO.P,J2,8,Pin_8*%
%TO.N,/Microcontrolador/SensorNivel_1*%
X206360000Y-144285000D03*
%TO.P,J2,9,Pin_9*%
%TO.N,/Microcontrolador/SensorNivel_2*%
X206360000Y-146825000D03*
%TO.P,J2,10,Pin_10*%
%TO.N,/Microcontrolador/SensorNivel_3*%
X206360000Y-149365000D03*
%TO.P,J2,11,Pin_11*%
%TO.N,/Microcontrolador/SensorNivel_4*%
X206360000Y-151905000D03*
%TO.P,J2,12,Pin_12*%
%TO.N,/Microcontrolador/SensorNivel_5*%
X206360000Y-154445000D03*
%TO.P,J2,13,Pin_13*%
%TO.N,unconnected-(J2-Pad13)*%
X206360000Y-156985000D03*
%TO.P,J2,14,Pin_14*%
%TO.N,GND*%
X206360000Y-159525000D03*
%TO.P,J2,15,Pin_15*%
%TO.N,unconnected-(J2-Pad15)*%
X206360000Y-162065000D03*
%TD*%
D17*
%TO.P,J15,1,Pin_1*%
%TO.N,Net-(J15-Pad1)*%
X240860000Y-57980000D03*
%TO.P,J15,2,Pin_2*%
%TO.N,Net-(J15-Pad2)*%
X235860000Y-57980000D03*
%TD*%
%TO.P,J12,1,Pin_1*%
%TO.N,Net-(J12-Pad1)*%
X220760000Y-57980000D03*
%TO.P,J12,2,Pin_2*%
%TO.N,Net-(J12-Pad2)*%
X215760000Y-57980000D03*
%TD*%
D12*
%TO.P,K3,A1*%
%TO.N,+5V*%
X152160000Y-81380000D03*
D13*
%TO.P,K3,A2*%
%TO.N,Net-(D4-Pad2)*%
X164160000Y-81380000D03*
D14*
%TO.P,K3,COM*%
%TO.N,Net-(J14-Pad2)*%
X158160000Y-83380000D03*
D13*
%TO.P,K3,NC*%
%TO.N,unconnected-(K3-PadNC)*%
X152160000Y-69180000D03*
%TO.P,K3,NO*%
%TO.N,Net-(J14-Pad1)*%
X164160000Y-69180000D03*
%TD*%
D17*
%TO.P,J17,1,Pin_1*%
%TO.N,Net-(J17-Pad1)*%
X200760000Y-57980000D03*
%TO.P,J17,2,Pin_2*%
%TO.N,Net-(J17-Pad2)*%
X195760000Y-57980000D03*
%TD*%
M02*
