%TF.GenerationSoftware,KiCad,Pcbnew,(6.0.7)*%
%TF.CreationDate,2022-11-01T14:31:25-03:00*%
%TF.ProjectId,PCB_Prototipo_Proyecto_Final,5043425f-5072-46f7-946f-7469706f5f50,rev?*%
%TF.SameCoordinates,PX7e4946aPYc6a19c0*%
%TF.FileFunction,Legend,Bot*%
%TF.FilePolarity,Positive*%
%FSLAX46Y46*%
G04 Gerber Fmt 4.6, Leading zero omitted, Abs format (unit mm)*
G04 Created by KiCad (PCBNEW (6.0.7)) date 2022-11-01 14:31:25*
%MOMM*%
%LPD*%
G01*
G04 APERTURE LIST*
%TA.AperFunction,Profile*%
%ADD10C,0.100000*%
%TD*%
%ADD11C,0.120000*%
%ADD12C,0.200000*%
%ADD13C,0.126000*%
G04 APERTURE END LIST*
D10*
X0Y0D02*
X165100000Y0D01*
X165100000Y0D02*
X165100000Y154940000D01*
X165100000Y154940000D02*
X0Y154940000D01*
X0Y154940000D02*
X0Y0D01*
D11*
%TO.C,R34*%
X43856350Y27865000D02*
X43402222Y27865000D01*
X43856350Y26395000D02*
X43402222Y26395000D01*
%TO.C,Q7*%
X25759286Y44930000D02*
X25759286Y44280000D01*
X22639286Y44930000D02*
X22639286Y46605000D01*
X25759286Y44930000D02*
X25759286Y45580000D01*
X22639286Y44930000D02*
X22639286Y44280000D01*
%TO.C,R17*%
X144384286Y100047064D02*
X144384286Y99592936D01*
X145854286Y100047064D02*
X145854286Y99592936D01*
%TO.C,Q2*%
X90089286Y21430000D02*
X90089286Y20780000D01*
X86969286Y21430000D02*
X86969286Y20780000D01*
X86969286Y21430000D02*
X86969286Y23105000D01*
X90089286Y21430000D02*
X90089286Y22080000D01*
%TO.C,Q8*%
X24949286Y63830000D02*
X24949286Y63180000D01*
X21829286Y63830000D02*
X21829286Y63180000D01*
X24949286Y63830000D02*
X24949286Y64480000D01*
X21829286Y63830000D02*
X21829286Y65505000D01*
%TO.C,C3*%
X52990538Y19595000D02*
X52468034Y19595000D01*
X52990538Y21065000D02*
X52468034Y21065000D01*
%TO.C,R25*%
X19844286Y87482936D02*
X19844286Y87937064D01*
X18374286Y87482936D02*
X18374286Y87937064D01*
%TO.C,R3*%
X55784286Y80437064D02*
X55784286Y79982936D01*
X54314286Y80437064D02*
X54314286Y79982936D01*
%TO.C,Q3*%
X72069286Y21530000D02*
X72069286Y20880000D01*
X72069286Y21530000D02*
X72069286Y23205000D01*
X75189286Y21530000D02*
X75189286Y20880000D01*
X75189286Y21530000D02*
X75189286Y22180000D01*
%TO.C,D5*%
X64339286Y117880000D02*
X69739286Y117880000D01*
X64339286Y121180000D02*
X69739286Y121180000D01*
X64339286Y117880000D02*
X64339286Y121180000D01*
%TO.C,R19*%
X147633850Y61275000D02*
X147179722Y61275000D01*
X147633850Y62745000D02*
X147179722Y62745000D01*
%TO.C,R43*%
X18564286Y113562936D02*
X18564286Y114017064D01*
X20034286Y113562936D02*
X20034286Y114017064D01*
D12*
%TO.C,U2*%
X105989286Y20594887D02*
X99489286Y20594887D01*
X99614286Y22869887D02*
X99614286Y21619887D01*
X105989286Y17094887D02*
X105989286Y20594887D01*
X99489286Y17094887D02*
X105989286Y17094887D01*
X99489286Y20594887D02*
X99489286Y17094887D01*
D11*
%TO.C,R13*%
X37894286Y24390436D02*
X37894286Y24844564D01*
X39364286Y24390436D02*
X39364286Y24844564D01*
%TO.C,C2*%
X68040538Y20865000D02*
X67518034Y20865000D01*
X68040538Y19395000D02*
X67518034Y19395000D01*
%TO.C,C20*%
X67230538Y102589000D02*
X66708034Y102589000D01*
X67230538Y101119000D02*
X66708034Y101119000D01*
%TO.C,Q4*%
X60189286Y21730000D02*
X60189286Y21080000D01*
X57069286Y21730000D02*
X57069286Y23405000D01*
X57069286Y21730000D02*
X57069286Y21080000D01*
X60189286Y21730000D02*
X60189286Y22380000D01*
%TO.C,R10*%
X52894286Y15602936D02*
X52894286Y16057064D01*
X54364286Y15602936D02*
X54364286Y16057064D01*
%TO.C,R41*%
X51164286Y79965436D02*
X51164286Y80419564D01*
X52634286Y79965436D02*
X52634286Y80419564D01*
%TO.C,C1*%
X82940538Y20365000D02*
X82418034Y20365000D01*
X82940538Y18895000D02*
X82418034Y18895000D01*
%TO.C,C8*%
X141964286Y62748748D02*
X141964286Y63271252D01*
X143434286Y62748748D02*
X143434286Y63271252D01*
D12*
%TO.C,D1*%
X131496286Y15452500D02*
X131496286Y7512500D01*
X125592286Y7512500D02*
X125592286Y16082500D01*
D11*
%TO.C,R27*%
X89264286Y15969564D02*
X89264286Y15515436D01*
X87794286Y15969564D02*
X87794286Y15515436D01*
%TO.C,R22*%
X139024286Y83017064D02*
X139024286Y82562936D01*
X137554286Y83017064D02*
X137554286Y82562936D01*
%TO.C,C7*%
X142494286Y99508748D02*
X142494286Y100031252D01*
X141024286Y99508748D02*
X141024286Y100031252D01*
%TO.C,R16*%
X18842222Y39895000D02*
X19296350Y39895000D01*
X18842222Y41365000D02*
X19296350Y41365000D01*
%TO.C,R20*%
X147458850Y41905000D02*
X147004722Y41905000D01*
X147458850Y43375000D02*
X147004722Y43375000D01*
%TO.C,C6*%
X24924286Y39971252D02*
X24924286Y39448748D01*
X23454286Y39971252D02*
X23454286Y39448748D01*
%TO.C,R7*%
X84264286Y24015436D02*
X84264286Y24469564D01*
X82794286Y24015436D02*
X82794286Y24469564D01*
%TO.C,Q14*%
X109677286Y114300000D02*
X109677286Y114950000D01*
X106557286Y114300000D02*
X106557286Y113650000D01*
X109677286Y114300000D02*
X109677286Y112625000D01*
X106557286Y114300000D02*
X106557286Y114950000D01*
%TO.C,C9*%
X141784286Y43288748D02*
X141784286Y43811252D01*
X143254286Y43288748D02*
X143254286Y43811252D01*
%TO.C,R40*%
X23556350Y66855000D02*
X23102222Y66855000D01*
X23556350Y68325000D02*
X23102222Y68325000D01*
%TO.C,R26*%
X24316350Y92345000D02*
X23862222Y92345000D01*
X24316350Y90875000D02*
X23862222Y90875000D01*
%TO.C,C4*%
X37740538Y19695000D02*
X37218034Y19695000D01*
X37740538Y21165000D02*
X37218034Y21165000D01*
%TO.C,Q13*%
X126369286Y114300000D02*
X126369286Y114950000D01*
X129489286Y114300000D02*
X129489286Y114950000D01*
X126369286Y114300000D02*
X126369286Y113650000D01*
X129489286Y114300000D02*
X129489286Y112625000D01*
%TO.C,R31*%
X57894286Y16144564D02*
X57894286Y15690436D01*
X59364286Y16144564D02*
X59364286Y15690436D01*
%TO.C,R4*%
X147624286Y99602936D02*
X147624286Y100057064D01*
X149094286Y99602936D02*
X149094286Y100057064D01*
%TO.C,Q5*%
X45089286Y21630000D02*
X45089286Y22280000D01*
X41969286Y21630000D02*
X41969286Y23305000D01*
X45089286Y21630000D02*
X45089286Y20980000D01*
X41969286Y21630000D02*
X41969286Y20980000D01*
%TO.C,Q15*%
X45869286Y114080000D02*
X45869286Y113430000D01*
X48989286Y114080000D02*
X48989286Y112405000D01*
X48989286Y114080000D02*
X48989286Y114730000D01*
X45869286Y114080000D02*
X45869286Y114730000D01*
%TO.C,C16*%
X119259286Y20281248D02*
X119259286Y20803752D01*
X117789286Y20281248D02*
X117789286Y20803752D01*
%TO.C,R30*%
X73768850Y27465000D02*
X73314722Y27465000D01*
X73768850Y25995000D02*
X73314722Y25995000D01*
%TO.C,Q1*%
X25699286Y87750000D02*
X25699286Y88400000D01*
X25699286Y87750000D02*
X25699286Y87100000D01*
X22579286Y87750000D02*
X22579286Y87100000D01*
X22579286Y87750000D02*
X22579286Y89425000D01*
%TO.C,R21*%
X145854286Y82570436D02*
X145854286Y83024564D01*
X144384286Y82570436D02*
X144384286Y83024564D01*
%TO.C,C10*%
X141094286Y83021252D02*
X141094286Y82498748D01*
X142564286Y83021252D02*
X142564286Y82498748D01*
%TO.C,R47*%
X90364286Y70460436D02*
X90364286Y70914564D01*
X91834286Y70460436D02*
X91834286Y70914564D01*
%TO.C,R45*%
X60914286Y113880436D02*
X60914286Y114334564D01*
X59444286Y113880436D02*
X59444286Y114334564D01*
%TO.C,R51*%
X119112222Y12365000D02*
X119566350Y12365000D01*
X119112222Y13835000D02*
X119566350Y13835000D01*
%TO.C,R15*%
X24364286Y24615436D02*
X24364286Y25069564D01*
X22894286Y24615436D02*
X22894286Y25069564D01*
%TO.C,D7*%
X104717286Y117984000D02*
X110117286Y117984000D01*
X104717286Y117984000D02*
X104717286Y121284000D01*
X104717286Y121284000D02*
X110117286Y121284000D01*
%TO.C,C13*%
X134139286Y20733752D02*
X134139286Y20211248D01*
X135609286Y20733752D02*
X135609286Y20211248D01*
%TO.C,R18*%
X139224286Y99552936D02*
X139224286Y100007064D01*
X137754286Y99552936D02*
X137754286Y100007064D01*
%TO.C,R14*%
X22894286Y15802936D02*
X22894286Y16257064D01*
X24364286Y15802936D02*
X24364286Y16257064D01*
%TO.C,R9*%
X69564286Y24202936D02*
X69564286Y24657064D01*
X68094286Y24202936D02*
X68094286Y24657064D01*
%TO.C,R46*%
X101304286Y78004936D02*
X101304286Y78459064D01*
X102774286Y78004936D02*
X102774286Y78459064D01*
%TO.C,R44*%
X140856286Y114072936D02*
X140856286Y114527064D01*
X139386286Y114072936D02*
X139386286Y114527064D01*
%TO.C,R28*%
X88868850Y25795000D02*
X88414722Y25795000D01*
X88868850Y27265000D02*
X88414722Y27265000D01*
%TO.C,R38*%
X24446350Y47945000D02*
X23992222Y47945000D01*
X24446350Y49415000D02*
X23992222Y49415000D01*
%TO.C,Q12*%
X66171286Y114046000D02*
X66171286Y113396000D01*
X69291286Y114046000D02*
X69291286Y112371000D01*
X69291286Y114046000D02*
X69291286Y114696000D01*
X66171286Y114046000D02*
X66171286Y114696000D01*
%TO.C,R35*%
X29164286Y16269564D02*
X29164286Y15815436D01*
X27694286Y16269564D02*
X27694286Y15815436D01*
%TO.C,R33*%
X42894286Y16157064D02*
X42894286Y15702936D01*
X44364286Y16157064D02*
X44364286Y15702936D01*
%TO.C,Q10*%
X28749286Y114110000D02*
X28749286Y114760000D01*
X25629286Y114110000D02*
X25629286Y113460000D01*
X25629286Y114110000D02*
X25629286Y114760000D01*
X28749286Y114110000D02*
X28749286Y112435000D01*
%TO.C,R11*%
X52894286Y24302936D02*
X52894286Y24757064D01*
X54364286Y24302936D02*
X54364286Y24757064D01*
%TO.C,C5*%
X22940538Y21165000D02*
X22418034Y21165000D01*
X22940538Y19695000D02*
X22418034Y19695000D01*
%TO.C,R39*%
X19208850Y65305000D02*
X18754722Y65305000D01*
X19208850Y63835000D02*
X18754722Y63835000D01*
%TO.C,R12*%
X37794286Y15702936D02*
X37794286Y16157064D01*
X39264286Y15702936D02*
X39264286Y16157064D01*
%TO.C,R50*%
X38444286Y113802936D02*
X38444286Y114257064D01*
X39914286Y113802936D02*
X39914286Y114257064D01*
%TO.C,D6*%
X124529286Y117984000D02*
X129929286Y117984000D01*
X124529286Y117984000D02*
X124529286Y121284000D01*
X124529286Y121284000D02*
X129929286Y121284000D01*
%TO.C,R8*%
X69464286Y15602936D02*
X69464286Y16057064D01*
X67994286Y15602936D02*
X67994286Y16057064D01*
%TO.C,C11*%
X24204286Y59181252D02*
X24204286Y58658748D01*
X22734286Y59181252D02*
X22734286Y58658748D01*
D13*
%TO.C,U1*%
X130214286Y19238500D02*
X130214286Y19238500D01*
D12*
X131919286Y25212500D02*
X121759286Y25212500D01*
X121759286Y25212500D02*
X121759286Y33096500D01*
X131919286Y25212500D02*
X131919286Y33096500D01*
D13*
X130214286Y19364500D02*
X130214286Y19364500D01*
X130214286Y19238500D02*
G75*
G03*
X130214286Y19364500I0J63000D01*
G01*
X130214286Y19364500D02*
G75*
G03*
X130214286Y19238500I0J-63000D01*
G01*
D11*
%TO.C,R37*%
X19236350Y45905000D02*
X18782222Y45905000D01*
X19236350Y44435000D02*
X18782222Y44435000D01*
%TO.C,Q11*%
X149301286Y114300000D02*
X149301286Y112625000D01*
X146181286Y114300000D02*
X146181286Y113650000D01*
X149301286Y114300000D02*
X149301286Y114950000D01*
X146181286Y114300000D02*
X146181286Y114950000D01*
%TO.C,R6*%
X84364286Y15490436D02*
X84364286Y15944564D01*
X82894286Y15490436D02*
X82894286Y15944564D01*
%TO.C,D3*%
X23729286Y121120000D02*
X29129286Y121120000D01*
X23729286Y117820000D02*
X23729286Y121120000D01*
X23729286Y117820000D02*
X29129286Y117820000D01*
%TO.C,R1*%
X49294286Y79965436D02*
X49294286Y80419564D01*
X47824286Y79965436D02*
X47824286Y80419564D01*
%TO.C,R42*%
X80404286Y114072936D02*
X80404286Y114527064D01*
X78934286Y114072936D02*
X78934286Y114527064D01*
%TO.C,Q9*%
X85983286Y114300000D02*
X85983286Y114950000D01*
X89103286Y114300000D02*
X89103286Y114950000D01*
X85983286Y114300000D02*
X85983286Y113650000D01*
X89103286Y114300000D02*
X89103286Y112625000D01*
%TO.C,Q6*%
X26669286Y21430000D02*
X26669286Y20780000D01*
X26669286Y21430000D02*
X26669286Y23105000D01*
X29789286Y21430000D02*
X29789286Y20780000D01*
X29789286Y21430000D02*
X29789286Y22080000D01*
%TO.C,R32*%
X58956350Y27665000D02*
X58502222Y27665000D01*
X58956350Y26195000D02*
X58502222Y26195000D01*
%TO.C,D4*%
X144341286Y121284000D02*
X149741286Y121284000D01*
X144341286Y117984000D02*
X149741286Y117984000D01*
X144341286Y117984000D02*
X144341286Y121284000D01*
%TO.C,R52*%
X119566350Y16135000D02*
X119112222Y16135000D01*
X119566350Y14665000D02*
X119112222Y14665000D01*
%TO.C,R48*%
X119574286Y114072936D02*
X119574286Y114527064D01*
X121044286Y114072936D02*
X121044286Y114527064D01*
%TO.C,R5*%
X149044286Y82997064D02*
X149044286Y82542936D01*
X147574286Y82997064D02*
X147574286Y82542936D01*
%TO.C,R49*%
X99508286Y114072936D02*
X99508286Y114527064D01*
X100978286Y114072936D02*
X100978286Y114527064D01*
%TO.C,R24*%
X18902222Y80025000D02*
X19356350Y80025000D01*
X18902222Y78555000D02*
X19356350Y78555000D01*
%TO.C,R23*%
X18854722Y59095000D02*
X19308850Y59095000D01*
X18854722Y60565000D02*
X19308850Y60565000D01*
%TO.C,D8*%
X44189286Y117960000D02*
X44189286Y121260000D01*
X44189286Y117960000D02*
X49589286Y117960000D01*
X44189286Y121260000D02*
X49589286Y121260000D01*
%TO.C,R36*%
X28443850Y27965000D02*
X27989722Y27965000D01*
X28443850Y26495000D02*
X27989722Y26495000D01*
%TO.C,D2*%
X84143286Y117984000D02*
X84143286Y121284000D01*
X84143286Y117984000D02*
X89543286Y117984000D01*
X84143286Y121284000D02*
X89543286Y121284000D01*
%TO.C,C12*%
X23994286Y78561252D02*
X23994286Y78038748D01*
X22524286Y78561252D02*
X22524286Y78038748D01*
%TO.C,R2*%
X25494286Y78075436D02*
X25494286Y78529564D01*
X26964286Y78075436D02*
X26964286Y78529564D01*
%TO.C,R29*%
X72794286Y15957064D02*
X72794286Y15502936D01*
X74264286Y15957064D02*
X74264286Y15502936D01*
%TD*%
M02*
