M48
; DRILL file {KiCad (6.0.7)} date Mon Oct 24 16:35:38 2022
; FORMAT={-:-/ absolute / metric / decimal}
; #@! TF.CreationDate,2022-10-24T16:35:38-03:00
; #@! TF.GenerationSoftware,Kicad,Pcbnew,(6.0.7)
; #@! TF.FileFunction,MixedPlating,1,2
FMAT,2
METRIC
; #@! TA.AperFunction,Plated,PTH,ComponentDrill
T1C0.400
; #@! TA.AperFunction,Plated,PTH,ComponentDrill
T2C3.500
%
G90
G05
T1
X9.399Y65.67
X9.399Y60.67
X9.399Y55.67
X9.429Y89.73
X9.429Y84.73
X9.429Y79.73
X9.429Y74.73
X9.489Y47.45
X9.489Y42.45
X9.489Y37.45
X17.4Y149.362
X17.4Y137.162
X18.629Y15.33
X18.649Y8.12
X18.963Y93.218
X18.979Y48.81
X18.999Y68.3
X19.059Y36.09
X19.069Y54.75
X19.079Y74.78
X19.471Y129.23
X21.299Y160.11
X23.4Y135.162
X23.535Y30.226
X23.649Y8.12
X26.299Y160.11
X28.649Y8.12
X29.4Y149.362
X29.4Y137.162
X32.909Y87.07
X32.909Y84.53
X32.909Y81.99
X32.909Y79.45
X33.629Y15.43
X33.649Y8.12
X37.4Y149.162
X37.4Y136.963
X38.649Y8.12
X38.729Y30.03
X39.249Y129.33
X40.849Y87.07
X40.849Y84.53
X40.849Y81.99
X40.849Y79.45
X41.219Y160.06
X43.4Y134.963
X43.649Y8.12
X46.219Y160.06
X48.629Y15.33
X48.649Y8.12
X49.4Y149.162
X49.4Y136.963
X53.629Y29.03
X53.649Y8.12
X57.7Y149.162
X57.7Y136.963
X58.649Y8.12
X60.049Y129.38
X60.239Y111.85
X61.329Y160.0
X62.239Y111.85
X63.649Y8.12
X63.7Y134.963
X63.729Y15.23
X66.329Y160.0
X68.649Y8.12
X68.829Y29.13
X69.7Y149.162
X69.7Y136.963
X69.9Y81.775
X69.9Y79.235
X69.9Y76.695
X69.9Y74.155
X69.9Y71.615
X69.9Y69.075
X69.9Y66.535
X69.9Y63.995
X69.9Y61.455
X69.9Y58.915
X69.9Y56.375
X69.9Y53.835
X69.9Y51.295
X69.9Y48.755
X69.9Y46.215
X73.065Y115.7
X73.065Y100.7
X73.649Y8.12
X75.605Y115.7
X75.605Y100.7
X77.9Y149.062
X77.9Y136.862
X78.145Y115.7
X78.145Y100.7
X78.529Y15.13
X78.649Y8.12
X79.669Y129.484
X80.685Y115.7
X80.685Y100.7
X81.489Y160.0
X83.225Y115.7
X83.225Y100.7
X83.529Y28.63
X83.649Y8.12
X83.9Y134.862
X85.765Y115.7
X85.765Y100.7
X86.489Y160.0
X88.305Y115.7
X88.305Y100.7
X88.649Y8.12
X89.9Y149.062
X89.9Y136.862
X90.845Y115.7
X90.845Y100.7
X93.385Y115.7
X93.385Y100.7
X95.899Y81.77
X95.899Y79.23
X95.899Y76.69
X95.899Y74.15
X95.899Y71.61
X95.899Y69.07
X95.899Y66.53
X95.899Y63.99
X95.899Y61.45
X95.899Y58.91
X95.899Y56.37
X95.899Y53.83
X95.899Y51.29
X95.899Y48.75
X95.899Y46.21
X98.3Y148.963
X98.3Y136.762
X99.139Y28.29
X99.139Y26.29
X99.7Y105.05
X100.243Y129.484
X101.469Y160.0
X104.3Y134.762
X105.139Y28.345
X105.139Y26.345
X106.469Y160.0
X108.7Y111.39
X108.7Y108.85
X110.3Y148.963
X110.3Y136.762
X111.24Y111.39
X111.24Y108.85
X111.874Y9.723
X113.78Y111.39
X113.78Y108.85
X114.474Y29.855
X114.474Y24.855
X116.32Y111.39
X116.32Y108.85
X116.874Y9.723
X118.1Y148.95
X118.1Y136.75
X118.277Y43.942
X118.277Y41.402
X118.86Y111.39
X118.86Y108.85
X120.309Y129.484
X120.817Y43.942
X120.817Y41.402
X121.4Y111.39
X121.4Y108.85
X121.639Y160.12
X123.357Y43.942
X123.357Y41.402
X124.1Y134.75
X125.897Y43.942
X125.897Y41.402
X126.639Y160.12
X130.1Y148.95
X130.1Y136.75
X135.519Y10.305
X135.519Y7.765
X138.059Y10.305
X138.059Y7.765
X138.1Y148.95
X138.1Y136.75
X140.121Y129.484
X140.599Y10.305
X140.599Y7.765
X141.559Y160.06
X143.139Y10.305
X143.139Y7.765
X143.339Y22.568
X143.339Y17.568
X144.1Y134.75
X146.2Y105.8
X146.2Y77.1
X146.559Y160.06
X150.1Y148.95
X150.1Y136.75
X154.829Y23.24
X154.829Y18.24
X154.869Y47.63
X154.869Y42.63
X154.869Y37.63
X154.999Y67.01
X154.999Y62.01
X154.999Y57.01
X155.069Y86.77
X155.069Y81.77
X155.069Y76.77
X155.159Y105.82
X155.159Y100.82
X155.159Y95.82
T2
X5.0Y5.3
X5.08Y159.71
X159.933Y159.964
X160.1Y5.0
T0
M30
