%TF.GenerationSoftware,KiCad,Pcbnew,(6.0.7)*%
%TF.CreationDate,2022-10-24T15:17:36-03:00*%
%TF.ProjectId,PCB_Prototipo_Proyecto_Final,5043425f-5072-46f7-946f-7469706f5f50,rev?*%
%TF.SameCoordinates,PX7e4946aPYc6a19c0*%
%TF.FileFunction,Soldermask,Top*%
%TF.FilePolarity,Negative*%
%FSLAX46Y46*%
G04 Gerber Fmt 4.6, Leading zero omitted, Abs format (unit mm)*
G04 Created by KiCad (PCBNEW (6.0.7)) date 2022-10-24 15:17:36*
%MOMM*%
%LPD*%
G01*
G04 APERTURE LIST*
%TA.AperFunction,Profile*%
%ADD10C,0.100000*%
%TD*%
%ADD11R,1.700000X1.700000*%
%ADD12C,1.980000*%
%ADD13R,2.000000X2.000000*%
%ADD14C,1.600000*%
%ADD15C,7.000000*%
%ADD16R,1.600000X1.600000*%
%ADD17O,1.700000X1.700000*%
%ADD18O,1.600000X1.600000*%
G04 APERTURE END LIST*
D10*
X0Y0D02*
X165100000Y0D01*
X165100000Y0D02*
X165100000Y154940000D01*
X165100000Y154940000D02*
X0Y154940000D01*
X0Y154940000D02*
X0Y0D01*
D11*
%TO.C,K5*%
X118100000Y126900000D03*
D12*
X130100000Y126900000D03*
X124100000Y124900000D03*
X118100000Y139100000D03*
X130100000Y139100000D03*
%TD*%
D11*
%TO.C,J6*%
X154999286Y57010000D03*
D12*
X154999286Y62010000D03*
X154999286Y67010000D03*
%TD*%
D11*
%TO.C,J23*%
X68829286Y29130000D03*
%TD*%
D13*
%TO.C,C15*%
X114474286Y24854823D03*
D14*
X114474286Y29854823D03*
%TD*%
D12*
%TO.C,J16*%
X126639286Y150270000D03*
X121639286Y150270000D03*
%TD*%
D15*
%TO.C,*%
X5080000Y149860000D03*
%TD*%
D11*
%TO.C,J33*%
X120309286Y119634000D03*
%TD*%
%TO.C,J46*%
X146200000Y105800000D03*
%TD*%
%TO.C,J40*%
X18629286Y15330000D03*
%TD*%
D16*
%TO.C,C18*%
X99139286Y26289775D03*
D14*
X99139286Y28289775D03*
%TD*%
D15*
%TO.C,*%
X5000000Y5300000D03*
%TD*%
D16*
%TO.C,IC1*%
X32909286Y87070000D03*
D12*
X32909286Y84530000D03*
X32909286Y81990000D03*
X32909286Y79450000D03*
X40849286Y79450000D03*
X40849286Y81990000D03*
X40849286Y84530000D03*
X40849286Y87070000D03*
%TD*%
D11*
%TO.C,K1*%
X77900000Y127012500D03*
D12*
X89900000Y127012500D03*
X83900000Y125012500D03*
X77900000Y139212500D03*
X89900000Y139212500D03*
%TD*%
D11*
%TO.C,J32*%
X60049286Y119530000D03*
%TD*%
D13*
%TO.C,C14*%
X143339286Y22567677D03*
D14*
X143339286Y17567677D03*
%TD*%
D11*
%TO.C,J34*%
X99700000Y95200000D03*
%TD*%
%TO.C,K2*%
X17400000Y127312500D03*
D12*
X29400000Y127312500D03*
X23400000Y125312500D03*
X17400000Y139512500D03*
X29400000Y139512500D03*
%TD*%
D11*
%TO.C,J29*%
X18979286Y48810000D03*
%TD*%
%TO.C,J19*%
X18963286Y93218000D03*
%TD*%
%TO.C,J10*%
X18649286Y8120000D03*
D17*
X23649286Y8120000D03*
X28649286Y8120000D03*
X33649286Y8120000D03*
X38649286Y8120000D03*
X43649286Y8120000D03*
X48649286Y8120000D03*
X53649286Y8120000D03*
X58649286Y8120000D03*
D12*
X63649286Y8120000D03*
X68649286Y8120000D03*
X73649286Y8120000D03*
X78649286Y8120000D03*
X83649286Y8120000D03*
X88649286Y8120000D03*
%TD*%
D11*
%TO.C,J5*%
X9489286Y47450000D03*
D12*
X9489286Y42450000D03*
X9489286Y37450000D03*
%TD*%
D11*
%TO.C,J35*%
X100243286Y119634000D03*
%TD*%
%TO.C,J26*%
X78529286Y15130000D03*
%TD*%
%TO.C,J21*%
X108700000Y99000000D03*
D17*
X108700000Y101540000D03*
X111240000Y99000000D03*
X111240000Y101540000D03*
X113780000Y99000000D03*
X113780000Y101540000D03*
X116320000Y99000000D03*
X116320000Y101540000D03*
X118860000Y99000000D03*
X118860000Y101540000D03*
X121400000Y99000000D03*
X121400000Y101540000D03*
%TD*%
D11*
%TO.C,K7*%
X37400000Y127112500D03*
D12*
X49400000Y127112500D03*
X43400000Y125112500D03*
X37400000Y139312500D03*
X49400000Y139312500D03*
%TD*%
D11*
%TO.C,J20*%
X118277286Y41402000D03*
D17*
X118277286Y43942000D03*
X120817286Y41402000D03*
X120817286Y43942000D03*
X123357286Y41402000D03*
X123357286Y43942000D03*
X125897286Y41402000D03*
X125897286Y43942000D03*
%TD*%
D11*
%TO.C,J8*%
X154869286Y37630000D03*
D12*
X154869286Y42630000D03*
X154869286Y47630000D03*
%TD*%
D11*
%TO.C,K6*%
X98300000Y126912500D03*
D12*
X110300000Y126912500D03*
X104300000Y124912500D03*
X98300000Y139112500D03*
X110300000Y139112500D03*
%TD*%
D11*
%TO.C,J37*%
X63729286Y15230000D03*
%TD*%
%TO.C,J24*%
X19079286Y74780000D03*
%TD*%
D12*
%TO.C,J18*%
X46219286Y150210000D03*
X41219286Y150210000D03*
%TD*%
D14*
%TO.C,L1*%
X116874286Y9722500D03*
X111874286Y9722500D03*
%TD*%
D15*
%TO.C,*%
X159933286Y150114000D03*
%TD*%
D16*
%TO.C,U3*%
X73065286Y90850000D03*
D18*
X75605286Y90850000D03*
X78145286Y90850000D03*
X80685286Y90850000D03*
X83225286Y90850000D03*
X85765286Y90850000D03*
X88305286Y90850000D03*
X90845286Y90850000D03*
X93385286Y90850000D03*
X93385286Y105850000D03*
X90845286Y105850000D03*
X88305286Y105850000D03*
X85765286Y105850000D03*
X83225286Y105850000D03*
X80685286Y105850000D03*
X78145286Y105850000D03*
X75605286Y105850000D03*
X73065286Y105850000D03*
%TD*%
D11*
%TO.C,K4*%
X57700000Y127112500D03*
D12*
X69700000Y127112500D03*
X63700000Y125112500D03*
X57700000Y139312500D03*
X69700000Y139312500D03*
%TD*%
D11*
%TO.C,J45*%
X23535286Y30226000D03*
%TD*%
D16*
%TO.C,C19*%
X62239286Y102000000D03*
D14*
X60239286Y102000000D03*
%TD*%
D11*
%TO.C,J38*%
X48629286Y15330000D03*
%TD*%
D12*
%TO.C,J4*%
X9429286Y89730000D03*
X9429286Y84730000D03*
X9429286Y79730000D03*
X9429286Y74730000D03*
%TD*%
D16*
%TO.C,C17*%
X105139286Y26344887D03*
D14*
X105139286Y28344887D03*
%TD*%
D11*
%TO.C,J22*%
X83529286Y28630000D03*
%TD*%
D12*
%TO.C,J13*%
X26299286Y150260000D03*
X21299286Y150260000D03*
%TD*%
D11*
%TO.C,J7*%
X155159286Y95820000D03*
D12*
X155159286Y100820000D03*
X155159286Y105820000D03*
%TD*%
D11*
%TO.C,J30*%
X79669286Y119634000D03*
%TD*%
%TO.C,J11*%
X9399286Y65670000D03*
D12*
X9399286Y60670000D03*
X9399286Y55670000D03*
%TD*%
%TO.C,J1*%
X154829286Y23240000D03*
X154829286Y18240000D03*
%TD*%
%TO.C,J14*%
X146559286Y150210000D03*
X141559286Y150210000D03*
%TD*%
D11*
%TO.C,J9*%
X155069286Y76770000D03*
D12*
X155069286Y81770000D03*
X155069286Y86770000D03*
%TD*%
D11*
%TO.C,J3*%
X95899286Y81770000D03*
D17*
X95899286Y79230000D03*
X95899286Y76690000D03*
X95899286Y74150000D03*
X95899286Y71610000D03*
X95899286Y69070000D03*
X95899286Y66530000D03*
X95899286Y63990000D03*
X95899286Y61450000D03*
X95899286Y58910000D03*
X95899286Y56370000D03*
X95899286Y53830000D03*
X95899286Y51290000D03*
X95899286Y48750000D03*
X95899286Y46210000D03*
%TD*%
D11*
%TO.C,J2*%
X69900000Y81775000D03*
D17*
X69900000Y79235000D03*
X69900000Y76695000D03*
X69900000Y74155000D03*
X69900000Y71615000D03*
X69900000Y69075000D03*
X69900000Y66535000D03*
X69900000Y63995000D03*
X69900000Y61455000D03*
X69900000Y58915000D03*
X69900000Y56375000D03*
X69900000Y53835000D03*
X69900000Y51295000D03*
X69900000Y48755000D03*
X69900000Y46215000D03*
%TD*%
D11*
%TO.C,J41*%
X19059286Y36090000D03*
%TD*%
%TO.C,J42*%
X19069286Y54750000D03*
%TD*%
%TO.C,J28*%
X18999286Y68300000D03*
%TD*%
%TO.C,J39*%
X33629286Y15430000D03*
%TD*%
%TO.C,J36*%
X39249286Y119480000D03*
%TD*%
D12*
%TO.C,J15*%
X66329286Y150150000D03*
X61329286Y150150000D03*
%TD*%
%TO.C,J12*%
X86489286Y150150000D03*
X81489286Y150150000D03*
%TD*%
D11*
%TO.C,J47*%
X146200000Y77100000D03*
%TD*%
%TO.C,J25*%
X38729286Y30030000D03*
%TD*%
%TO.C,K3*%
X138100000Y126900000D03*
D12*
X150100000Y126900000D03*
X144100000Y124900000D03*
X138100000Y139100000D03*
X150100000Y139100000D03*
%TD*%
D11*
%TO.C,J43*%
X135519286Y7765000D03*
D12*
X135519286Y10305000D03*
X138059286Y7765000D03*
X138059286Y10305000D03*
X140599286Y7765000D03*
X140599286Y10305000D03*
X143139286Y7765000D03*
X143139286Y10305000D03*
%TD*%
%TO.C,J17*%
X106469286Y150150000D03*
X101469286Y150150000D03*
%TD*%
D11*
%TO.C,J31*%
X140121286Y119634000D03*
%TD*%
%TO.C,J27*%
X53629286Y29030000D03*
%TD*%
%TO.C,J44*%
X19471286Y119380000D03*
%TD*%
D15*
%TO.C,*%
X160100000Y5000000D03*
%TD*%
M02*
