%TF.GenerationSoftware,KiCad,Pcbnew,(6.0.7)*%
%TF.CreationDate,2022-10-09T00:02:01-03:00*%
%TF.ProjectId,PCB_Prototipo_Proyecto_Final,5043425f-5072-46f7-946f-7469706f5f50,rev?*%
%TF.SameCoordinates,Original*%
%TF.FileFunction,Soldermask,Top*%
%TF.FilePolarity,Negative*%
%FSLAX46Y46*%
G04 Gerber Fmt 4.6, Leading zero omitted, Abs format (unit mm)*
G04 Created by KiCad (PCBNEW (6.0.7)) date 2022-10-09 00:02:01*
%MOMM*%
%LPD*%
G01*
G04 APERTURE LIST*
G04 Aperture macros list*
%AMRoundRect*
0 Rectangle with rounded corners*
0 $1 Rounding radius*
0 $2 $3 $4 $5 $6 $7 $8 $9 X,Y pos of 4 corners*
0 Add a 4 corners polygon primitive as box body*
4,1,4,$2,$3,$4,$5,$6,$7,$8,$9,$2,$3,0*
0 Add four circle primitives for the rounded corners*
1,1,$1+$1,$2,$3*
1,1,$1+$1,$4,$5*
1,1,$1+$1,$6,$7*
1,1,$1+$1,$8,$9*
0 Add four rect primitives between the rounded corners*
20,1,$1+$1,$2,$3,$4,$5,0*
20,1,$1+$1,$4,$5,$6,$7,0*
20,1,$1+$1,$6,$7,$8,$9,0*
20,1,$1+$1,$8,$9,$2,$3,0*%
G04 Aperture macros list end*
%ADD10R,1.700000X1.700000*%
%ADD11O,1.700000X1.700000*%
%ADD12R,1.100000X4.600000*%
%ADD13R,10.800000X9.400000*%
%ADD14RoundRect,0.250000X-0.262500X-0.450000X0.262500X-0.450000X0.262500X0.450000X-0.262500X0.450000X0*%
%ADD15RoundRect,0.150000X-0.150000X0.587500X-0.150000X-0.587500X0.150000X-0.587500X0.150000X0.587500X0*%
%ADD16RoundRect,0.250000X-0.450000X0.262500X-0.450000X-0.262500X0.450000X-0.262500X0.450000X0.262500X0*%
%ADD17R,1.980000X1.980000*%
%ADD18C,1.980000*%
%ADD19C,1.935000*%
%ADD20R,1.800000X1.800000*%
%ADD21C,1.800000*%
%ADD22R,2.463000X1.645400*%
%ADD23RoundRect,0.250000X-0.250000X-0.475000X0.250000X-0.475000X0.250000X0.475000X-0.250000X0.475000X0*%
%ADD24C,1.950000*%
%ADD25R,1.600000X1.440000*%
%ADD26R,3.800000X4.960000*%
%ADD27RoundRect,0.250000X0.450000X-0.262500X0.450000X0.262500X-0.450000X0.262500X-0.450000X-0.262500X0*%
%ADD28C,7.000000*%
%ADD29RoundRect,0.250000X0.262500X0.450000X-0.262500X0.450000X-0.262500X-0.450000X0.262500X-0.450000X0*%
%ADD30RoundRect,0.250000X0.475000X-0.250000X0.475000X0.250000X-0.475000X0.250000X-0.475000X-0.250000X0*%
%ADD31RoundRect,0.250000X-0.475000X0.250000X-0.475000X-0.250000X0.475000X-0.250000X0.475000X0.250000X0*%
%ADD32R,1.130000X1.130000*%
%ADD33C,1.130000*%
%ADD34R,0.600000X1.050000*%
%ADD35R,0.950000X1.250000*%
%ADD36R,3.200000X1.250000*%
%ADD37R,2.250000X1.600000*%
%ADD38R,1.950000X1.950000*%
%ADD39R,2.400000X7.000000*%
%ADD40R,2.900000X5.400000*%
%ADD41R,1.600000X1.600000*%
%ADD42O,1.600000X1.600000*%
G04 APERTURE END LIST*
D10*
%TO.C,J43*%
X240835000Y-198080000D03*
D11*
X238295000Y-198080000D03*
X240835000Y-195540000D03*
X238295000Y-195540000D03*
X240835000Y-193000000D03*
X238295000Y-193000000D03*
X240835000Y-190460000D03*
X238295000Y-190460000D03*
%TD*%
D10*
%TO.C,J42*%
X156360000Y-153480000D03*
%TD*%
%TO.C,J41*%
X156360000Y-171080000D03*
%TD*%
%TO.C,J40*%
X223160000Y-192180000D03*
%TD*%
%TO.C,J39*%
X208160000Y-192080000D03*
%TD*%
%TO.C,J38*%
X193160000Y-192180000D03*
%TD*%
%TO.C,J37*%
X178060000Y-192280000D03*
%TD*%
%TO.C,J26*%
X163260000Y-192380000D03*
%TD*%
%TO.C,J24*%
X156260000Y-133780000D03*
%TD*%
%TO.C,J19*%
X196560000Y-115980000D03*
%TD*%
%TO.C,J36*%
X262560000Y-96580000D03*
%TD*%
%TO.C,J35*%
X202360000Y-94180000D03*
%TD*%
%TO.C,J34*%
X235760000Y-114280000D03*
%TD*%
%TO.C,J33*%
X182060000Y-94880000D03*
%TD*%
%TO.C,J32*%
X242560000Y-95980000D03*
%TD*%
%TO.C,J31*%
X162160000Y-96780000D03*
%TD*%
%TO.C,J30*%
X221960000Y-94780000D03*
%TD*%
%TO.C,J29*%
X167260000Y-157380000D03*
%TD*%
%TO.C,J28*%
X166960000Y-142380000D03*
%TD*%
%TO.C,J27*%
X188160000Y-178480000D03*
%TD*%
%TO.C,J25*%
X203060000Y-177480000D03*
%TD*%
%TO.C,J23*%
X172960000Y-178380000D03*
%TD*%
%TO.C,J22*%
X158260000Y-178880000D03*
%TD*%
%TO.C,J21*%
X248925000Y-116830000D03*
D11*
X246385000Y-116830000D03*
X248925000Y-114290000D03*
X246385000Y-114290000D03*
X248925000Y-111750000D03*
X246385000Y-111750000D03*
X248925000Y-109210000D03*
X246385000Y-109210000D03*
%TD*%
D10*
%TO.C,J20*%
X189245000Y-170175000D03*
D11*
X189245000Y-167635000D03*
X191785000Y-170175000D03*
X191785000Y-167635000D03*
X194325000Y-170175000D03*
X194325000Y-167635000D03*
X196865000Y-170175000D03*
X196865000Y-167635000D03*
%TD*%
D12*
%TO.C,U1*%
X259660000Y-181705000D03*
X257960000Y-181705000D03*
X256260000Y-181705000D03*
D13*
X256260000Y-190855000D03*
D12*
X254560000Y-181705000D03*
X252860000Y-181705000D03*
%TD*%
D14*
%TO.C,R34*%
X197247500Y-180380000D03*
X199072500Y-180380000D03*
%TD*%
D15*
%TO.C,Q7*%
X162610000Y-160942500D03*
X160710000Y-160942500D03*
X161660000Y-162817500D03*
%TD*%
D16*
%TO.C,R17*%
X281160000Y-107192500D03*
X281160000Y-109017500D03*
%TD*%
D15*
%TO.C,Q2*%
X154210000Y-185142500D03*
X152310000Y-185142500D03*
X153260000Y-187017500D03*
%TD*%
D17*
%TO.C,K5*%
X172160000Y-81380000D03*
D18*
X184160000Y-81380000D03*
D19*
X178160000Y-83380000D03*
D18*
X172160000Y-69180000D03*
X184160000Y-69180000D03*
%TD*%
D20*
%TO.C,J6*%
X292460000Y-150280000D03*
D21*
X292460000Y-145280000D03*
X292460000Y-140280000D03*
%TD*%
D15*
%TO.C,Q8*%
X162110000Y-142342500D03*
X160210000Y-142342500D03*
X161160000Y-144217500D03*
%TD*%
D22*
%TO.C,C15*%
X241460000Y-177180903D03*
X241460000Y-183525299D03*
%TD*%
D23*
%TO.C,C3*%
X188110000Y-187180000D03*
X190010000Y-187180000D03*
%TD*%
D24*
%TO.C,J16*%
X180660000Y-57980000D03*
X175660000Y-57980000D03*
%TD*%
D25*
%TO.C,D1*%
X258975000Y-167200000D03*
X256845000Y-167200000D03*
D26*
X257910000Y-171000000D03*
%TD*%
D27*
%TO.C,R25*%
X156760000Y-123292500D03*
X156760000Y-121467500D03*
%TD*%
D16*
%TO.C,R3*%
X186060000Y-130667500D03*
X186060000Y-132492500D03*
%TD*%
D15*
%TO.C,Q3*%
X169110000Y-185042500D03*
X167210000Y-185042500D03*
X168160000Y-186917500D03*
%TD*%
D28*
%TO.C,*%
X297180000Y-58420000D03*
%TD*%
D29*
%TO.C,R19*%
X286185000Y-145380000D03*
X284360000Y-145380000D03*
%TD*%
D30*
%TO.C,C18*%
X233660000Y-173080000D03*
X233660000Y-171180000D03*
%TD*%
D27*
%TO.C,R13*%
X203160000Y-183805000D03*
X203160000Y-181980000D03*
%TD*%
D23*
%TO.C,C2*%
X173060000Y-187380000D03*
X174960000Y-187380000D03*
%TD*%
D31*
%TO.C,C20*%
X200560000Y-108130000D03*
X200560000Y-110030000D03*
%TD*%
D28*
%TO.C,*%
X297260000Y-202980000D03*
%TD*%
D15*
%TO.C,Q4*%
X184110000Y-184842500D03*
X182210000Y-184842500D03*
X183160000Y-186717500D03*
%TD*%
D27*
%TO.C,R10*%
X188160000Y-192592500D03*
X188160000Y-190767500D03*
%TD*%
D32*
%TO.C,IC1*%
X169490000Y-127270000D03*
D33*
X169490000Y-129810000D03*
X169490000Y-132350000D03*
X169490000Y-134890000D03*
X177430000Y-134890000D03*
X177430000Y-132350000D03*
X177430000Y-129810000D03*
X177430000Y-127270000D03*
%TD*%
D17*
%TO.C,K1*%
X212360000Y-81267500D03*
D18*
X224360000Y-81267500D03*
D19*
X218360000Y-83267500D03*
D18*
X212360000Y-69067500D03*
X224360000Y-69067500D03*
%TD*%
D23*
%TO.C,C1*%
X158160000Y-187880000D03*
X160060000Y-187880000D03*
%TD*%
D34*
%TO.C,Q11*%
X151547500Y-90480000D03*
X150597500Y-88280000D03*
X152497500Y-88280000D03*
%TD*%
D35*
%TO.C,U2*%
X235160000Y-176980000D03*
X232860000Y-176980000D03*
X230560000Y-176980000D03*
D36*
X232860000Y-183780000D03*
%TD*%
D30*
%TO.C,C8*%
X280360000Y-145380000D03*
X280360000Y-143480000D03*
%TD*%
D37*
%TO.C,D6*%
X180110000Y-88280000D03*
X184210000Y-88280000D03*
%TD*%
D16*
%TO.C,R27*%
X153260000Y-190855000D03*
X153260000Y-192680000D03*
%TD*%
D34*
%TO.C,Q9*%
X214410000Y-87580000D03*
X212510000Y-87580000D03*
X213460000Y-89780000D03*
%TD*%
D16*
%TO.C,R22*%
X273160000Y-126280000D03*
X273160000Y-128105000D03*
%TD*%
D37*
%TO.C,D3*%
X280310000Y-89080000D03*
X284410000Y-89080000D03*
%TD*%
%TO.C,D5*%
X240460000Y-89380000D03*
X244560000Y-89380000D03*
%TD*%
D30*
%TO.C,C7*%
X277160000Y-109142500D03*
X277160000Y-107242500D03*
%TD*%
D17*
%TO.C,K2*%
X272860000Y-80967500D03*
D18*
X284860000Y-80967500D03*
D19*
X278860000Y-82967500D03*
D18*
X272860000Y-68767500D03*
X284860000Y-68767500D03*
%TD*%
D14*
%TO.C,R16*%
X155147500Y-166280000D03*
X156972500Y-166280000D03*
%TD*%
D38*
%TO.C,J10*%
X153160000Y-199280000D03*
D24*
X158160000Y-199280000D03*
X163160000Y-199280000D03*
X168160000Y-199280000D03*
X173160000Y-199280000D03*
X178160000Y-199280000D03*
X183160000Y-199280000D03*
X188160000Y-199280000D03*
X193160000Y-199280000D03*
X198160000Y-199280000D03*
X203160000Y-199280000D03*
X208160000Y-199280000D03*
X213160000Y-199280000D03*
X218160000Y-199280000D03*
X223160000Y-199280000D03*
%TD*%
D29*
%TO.C,R20*%
X286272500Y-164180000D03*
X284447500Y-164180000D03*
%TD*%
D20*
%TO.C,J5*%
X147860000Y-161280000D03*
D21*
X147860000Y-166280000D03*
X147860000Y-171280000D03*
%TD*%
D31*
%TO.C,C6*%
X161660000Y-166330000D03*
X161660000Y-168230000D03*
%TD*%
D27*
%TO.C,R7*%
X158260000Y-184180000D03*
X158260000Y-182355000D03*
%TD*%
D17*
%TO.C,K7*%
X252860000Y-81167500D03*
D18*
X264860000Y-81167500D03*
D19*
X258860000Y-83167500D03*
D18*
X252860000Y-68967500D03*
X264860000Y-68967500D03*
%TD*%
D30*
%TO.C,C9*%
X280360000Y-164180000D03*
X280360000Y-162280000D03*
%TD*%
D34*
%TO.C,Q15*%
X255210000Y-88680000D03*
X253310000Y-88680000D03*
X254260000Y-90880000D03*
%TD*%
D28*
%TO.C,REF\u002A\u002A*%
X142160000Y-58280000D03*
%TD*%
D39*
%TO.C,C14*%
X276360000Y-192130000D03*
X276360000Y-179230000D03*
%TD*%
D20*
%TO.C,J8*%
X292460000Y-169280000D03*
D21*
X292460000Y-164280000D03*
X292460000Y-159280000D03*
%TD*%
D17*
%TO.C,K6*%
X191960000Y-81367500D03*
D18*
X203960000Y-81367500D03*
D19*
X197960000Y-83367500D03*
D18*
X191960000Y-69167500D03*
X203960000Y-69167500D03*
%TD*%
D14*
%TO.C,R40*%
X160247500Y-138980000D03*
X162072500Y-138980000D03*
%TD*%
D29*
%TO.C,R44*%
X234472500Y-93680000D03*
X232647500Y-93680000D03*
%TD*%
%TO.C,R49*%
X254960000Y-94480000D03*
X253135000Y-94480000D03*
%TD*%
D14*
%TO.C,R26*%
X162247500Y-117180000D03*
X164072500Y-117180000D03*
%TD*%
D24*
%TO.C,J18*%
X260860000Y-57980000D03*
X255860000Y-57980000D03*
%TD*%
D23*
%TO.C,C4*%
X203360000Y-187080000D03*
X205260000Y-187080000D03*
%TD*%
D40*
%TO.C,L1*%
X250810000Y-167680000D03*
X240910000Y-167680000D03*
%TD*%
D41*
%TO.C,U3*%
X208810000Y-113080000D03*
D42*
X211350000Y-113080000D03*
X213890000Y-113080000D03*
X216430000Y-113080000D03*
X218970000Y-113080000D03*
X221510000Y-113080000D03*
X224050000Y-113080000D03*
X226590000Y-113080000D03*
X229130000Y-113080000D03*
X229130000Y-105460000D03*
X226590000Y-105460000D03*
X224050000Y-105460000D03*
X221510000Y-105460000D03*
X218970000Y-105460000D03*
X216430000Y-105460000D03*
X213890000Y-105460000D03*
X211350000Y-105460000D03*
X208810000Y-105460000D03*
%TD*%
D37*
%TO.C,D2*%
X219910000Y-88680000D03*
X224010000Y-88680000D03*
%TD*%
D17*
%TO.C,K4*%
X232560000Y-81167500D03*
D18*
X244560000Y-81167500D03*
D19*
X238560000Y-83167500D03*
D18*
X232560000Y-68967500D03*
X244560000Y-68967500D03*
%TD*%
D16*
%TO.C,R31*%
X183160000Y-190680000D03*
X183160000Y-192505000D03*
%TD*%
D27*
%TO.C,R4*%
X285160000Y-109017500D03*
X285160000Y-107192500D03*
%TD*%
D15*
%TO.C,Q5*%
X199210000Y-184942500D03*
X197310000Y-184942500D03*
X198260000Y-186817500D03*
%TD*%
D29*
%TO.C,R42*%
X275060000Y-94380000D03*
X273235000Y-94380000D03*
%TD*%
D31*
%TO.C,C16*%
X246860000Y-179430000D03*
X246860000Y-181330000D03*
%TD*%
D14*
%TO.C,R30*%
X167335000Y-180780000D03*
X169160000Y-180780000D03*
%TD*%
D29*
%TO.C,R43*%
X152372500Y-94380000D03*
X150547500Y-94380000D03*
%TD*%
D31*
%TO.C,C19*%
X196560000Y-108130000D03*
X196560000Y-110030000D03*
%TD*%
D15*
%TO.C,Q1*%
X164110000Y-121342500D03*
X162210000Y-121342500D03*
X163160000Y-123217500D03*
%TD*%
D24*
%TO.C,J4*%
X147660000Y-119780000D03*
X147660000Y-124780000D03*
X147660000Y-129780000D03*
X147660000Y-134780000D03*
%TD*%
D31*
%TO.C,C17*%
X226760000Y-179430000D03*
X226760000Y-181330000D03*
%TD*%
D27*
%TO.C,R21*%
X281160000Y-128105000D03*
X281160000Y-126280000D03*
%TD*%
D24*
%TO.C,J13*%
X280960000Y-57980000D03*
X275960000Y-57980000D03*
%TD*%
D31*
%TO.C,C10*%
X277160000Y-126155000D03*
X277160000Y-128055000D03*
%TD*%
D20*
%TO.C,J7*%
X292460000Y-113192500D03*
D21*
X292460000Y-108192500D03*
X292460000Y-103192500D03*
%TD*%
D27*
%TO.C,R47*%
X227160000Y-138505000D03*
X227160000Y-136680000D03*
%TD*%
%TO.C,R15*%
X218160000Y-183580000D03*
X218160000Y-181755000D03*
%TD*%
D30*
%TO.C,C13*%
X264260000Y-176830000D03*
X264260000Y-174930000D03*
%TD*%
D27*
%TO.C,R18*%
X273160000Y-109017500D03*
X273160000Y-107192500D03*
%TD*%
%TO.C,R14*%
X218160000Y-192392500D03*
X218160000Y-190567500D03*
%TD*%
D20*
%TO.C,J11*%
X147860000Y-143280000D03*
D21*
X147860000Y-148280000D03*
X147860000Y-153280000D03*
%TD*%
D27*
%TO.C,R9*%
X172960000Y-183992500D03*
X172960000Y-182167500D03*
%TD*%
D28*
%TO.C,*%
X142160000Y-203280000D03*
%TD*%
D24*
%TO.C,J1*%
X292160000Y-187280000D03*
X292160000Y-182280000D03*
%TD*%
D16*
%TO.C,R46*%
X237560000Y-127067500D03*
X237560000Y-128892500D03*
%TD*%
D24*
%TO.C,J14*%
X160660000Y-57980000D03*
X155660000Y-57980000D03*
%TD*%
D20*
%TO.C,J9*%
X291660000Y-122192500D03*
D21*
X291660000Y-127192500D03*
X291660000Y-132192500D03*
%TD*%
D14*
%TO.C,R28*%
X152235000Y-180980000D03*
X154060000Y-180980000D03*
%TD*%
%TO.C,R38*%
X160860000Y-157380000D03*
X162685000Y-157380000D03*
%TD*%
D10*
%TO.C,J3*%
X232360000Y-126505000D03*
D11*
X232360000Y-129045000D03*
X232360000Y-131585000D03*
X232360000Y-134125000D03*
X232360000Y-136665000D03*
X232360000Y-139205000D03*
X232360000Y-141745000D03*
X232360000Y-144285000D03*
X232360000Y-146825000D03*
X232360000Y-149365000D03*
X232360000Y-151905000D03*
X232360000Y-154445000D03*
X232360000Y-156985000D03*
X232360000Y-159525000D03*
X232360000Y-162065000D03*
%TD*%
D16*
%TO.C,R35*%
X213360000Y-190555000D03*
X213360000Y-192380000D03*
%TD*%
D10*
%TO.C,J2*%
X206360000Y-126505000D03*
D11*
X206360000Y-129045000D03*
X206360000Y-131585000D03*
X206360000Y-134125000D03*
X206360000Y-136665000D03*
X206360000Y-139205000D03*
X206360000Y-141745000D03*
X206360000Y-144285000D03*
X206360000Y-146825000D03*
X206360000Y-149365000D03*
X206360000Y-151905000D03*
X206360000Y-154445000D03*
X206360000Y-156985000D03*
X206360000Y-159525000D03*
X206360000Y-162065000D03*
%TD*%
D16*
%TO.C,R33*%
X198160000Y-190667500D03*
X198160000Y-192492500D03*
%TD*%
D37*
%TO.C,D7*%
X200260000Y-88380000D03*
X204360000Y-88380000D03*
%TD*%
D27*
%TO.C,R11*%
X188160000Y-183892500D03*
X188160000Y-182067500D03*
%TD*%
D23*
%TO.C,C5*%
X218160000Y-187080000D03*
X220060000Y-187080000D03*
%TD*%
D24*
%TO.C,J15*%
X240860000Y-57980000D03*
X235860000Y-57980000D03*
%TD*%
D29*
%TO.C,R39*%
X156485000Y-143180000D03*
X154660000Y-143180000D03*
%TD*%
D37*
%TO.C,D4*%
X160060000Y-88280000D03*
X164160000Y-88280000D03*
%TD*%
D27*
%TO.C,R12*%
X203260000Y-192492500D03*
X203260000Y-190667500D03*
%TD*%
D24*
%TO.C,J12*%
X220760000Y-57980000D03*
X215760000Y-57980000D03*
%TD*%
D27*
%TO.C,R8*%
X173060000Y-192592500D03*
X173060000Y-190767500D03*
%TD*%
D29*
%TO.C,R48*%
X193072500Y-94180000D03*
X191247500Y-94180000D03*
%TD*%
D31*
%TO.C,C11*%
X161160000Y-148480000D03*
X161160000Y-150380000D03*
%TD*%
D34*
%TO.C,Q13*%
X173210000Y-88180000D03*
X171310000Y-88180000D03*
X172260000Y-90380000D03*
%TD*%
%TO.C,Q12*%
X234560000Y-88180000D03*
X232660000Y-88180000D03*
X233610000Y-90380000D03*
%TD*%
D29*
%TO.C,R37*%
X156872500Y-160880000D03*
X155047500Y-160880000D03*
%TD*%
D17*
%TO.C,K3*%
X152160000Y-81380000D03*
D18*
X164160000Y-81380000D03*
D19*
X158160000Y-83380000D03*
D18*
X152160000Y-69180000D03*
X164160000Y-69180000D03*
%TD*%
D27*
%TO.C,R6*%
X158160000Y-192705000D03*
X158160000Y-190880000D03*
%TD*%
%TO.C,R1*%
X182560000Y-132317500D03*
X182560000Y-130492500D03*
%TD*%
D15*
%TO.C,Q6*%
X214510000Y-185142500D03*
X212610000Y-185142500D03*
X213560000Y-187017500D03*
%TD*%
D34*
%TO.C,Q10*%
X275110000Y-88380000D03*
X273210000Y-88380000D03*
X274160000Y-90580000D03*
%TD*%
D14*
%TO.C,R32*%
X182147500Y-180580000D03*
X183972500Y-180580000D03*
%TD*%
D24*
%TO.C,J17*%
X200760000Y-57980000D03*
X195760000Y-57980000D03*
%TD*%
D16*
%TO.C,R5*%
X285160000Y-126367500D03*
X285160000Y-128192500D03*
%TD*%
D29*
%TO.C,R45*%
X173172500Y-94280000D03*
X171347500Y-94280000D03*
%TD*%
%TO.C,R41*%
X214272500Y-93280000D03*
X212447500Y-93280000D03*
%TD*%
D14*
%TO.C,R24*%
X155747500Y-129780000D03*
X157572500Y-129780000D03*
%TD*%
%TO.C,R23*%
X154747500Y-148480000D03*
X156572500Y-148480000D03*
%TD*%
%TO.C,R36*%
X212660000Y-180280000D03*
X214485000Y-180280000D03*
%TD*%
D31*
%TO.C,C12*%
X160660000Y-129830000D03*
X160660000Y-131730000D03*
%TD*%
D27*
%TO.C,R2*%
X164160000Y-131692500D03*
X164160000Y-129867500D03*
%TD*%
D37*
%TO.C,D8*%
X260460000Y-89780000D03*
X264560000Y-89780000D03*
%TD*%
D34*
%TO.C,Q14*%
X193210000Y-87780000D03*
X191310000Y-87780000D03*
X192260000Y-89980000D03*
%TD*%
D16*
%TO.C,R29*%
X168260000Y-190867500D03*
X168260000Y-192692500D03*
%TD*%
M02*
