%TF.GenerationSoftware,KiCad,Pcbnew,(6.0.7)*%
%TF.CreationDate,2022-11-01T14:31:25-03:00*%
%TF.ProjectId,PCB_Prototipo_Proyecto_Final,5043425f-5072-46f7-946f-7469706f5f50,rev?*%
%TF.SameCoordinates,PX7e4946aPYc6a19c0*%
%TF.FileFunction,Copper,L1,Top*%
%TF.FilePolarity,Positive*%
%FSLAX46Y46*%
G04 Gerber Fmt 4.6, Leading zero omitted, Abs format (unit mm)*
G04 Created by KiCad (PCBNEW (6.0.7)) date 2022-11-01 14:31:25*
%MOMM*%
%LPD*%
G01*
G04 APERTURE LIST*
%TA.AperFunction,Profile*%
%ADD10C,0.100000*%
%TD*%
%TA.AperFunction,ComponentPad*%
%ADD11R,1.700000X1.700000*%
%TD*%
%TA.AperFunction,ComponentPad*%
%ADD12C,1.980000*%
%TD*%
%TA.AperFunction,ComponentPad*%
%ADD13R,2.000000X2.000000*%
%TD*%
%TA.AperFunction,ComponentPad*%
%ADD14C,1.600000*%
%TD*%
%TA.AperFunction,ComponentPad*%
%ADD15C,7.000000*%
%TD*%
%TA.AperFunction,ComponentPad*%
%ADD16R,1.600000X1.600000*%
%TD*%
%TA.AperFunction,ComponentPad*%
%ADD17O,1.700000X1.700000*%
%TD*%
%TA.AperFunction,ComponentPad*%
%ADD18O,1.600000X1.600000*%
%TD*%
G04 APERTURE END LIST*
D10*
X0Y0D02*
X165100000Y0D01*
X165100000Y0D02*
X165100000Y154940000D01*
X165100000Y154940000D02*
X0Y154940000D01*
X0Y154940000D02*
X0Y0D01*
D11*
%TO.P,K5,A1*%
%TO.N,+5V*%
X118100000Y126900000D03*
D12*
%TO.P,K5,A2*%
%TO.N,Net-(D6-Pad2)*%
X130100000Y126900000D03*
%TO.P,K5,COM*%
%TO.N,Net-(J16-Pad2)*%
X124100000Y124900000D03*
%TO.P,K5,NC*%
%TO.N,unconnected-(K5-PadNC)*%
X118100000Y139100000D03*
%TO.P,K5,NO*%
%TO.N,Net-(J16-Pad1)*%
X130100000Y139100000D03*
%TD*%
D11*
%TO.P,J6,1,Pin_1*%
%TO.N,+3.3V*%
X154999286Y57010000D03*
D12*
%TO.P,J6,2,Pin_2*%
%TO.N,/Entradas/SensorTDS*%
X154999286Y62010000D03*
%TO.P,J6,3,Pin_3*%
%TO.N,GND*%
X154999286Y67010000D03*
%TD*%
D11*
%TO.P,J23,1,Pin_1*%
%TO.N,+3.3V*%
X68829286Y29130000D03*
%TD*%
D13*
%TO.P,C15,1*%
%TO.N,+5V*%
X114474286Y24854823D03*
D14*
%TO.P,C15,2*%
%TO.N,GND*%
X114474286Y29854823D03*
%TD*%
D12*
%TO.P,J16,1,Pin_1*%
%TO.N,Net-(J16-Pad1)*%
X126639286Y150270000D03*
%TO.P,J16,2,Pin_2*%
%TO.N,Net-(J16-Pad2)*%
X121639286Y150270000D03*
%TD*%
D15*
%TO.P,,1*%
%TO.N,N/C*%
X5080000Y149860000D03*
%TD*%
D11*
%TO.P,J33,1,Pin_1*%
%TO.N,GND*%
X120309286Y119634000D03*
%TD*%
%TO.P,J46,1,Pin_1*%
%TO.N,GND*%
X146200000Y105800000D03*
%TD*%
%TO.P,J40,1,Pin_1*%
%TO.N,GND*%
X18629286Y15330000D03*
%TD*%
D16*
%TO.P,C18,1*%
%TO.N,+3.3V*%
X99139286Y26289775D03*
D14*
%TO.P,C18,2*%
%TO.N,GND*%
X99139286Y28289775D03*
%TD*%
D15*
%TO.P,,1*%
%TO.N,N/C*%
X5000000Y5300000D03*
%TD*%
D16*
%TO.P,IC1,1,OFF_SET_N1*%
%TO.N,unconnected-(IC1-Pad1)*%
X32909286Y87070000D03*
D12*
%TO.P,IC1,2,IN-*%
%TO.N,Net-(IC1-Pad2)*%
X32909286Y84530000D03*
%TO.P,IC1,3,IN+*%
%TO.N,Net-(IC1-Pad3)*%
X32909286Y81990000D03*
%TO.P,IC1,4,VCC-*%
%TO.N,GND*%
X32909286Y79450000D03*
%TO.P,IC1,5,OFFSET_N2*%
%TO.N,unconnected-(IC1-Pad5)*%
X40849286Y79450000D03*
%TO.P,IC1,6,OUT*%
%TO.N,Net-(IC1-Pad2)*%
X40849286Y81990000D03*
%TO.P,IC1,7,VCC+*%
%TO.N,+5V*%
X40849286Y84530000D03*
%TO.P,IC1,8,NC*%
%TO.N,unconnected-(IC1-Pad8)*%
X40849286Y87070000D03*
%TD*%
D11*
%TO.P,K1,A1*%
%TO.N,+5V*%
X77900000Y127012500D03*
D12*
%TO.P,K1,A2*%
%TO.N,Net-(D2-Pad2)*%
X89900000Y127012500D03*
%TO.P,K1,COM*%
%TO.N,Net-(J12-Pad2)*%
X83900000Y125012500D03*
%TO.P,K1,NC*%
%TO.N,unconnected-(K1-PadNC)*%
X77900000Y139212500D03*
%TO.P,K1,NO*%
%TO.N,Net-(J12-Pad1)*%
X89900000Y139212500D03*
%TD*%
D11*
%TO.P,J32,1,Pin_1*%
%TO.N,GND*%
X60049286Y119530000D03*
%TD*%
D13*
%TO.P,C14,1*%
%TO.N,/Fuentes/VIN_24V*%
X143339286Y22567677D03*
D14*
%TO.P,C14,2*%
%TO.N,GND*%
X143339286Y17567677D03*
%TD*%
D11*
%TO.P,J34,1,Pin_1*%
%TO.N,GND*%
X99735286Y94996000D03*
%TD*%
%TO.P,K2,A1*%
%TO.N,+5V*%
X17400000Y127312500D03*
D12*
%TO.P,K2,A2*%
%TO.N,Net-(D3-Pad2)*%
X29400000Y127312500D03*
%TO.P,K2,COM*%
%TO.N,Net-(J13-Pad2)*%
X23400000Y125312500D03*
%TO.P,K2,NC*%
%TO.N,unconnected-(K2-PadNC)*%
X17400000Y139512500D03*
%TO.P,K2,NO*%
%TO.N,Net-(J13-Pad1)*%
X29400000Y139512500D03*
%TD*%
D11*
%TO.P,J29,1,Pin_1*%
%TO.N,+3.3V*%
X18979286Y48810000D03*
%TD*%
%TO.P,J19,1,Pin_1*%
%TO.N,+3.3V*%
X18963286Y93218000D03*
%TD*%
%TO.P,J10,1,Pin_1*%
%TO.N,GND*%
X18649286Y8120000D03*
D17*
%TO.P,J10,2,Pin_2*%
%TO.N,/Entradas/SensorNivel_5*%
X23649286Y8120000D03*
%TO.P,J10,3,Pin_3*%
%TO.N,+5V*%
X28649286Y8120000D03*
%TO.P,J10,4,Pin_4*%
%TO.N,GND*%
X33649286Y8120000D03*
%TO.P,J10,5,Pin_5*%
%TO.N,/Entradas/SensorNivel_4*%
X38649286Y8120000D03*
%TO.P,J10,6,Pin_6*%
%TO.N,+5V*%
X43649286Y8120000D03*
%TO.P,J10,7,Pin_7*%
%TO.N,GND*%
X48649286Y8120000D03*
%TO.P,J10,8,Pin_8*%
%TO.N,/Entradas/SensorNivel_3*%
X53649286Y8120000D03*
%TO.P,J10,9,Pin_9*%
%TO.N,+5V*%
X58649286Y8120000D03*
D12*
%TO.P,J10,10,Pin_10*%
%TO.N,GND*%
X63649286Y8120000D03*
%TO.P,J10,11,Pin_11*%
%TO.N,/Entradas/SensorNivel_2*%
X68649286Y8120000D03*
%TO.P,J10,12,Pin_12*%
%TO.N,+5V*%
X73649286Y8120000D03*
%TO.P,J10,13,Pin_13*%
%TO.N,GND*%
X78649286Y8120000D03*
%TO.P,J10,14,Pin_14*%
%TO.N,/Entradas/SensorNivel_1*%
X83649286Y8120000D03*
%TO.P,J10,15,Pin_15*%
%TO.N,+5V*%
X88649286Y8120000D03*
%TD*%
D11*
%TO.P,J5,1,Pin_1*%
%TO.N,+5V*%
X9489286Y47450000D03*
D12*
%TO.P,J5,2,Pin_2*%
%TO.N,/Entradas/SensorCO2*%
X9489286Y42450000D03*
%TO.P,J5,3,Pin_3*%
%TO.N,GND*%
X9489286Y37450000D03*
%TD*%
D11*
%TO.P,J35,1,Pin_1*%
%TO.N,GND*%
X100243286Y119634000D03*
%TD*%
%TO.P,J26,1,Pin_1*%
%TO.N,GND*%
X78529286Y15130000D03*
%TD*%
%TO.P,J21,1,Pin_1*%
%TO.N,GND*%
X108700000Y99000000D03*
D17*
%TO.P,J21,2,Pin_2*%
X108700000Y101540000D03*
%TO.P,J21,3,Pin_3*%
X111240000Y99000000D03*
%TO.P,J21,4,Pin_4*%
X111240000Y101540000D03*
%TO.P,J21,5,Pin_5*%
X113780000Y99000000D03*
%TO.P,J21,6,Pin_6*%
X113780000Y101540000D03*
%TO.P,J21,7,Pin_7*%
X116320000Y99000000D03*
%TO.P,J21,8,Pin_8*%
X116320000Y101540000D03*
%TO.P,J21,9,Pin_9*%
X118860000Y99000000D03*
%TO.P,J21,10,Pin_10*%
X118860000Y101540000D03*
%TO.P,J21,11,Pin_11*%
X121400000Y99000000D03*
%TO.P,J21,12,Pin_12*%
X121400000Y101540000D03*
%TD*%
D11*
%TO.P,K7,A1*%
%TO.N,+5V*%
X37400000Y127112500D03*
D12*
%TO.P,K7,A2*%
%TO.N,Net-(D8-Pad2)*%
X49400000Y127112500D03*
%TO.P,K7,COM*%
%TO.N,Net-(J18-Pad2)*%
X43400000Y125112500D03*
%TO.P,K7,NC*%
%TO.N,unconnected-(K7-PadNC)*%
X37400000Y139312500D03*
%TO.P,K7,NO*%
%TO.N,Net-(J18-Pad1)*%
X49400000Y139312500D03*
%TD*%
D11*
%TO.P,J20,1,Pin_1*%
%TO.N,+3.3V*%
X118277286Y41402000D03*
D17*
%TO.P,J20,2,Pin_2*%
X118277286Y43942000D03*
%TO.P,J20,3,Pin_3*%
X120817286Y41402000D03*
%TO.P,J20,4,Pin_4*%
X120817286Y43942000D03*
%TO.P,J20,5,Pin_5*%
X123357286Y41402000D03*
%TO.P,J20,6,Pin_6*%
X123357286Y43942000D03*
%TO.P,J20,7,Pin_7*%
X125897286Y41402000D03*
%TO.P,J20,8,Pin_8*%
X125897286Y43942000D03*
%TD*%
D11*
%TO.P,J8,1,Pin_1*%
%TO.N,+3.3V*%
X154869286Y37630000D03*
D12*
%TO.P,J8,2,Pin_2*%
%TO.N,/Entradas/SensorIlum*%
X154869286Y42630000D03*
%TO.P,J8,3,Pin_3*%
%TO.N,GND*%
X154869286Y47630000D03*
%TD*%
D11*
%TO.P,K6,A1*%
%TO.N,+5V*%
X98300000Y126912500D03*
D12*
%TO.P,K6,A2*%
%TO.N,Net-(D7-Pad2)*%
X110300000Y126912500D03*
%TO.P,K6,COM*%
%TO.N,Net-(J17-Pad2)*%
X104300000Y124912500D03*
%TO.P,K6,NC*%
%TO.N,unconnected-(K6-PadNC)*%
X98300000Y139112500D03*
%TO.P,K6,NO*%
%TO.N,Net-(J17-Pad1)*%
X110300000Y139112500D03*
%TD*%
D11*
%TO.P,J37,1,Pin_1*%
%TO.N,GND*%
X63729286Y15230000D03*
%TD*%
%TO.P,J24,1,Pin_1*%
%TO.N,GND*%
X19079286Y74780000D03*
%TD*%
D12*
%TO.P,J18,1,Pin_1*%
%TO.N,Net-(J18-Pad1)*%
X46219286Y150210000D03*
%TO.P,J18,2,Pin_2*%
%TO.N,Net-(J18-Pad2)*%
X41219286Y150210000D03*
%TD*%
D14*
%TO.P,L1,1,1*%
%TO.N,Net-(D1-Pad1)*%
X116874286Y9722500D03*
%TO.P,L1,2,2*%
%TO.N,+5V*%
X111874286Y9722500D03*
%TD*%
D15*
%TO.P,,1*%
%TO.N,N/C*%
X159933286Y150114000D03*
%TD*%
D16*
%TO.P,U3,1,SCL*%
%TO.N,/Microcontrolador/MCP23008_SCL*%
X73065286Y95200000D03*
D18*
%TO.P,U3,2,SDA*%
%TO.N,/Microcontrolador/MCP23008_SDA*%
X75605286Y95200000D03*
%TO.P,U3,3,A2*%
%TO.N,GND*%
X78145286Y95200000D03*
%TO.P,U3,4,A1*%
X80685286Y95200000D03*
%TO.P,U3,5,A0*%
X83225286Y95200000D03*
%TO.P,U3,6,~{RESET}*%
%TO.N,/Microcontrolador/MCP23008_RESET*%
X85765286Y95200000D03*
%TO.P,U3,7,NC*%
%TO.N,unconnected-(U3-Pad7)*%
X88305286Y95200000D03*
%TO.P,U3,8,INT*%
%TO.N,unconnected-(U3-Pad8)*%
X90845286Y95200000D03*
%TO.P,U3,9,VSS*%
%TO.N,GND*%
X93385286Y95200000D03*
%TO.P,U3,10,GP0*%
%TO.N,/Microcontrolador/Rele_1*%
X93385286Y102820000D03*
%TO.P,U3,11,GP1*%
%TO.N,/Microcontrolador/Rele_2*%
X90845286Y102820000D03*
%TO.P,U3,12,GP2*%
%TO.N,/Microcontrolador/Rele_3*%
X88305286Y102820000D03*
%TO.P,U3,13,GP3*%
%TO.N,/Microcontrolador/Rele_4*%
X85765286Y102820000D03*
%TO.P,U3,14,GP4*%
%TO.N,/Microcontrolador/Rele_5*%
X83225286Y102820000D03*
%TO.P,U3,15,GP5*%
%TO.N,/Microcontrolador/Rele_6*%
X80685286Y102820000D03*
%TO.P,U3,16,GP6*%
%TO.N,/Microcontrolador/Rele_7*%
X78145286Y102820000D03*
%TO.P,U3,17,GP7*%
%TO.N,/Microcontrolador/Trigger__pH*%
X75605286Y102820000D03*
%TO.P,U3,18,VDD*%
%TO.N,+3.3V*%
X73065286Y102820000D03*
%TD*%
D11*
%TO.P,K4,A1*%
%TO.N,+5V*%
X57700000Y127112500D03*
D12*
%TO.P,K4,A2*%
%TO.N,Net-(D5-Pad2)*%
X69700000Y127112500D03*
%TO.P,K4,COM*%
%TO.N,Net-(J15-Pad2)*%
X63700000Y125112500D03*
%TO.P,K4,NC*%
%TO.N,unconnected-(K4-PadNC)*%
X57700000Y139312500D03*
%TO.P,K4,NO*%
%TO.N,Net-(J15-Pad1)*%
X69700000Y139312500D03*
%TD*%
D11*
%TO.P,J45,1,Pin_1*%
%TO.N,+3.3V*%
X23535286Y30226000D03*
%TD*%
D16*
%TO.P,C19,1*%
%TO.N,+3.3V*%
X62239286Y102000000D03*
D14*
%TO.P,C19,2*%
%TO.N,GND*%
X60239286Y102000000D03*
%TD*%
D11*
%TO.P,J38,1,Pin_1*%
%TO.N,GND*%
X48629286Y15330000D03*
%TD*%
D12*
%TO.P,J4,1,Pin_1*%
%TO.N,+5V*%
X9429286Y89730000D03*
%TO.P,J4,2,Pin_2*%
%TO.N,/Entradas/Trigger_pH*%
X9429286Y84730000D03*
%TO.P,J4,3,Pin_3*%
%TO.N,/Entradas/SensorpH*%
X9429286Y79730000D03*
%TO.P,J4,4,Pin_4*%
%TO.N,GND*%
X9429286Y74730000D03*
%TD*%
D16*
%TO.P,C17,1*%
%TO.N,+5V*%
X105139286Y26344887D03*
D14*
%TO.P,C17,2*%
%TO.N,GND*%
X105139286Y28344887D03*
%TD*%
D11*
%TO.P,J22,1,Pin_1*%
%TO.N,+3.3V*%
X83529286Y28630000D03*
%TD*%
D12*
%TO.P,J13,1,Pin_1*%
%TO.N,Net-(J13-Pad1)*%
X26299286Y150260000D03*
%TO.P,J13,2,Pin_2*%
%TO.N,Net-(J13-Pad2)*%
X21299286Y150260000D03*
%TD*%
D11*
%TO.P,J7,1,Pin_1*%
%TO.N,+3.3V*%
X155159286Y95820000D03*
D12*
%TO.P,J7,2,Pin_2*%
%TO.N,/Entradas/SensorTempSumerg*%
X155159286Y100820000D03*
%TO.P,J7,3,Pin_3*%
%TO.N,GND*%
X155159286Y105820000D03*
%TD*%
D11*
%TO.P,J30,1,Pin_1*%
%TO.N,GND*%
X79669286Y119634000D03*
%TD*%
%TO.P,J11,1,Pin_1*%
%TO.N,+5V*%
X9399286Y65670000D03*
D12*
%TO.P,J11,2,Pin_2*%
%TO.N,/Entradas/SensorFlujo*%
X9399286Y60670000D03*
%TO.P,J11,3,Pin_3*%
%TO.N,GND*%
X9399286Y55670000D03*
%TD*%
%TO.P,J1,1,Pin_1*%
%TO.N,/Fuentes/VIN_24V*%
X154829286Y23240000D03*
%TO.P,J1,2,Pin_2*%
%TO.N,GND*%
X154829286Y18240000D03*
%TD*%
%TO.P,J14,1,Pin_1*%
%TO.N,Net-(J14-Pad1)*%
X146559286Y150210000D03*
%TO.P,J14,2,Pin_2*%
%TO.N,Net-(J14-Pad2)*%
X141559286Y150210000D03*
%TD*%
D11*
%TO.P,J9,1,Pin_1*%
%TO.N,GND*%
X155069286Y76770000D03*
D12*
%TO.P,J9,2,Pin_2*%
%TO.N,/Entradas/SensorTempHum*%
X155069286Y81770000D03*
%TO.P,J9,3,Pin_3*%
%TO.N,+3.3V*%
X155069286Y86770000D03*
%TD*%
D11*
%TO.P,J3,1,Pin_1*%
%TO.N,/Microcontrolador/MCP23008_RESET*%
X95899286Y81770000D03*
D17*
%TO.P,J3,2,Pin_2*%
%TO.N,/Microcontrolador/MCP23008_SCL*%
X95899286Y79230000D03*
%TO.P,J3,3,Pin_3*%
%TO.N,unconnected-(J3-Pad3)*%
X95899286Y76690000D03*
%TO.P,J3,4,Pin_4*%
%TO.N,unconnected-(J3-Pad4)*%
X95899286Y74150000D03*
%TO.P,J3,5,Pin_5*%
%TO.N,/Microcontrolador/MCP23008_SDA*%
X95899286Y71610000D03*
%TO.P,J3,6,Pin_6*%
%TO.N,unconnected-(J3-Pad6)*%
X95899286Y69070000D03*
%TO.P,J3,7,Pin_7*%
%TO.N,/Entradas/Data_SensorTempSumerg*%
X95899286Y66530000D03*
%TO.P,J3,8,Pin_8*%
%TO.N,unconnected-(J3-Pad8)*%
X95899286Y63990000D03*
%TO.P,J3,9,Pin_9*%
%TO.N,unconnected-(J3-Pad9)*%
X95899286Y61450000D03*
%TO.P,J3,10,Pin_10*%
%TO.N,unconnected-(J3-Pad10)*%
X95899286Y58910000D03*
%TO.P,J3,11,Pin_11*%
%TO.N,/Entradas/Data_SensorTempHum*%
X95899286Y56370000D03*
%TO.P,J3,12,Pin_12*%
%TO.N,/Entradas/TDS_Analog*%
X95899286Y53830000D03*
%TO.P,J3,13,Pin_13*%
%TO.N,/Entradas/Ilum_Analog*%
X95899286Y51290000D03*
%TO.P,J3,14,Pin_14*%
%TO.N,GND*%
X95899286Y48750000D03*
%TO.P,J3,15,Pin_15*%
%TO.N,+3.3V*%
X95899286Y46210000D03*
%TD*%
D11*
%TO.P,J2,1,Pin_1*%
%TO.N,unconnected-(J2-Pad1)*%
X69900000Y81775000D03*
D17*
%TO.P,J2,2,Pin_2*%
%TO.N,/Entradas/pH_Analog*%
X69900000Y79235000D03*
%TO.P,J2,3,Pin_3*%
%TO.N,unconnected-(J2-Pad3)*%
X69900000Y76695000D03*
%TO.P,J2,4,Pin_4*%
%TO.N,unconnected-(J2-Pad4)*%
X69900000Y74155000D03*
%TO.P,J2,5,Pin_5*%
%TO.N,unconnected-(J2-Pad5)*%
X69900000Y71615000D03*
%TO.P,J2,6,Pin_6*%
%TO.N,/Microcontrolador/SensorFlujo*%
X69900000Y69075000D03*
%TO.P,J2,7,Pin_7*%
%TO.N,/Microcontrolador/SensorCO2*%
X69900000Y66535000D03*
%TO.P,J2,8,Pin_8*%
%TO.N,/Microcontrolador/SensorNivel_5*%
X69900000Y63995000D03*
%TO.P,J2,9,Pin_9*%
%TO.N,/Microcontrolador/SensorNivel_4*%
X69900000Y61455000D03*
%TO.P,J2,10,Pin_10*%
%TO.N,/Microcontrolador/SensorNivel_3*%
X69900000Y58915000D03*
%TO.P,J2,11,Pin_11*%
%TO.N,/Microcontrolador/SensorNivel_2*%
X69900000Y56375000D03*
%TO.P,J2,12,Pin_12*%
%TO.N,/Microcontrolador/SensorNivel_1*%
X69900000Y53835000D03*
%TO.P,J2,13,Pin_13*%
%TO.N,unconnected-(J2-Pad13)*%
X69900000Y51295000D03*
%TO.P,J2,14,Pin_14*%
%TO.N,GND*%
X69900000Y48755000D03*
%TO.P,J2,15,Pin_15*%
%TO.N,unconnected-(J2-Pad15)*%
X69900000Y46215000D03*
%TD*%
D11*
%TO.P,J41,1,Pin_1*%
%TO.N,GND*%
X19059286Y36090000D03*
%TD*%
%TO.P,J42,1,Pin_1*%
%TO.N,GND*%
X19069286Y54750000D03*
%TD*%
%TO.P,J28,1,Pin_1*%
%TO.N,+3.3V*%
X18999286Y68300000D03*
%TD*%
%TO.P,J39,1,Pin_1*%
%TO.N,GND*%
X33629286Y15430000D03*
%TD*%
%TO.P,J36,1,Pin_1*%
%TO.N,GND*%
X39249286Y119480000D03*
%TD*%
D12*
%TO.P,J15,1,Pin_1*%
%TO.N,Net-(J15-Pad1)*%
X66329286Y150150000D03*
%TO.P,J15,2,Pin_2*%
%TO.N,Net-(J15-Pad2)*%
X61329286Y150150000D03*
%TD*%
%TO.P,J12,1,Pin_1*%
%TO.N,Net-(J12-Pad1)*%
X86489286Y150150000D03*
%TO.P,J12,2,Pin_2*%
%TO.N,Net-(J12-Pad2)*%
X81489286Y150150000D03*
%TD*%
D11*
%TO.P,J47,1,Pin_1*%
%TO.N,GND*%
X146200000Y77100000D03*
%TD*%
%TO.P,J25,1,Pin_1*%
%TO.N,+3.3V*%
X38729286Y30030000D03*
%TD*%
%TO.P,K3,A1*%
%TO.N,+5V*%
X138100000Y126900000D03*
D12*
%TO.P,K3,A2*%
%TO.N,Net-(D4-Pad2)*%
X150100000Y126900000D03*
%TO.P,K3,COM*%
%TO.N,Net-(J14-Pad2)*%
X144100000Y124900000D03*
%TO.P,K3,NC*%
%TO.N,unconnected-(K3-PadNC)*%
X138100000Y139100000D03*
%TO.P,K3,NO*%
%TO.N,Net-(J14-Pad1)*%
X150100000Y139100000D03*
%TD*%
D11*
%TO.P,J43,1,Pin_1*%
%TO.N,GND*%
X135519286Y7765000D03*
D12*
%TO.P,J43,2,Pin_2*%
X135519286Y10305000D03*
%TO.P,J43,3,Pin_3*%
X138059286Y7765000D03*
%TO.P,J43,4,Pin_4*%
X138059286Y10305000D03*
%TO.P,J43,5,Pin_5*%
X140599286Y7765000D03*
%TO.P,J43,6,Pin_6*%
X140599286Y10305000D03*
%TO.P,J43,7,Pin_7*%
X143139286Y7765000D03*
%TO.P,J43,8,Pin_8*%
X143139286Y10305000D03*
%TD*%
%TO.P,J17,1,Pin_1*%
%TO.N,Net-(J17-Pad1)*%
X106469286Y150150000D03*
%TO.P,J17,2,Pin_2*%
%TO.N,Net-(J17-Pad2)*%
X101469286Y150150000D03*
%TD*%
D11*
%TO.P,J31,1,Pin_1*%
%TO.N,GND*%
X140121286Y119634000D03*
%TD*%
%TO.P,J27,1,Pin_1*%
%TO.N,+3.3V*%
X53629286Y29030000D03*
%TD*%
%TO.P,J44,1,Pin_1*%
%TO.N,GND*%
X19471286Y119380000D03*
%TD*%
D15*
%TO.P,,1*%
%TO.N,N/C*%
X160100000Y5000000D03*
%TD*%
M02*
